<?xml version="1.0" encoding="UTF-8"?>
<svg width="506px" height="214px" viewBox="0 0 506 214" version="1.1" xmlns="http://www.w3.org/2000/svg" xmlns:xlink="http://www.w3.org/1999/xlink">
    <!-- Generator: Sketch 41 (35326) - http://www.bohemiancoding.com/sketch -->
    <title>Page 1</title>
    <desc>Created with Sketch.</desc>
    <defs></defs>
    <g id="Page-1" stroke="none" stroke-width="1" fill="none" fill-rule="evenodd">
        <g id="1170---Absolut-Extranet" transform="translate(-633.000000, -450.000000)">
            <g id="Page-1" transform="translate(632.500000, 450.000000)">
                <g id="Group-6" transform="translate(156.000000, 0.000000)" fill="#FEFEFE">
                    <path d="M141.876479,57.3856754 C142.385505,56.464823 142.684843,56.3850361 142.684843,56.3850361 L131.288739,56.3850361 C131.288739,56.3850361 131.756232,56.4846426 131.336856,57.761741 L126.422349,70.9946754 L126.418297,57.7160033 C126.424375,56.3921508 126.756635,56.3819869 126.756635,56.3819869 L116.050882,56.3819869 C116.050882,56.3819869 116.356804,56.4109541 116.398336,57.8552492 L116.398336,90.151659 C116.317297,91.7733148 116.040245,91.8129541 116.040245,91.8129541 L116.398336,91.8129541 L116.857726,91.8129541 L125.970557,91.8129541 L126.417791,91.8129541 L126.787531,91.8129541 C126.787531,91.8129541 126.503388,91.7753475 126.425388,90.0967738 L126.417791,90.125741 L126.417284,75.6985443 L131.020297,90.1963803 C131.362687,91.7367246 130.915453,91.8180361 130.915453,91.8180361 L131.731921,91.8180361 L131.729895,91.8129541 L141.673882,91.8129541 L141.673882,91.8180361 L142.212284,91.8180361 C142.212284,91.8180361 141.814181,91.6691344 141.229687,90.1008393 L141.237284,90.1298066 L134.715168,72.7875934 L141.876479,57.3856754 Z" id="Fill-1"></path>
                    <path d="M74.0185052,84.3955689 C71.4667909,84.3955689 70.9055961,79.1555525 70.9055961,73.9241754 C70.9055961,68.6922902 71.4667909,63.4512574 74.0185052,63.4512574 C76.569713,63.4512574 77.1309078,68.6922902 77.1309078,73.9241754 C77.1309078,79.1555525 76.569713,84.3955689 74.0185052,84.3955689 M74.0185052,55.6773721 C64.8575571,55.6773721 60.775726,62.9979459 60.775726,73.9241754 C60.775726,85.6996016 65.2804792,92.6466508 74.0185052,92.6466508 C82.3331026,92.6466508 87.4198169,85.2747492 87.4198169,73.9241754 C87.4198169,62.5730934 83.1804662,55.6773721 74.0185052,55.6773721" id="Fill-3"></path>
                    <path d="M99.0777779,84.5216016 L99.0777779,63.4431262 C102.592336,63.4431262 104.022674,69.056159 104.022674,74.0837492 C104.022674,79.110323 102.592336,84.5216016 99.0777779,84.5216016 M99.5751545,56.3751262 L90.0161026,56.3751262 L90.0176221,56.3664869 L89.201661,56.3664869 C89.201661,56.3664869 89.4716221,56.408159 89.556713,57.9744213 L89.556713,90.1107492 L89.552661,90.0970279 C89.475674,91.7750934 89.1920377,91.8132082 89.1920377,91.8132082 L89.556713,91.8132082 L90.0079987,91.8132082 L99.5751545,91.8132082 C111.63831,91.8132082 114.262453,82.0558311 114.262453,73.7640934 C114.262453,61.7955525 108.461077,56.3751262 99.5751545,56.3751262" id="Fill-5"></path>
                    <path d="M153.962123,79.6242623 L155.700409,68.1115738 L157.370318,79.6212131 L153.962123,79.6242623 Z M168.464045,90.4275082 L161.365032,57.533459 C161.224227,56.4596393 161.547877,56.3849344 161.547877,56.3849344 L149.952721,56.3869672 C149.952721,56.3869672 150.312838,56.4677705 150.139617,57.5939344 L142.504734,90.2618361 L142.541201,90.0966721 C142.5255,90.1754426 142.508786,90.2465902 142.492578,90.3172295 L142.469786,90.4087049 C142.134994,91.7472951 141.626981,91.8128525 141.626981,91.8128525 L152.514058,91.816918 C152.514058,91.816918 152.192435,91.7666066 152.301838,90.6567049 L152.959773,86.1225738 L158.304292,86.120541 L158.918162,90.5804754 C159.029084,91.7615246 158.693279,91.816918 158.693279,91.816918 L169.302292,91.8128525 C169.302292,91.8128525 168.799851,91.7472951 168.464045,90.4275082 L168.464045,90.4275082 Z" id="Fill-7"></path>
                    <path d="M51.5304468,56.4387525 C51.5304468,56.4387525 51.8956286,56.4565393 51.8348494,57.4185557 L48.3213039,78.5066869 L44.4481481,57.444982 C44.3742,56.4346869 44.7550831,56.4346869 44.7550831,56.4346869 L33.7591091,56.4346869 C33.7591091,56.4346869 33.9961481,56.4804246 34.2179922,56.9967525 L42.4307844,90.9326049 C42.6227455,91.8356705 42.1253688,91.9174902 42.1253688,91.9174902 L54.2128364,91.9174902 C54.2128364,91.9174902 53.8127065,91.8707361 53.9190701,91.0189984 L61.536226,57.163441 C61.7742779,56.4941459 62.0594338,56.4387525 62.0594338,56.4387525 L51.5304468,56.4387525 Z" id="Fill-9"></path>
                    <path d="M104.891614,29.1983918 C102.343445,29.1983918 101.782251,23.9639656 101.782251,18.7366541 C101.782251,13.5098508 102.343445,8.27542459 104.891614,8.27542459 C107.441809,8.27542459 108.000978,13.5098508 108.000978,18.7366541 C108.000978,23.9639656 107.441809,29.1983918 104.891614,29.1983918 M104.891614,0.508145902 C95.7402896,0.508145902 91.6620039,7.82160492 91.6620039,18.7366541 C91.6620039,30.5014082 96.1627052,37.442359 104.891614,37.442359 C113.199121,37.442359 118.280264,30.0770639 118.280264,18.7366541 C118.280264,7.39624426 114.044965,0.508145902 104.891614,0.508145902" id="Fill-11"></path>
                    <path d="M135.86587,28.3264279 L135.888662,28.3325262 L130.381558,28.3325262 L130.381558,2.96487049 C130.459558,1.29798525 130.741675,1.2588541 130.741675,1.2588541 L129.926221,1.2588541 L129.92774,1.26444426 L120.388948,1.26444426 L120.388948,1.27054262 L120.027818,1.27054262 C120.027818,1.27054262 120.309429,1.31018197 120.388948,2.97350984 L120.388948,35.0529197 C120.301831,36.5764934 120.035922,36.6176574 120.035922,36.6176574 L120.851883,36.6176574 L120.849857,36.6105426 L137.578325,36.6105426 L137.578325,28.7827885 L137.578325,28.3325262 L137.578325,27.9635754 C137.578325,27.9635754 137.538312,28.2486738 135.86587,28.3264279" id="Fill-14"></path>
                    <path d="M86.7431416,16.9473443 C84.1833234,14.5842295 79.0084792,11.9741311 80.6069727,9.69537705 C82.0292065,7.66818033 86.7213623,9.20903279 88.9301805,11.1300164 L88.9301805,2.60654098 L88.9301805,2.59434426 L88.9301805,1.78681967 C88.9301805,1.78681967 88.8273623,2.19591803 87.7708169,1.93572131 C86.5172455,1.34468852 84.2451156,0.569180328 80.937713,0.569180328 C74.3218948,0.569180328 70.3368039,4.5097377 70.3368039,10.6162295 C70.3368039,14.9211639 71.4303234,16.5250328 73.7860247,19.2260984 C75.865687,21.6110656 83.0335831,25.2121475 80.5092195,27.8293607 C79.2850247,29.0978197 76.3286221,29.9927541 70.3368039,25.2965082 L70.3368039,34.650377 L70.3368039,34.6742623 L70.3368039,35.469082 C70.3368039,35.469082 70.4689987,35.1087705 71.6698948,35.5925738 C73.0581935,36.4041639 75.473661,37.4596885 78.6665961,37.4596885 C86.8834403,37.4596885 90.9490636,32.5637213 90.9490636,24.9666885 C90.9490636,20.950918 88.6232455,18.6833443 86.7431416,16.9473443" id="Fill-16"></path>
                    <path d="M55.4318143,29.0045656 L54.556087,29.0045656 L54.556087,21.6280902 L55.4318143,21.6280902 C57.1873208,21.6280902 58.6105675,23.5546639 58.6105675,25.3160738 C58.6105675,27.0774836 57.1873208,29.0045656 55.4318143,29.0045656 L55.4318143,29.0045656 Z M54.5976195,8.43022131 L55.4318143,8.43022131 C57.0282818,8.43022131 58.3218662,10.2272049 58.3218662,11.8285328 C58.3218662,13.4293525 57.0282818,15.2263361 55.4318143,15.2263361 L54.5976195,15.2263361 L54.5976195,8.43022131 Z M61.2767494,18.2851721 C64.6889961,18.2013197 67.6074117,14.5753361 67.6074117,10.1687623 C67.6074117,4.64568033 63.4789831,1.30072951 56.1236844,1.26922131 L44.3309961,1.26617213 C44.3309961,1.26617213 44.6465416,1.33731967 44.7245416,3.01487705 L44.7123857,2.94118852 L44.7123857,34.9235328 L44.7220091,34.9011721 C44.6440091,36.5787295 44.3603727,36.6015984 44.3603727,36.6015984 L57.1979571,36.6082049 C65.1103987,36.6102377 68.8584506,32.7062705 68.8584506,26.8203361 C68.8584506,21.7952869 65.2304377,18.5677295 61.2767494,18.2851721 L61.2767494,18.2851721 Z" id="Fill-18"></path>
                    <path d="M28.9662623,24.4107213 L30.7050545,12.898541 L32.3749636,24.4081803 L28.9662623,24.4107213 Z M43.4691974,35.2139672 L36.3701844,2.38445902 C36.2288727,1.31114754 36.5530286,1.25270492 36.5530286,1.25270492 L24.9563532,1.25422951 C24.9563532,1.25422951 25.3174831,1.31877049 25.1442623,2.44493443 L17.5093792,35.0488033 L17.5453403,34.8836393 C17.529639,34.9619016 17.5134312,35.0330492 17.4967169,35.1036885 L17.4754442,35.1956721 C17.139639,36.5337541 16.6321325,36.6003279 16.6321325,36.6003279 L27.5187039,36.603377 C27.5187039,36.603377 27.197587,36.5525574 27.3064831,35.4426557 L27.9639117,30.9100492 L33.3094442,30.9085246 L33.9238208,35.3674426 C34.0347429,36.5474754 33.6979247,36.603377 33.6979247,36.603377 L44.3074442,36.6003279 C44.3074442,36.6003279 43.8044961,36.5332459 43.4691974,35.2139672 L43.4691974,35.2139672 Z" id="Fill-20"></path>
                    <path d="M153.066896,1.2624623 C153.066896,1.2624623 153.350532,1.30159344 153.427013,2.97864262 L153.443221,2.9196918 L153.44474,27.3461672 C153.44474,28.4880852 152.329442,29.4140197 150.954818,29.4140197 C149.580195,29.4140197 148.465403,28.4880852 148.465403,27.3466754 L148.458818,27.3461672 L148.458312,2.93087213 L148.470974,2.97965902 C148.548468,1.30210164 148.83261,1.26297049 148.83261,1.26297049 L138.118247,1.2624623 C138.118247,1.2624623 138.372506,1.30057705 138.466208,2.73674098 L138.474312,25.6289705 C138.474312,32.406282 142.260857,37.4232 150.70461,37.4232 C159.14887,37.4232 162.935416,32.406282 162.935416,25.6289705 L162.937948,2.89174098 L162.961247,2.97965902 C163.038234,1.30210164 163.32339,1.26297049 163.32339,1.26297049 L153.066896,1.2624623 Z" id="Fill-22"></path>
                    <path d="M185.950329,1.26048033 L164.362056,1.26048033 L164.366108,9.90744754 C164.366108,9.90744754 164.406121,9.62285738 166.078562,9.54459508 L166.054251,9.53849672 L170.159381,9.53849672 L170.159381,34.9122508 L170.156848,34.9010705 C170.078848,36.5786279 169.795212,36.617759 169.795212,36.617759 L180.509575,36.6121689 C180.509575,36.6121689 180.234549,36.5704967 180.153004,34.9691689 L180.153004,9.53849672 L184.29916,9.53849672 L184.230277,9.5567918 C185.900186,9.6350541 185.940199,9.91964426 185.940199,9.91964426 L185.950329,1.26048033 Z" id="Fill-24"></path>
                    <path d="M191.080044,0.924257377 C192.802629,0.924257377 194.201564,2.32637213 194.201564,4.05627377 C194.201564,5.78515902 192.802629,7.18727377 191.080044,7.18727377 C189.35594,7.18727377 187.958525,5.78515902 187.958525,4.05627377 C187.958525,2.32637213 189.35594,0.924257377 191.080044,0.924257377 L191.080044,0.558863934 C189.154862,0.558863934 187.594356,2.12461803 187.594356,4.05627377 C187.594356,5.98691311 189.154862,7.55317541 191.080044,7.55317541 C193.005226,7.55317541 194.564719,5.98691311 194.564719,4.05627377 C194.564719,2.12461803 193.005226,0.558863934 191.080044,0.558863934 L191.080044,0.924257377 Z" id="Fill-26"></path>
                    <path d="M190.361381,3.90493279 L190.361381,2.51247377 L191.143913,2.51247377 C191.812484,2.51247377 192.059147,2.75437541 192.059147,3.20870328 C192.059147,3.66303115 191.812484,3.90493279 191.143913,3.90493279 L190.361381,3.90493279 L190.361381,4.37908033 L191.135303,4.37908033 C191.152523,4.37908033 191.17177,4.37908033 191.189497,4.37857213 L192.092575,5.95042459 L192.715562,5.95042459 L191.772471,4.3053918 C192.288588,4.1666541 192.600082,3.77280164 192.600082,3.20870328 C192.600082,2.44488361 192.0789,2.03832623 191.135303,2.03832623 L189.779926,2.03832623 L189.779926,5.95042459 L190.361381,5.95042459 L190.361381,4.37908033 L190.361381,3.90493279 Z" id="Fill-28"></path>
                    <path d="M128.101274,54.2124443 C126.093027,55.4300836 122.926936,55.092641 120.965794,54.0157721 L121.471274,53.4155918 C124.505677,49.9949197 127.559832,46.5844115 130.968027,43.2110016 C131.575819,44.3818869 130.898638,46.1432967 130.390625,47.2775918 C130.483313,47.5113623 130.808988,47.5591328 130.949287,47.3716082 C132.067625,46.1321164 132.114729,43.9905754 131.553534,42.7241492 C132.905871,41.2945918 134.09917,39.9814115 135.38617,38.6895754 L135.692599,38.3053787 C135.085313,44.0683295 133.238131,50.7445098 128.101274,54.2124443 M120.382313,53.635641 C118.327469,52.183723 117.454781,49.5253459 117.967858,47.089559 C118.387742,44.981559 119.695508,42.747018 121.751365,41.7158869 C124.179495,40.4042311 128.869625,39.7628869 130.598287,42.6682475 L130.376443,42.9203131 C126.734248,46.4339852 123.931313,49.8866738 120.382313,53.635641 M139.122573,32.612559 C139.996274,33.2615262 137.865962,35.3283623 136.978586,36.265477 C137.306287,35.0000672 138.053871,32.6516902 139.122573,32.612559 M140.24243,32.2370016 C140.196339,31.9092148 139.870157,31.7216902 139.58956,31.6754443 C137.114326,32.0967393 136.67317,35.1652311 135.973196,37.0862148 L131.416781,41.889182 L131.166066,42.1702148 C129.127936,39.3243131 124.879975,39.4056246 122.077547,40.6715426 C119.556222,41.6549033 117.595079,44.2319689 117.174183,46.8562967 C116.5203,49.760641 117.702456,52.3661656 119.878858,54.1387557 C118.874482,55.4560016 116.805456,57.5883951 116.279209,58.2820836 L117.09517,58.3522148 L120.474495,54.5239689 C120.797638,54.8339689 122.450832,55.3828213 122.450832,55.3828213 C126.513923,56.4139525 130.435703,54.9142639 133.284729,52.1506902 C136.412832,48.9637885 136.82056,44.4200016 136.599729,39.9209361 C136.570352,39.3243131 136.637716,37.8053131 136.720781,37.6498049 C137.470391,36.2421 140.126443,34.7363131 140.24243,32.2370016" id="Fill-30"></path>
                    <path d="M175.258555,46.5544787 C176.599243,46.4513148 179.678723,44.8189869 180.172048,43.2283311 C180.172048,43.2283311 180.417697,42.5239705 179.787113,42.6804951 C179.798256,42.6784623 177.614762,43.3772328 175.72149,45.7901508 L175.258555,46.5544787 Z M161.187658,42.6992984 C161.196269,42.6967574 159.013282,43.3950197 157.121529,45.8089541 L156.657581,46.5727738 C157.997256,46.470118 161.077749,44.8377902 161.570568,43.2466262 C161.570568,43.2466262 161.816217,42.5427738 161.187658,42.6992984 L161.187658,42.6992984 Z M168.588542,42.4518066 C166.019606,44.1385115 164.220542,47.0022 162.965957,49.5253967 C162.591658,50.3344459 162.211282,51.2822328 162.844399,51.8692 C163.218697,52.150741 163.544879,51.8692 163.964256,51.6349213 C165.643282,50.3801836 169.817801,45.1711672 169.487061,42.7795934 C169.409061,42.3654131 169.005386,42.189577 168.588542,42.4518066 L168.588542,42.4518066 Z M188.760658,51.0728557 C188.526152,51.4987246 188.556035,51.9215443 188.929827,51.9215443 C190.096788,51.8270197 190.789165,50.6718885 191.683126,49.6336426 C191.823425,49.5868885 192.122256,49.6981836 192.122256,49.7916918 C191.332632,51.1114787 190.395113,52.3382656 188.947048,52.7595607 C188.248087,52.9003311 187.639788,52.5725443 187.3131,51.9632164 C186.509801,49.6864951 188.807256,47.3238885 190.301918,45.3093967 C190.863113,44.7473311 191.838113,43.6557246 191.745425,42.8588721 C191.232347,42.3903148 190.577957,42.9528885 190.110464,43.2339213 C186.842061,45.6234623 185.212165,49.5731672 182.877736,52.4785279 L180.490632,52.4785279 C181.750788,50.2470361 183.489074,47.8473311 184.843438,45.5512984 C185.310425,44.9419705 186.000775,43.8900033 186.000775,43.0931508 C185.721697,42.4843311 185.161009,42.9528885 184.833814,43.1404131 C182.660957,45.1152656 180.729191,47.5779869 178.565451,49.7937246 C178.565451,49.7937246 178.498087,49.8648721 178.479347,49.882659 L178.477321,49.880118 C176.795762,51.4641672 175.326425,53.3053639 173.086204,52.4317738 C172.571606,52.1974951 172.012944,51.6359377 171.919243,51.0261016 C171.917723,51.0215279 171.917723,51.0164459 171.915697,51.0113639 C171.053645,51.8112656 170.053321,52.6889213 168.867113,52.618282 C168.261853,52.5257902 167.567451,52.4317738 167.213918,51.4006426 C167.074632,50.8853311 167.006256,50.6373311 166.933827,49.8481016 C165.673165,51.0240689 163.994139,53.6534787 162.096814,52.4785279 C161.256035,51.7279213 161.092438,50.4396426 161.092438,49.3160197 L160.742957,49.6199213 C160.586957,49.732741 160.396516,49.880118 160.241022,50.004118 C158.546295,51.3599869 156.764451,53.3399213 154.48523,52.450577 C153.972152,52.2162984 153.410957,51.6537246 153.318269,51.0454131 C152.804684,49.2733311 154.083581,47.2634131 154.083581,47.2634131 L154.088139,47.255282 C153.458568,47.0103311 152.443555,46.4137082 152.011009,45.9913967 L151.777009,46.3405279 C150.28336,48.730577 148.789204,51.8224459 145.986269,52.7595607 C145.285788,52.9003311 144.679009,52.5725443 144.305217,52.150741 C143.678684,51.4291016 143.692866,50.6271672 143.569788,50.0417246 C142.262529,51.0261016 140.616425,53.4151344 138.748477,52.5725443 C138.187788,52.1974951 137.955308,51.5403967 137.955308,50.8853311 C138.046983,47.8869705 140.896516,46.012741 141.876581,43.341659 C141.969775,43.060118 141.853788,42.8085607 141.550905,42.7323311 C139.635347,42.9666098 138.147775,45.1584623 137.419438,46.1530033 C137.326243,46.1997574 137.020321,46.1530033 136.927126,46.0594951 C137.907697,44.1852656 139.960516,42.037118 142.063477,41.9359869 C142.759399,41.9009213 143.108879,42.2520852 143.184347,42.7795934 C143.604736,44.3605934 142.53097,45.5436754 141.924191,46.808577 C140.990217,48.4485279 139.238256,50.8009705 139.188619,51.7975443 C139.23623,52.0328393 139.449464,52.2442492 139.683464,52.2442492 C140.837762,52.1858066 142.451451,50.1271016 143.510529,48.823577 C144.960113,46.7623311 146.278516,44.2315115 147.539178,42.075741 C148.063905,42.037118 149.355464,42.0772656 149.699373,42.0528721 L149.161477,42.8792 C147.713918,45.643282 146.144295,48.1090525 145.165749,51.0809869 C144.871477,51.7975443 145.257931,52.2620361 145.800892,52.2213803 C147.535126,51.6765934 148.975594,49.9009541 149.768762,48.4017738 L151.123126,45.8719705 C151.123126,43.9037246 151.356619,41.8424787 153.037165,40.7645934 C153.551762,40.7183475 153.831853,41.2331508 153.692061,41.7484623 C153.644957,43.1073803 152.827983,44.3605934 152.358464,45.4501672 C153.004243,45.9929213 153.757399,46.3410361 154.488269,46.5961508 C155.771217,44.6741508 157.75971,42.2962984 160.882749,41.7205115 C161.443944,41.6737574 161.909918,41.8145279 162.237113,42.2830852 C162.85149,43.8625607 160.763723,45.4816754 159.411892,46.2302492 C158.565035,46.8156918 156.388632,47.3447246 156.380529,47.3823311 C156.309619,47.4529705 155.818321,48.2798066 155.513412,49.0304131 C155.139113,49.8262492 154.747594,51.306118 155.372606,51.8412492 C157.100762,52.450577 158.407516,50.6042984 159.715788,49.5253967 C162.424009,47.0438721 164.151152,42.9666098 167.934152,41.7952164 C168.584996,41.5207902 169.615204,41.2799049 170.174879,41.8892328 L170.39723,42.3466098 C172.167931,39.4346426 173.851516,36.2319869 175.546243,33.3149377 L177.571204,33.3622 L177.08649,34.2520525 L168.72884,49.7129213 C168.514087,50.2846426 168.261853,50.7445607 168.494334,51.3528721 C168.72884,51.8692 169.474905,51.9154459 169.895801,51.6349213 C170.804451,51.2121016 171.311451,50.6500361 171.813892,49.8150689 C171.920762,48.4495443 172.684555,47.2456262 172.684555,47.2456262 L173.033529,46.6596754 C174.314451,44.7239541 176.316619,42.2856262 179.484736,41.7027246 C180.043399,41.6554623 180.511399,41.7957246 180.838594,42.264282 C181.45297,43.8442656 179.365204,45.4633803 178.013373,46.2124623 C177.167022,46.7979049 174.990619,47.3259213 174.979983,47.3645443 C174.9111,47.4341672 174.419295,48.2610033 174.114386,49.0116098 C173.740594,49.8084623 173.349074,51.2883311 173.974594,51.8224459 C175.085334,52.5689869 176.617983,50.7415115 178.083775,49.3744623 C180.286009,47.1485607 182.136736,44.5293148 184.366827,42.6251016 C185.021217,42.1565443 185.814892,41.6874787 186.608061,41.9690197 C187.262957,42.4843311 187.126204,43.7634623 186.939308,44.6065607 L186.842061,44.8997902 C188.337736,43.6348885 190.437658,41.4537082 192.445905,41.7814951 C193.005581,42.2032984 193.005581,42.9996426 192.913905,43.6557246 C192.492503,46.3262984 190.068931,48.730577 188.760658,51.0728557 L188.760658,51.0728557 Z" id="Fill-32"></path>
                    <path d="M78.4629351,56.0864197 C77.1085714,58.5689607 75.5678182,61.0520098 73.5124675,63.2545344 C72.8585844,63.8176164 72.1064416,64.5072393 71.2190649,64.4609934 C70.7703117,64.4965672 70.2288701,64.2256984 70.1827792,63.7103869 C70.276987,61.3411738 72.3890649,59.3917311 74.3998442,57.9118623 C75.7562338,56.7643541 77.651026,55.568059 79.1705065,54.8636984 L78.4629351,56.0864197 Z M31.2212727,46.0048131 C31.0738831,46.1862393 30.3784675,45.2531902 29.7245844,45.6277311 C29.4986883,45.9910918 29.4601948,46.8418131 30.3333896,47.1792557 C30.3374416,47.2636164 29.6916623,48.4446656 29.3244545,48.9061082 C28.511026,50.0764852 27.5041169,51.2250098 26.3954026,51.8688951 C25.975013,52.0564197 25.3677273,52.1976984 25.041039,51.7281246 C24.8075455,51.4470918 25.041039,51.073059 25.041039,50.7442557 C26.4369351,47.8968295 28.3793377,45.1042885 30.5648571,42.6735836 C31.0156364,42.2695672 31.7044675,41.7822066 32.0453377,42.3112393 C32.7731688,42.8997311 32.3016234,44.4969934 31.2212727,46.0048131 L31.2212727,46.0048131 Z M15.3275065,35.5639115 C17.8498442,32.7993213 20.9318571,30.1287475 24.4803506,29.2856492 C25.1813377,29.2856492 26.0211039,29.2383869 26.3482987,29.9884852 C26.5118961,33.5255344 22.426013,35.2828787 19.9041818,37.1566 C17.6629481,38.4687639 14.9592857,39.6757311 12.2510649,39.7224852 C12.8932987,38.2405836 14.394039,36.9228295 15.3275065,35.5639115 L15.3275065,35.5639115 Z M89.5647662,47.1690918 L85.3269351,50.4637311 C84.8528571,50.7783049 83.6134675,51.7199934 83.0755714,52.072682 C84.4299351,49.3080918 86.7689221,45.3116328 88.2630779,42.641059 L88.5988831,42.0271574 C87.7793766,42.0017475 87.2374286,42.0530754 86.3140909,42.0139443 L83.3662987,47.1838295 C82.1051299,48.8237803 80.9442468,51.4857148 78.6564156,51.8135016 C78.3758182,51.7199934 78.2117143,51.4155836 78.3226364,51.073059 C79.3032078,48.5427475 81.9754675,46.6060098 82.2560649,43.7946656 C82.3482468,43.044059 82.2028831,42.207059 81.5550779,41.9199279 C79.1380909,41.2404689 76.7342727,45.1220754 75.2406234,46.9963049 C73.8396623,48.6840262 72.2984026,51.1187967 70.1042727,51.6346164 C69.7765714,51.4938459 69.7304805,51.1650426 69.7765714,50.8387803 C71.0716753,47.0024033 74.5168442,45.3624525 74.9934545,42.6395344 C74.8187143,40.5706656 72.5035325,42.1196492 71.8065974,41.4727148 C72.3282857,40.434977 73.5615974,39.5781574 73.5615974,38.2192393 C73.4678961,37.9387148 73.0951169,37.750682 72.7218312,37.8446984 C71.4140649,38.5942885 70.5727792,40.0934689 70.665974,41.7334197 C68.5184416,44.8263049 66.6515065,47.2127967 64.1732338,50.0414197 C63.3790519,50.6975016 62.5853766,51.5878623 61.5582078,51.4470918 C61.0917273,51.2595672 61.0917273,50.7442557 61.1378182,50.2756984 C61.2497532,47.9877967 63.7923506,44.9431902 65.7068961,41.6632885 C66.3896494,41.6632885 67.3818701,41.6841246 67.9537013,41.6754852 C68.0504416,41.4859279 68.1021039,41.3451574 68.2348052,40.9548623 C67.5236883,40.9579115 66.9979481,40.9579115 66.0898052,40.9553705 C66.7614156,39.7545016 68.5680779,36.8349115 69.1095195,35.6579279 C68.4551299,35.6111738 67.7511039,35.6045672 67.0217532,35.6513213 L63.7219481,40.9807803 C63.0341299,40.9924689 61.9988571,40.9833213 61.3935974,40.9802721 C61.3464935,41.1495016 61.1712468,41.3975016 61.0891948,41.6551574 L63.3253636,41.6516 L63.0042468,42.1730098 C60.6232208,45.8742066 59.7373636,48.4959934 56.0475584,51.4470918 C55.6276753,51.5878623 54.9469481,51.9156492 54.6668571,51.4003377 C54.5736623,51.1187967 54.5534026,50.7442557 54.7402987,50.5109934 C56.000961,48.355223 57.5427273,46.340223 58.1961039,43.9974361 C58.3156364,43.2280262 58.3364026,42.4047475 57.6354156,41.9361902 C55.5344805,41.1393377 53.9314286,43.4043705 52.5922597,44.3257311 C52.5097013,43.5095672 52.7791558,42.3579934 51.8451818,41.8421738 C51.2384026,41.561141 50.5105714,41.7674689 50.0709351,42.0764525 C46.8025325,44.5600098 45.4010649,48.1676984 42.3661558,50.9317803 C41.9452597,51.1187967 41.4782727,51.7281246 41.0578831,51.1650426 C41.8986623,47.8866656 43.9362857,45.2099934 45.5474416,42.1232066 C44.8935584,42.0764525 44.111026,42.1348951 43.4865195,42.1704689 C41.7117662,44.8877967 40.1244156,47.6523869 37.8360779,50.0881738 C37.2753896,50.7442557 36.4817143,51.6346164 35.5016494,51.6813705 C35.3142468,51.6813705 35.1739481,51.4470918 35.1739481,51.2128131 C36.389026,48.6362557 38.7700519,46.5745016 39.5171299,43.8104197 C39.6108312,43.2478459 39.6108312,42.4982557 39.0506494,42.1704689 C36.7420519,41.6963213 34.9237403,43.8409115 33.3242338,45.2287967 C32.8987792,45.5977475 32.7686104,45.7786656 32.3411299,45.8980918 C32.9924805,44.7388951 33.6331948,43.0603213 32.6526234,41.7486656 C31.9116234,40.8339115 29.5052727,42.1633541 28.6371429,42.8285836 C28.193961,43.0964033 27.731026,43.4917803 27.0487792,44.0446984 C23.2196883,48.0731738 19.2502987,52.6184852 13.5532597,52.7592557 C12.0125065,52.6662557 10.3780519,52.0101738 9.72416883,50.4637311 C8.8372987,47.0440754 9.96374026,43.6579607 11.7668571,40.7647967 C16.8095065,40.1554689 21.1648442,37.7191738 25.041039,34.3457639 C26.3954026,33.1743705 27.4686623,31.581682 27.2356753,29.7074525 C26.7220909,28.6763213 25.5546234,28.5355508 24.4803506,28.5823049 C18.1765325,29.6606984 12.2925974,34.2990098 8.8372987,39.9211902 C6.17516883,39.9679443 3.74703896,38.6562885 2.06598701,36.5010262 C0.991714286,35.0018459 1.22520779,32.4247803 2.06598701,30.8783377 C3.36514286,27.7417475 6.0525974,26.0215016 10.5183506,25.7699443 L10.4712468,25.4431738 C7.24893506,24.9746164 4.35432468,25.9122393 2.06598701,28.0675016 C0.524727273,29.8009607 -0.222350649,32.0502393 0.0577402597,34.4392721 C0.431532468,37.2506164 3.18635065,39.3591246 5.70818182,40.1087148 C6.54896104,40.4370098 7.51180519,40.6712885 8.41083117,40.7881738 C7.57055844,42.8026656 7.06254545,45.2155836 7.10964935,47.6523869 C7.34263636,49.7608951 8.13631169,52.137223 10.3780519,52.9787967 C15.3275065,54.5725016 19.6706883,51.9156492 23.4531818,49.3390918 C23.5625844,50.0764852 23.3133896,51.0263049 23.7332727,51.7758951 C24.1070649,52.478223 24.7609481,52.8060098 25.508026,52.8060098 C28.1301429,52.4080918 31.003987,47.3698295 31.3813247,47.1828131 C31.7758831,47.1223377 32.4773766,46.6298951 32.8997922,46.3361574 C34.8502987,44.9807967 35.7128571,43.6228951 37.6962857,42.8733049 C38.0224675,42.8733049 38.256974,43.2010918 38.1627662,43.5288787 C36.6215065,45.7781574 34.3336753,47.7469115 33.774,50.370223 C33.774,51.1650426 33.6802987,52.0101738 34.4734675,52.431977 C36.4817143,53.2278131 38.0695714,50.9500754 39.430013,49.6912721 C39.587026,50.6568459 39.1899351,51.8688951 40.171013,52.431977 C40.8243896,52.6662557 41.5714675,52.3521902 42.1792597,52.1168951 C45.2572208,49.6556984 46.8440649,45.9611082 49.8698571,43.144682 C49.8698571,43.144682 50.781039,42.3579934 51.0621429,42.8763541 C51.2824675,43.2808787 51.1214026,43.5903705 51.1214026,43.5903705 C49.7675455,46.5623049 47.7476494,49.362977 46.335039,52.3247475 C47.0588182,52.4365508 47.934039,52.385223 48.669974,52.3501574 C50.0238312,50.1013869 51.2384026,47.6523869 53.0121429,45.5906328 C53.9937273,44.5132557 54.9742987,43.1543377 56.3747532,42.7792885 C56.6320519,42.806223 56.7196753,42.9469934 56.6553506,43.1543377 C55.4407792,45.4971246 53.5262338,47.606141 53.1524416,50.3234689 C53.1063506,51.1187967 53.3859351,51.9156492 53.9937273,52.2906984 C56.3747532,53.3213213 57.916013,50.5109934 59.3640779,49.3390918 C59.549961,50.416977 59.9237532,51.6346164 60.998026,52.1976984 C63.2863636,52.7125016 64.9208182,50.2294525 66.2275714,48.7770262 C68.096026,46.5277475 69.3465584,44.5528951 71.2995974,42.0922066 C71.802039,42.0896656 72.9953377,42.0490098 72.9026494,42.7645508 C71.8861169,45.5560754 67.6077662,47.6523869 68.3082468,51.0263049 C68.5417403,51.6346164 68.9828961,52.3384689 69.6828701,52.431977 C71.8977662,52.5646164 74.0731558,49.5733705 75.5678182,47.699141 C76.9682727,46.0124361 78.817987,42.8809279 80.4808052,42.8102885 C80.7614026,42.8570426 80.9412078,43.0171246 80.9017013,43.3256 C80.850039,43.4389279 80.843961,43.5517475 80.7862208,43.6635508 C79.5888701,46.0078623 77.0807143,48.102141 76.5007792,50.6512557 C76.360987,51.5939607 76.594987,52.2906984 77.3886623,52.6184852 C78.7729091,52.9401738 79.8167922,52.1976984 80.8905584,51.8688951 C80.5507013,52.5407311 80.106,53.057059 79.6764935,53.7431246 C75.9405974,56.0396656 70.470974,58.9231738 69.5592857,62.9353869 C69.5126883,63.6387311 69.495974,64.2384033 69.9168701,64.7069607 C70.4770519,65.2222721 71.2894675,65.188223 72.0649091,64.9890098 C77.1546623,63.1615344 79.909987,57.5850918 82.4313117,53.3213213 C84.9536494,51.5878623 87.3939351,49.5601574 89.8686623,47.5573541 L89.8104156,47.3718623 L89.5647662,47.1690918 Z" id="Fill-34"></path>
                    <path d="M118.240453,35.0955066 C117.913765,36.6881951 116.660194,37.9536049 115.634038,39.2657689 C114.699051,40.3899 112.830596,41.8331787 111.511687,42.3657689 C112.63357,39.7887033 115.213142,36.5479328 117.734973,34.8612279 C118.036843,34.7280803 118.273375,34.8159984 118.240453,35.0955066 M109.197012,49.2289656 C109.265895,49.6334902 109.383908,49.8997852 108.513245,49.7747689 L107.670947,49.6157033 C107.775791,49.3351787 108.051323,48.6770639 108.302038,48.3314902 C108.48944,48.0255557 108.608973,48.2532279 108.746739,48.3772279 C108.885012,48.5022443 109.074947,48.7543098 109.197012,49.2289656 M107.153817,57.912523 C106.306453,60.1440148 105.314232,62.3165557 103.212284,63.768982 C102.791388,64.004277 102.370999,63.6297361 102.324401,63.2546869 C102.369986,60.6649164 103.591648,58.5045721 104.591973,56.132818 C105.402869,54.2123426 106.12057,52.4260311 107.2617,50.498441 L108.988843,50.7327197 C108.816129,53.2914902 107.992064,55.7130475 107.153817,57.912523 M103.520739,45.3905557 C103.427038,45.3377033 103.356129,45.2416541 103.271038,45.2091295 C103.003103,45.0531131 102.731116,44.9326705 102.310726,45.0388836 C101.901986,45.1268016 101.527181,46.065441 102.859258,46.6112443 C102.686038,47.1016541 102.101038,47.9691459 101.344336,48.9636869 C100.461518,50.1228836 99.1957909,51.9158016 97.5618429,51.9630639 C97.1414532,51.8222934 96.7205571,51.4004902 96.8613623,50.8389328 C98.0252844,47.4746705 100.713245,43.0985885 103.581012,41.6822443 C103.851986,41.6156705 104.102194,41.5973754 104.298206,41.6695393 C105.470232,42.097441 103.849453,44.9946705 103.520739,45.3905557 M118.062168,33.9241131 C113.859284,35.610818 111.010258,40.2023754 108.582635,43.856818 C107.694245,44.3721295 106.082583,45.3854738 104.829012,45.9206049 C104.457245,46.0014082 104.254648,46.0700148 104.207038,45.8362443 C104.644142,44.6399492 106.776986,41.6695393 104.590453,40.973818 C103.764869,40.9072443 102.710349,41.2970311 101.97644,41.7391623 C101.9577,41.7472934 101.939466,41.7539 101.920726,41.7635557 C97.6413623,43.9421951 94.8065182,49.0719328 90.9303234,52.009818 L90.6340247,52.2146213 L90.9384273,52.5866213 L91.7974403,51.9772934 C92.5293234,51.521441 93.7828948,49.994818 95.2729987,48.9636869 C95.3667,50.1823426 95.0866091,51.681523 96.2540766,52.4783754 C97.1014403,52.8325885 97.1282844,52.9479492 98.1220247,52.7126541 C101.110336,51.3059656 101.990116,49.3844738 103.763856,46.8079164 C104.69783,47.0421951 107.232323,45.4866049 107.723622,45.1110475 L104.566142,51.4472443 C102.862804,55.2246705 100.176869,59.5880475 100.597258,63.1616869 C100.736544,63.7232443 101.250129,64.2853098 101.81183,64.5668508 C103.678765,65.1761787 105.080739,63.3024574 106.059791,62.0360311 C108.173895,58.7098836 109.375804,54.8674082 109.889388,50.8389328 L109.963843,50.5579 C111.552206,50.0415721 113.544245,49.0175557 114.391103,47.183982 L113.898791,47.1372279 C113.135505,47.9920148 112.317518,48.8239328 111.289843,49.198982 C110.59544,49.4561295 110.232284,49.7051459 110.123388,49.1044574 C110.084895,48.3386049 109.411258,47.7048836 109.07596,47.2185393 C109.036453,47.0681131 109.16409,46.8394246 109.188401,46.6686705 C109.541427,45.5790967 110.15631,44.7593754 110.739284,43.8674902 C112.096687,42.8353426 114.795791,41.5521459 116.381622,39.6403098 C117.584544,38.1873754 118.884206,36.600277 119.182025,34.4861787 C119.177466,33.8483918 118.574739,33.8306049 118.062168,33.9241131" id="Fill-37"></path>
                </g>
                <path d="M22.6314949,172 L13.5194949,149.322 L10.0174949,149.322 L0.87149485,172 L4.10149485,172 L6.10749485,166.934 L17.3954949,166.934 L19.4014949,172 L22.6314949,172 Z M16.5794949,164.452 L6.95749485,164.452 L11.7514949,152.212 L16.5794949,164.452 Z M48.0804955,172 C52.2284955,172 54.6424955,169.518 54.6424955,165.88 C54.6424955,163.16 52.6364955,160.678 50.2224955,160.304 C52.2964955,159.862 54.2004955,157.958 54.2004955,155.102 C54.2004955,151.702 51.7864955,149.322 47.8424955,149.322 L37.7444955,149.322 L37.7444955,172 L48.0804955,172 Z M47.3664955,159.148 L40.5664955,159.148 L40.5664955,151.838 L47.3664955,151.838 C49.9164955,151.838 51.2764955,153.47 51.2764955,155.51 C51.2764955,157.584 49.9164955,159.148 47.3664955,159.148 Z M47.5364955,169.484 L40.5664955,169.484 L40.5664955,161.664 L47.5364955,161.664 C50.2904955,161.664 51.7184955,163.5 51.7184955,165.574 C51.7184955,167.988 50.1544955,169.484 47.5364955,169.484 Z M78.6294962,172.408 C84.7494962,172.408 86.9934962,169.008 86.9934962,165.744 C86.9934962,157.278 73.5634962,160.202 73.5634962,155.102 C73.5634962,152.96 75.5354962,151.498 78.2214962,151.498 C80.7034962,151.498 83.0834962,152.314 84.7834962,154.218 L86.4834962,152.144 C84.5794962,150.138 81.8934962,148.948 78.4594962,148.948 C73.9714962,148.948 70.6394962,151.532 70.6394962,155.272 C70.6394962,163.364 84.0694962,160.1 84.0694962,165.948 C84.0694962,167.716 82.7774962,169.892 78.7314962,169.892 C75.5354962,169.892 73.0874962,168.328 71.6254962,166.628 L69.9254962,168.804 C71.7954962,170.912 74.7194962,172.408 78.6294962,172.408 Z M113.700497,172.408 C120.398497,172.408 124.988497,167.376 124.988497,160.678 C124.988497,153.98 120.398497,148.948 113.700497,148.948 C107.002497,148.948 102.446497,153.98 102.446497,160.678 C102.446497,167.376 107.002497,172.408 113.700497,172.408 Z M113.700497,169.892 C108.600497,169.892 105.370497,165.948 105.370497,160.678 C105.370497,155.374 108.600497,151.464 113.700497,151.464 C118.766497,151.464 122.064497,155.374 122.064497,160.678 C122.064497,165.948 118.766497,169.892 113.700497,169.892 Z M154.517498,172 L154.517498,169.484 L143.977498,169.484 L143.977498,149.322 L141.155498,149.322 L141.155498,172 L154.517498,172 Z M178.776498,172.408 C184.930498,172.408 188.058498,168.804 188.058498,163.16 L188.058498,149.322 L185.202498,149.322 L185.202498,163.126 C185.202498,167.274 182.958498,169.892 178.776498,169.892 C174.594498,169.892 172.384498,167.274 172.384498,163.126 L172.384498,149.322 L169.528498,149.322 L169.528498,163.194 C169.528498,168.77 172.656498,172.408 178.776498,172.408 Z M213.949499,172 L213.949499,151.838 L221.157499,151.838 L221.157499,149.322 L203.953499,149.322 L203.953499,151.838 L211.127499,151.838 L211.127499,172 L213.949499,172 Z M272.8715,172 L272.8715,169.484 L260.8355,169.484 L260.8355,161.664 L272.6335,161.664 L272.6335,159.148 L260.8355,159.148 L260.8355,151.838 L272.8715,151.838 L272.8715,149.322 L258.0135,149.322 L258.0135,172 L272.8715,172 Z M308.622501,172 L299.782501,160.338 L308.112501,149.322 L304.644501,149.322 L297.946501,158.366 L291.214501,149.322 L287.780501,149.322 L296.110501,160.372 L287.270501,172 L290.704501,172 L297.946501,162.344 L305.188501,172 L308.622501,172 Z M332.269502,172 L332.269502,151.838 L339.477502,151.838 L339.477502,149.322 L322.273502,149.322 L322.273502,151.838 L329.447502,151.838 L329.447502,172 L332.269502,172 Z M371.828502,172 L365.708502,162.752 C368.802502,162.48 371.624502,160.236 371.624502,156.156 C371.624502,151.974 368.632502,149.322 364.484502,149.322 L355.372502,149.322 L355.372502,172 L358.194502,172 L358.194502,162.99 L362.750502,162.99 L368.496502,172 L371.828502,172 Z M364.144502,160.508 L358.194502,160.508 L358.194502,151.838 L364.144502,151.838 C366.830502,151.838 368.700502,153.572 368.700502,156.156 C368.700502,158.706 366.830502,160.508 364.144502,160.508 Z M407.647503,172 L398.535503,149.322 L395.033503,149.322 L385.887503,172 L389.117503,172 L391.123503,166.934 L402.411503,166.934 L404.417503,172 L407.647503,172 Z M401.595503,164.452 L391.973503,164.452 L396.767503,152.212 L401.595503,164.452 Z M441.528504,172 L441.528504,149.322 L438.706504,149.322 L438.706504,167.036 L425.650504,149.322 L422.760504,149.322 L422.760504,172 L425.582504,172 L425.582504,153.912 L438.808504,172 L441.528504,172 Z M473.845504,172 L473.845504,169.484 L461.809504,169.484 L461.809504,161.664 L473.607504,161.664 L473.607504,159.148 L461.809504,159.148 L461.809504,151.838 L473.845504,151.838 L473.845504,149.322 L458.987504,149.322 L458.987504,172 L473.845504,172 Z M498.920505,172 L498.920505,151.838 L506.128505,151.838 L506.128505,149.322 L488.924505,149.322 L488.924505,151.838 L496.098505,151.838 L496.098505,172 L498.920505,172 Z" id="ABSOLUT-EXTRANET" fill="#FFFFFF"></path>
                <path d="M115.083,213 L111.867,204.996 L110.631,204.996 L107.403,213 L108.543,213 L109.251,211.212 L113.235,211.212 L113.943,213 L115.083,213 Z M112.947,210.336 L109.551,210.336 L111.243,206.016 L112.947,210.336 Z M131.607,213.156 C132.915,213.156 134.007,212.604 134.751,211.764 L134.751,208.884 L131.007,208.884 L131.007,209.772 L133.767,209.772 L133.767,211.392 C133.359,211.8 132.567,212.256 131.607,212.256 C129.855,212.256 128.523,210.9 128.523,209.004 C128.523,207.084 129.855,205.752 131.607,205.752 C132.567,205.752 133.419,206.208 133.923,206.856 L134.715,206.352 C134.019,205.488 133.035,204.864 131.607,204.864 C129.327,204.864 127.491,206.508 127.491,209.004 C127.491,211.488 129.327,213.156 131.607,213.156 Z M145.245,213 L145.245,212.112 L141.525,212.112 L141.525,204.996 L140.529,204.996 L140.529,213 L145.245,213 Z M154.107,213.144 C156.471,213.144 158.091,211.368 158.091,209.004 C158.091,206.64 156.471,204.864 154.107,204.864 C151.743,204.864 150.135,206.64 150.135,209.004 C150.135,211.368 151.743,213.144 154.107,213.144 Z M154.107,212.256 C152.307,212.256 151.167,210.864 151.167,209.004 C151.167,207.132 152.307,205.752 154.107,205.752 C155.895,205.752 157.059,207.132 157.059,209.004 C157.059,210.864 155.895,212.256 154.107,212.256 Z M167.577,213 C169.041,213 169.893,212.124 169.893,210.84 C169.893,209.88 169.185,209.004 168.333,208.872 C169.065,208.716 169.737,208.044 169.737,207.036 C169.737,205.836 168.885,204.996 167.493,204.996 L163.929,204.996 L163.929,213 L167.577,213 Z M167.325,208.464 L164.925,208.464 L164.925,205.884 L167.325,205.884 C168.225,205.884 168.705,206.46 168.705,207.18 C168.705,207.912 168.225,208.464 167.325,208.464 Z M167.385,212.112 L164.925,212.112 L164.925,209.352 L167.385,209.352 C168.357,209.352 168.861,210 168.861,210.732 C168.861,211.584 168.309,212.112 167.385,212.112 Z M182.619,213 L179.403,204.996 L178.167,204.996 L174.939,213 L176.079,213 L176.787,211.212 L180.771,211.212 L181.479,213 L182.619,213 Z M180.483,210.336 L177.087,210.336 L178.779,206.016 L180.483,210.336 Z M192.537,213 L192.537,212.112 L188.817,212.112 L188.817,204.996 L187.821,204.996 L187.821,213 L192.537,213 Z M212.409,213 L209.193,204.996 L207.957,204.996 L204.729,213 L205.869,213 L206.577,211.212 L210.561,211.212 L211.269,213 L212.409,213 Z M210.273,210.336 L206.877,210.336 L208.569,206.016 L210.273,210.336 Z M221.391,213 C222.855,213 223.707,212.124 223.707,210.84 C223.707,209.88 222.999,209.004 222.147,208.872 C222.879,208.716 223.551,208.044 223.551,207.036 C223.551,205.836 222.699,204.996 221.307,204.996 L217.743,204.996 L217.743,213 L221.391,213 Z M221.139,208.464 L218.739,208.464 L218.739,205.884 L221.139,205.884 C222.039,205.884 222.519,206.46 222.519,207.18 C222.519,207.912 222.039,208.464 221.139,208.464 Z M221.199,212.112 L218.739,212.112 L218.739,209.352 L221.199,209.352 C222.171,209.352 222.675,210 222.675,210.732 C222.675,211.584 222.123,212.112 221.199,212.112 Z M232.173,213.144 C234.333,213.144 235.125,211.944 235.125,210.792 C235.125,207.804 230.385,208.836 230.385,207.036 C230.385,206.28 231.081,205.764 232.029,205.764 C232.905,205.764 233.745,206.052 234.345,206.724 L234.945,205.992 C234.273,205.284 233.325,204.864 232.113,204.864 C230.529,204.864 229.353,205.776 229.353,207.096 C229.353,209.952 234.093,208.8 234.093,210.864 C234.093,211.488 233.637,212.256 232.209,212.256 C231.081,212.256 230.217,211.704 229.701,211.104 L229.101,211.872 C229.761,212.616 230.793,213.144 232.173,213.144 Z M244.551,213.144 C246.915,213.144 248.535,211.368 248.535,209.004 C248.535,206.64 246.915,204.864 244.551,204.864 C242.187,204.864 240.579,206.64 240.579,209.004 C240.579,211.368 242.187,213.144 244.551,213.144 Z M244.551,212.256 C242.751,212.256 241.611,210.864 241.611,209.004 C241.611,207.132 242.751,205.752 244.551,205.752 C246.339,205.752 247.503,207.132 247.503,209.004 C247.503,210.864 246.339,212.256 244.551,212.256 Z M258.957,213 L258.957,212.112 L255.237,212.112 L255.237,204.996 L254.241,204.996 L254.241,213 L258.957,213 Z M267.519,213.144 C269.691,213.144 270.795,211.872 270.795,209.88 L270.795,204.996 L269.787,204.996 L269.787,209.868 C269.787,211.332 268.995,212.256 267.519,212.256 C266.043,212.256 265.263,211.332 265.263,209.868 L265.263,204.996 L264.255,204.996 L264.255,209.892 C264.255,211.86 265.359,213.144 267.519,213.144 Z M279.933,213 L279.933,205.884 L282.477,205.884 L282.477,204.996 L276.405,204.996 L276.405,205.884 L278.937,205.884 L278.937,213 L279.933,213 Z M299.277,213.144 C300.693,213.144 301.653,212.472 302.325,211.548 L301.485,211.092 C301.029,211.764 300.189,212.256 299.277,212.256 C297.525,212.256 296.193,210.9 296.193,209.004 C296.193,207.084 297.525,205.752 299.277,205.752 C300.189,205.752 301.029,206.232 301.485,206.916 L302.313,206.448 C301.677,205.536 300.693,204.864 299.277,204.864 C296.973,204.864 295.161,206.544 295.161,209.004 C295.161,211.464 296.973,213.144 299.277,213.144 Z M311.535,213.144 C313.899,213.144 315.519,211.368 315.519,209.004 C315.519,206.64 313.899,204.864 311.535,204.864 C309.171,204.864 307.563,206.64 307.563,209.004 C307.563,211.368 309.171,213.144 311.535,213.144 Z M311.535,212.256 C309.735,212.256 308.595,210.864 308.595,209.004 C308.595,207.132 309.735,205.752 311.535,205.752 C313.323,205.752 314.487,207.132 314.487,209.004 C314.487,210.864 313.323,212.256 311.535,212.256 Z M329.193,213 L329.193,204.996 L327.765,204.996 L325.281,211.164 L322.785,204.996 L321.357,204.996 L321.357,213 L322.353,213 L322.353,206.268 L325.077,213 L325.485,213 L328.197,206.268 L328.197,213 L329.193,213 Z M343.191,213 L343.191,204.996 L341.763,204.996 L339.279,211.164 L336.783,204.996 L335.355,204.996 L335.355,213 L336.351,213 L336.351,206.268 L339.075,213 L339.483,213 L342.195,206.268 L342.195,213 L343.191,213 Z M352.617,213.144 C354.789,213.144 355.893,211.872 355.893,209.88 L355.893,204.996 L354.885,204.996 L354.885,209.868 C354.885,211.332 354.093,212.256 352.617,212.256 C351.141,212.256 350.361,211.332 350.361,209.868 L350.361,204.996 L349.353,204.996 L349.353,209.892 C349.353,211.86 350.457,213.144 352.617,213.144 Z M368.679,213 L368.679,204.996 L367.683,204.996 L367.683,211.248 L363.075,204.996 L362.055,204.996 L362.055,213 L363.051,213 L363.051,206.616 L367.719,213 L368.679,213 Z M375.837,213 L375.837,204.996 L374.841,204.996 L374.841,213 L375.837,213 Z M384.975,213 L384.975,205.884 L387.519,205.884 L387.519,204.996 L381.447,204.996 L381.447,205.884 L383.979,205.884 L383.979,213 L384.975,213 Z M396.453,213 L396.453,209.616 L399.597,204.996 L398.433,204.996 L395.949,208.716 L393.465,204.996 L392.301,204.996 L395.457,209.616 L395.457,213 L396.453,213 Z" id="A-GLOBAL-ABSOLUT-COM" fill="#FFFFFF"></path>
            </g>
        </g>
    </g>
</svg>