<?xml version="1.0" encoding="UTF-8"?>
<svg width="599px" height="232px" viewBox="0 0 599 232" version="1.1" xmlns="http://www.w3.org/2000/svg" xmlns:xlink="http://www.w3.org/1999/xlink">
    <!-- Generator: Sketch 40.3 (33839) - http://www.bohemiancoding.com/sketch -->
    <title>Group 6</title>
    <desc>Created with Sketch.</desc>
    <defs></defs>
    <g id="Page-1" stroke="none" stroke-width="1" fill="none" fill-rule="evenodd">
        <g id="1170---PBD" transform="translate(-586.000000, -431.000000)">
            <g id="Group-6" transform="translate(586.000000, 431.000000)">
                <g id="----" transform="translate(220.000000, 0.000000)" fill="#FEFEFE">
                    <path d="M10.078786,31.7966487 C9.58797178,31.5671018 9.55412252,30.7573349 10.078786,30.5769161 C9.95523624,30.5650576 9.8384563,30.5464228 9.87569048,30.3736273 C9.52704312,30.3626159 9.35525813,30.5294821 9.26640383,30.7802049 C9.58627932,30.9504592 9.44834359,32.6089566 10.078786,31.7966487" id="Fill-1"></path>
                    <path id="Fill-3"></path>
                    <path id="Fill-5"></path>
                    <path d="M8.71272612,34.0329944 C8.81465884,33.1520764 8.53770958,32.7734511 8.25050295,32.4066843 C8.43257144,32.9123651 8.17934238,33.9914896 8.71272612,34.0329944" id="Fill-7"></path>
                    <path d="M15.8331392,34.7034569 C15.9434051,34.2842222 15.5016731,34.4023348 15.3519787,34.2361984 C15.2557466,34.6405068 15.4161334,34.7969085 15.8331392,34.7034569" id="Fill-9"></path>
                    <path d="M12.5157634,34.8460647 C12.2796648,35.7964397 10.7149829,35.4356021 10.2817123,35.6592197 C11.0306272,36.2504512 13.1462059,35.6143268 12.5157634,34.8460647" id="Fill-11"></path>
                    <path id="Fill-13"></path>
                    <path id="Fill-15"></path>
                    <path id="Fill-17"></path>
                    <path id="Fill-19"></path>
                    <path id="Fill-21"></path>
                    <path d="M6.21286219,83.395994 C6.12823905,83.3095962 6.34656677,83.5281317 6.21286219,83.395994 M3.97965735,83.1927052 C4.66087368,82.701424 3.4888431,83.8737225 3.97965735,83.1927052 M16.1653905,84.208302 C12.8938596,81.6883684 8.40967909,81.981443 3.7765618,82.5819919 C3.2925174,82.8767606 3.27728523,82.8911602 3.16642891,83.1927052 C2.90917454,82.9165713 2.17210693,82.8784547 2.15179738,83.395994 C2.6713835,83.4171699 3.11988618,83.5103439 3.37037069,83.8025715 L3.7765618,83.8025715 C3.75540601,83.5560839 4.07189658,83.6772101 3.7765618,83.8025715 C3.77317687,84.0084014 3.42029835,84.0575295 3.37037069,83.8025715 C2.65107394,84.1583268 2.87109413,83.6670456 2.15179738,83.5992827 C3.13004096,90.1604274 0.998383886,100.215598 1.94870183,107.588203 C10.1546084,107.253624 17.2815698,103.001501 19.4149193,96.2023386 C20.6944213,92.124705 18.8817935,86.3013291 16.1653905,84.208302" id="Fill-23"></path>
                    <path d="M157.316376,106.570404 C157.070969,106.59158 157.19198,106.275635 157.316376,106.570404 C157.561783,106.550922 157.440772,106.866867 157.316376,106.570404 L157.316376,106.570404 Z M156.503994,106.367115 C156.636852,106.500947 156.418525,106.282412 156.503994,106.367115 L156.503994,106.367115 Z M155.894707,102.505476 C155.287113,102.371644 156.089341,102.070946 155.894707,101.691474 C156.399908,101.722814 155.953944,102.380115 155.894707,102.505476 L155.894707,102.505476 Z M155.082325,102.098898 C155.087403,101.899845 155.330271,101.939656 155.489363,101.894763 C155.482593,102.092122 155.239724,102.052311 155.082325,102.098898 L155.082325,102.098898 Z M151.629701,90.5114393 C151.545078,90.4250416 151.763405,90.643577 151.629701,90.5114393 L151.629701,90.5114393 Z M151.629701,105.961385 C151.545078,105.875834 151.763405,106.09437 151.629701,105.961385 L151.629701,105.961385 Z M151.22351,87.8678384 C151.974963,88.484481 150.606607,88.5530909 151.22351,87.8678384 L151.22351,87.8678384 Z M151.020414,89.900726 C150.935791,89.8151753 151.154119,90.0354048 151.020414,89.900726 L151.020414,89.900726 Z M148.989459,89.4941485 C149.122317,89.6279802 148.904836,89.4094448 148.989459,89.4941485 L148.989459,89.4941485 Z M147.770885,83.5996215 C148.006138,82.7957839 148.006138,84.4017651 147.770885,83.5996215 L147.770885,83.5996215 Z M153.05137,88.4785517 C153.306932,88.5225976 153.466023,88.7944963 153.457561,88.2744159 C153.211307,88.2947448 153.332319,87.9788002 153.457561,88.2744159 C153.861213,88.2778041 153.715661,88.8292248 154.269943,88.6818405 C154.166703,89.2561312 152.973516,88.739439 153.254465,89.6974372 C152.851659,89.3137297 152.908357,88.9842325 153.05137,88.4785517 L153.05137,88.4785517 Z M155.286267,86.2415284 C155.520673,85.4393848 155.520673,87.045366 155.286267,86.2415284 L155.286267,86.2415284 Z M153.661503,89.4941485 C153.895909,88.6920049 153.895909,90.2979861 153.661503,89.4941485 L153.661503,89.4941485 Z M154.269943,96.2026775 C154.506042,95.3996869 154.506042,97.0065151 154.269943,96.2026775 L154.269943,96.2026775 Z M155.082325,94.5763674 C155.588372,94.6585299 155.094172,95.3649584 154.676134,95.1870807 C154.564432,94.7347632 155.064554,94.8973942 155.082325,94.5763674 L155.082325,94.5763674 Z M155.082325,96.2026775 C155.21603,96.3365092 154.996856,96.1179738 155.082325,96.2026775 L155.082325,96.2026775 Z M158.53495,104.131786 C158.226921,103.084849 158.121989,101.833776 157.925663,100.675877 C156.40837,100.288781 151.928421,102.024359 152.238987,99.4552976 C152.436159,97.8222112 154.266558,98.4871349 156.300899,98.235565 C156.4016,96.6439835 156.177349,95.378511 155.691612,94.3730786 C155.061169,93.2160268 152.180598,94.7694917 152.036738,93.5607707 C152.031661,92.6290305 151.887801,91.6862789 152.238987,91.1204585 C153.025137,89.8566801 155.473284,90.5961429 156.70709,89.4941485 C156.632621,87.3316643 156.303437,85.4258322 155.894707,83.5996215 C152.79073,82.4815334 148.303165,83.2040555 145.334585,83.5996215 C145.421747,87.5586701 146.040342,91.8633095 146.552312,95.9993887 C147.056666,100.070246 146.080961,104.424861 148.177076,107.384406 C150.364585,107.922274 154.588126,107.818089 156.911031,107.181117 C157.461082,107.030345 158.740584,106.838068 158.331854,104.740805 L158.53495,104.740805 L158.53495,104.131786 Z" id="Fill-25"></path>
                    <path d="M138.225817,84.8187612 C138.35783,84.9525929 138.139502,84.7323634 138.225817,84.8187612 L138.225817,84.8187612 Z M133.55462,100.268707 L133.960811,100.268707 L133.960811,99.8621292 L133.55462,99.8621292 L133.55462,100.268707 Z M125.430798,84.6154724 C125.266629,88.3720792 125.948691,91.2791085 125.836143,94.983199 C126.774613,95.4134936 127.762165,94.773134 129.085671,94.983199 C129.953905,98.0731881 129.310769,102.134728 129.8989,105.147637 C131.796151,105.151025 130.890683,103.779673 132.3352,103.521327 C132.52391,104.141358 132.89879,104.706331 132.945333,105.554214 C135.621963,105.276386 136.569743,105.692281 138.835104,104.944348 C139.247219,101.620577 137.713847,98.8448384 137.819626,95.1864878 C139.702491,94.9713405 140.992994,94.1607266 142.897015,93.9676023 C143.375136,90.3067106 143.112804,87.1930044 142.489978,83.8031644 C136.366647,82.8553306 131.606595,83.7718241 125.430798,84.6154724 L125.430798,84.6154724 Z" id="Fill-27"></path>
                    <path d="M64.2986979,103.928413 C64.533104,103.124575 64.533104,104.730556 64.2986979,103.928413 L64.2986979,103.928413 Z M64.5017935,103.521835 C64.4171703,103.435437 64.6346518,103.653973 64.5017935,103.521835 L64.5017935,103.521835 Z M64.9088308,87.8677537 C65.5231949,87.1164323 65.5917396,88.4852433 64.9088308,87.8677537 L64.9088308,87.8677537 Z M65.1110801,103.521835 C65.3463325,102.71715 65.3463325,104.325673 65.1110801,103.521835 L65.1110801,103.521835 Z M62.6739335,89.0883333 C62.5884641,89.0027826 62.8067918,89.221318 62.6739335,89.0883333 L62.6739335,89.0883333 Z M62.0638006,87.0554457 C61.9800237,86.969895 62.1983514,87.1875834 62.0638006,87.0554457 L62.0638006,87.0554457 Z M61.6584557,89.4940638 L62.0638006,89.4940638 L62.0638006,89.0883333 L61.6584557,89.0883333 L61.6584557,89.4940638 Z M52.7222514,101.4881 C52.8551098,101.621932 52.6367821,101.404244 52.7222514,101.4881 L52.7222514,101.4881 Z M49.4727226,90.9170851 C49.4778,90.7197256 49.7206684,90.7595363 49.8789137,90.7146433 C49.8729901,90.9120028 49.6301217,90.8721921 49.4727226,90.9170851 L49.4727226,90.9170851 Z M60.4390362,84.0061144 C59.9270662,85.7967495 59.5631866,87.7373101 58.6120225,89.0883333 C57.1023455,89.0171822 56.6724599,86.1669044 56.1748758,84.4118448 C51.7744722,84.509254 49.9440735,84.2017798 46.0200982,84.4118448 C45.8576218,92.5798177 44.5163449,99.0715053 44.8015249,107.790052 C46.8756382,108.741274 49.2763969,108.491398 51.909023,108.196629 C52.5936243,106.712622 52.6900946,104.641617 53.5346336,103.317699 C55.5808213,103.980082 56.2637301,106.007887 57.3934491,107.58761 C60.9653922,107.538482 63.2654493,107.685866 65.9234623,107.181033 C67.4272157,99.805886 67.2444297,91.3270507 67.3451312,84.0061144 C65.4081074,83.441141 62.3769063,83.441141 60.4390362,84.0061144 L60.4390362,84.0061144 Z" id="Fill-29"></path>
                    <path d="M25.3042672,85.6327632 C25.2187979,85.5463655 25.4371256,85.7649009 25.3042672,85.6327632 M20.2268784,84.4121836 C21.9641916,87.7418841 25.0165485,89.8467698 26.7259361,93.1536002 C28.6841157,96.9423944 27.1262036,101.566367 27.5391645,107.180524 C29.8409141,108.601852 34.0644554,108.1021 37.6939422,108.196968 C38.7517315,104.133734 37.4443039,99.160783 37.0838093,95.1864878 C39.4507187,91.9313266 41.6763075,88.5347102 43.1766758,84.4121836 C36.4279799,84.9110881 27.3191444,83.2187092 20.2268784,84.4121836" id="Fill-32"></path>
                    <path d="M109.589429,87.0554457 C109.669821,87.4493177 108.663652,87.3519085 108.979296,86.852157 L109.386334,86.852157 C109.397335,86.9758243 109.415952,87.0918683 109.589429,87.0554457 C109.591122,86.7860881 109.944846,86.8682506 109.994774,86.6488682 C110.557518,86.736113 110.005775,87.2866867 109.589429,87.0554457 M108.776201,90.3080658 C108.797357,90.5528594 108.481712,90.4317332 108.776201,90.3080658 L108.776201,90.1047771 C108.53164,90.1242589 108.652651,89.8083143 108.776201,90.1047771 C108.889596,90.1047771 109.008068,90.2682551 108.776201,90.3080658 M108.573105,94.3729939 C108.869286,93.6995999 109.078305,95.1666671 108.573105,94.3729939 M107.761569,103.520988 C107.95451,104.365483 107.153129,103.562493 107.761569,103.520988 C108.102601,102.801854 108.396243,104.185065 107.761569,103.520988 M106.3399,91.9343759 C106.344978,91.7353223 106.587846,91.775133 106.746091,91.7310871 C106.740168,91.9275996 106.497299,91.8877889 106.3399,91.9343759 M103.293467,94.3729939 C103.298544,94.1756344 103.542259,94.2154452 103.698812,94.1705522 C103.693735,94.3679117 103.450866,94.328101 103.293467,94.3729939 M103.089525,99.0494824 C103.004902,98.9639317 103.22323,99.1816201 103.089525,99.0494824 M102.481085,102.098814 C102.395616,102.012416 102.613943,102.230951 102.481085,102.098814 M99.6377472,94.7795715 C99.7697593,94.9134032 99.5522778,94.6957148 99.6377472,94.7795715 M111.011098,84.0061144 C110.083628,84.2974949 109.381256,84.8141872 108.979296,85.6324244 C109.551349,84.8667034 110.202947,85.5316271 110.400965,86.2414436 C105.425124,86.5938108 104.11008,91.5142458 100.043938,93.3565502 C97.0973603,90.5460831 94.7076026,87.178266 90.7015429,85.4291357 C91.6552457,91.3465326 91.2194365,98.7284556 91.3099833,105.9613 C97.626255,106.820195 105.486899,104.624677 112.02573,105.351434 C112.670558,100.158253 110.685299,91.4939169 111.011098,84.0061144" id="Fill-34"></path>
                    <path d="M121.774655,100.87942 C122.055603,100.29073 122.493105,101.219929 122.383941,101.691728 C121.673953,101.929745 120.920807,102.125411 121.165368,103.318038 C120.3386,102.830145 120.219281,103.72038 119.947641,104.335329 C119.413669,104.064277 119.481367,103.14609 120.14989,102.910614 C120.377526,102.049177 122.221465,101.740009 121.774655,100.87942 M122.383941,103.114749 C121.866894,103.09442 121.904128,102.356652 122.18,102.098306 C122.621732,102.063577 122.273085,102.819981 122.383941,103.114749 M121.36931,104.944348 C121.373541,104.746989 121.616409,104.786799 121.774655,104.741059 C121.768731,104.939266 121.525863,104.899455 121.36931,104.944348 M120.556081,103.724616 C120.471458,103.639065 120.689786,103.8576 120.556081,103.724616 M119.744545,97.6251058 C120.424915,97.1338247 119.253731,98.3086643 119.744545,97.6251058 M118.119781,101.285151 C118.415116,100.611756 118.624135,102.078824 118.119781,101.285151 M116.697266,94.170891 C116.611796,94.0853404 116.830124,94.3030287 116.697266,94.170891 M116.697266,99.4547047 C116.830124,99.5893835 116.611796,99.370848 116.697266,99.4547047 M116.697266,102.098306 C116.611796,102.012755 116.830124,102.23129 116.697266,102.098306 M115.884884,102.50573 C114.965876,102.356652 115.82057,101.501145 115.884884,102.50573 C116.140446,102.58874 116.299537,102.767464 116.291921,103.114749 C116.035513,103.03174 115.876421,102.853015 115.884884,102.50573 M115.222284,87.8375992 C115.228208,87.7977885 115.24344,87.6851326 115.275597,87.460668 C115.358528,86.8863772 115.239209,87.7181671 115.222284,87.8375992 M115.681788,86.64836 C115.597165,86.5628093 115.815493,86.7804977 115.681788,86.64836 M114.463215,85.0220499 C114.805092,91.3536477 114.704391,99.4335287 115.478693,105.961639 L118.119781,105.961639 C118.647829,105.687199 117.990308,104.542006 118.32203,104.536924 C118.968551,104.704637 118.605518,105.880323 119.540604,105.75835 C119.031172,104.619933 120.939424,104.735977 120.962272,105.350926 C120.601778,105.397513 119.945948,105.145943 120.14989,105.75835 C120.626319,106.131893 121.442086,105.546591 122.383941,105.75835 C123.093083,98.4357198 121.659567,90.8327202 120.962272,84.4121836 C118.935548,84.7543864 116.099826,84.2893634 114.463215,85.0220499" id="Fill-36"></path>
                    <path d="M79.3275996,96.4059662 C79.6000861,96.539798 79.705865,96.841343 79.7337907,97.2199683 C79.1659693,97.2513086 79.0711914,96.6439835 79.3275996,96.4059662 M78.9222547,97.6248517 C79.055113,97.7595305 78.8367853,97.5409951 78.9222547,97.6248517 M77.7028351,95.1870807 C77.6173658,95.100683 77.8356935,95.3192184 77.7028351,95.1870807 M76.0780707,89.088418 C75.9934476,89.0028673 76.2109291,89.2214027 76.0780707,89.088418 M74.2502107,103.928497 C74.1647414,103.8421 74.3830691,104.060635 74.2502107,103.928497 M73.8448659,95.5936582 C73.8499433,95.3954517 74.0928117,95.4352624 74.2502107,95.3903695 C74.2451334,95.5868819 74.0022649,95.5470712 73.8448659,95.5936582 M71.0006819,103.317784 C71.2359343,102.51564 71.2359343,104.121622 71.0006819,103.317784 M76.8904529,84.818507 L76.2811663,84.818507 C74.0767333,92.3689903 71.3078639,99.3553473 69.579013,107.384406 C75.2030674,107.700351 81.9864588,106.500947 87.8576128,106.163827 C87.8940007,102.340304 85.9307437,100.802933 84.4058346,98.4388538 C81.4964908,93.9309256 79.7464841,89.0807947 76.8904529,84.818507" id="Fill-38"></path>
                    <path id="Fill-40"></path>
                    <path id="Fill-42"></path>
                    <path id="Fill-44"></path>
                    <path id="Fill-46"></path>
                    <path id="Fill-48"></path>
                    <path d="M137.41919,33.0163812 C137.334567,32.9308305 137.552894,33.1493659 137.41919,33.0163812 M138.435514,35.2525575 C138.567526,35.3855423 138.350044,35.1670068 138.435514,35.2525575 M140.871814,36.0657126 C140.787191,35.9810089 141.005519,36.1986973 140.871814,36.0657126 M142.699674,34.2361137 C142.865535,34.2742304 142.901923,34.4402495 143.106711,34.4394025 C142.997547,34.9179781 142.145392,34.5639169 142.699674,34.2361137 M145.746954,4.96253268 C145.656407,5.25814841 145.568399,4.94135677 145.339916,4.96253268 C145.39069,4.70672766 145.744415,4.75754985 145.746954,4.96253268 M145.949203,34.84598 C146.278387,34.7883815 146.299543,35.0382573 146.559336,35.0492688 C146.639728,35.4439878 145.633559,35.3457315 145.949203,34.84598 M148.996482,35.659135 C148.823851,35.96068 148.484512,36.0962059 147.980158,36.0657126 C147.951387,35.2483223 148.501437,35.5278444 148.996482,35.659135 M145.543858,35.2525575 C145.77911,34.4487199 145.77911,36.0555481 145.543858,35.2525575 M149.808865,34.6426913 C149.802941,34.8400508 149.560073,34.80024 149.401827,34.84598 C149.407751,34.6486205 149.650619,34.6884312 149.808865,34.6426913 M130.920132,20.8190558 C133.101717,21.5661419 135.069205,20.151591 136.607654,21.428922 C137.234711,26.9685407 136.903835,30.5777631 137.41919,36.4722901 C140.69749,38.2663134 148.073244,37.3472788 151.636725,35.8624238 C151.571565,33.0663563 152.383947,28.7778106 151.83982,25.4946972 C151.610491,24.1114866 150.659327,22.1107864 151.229687,21.0223445 C152.152926,19.2638968 155.390607,20.0465585 156.714113,18.3795907 C157.165155,14.2756989 157.191388,8.85720645 155.698636,4.96253268 C155.206975,5.63677372 155.143508,4.96083861 154.276121,4.55595516 C144.643468,3.58948653 138.272191,5.35809872 129.9055,5.57239895 C130.643414,11.9285608 129.067731,15.949443 130.920132,20.8190558" id="Fill-50"></path>
                    <path d="M76.2881054,24.2747105 C76.5335125,24.2543816 76.4125014,24.5703263 76.2881054,24.2747105 C76.0426982,24.2950394 76.1628631,23.9790948 76.2881054,24.2747105 M77.1004876,33.0161271 C76.8254624,32.9534464 76.9320875,32.5070582 76.897392,32.2029721 C77.3678967,32.2597235 77.3636656,32.7459224 77.1004876,33.0161271 M77.3027369,31.5931058 C77.21896,31.5084021 77.4364415,31.7260905 77.3027369,31.5931058 M78.5221564,33.4227046 C78.8141063,33.4684446 78.5932399,34.0300298 78.9283475,34.0334179 C78.5466972,34.5441809 78.1904337,33.8707869 78.5221564,33.4227046 M78.9283475,31.1865283 C79.0603597,31.319513 78.8428782,31.1018246 78.9283475,31.1865283 M79.1314431,35.6588809 C79.2643014,35.7927127 79.0459737,35.5741773 79.1314431,35.6588809 M79.5376342,34.2358596 C80.1968485,34.5331694 79.3878512,35.3514067 80.1469209,35.2523034 C79.6950333,36.3077109 79.354002,35.0159802 79.5376342,34.2358596 M86.8482279,35.6588809 C86.7636047,35.5741773 86.9827787,35.7927127 86.8482279,35.6588809 M87.4583608,36.0654584 C87.5903729,36.1992902 87.3728914,35.9807548 87.4583608,36.0654584 M87.6614563,34.0334179 C87.7943146,34.1664026 87.5759869,33.9470202 87.6614563,34.0334179 M88.2698967,27.9339081 C88.1861198,27.8492045 88.4036013,28.0677399 88.2698967,27.9339081 M90.504794,34.0334179 C90.4193247,33.9470202 90.6376524,34.1664026 90.504794,34.0334179 M93.5503811,6.58858863 C94.537087,6.2675618 94.8197283,6.25993847 95.7852784,6.18201111 C95.7649688,5.93637053 96.0806132,6.05749675 95.7852784,6.18201111 C95.3147737,8.07767877 94.6462508,9.76243435 93.9574184,11.8740963 C93.6536213,11.9088248 93.2076573,11.8012512 93.1450362,12.0773851 C91.8765352,10.0682145 92.9368633,8.58928881 93.5503811,6.58858863 M94.160514,32.4062608 C94.2925261,32.5392455 94.0750446,32.3215572 94.160514,32.4062608 M97.6131384,32.2029721 C97.7451505,32.3368038 97.527669,32.1182684 97.6131384,32.2029721 M100.862667,35.2523034 C100.37016,35.9197682 99.8928859,34.6873301 100.862667,35.2523034 M100.456476,32.6095496 C100.436167,32.363909 100.751811,32.4850352 100.456476,32.6095496 C100.476786,32.8551902 100.161141,32.734911 100.456476,32.6095496 M72.6323854,25.9010206 C71.4138121,19.4906484 71.7336876,12.2086757 71.2107166,5.97872235 C71.8572374,5.93891164 73.1045826,5.44932455 73.6478632,5.97872235 C74.3375418,10.7492319 73.8204944,15.0326954 74.2571498,19.3957803 C74.4780163,21.6082396 75.4190257,24.5042574 74.6633409,26.5108868 C75.9970017,30.3615147 74.3730836,32.9297294 75.8819143,36.472036 C77.7664717,36.7668047 79.9302856,36.9514586 82.1778764,36.8786135 C83.3592155,35.2844908 83.189123,32.3351097 84.4119275,30.7799508 C86.4936569,31.6108935 85.6651963,35.3531008 87.2552652,36.6753247 C90.5877247,36.6448314 93.4065217,36.6185733 96.5976606,36.2687472 C96.3522535,36.2899231 96.4732646,35.9739785 96.5976606,36.2687472 C98.4762945,36.4415426 101.07084,35.9096037 102.893623,35.8621697 C103.309122,34.7805041 103.51391,33.849611 103.502063,32.6095496 C103.415748,22.9685803 103.349741,12.9667734 102.893623,5.36885608 C99.6203994,5.01733594 96.6695903,5.26636467 93.1450362,5.7754336 C92.3995063,6.67837449 92.3775043,7.59063279 91.9256167,8.41818744 C91.6615925,7.19337268 91.1326978,6.23113923 90.7078896,5.16556732 C84.3746933,3.97124588 78.5661605,4.62769915 70.6005837,4.75898981 C69.6189552,13.5495345 71.3190342,22.2799396 72.0230988,29.763507 C73.6385546,29.3637057 71.6389097,27.1376938 72.6323854,25.9010206" id="Fill-52"></path>
                    <path d="M63.4930009,33.8294515 C63.9271177,33.7345834 63.8797287,34.119985 63.8983458,34.4393178 C63.7350231,34.4003541 63.6969427,34.235182 63.4930009,34.236029 L63.4930009,33.8294515 Z M64.3053832,34.8458953 C64.5397893,34.0429047 64.5397893,35.6488859 64.3053832,34.8458953 L64.3053832,34.8458953 Z M66.3363387,34.8458953 C66.469197,34.97888 66.2508693,34.7611917 66.3363387,34.8458953 L66.3363387,34.8458953 Z M49.8855989,30.9834089 C51.220106,26.551714 52.803405,21.2187723 53.5404726,16.5499071 C55.4910362,13.8258378 55.6086624,9.26793445 57.1970388,6.18218052 C56.9169362,7.47391116 58.2125166,8.56235305 58.2125166,9.84137815 C58.2125166,10.4105867 57.3417444,13.6089965 56.993097,14.5170196 C56.8187734,14.9727252 56.1417882,15.292905 55.9784655,15.7367521 C55.6687448,16.5727771 55.4131829,17.7975919 55.1660833,18.7860835 C54.1590678,22.8044246 53.5159319,27.3157409 52.3227456,31.3899864 C51.6567614,33.6659735 50.6945962,35.186404 50.2909438,37.2853604 C54.8919043,37.554718 60.2781676,35.9953238 66.3363387,36.4722054 C66.5182784,36.2926336 66.8990826,35.3058361 67.1478747,35.8623391 C67.1461822,36.1308497 66.7924574,36.0478401 66.7425298,36.2689166 C67.9661805,36.2748459 69.2431438,36.3324443 70.1951542,36.0656279 C70.4634095,35.5565589 69.3929267,35.4295034 69.9920586,35.2524728 C70.5319543,35.2541669 70.5099523,35.8182932 70.8044408,36.0656279 C70.9483002,34.9729508 70.6436569,34.329203 70.3982497,33.6261628 C69.8938958,33.3627344 69.4123901,34.0793273 69.382772,33.6261628 C69.6933389,33.2763367 69.0967457,32.6707056 69.7889631,32.4064302 C65.226083,24.7077156 62.2642729,15.408949 59.6341854,5.775603 C58.7786454,5.73325118 59.3236185,7.09189771 58.820957,7.40191306 C58.0762733,6.79289383 58.2624442,5.25044038 57.1970388,4.96244797 L56.7908477,4.96244797 C53.0386574,14.0130329 51.0821702,24.1749296 48.057739,34.236029 C49.9710683,34.2063828 49.5513375,32.0921797 49.8855989,30.9834089 L49.8855989,30.9834089 Z" id="Fill-54"></path>
                    <path d="M109.59603,31.186613 C110.001375,31.5042517 110.539578,32.2818312 109.59603,32.4063455 L109.59603,31.186613 Z M110.001375,29.5603029 C110.237473,28.7573123 110.237473,30.3632935 110.001375,29.5603029 L110.001375,29.5603029 Z M114.063286,31.999768 C114.058208,32.1971275 113.81534,32.1573168 113.657095,32.2030568 C113.663865,32.0056973 113.906733,32.045508 114.063286,31.999768 L114.063286,31.999768 Z M114.875668,11.061026 C115.121075,11.0406971 115.00091,11.3566417 114.875668,11.061026 C114.630261,11.0822019 114.751272,10.7654103 114.875668,11.061026 L114.875668,11.061026 Z M115.484955,30.3734579 C115.706667,30.4242801 115.62289,30.7783414 115.891146,30.7800355 C115.803984,31.3424677 115.253087,30.7901999 115.484955,30.3734579 L115.484955,30.3734579 Z M115.891146,23.0550627 C116.332032,23.0211812 115.984231,23.7758907 116.095088,24.0715065 C115.577194,24.0511776 115.614428,23.3142558 115.891146,23.0550627 L115.891146,23.0550627 Z M115.891146,25.4945278 C115.912302,25.7401683 115.596657,25.6198892 115.891146,25.4945278 C115.670279,24.5424588 116.84231,25.7164513 115.891146,25.4945278 L115.891146,25.4945278 Z M116.501279,34.4392331 C116.633291,34.5722178 116.415809,34.3536824 116.501279,34.4392331 L116.501279,34.4392331 Z M118.734483,29.3570142 C118.714174,29.1113736 119.029818,29.2316528 118.734483,29.3570142 C118.472152,29.9397753 116.76361,29.9397753 116.501279,29.3570142 C116.684911,28.7861116 117.564992,29.934693 118.734483,29.3570142 L118.734483,29.3570142 Z M117.922947,28.7471479 C117.498139,28.8335456 117.384744,28.6082339 117.109719,28.5438591 C117.045405,28.1855627 118.248747,28.1813275 117.922947,28.7471479 L117.922947,28.7471479 Z M119.750807,33.8293668 C120.227236,34.3096365 120.748514,33.7963324 121.375572,33.8293668 C121.182631,34.2850724 119.565483,34.7738125 119.750807,33.8293668 C119.124596,33.6769002 119.502862,34.530713 118.734483,34.2359443 C118.577084,33.4456593 118.50177,32.5715176 117.922947,32.2030568 C118.007571,31.7507393 119.0002,32.0438139 119.140675,32.2030568 L119.140675,32.4063455 C119.617103,33.0568695 119.314152,33.2237357 119.750807,33.8293668 L119.750807,33.8293668 Z M119.953057,23.4616402 C120.250084,22.7882462 120.459103,24.2544663 119.953057,23.4616402 L119.953057,23.4616402 Z M120.156152,17.9728437 C120.071529,17.8872931 120.289857,18.1058285 120.156152,17.9728437 L120.156152,17.9728437 Z M120.562343,22.8517739 C120.47772,22.7670703 120.696048,22.9847586 120.562343,22.8517739 L120.562343,22.8517739 Z M122.390203,30.3734579 C122.185415,30.3709168 122.134642,30.0177026 122.390203,29.9668804 C122.670306,29.4340945 123.135733,29.0868095 124.014968,29.1537254 C123.646857,29.5975725 123.276208,30.0405726 122.390203,29.9668804 L122.390203,30.3734579 C122.925868,30.3116243 122.914021,30.7978232 123.000336,31.186613 C122.241267,30.8647391 122.067789,31.5881083 121.172476,30.9833242 C121.415345,29.8982705 122.329275,31.7956322 122.390203,30.3734579 L122.390203,30.3734579 Z M123.000336,26.5109716 C123.433607,26.6058396 123.387064,26.220438 123.405681,25.9011053 C123.646857,26.1357344 124.124132,26.1314992 124.625101,26.104394 C124.446546,26.8074343 123.713709,26.9539716 123.609623,27.7307041 C123.172121,27.5587557 122.891172,27.2301055 123.000336,26.5109716 L123.000336,26.5109716 Z M124.014968,25.4945278 C123.995505,25.2488872 124.311149,25.3691664 124.014968,25.4945278 C124.036124,25.7401683 123.719633,25.6198892 124.014968,25.4945278 L124.014968,25.4945278 Z M121.984859,34.0326556 C122.665229,33.5413744 121.494044,34.7145199 121.984859,34.0326556 L121.984859,34.0326556 Z M117.922947,37.0819869 C117.068254,36.8143234 117.922947,36.4153692 117.922947,35.8622544 C118.621935,35.9749102 118.040574,36.6483043 117.922947,37.0819869 L117.922947,37.0819869 Z M117.312815,33.6260781 C118.051575,33.4964815 118.111657,34.0470552 118.126043,34.6425218 C117.678387,34.4807379 117.314507,34.2342503 117.312815,33.6260781 L117.312815,33.6260781 Z M117.51591,35.2523881 C117.431287,35.1668374 117.649615,35.3862199 117.51591,35.2523881 L117.51591,35.2523881 Z M125.233541,25.291239 C125.46964,24.4882484 125.46964,26.0942296 125.233541,25.291239 L125.233541,25.291239 Z M105.330177,6.58867333 C105.878535,6.3836905 107.556612,6.25324688 107.76817,6.38538457 C107.592154,7.74572517 107.945032,9.84468159 107.971265,11.061026 C108.144743,19.4001002 106.247492,32.9950359 113.048654,37.2852757 C113.027498,37.0396351 113.343143,37.1607613 113.048654,37.2852757 C119.661107,41.0554351 124.135979,34.9957361 125.233541,29.1537254 C125.109145,29.213018 124.452469,29.6594062 124.422005,29.1537254 C124.800271,29.3485438 125.100683,28.5447062 125.233541,29.1537254 C125.793746,28.7132664 125.253851,27.9983676 125.030446,28.1372816 C127.360967,21.3177908 126.236325,13.1354184 125.436637,5.36894079 C117.978799,4.86495407 111.444199,5.96101929 104.72089,5.57222954 C104.251232,6.41503085 104.453481,8.92056478 104.72089,10.247871 C105.62805,9.41354002 105.12962,7.71438482 105.330177,6.58867333 L105.330177,6.58867333 Z" id="Fill-56"></path>
                    <path id="Fill-58"></path>
                    <path d="M13.7347598,36.6749859 C10.8059527,36.5115079 8.29856889,36.3700528 6.62641551,35.8626779 C7.23147101,35.7229169 7.86868331,35.6161903 8.04723815,35.0495229 C7.49211031,35.0495229 6.74488792,35.8948653 6.21937818,35.2528116 C5.44338392,34.6734387 7.02245184,34.1796164 6.21937818,33.6256545 C6.29469278,33.9720925 6.06197912,34.0102091 5.8140333,34.0330791 C6.09498215,32.7786181 5.96804743,32.2754784 5.8140333,31.1870365 C6.13560126,31.1692487 6.5883351,31.2844457 6.62641551,30.9837477 C5.42476683,31.2615757 5.23690344,29.0550456 6.21937818,28.9508602 C4.72831833,28.4079098 5.30544819,24.5344119 5.00165109,22.0390424 C4.32889708,16.5112823 3.40396608,8.13917362 3.57998223,2.31918591 C2.63474168,2.2539641 2.22431941,2.72491639 1.34508492,2.72661046 C0.870349065,15.0264273 3.12386347,26.996747 3.78307778,36.6749859 C6.57818032,37.0104124 12.0092939,38.4351277 13.7347598,36.6749859" id="Fill-60"></path>
                    <path d="M1.34533879,2.72652575 C2.22457328,2.72483168 2.63414931,2.25387939 3.5802361,2.31994824 C3.40421995,8.13908892 4.32830471,16.5111976 5.00105873,22.0389577 C5.30570206,24.5351742 4.7285722,28.4078251 6.21963205,28.9507755 C5.23715731,29.0549609 5.42417447,31.261491 6.62582315,30.983663 C6.58774274,31.284361 6.1350089,31.1700111 5.81344094,31.1869518 C5.9683013,32.2753937 6.09438979,32.7785333 5.81344094,34.0329944 C6.06138676,34.0101244 6.29494665,33.9720078 6.21963205,33.6255698 C7.02270571,34.1795317 5.44363779,34.673354 6.21963205,35.2527269 C6.74514179,35.8947806 7.49236417,35.0494382 8.04749202,35.0494382 C8.02718246,34.8037976 8.34367303,34.9240768 8.04749202,35.0494382 C7.86893718,35.6161056 7.23172488,35.7236792 6.62582315,35.8625932 C8.29882276,36.3699681 10.8062066,36.5114232 13.7350137,36.6749012 C12.0095478,38.435043 6.57843419,37.0111747 3.78333165,36.6749012 C3.12411734,26.9966623 0.869756703,15.0263426 1.34533879,2.72652575 M5.40809607,1.91337073 C5.91329625,1.99553326 5.41909708,2.70111466 5.00105873,2.523237 C4.88935618,2.07261358 5.38947898,2.23355052 5.40809607,1.91337073 M6.21963205,24.274287 C6.51581306,23.60174 6.72483223,25.0679602 6.21963205,24.274287 M8.86072046,34.0329944 C8.15665588,33.9914896 8.49007108,32.9123651 8.25058757,32.4066843 C8.62885304,32.7734511 8.99527126,33.1520764 8.86072046,34.0329944 M9.87535199,30.3737968 C9.83811781,30.5465922 9.95489775,30.565227 10.0784475,30.5770855 C9.55378403,30.7575043 9.58763329,31.5672712 10.0784475,31.7968181 C9.4480051,32.6091261 9.58594083,30.9506286 9.26606533,30.7803743 C9.35491964,30.5296515 9.52670462,30.3627853 9.87535199,30.3737968 M10.2823893,35.0494382 C10.1943813,35.6118704 9.64348457,35.0596026 9.87535199,34.6428607 C10.0962184,34.6928358 10.0132877,35.0468971 10.2823893,35.0494382 M10.6885804,31.5935293 C10.8205925,31.726514 10.6022648,31.5079786 10.6885804,31.5935293 M11.5001164,31.1869518 C11.495039,31.3843113 11.2521706,31.3445006 11.0947715,31.3902405 C11.0998489,31.192034 11.3427174,31.2318447 11.5001164,31.1869518 M12.1102493,29.1540642 L11.703212,29.1540642 C11.7412924,28.9812688 11.6236662,28.9617869 11.5001164,28.9507755 C11.4197244,28.5560565 12.4258936,28.6534656 12.1102493,29.1540642 M12.5155942,34.8461494 C13.1460366,35.6144115 11.0304579,36.2505359 10.2823893,35.6593044 C10.7148136,35.4356868 12.2794956,35.7965244 12.5155942,34.8461494 M12.9217853,33.0165506 C13.2230437,33.189346 13.3584407,33.5281606 13.3279764,34.0329944 C12.8845511,34.0025011 12.8921672,33.5205373 12.9217853,33.0165506 M14.7496452,11.8745198 C14.9848976,11.0715292 14.9848976,12.6775104 14.7496452,11.8745198 M15.1558364,24.4784228 C15.1676836,24.3539084 15.1863007,24.2378644 15.3597781,24.274287 C15.3386223,24.0294935 15.6542667,24.1497726 15.3597781,24.274287 C15.3479309,24.3988014 15.3284676,24.5156924 15.1558364,24.4784228 C15.1769921,24.7240634 14.8613478,24.6029372 15.1558364,24.4784228 M15.9682186,34.8461494 C15.4401701,34.9672756 15.2370746,34.7639869 15.3597781,34.2362831 C15.5484878,34.4531245 16.1078468,34.2989638 15.9682186,34.8461494 M15.9682186,5.16599084 C16.2043171,4.36300025 16.2043171,5.96898143 15.9682186,5.16599084 M19.2177474,22.0389577 C19.0451162,22.0016881 19.0273453,22.1185791 19.0154981,22.2422465 C18.777707,22.209212 18.8437131,21.8712445 18.8124025,21.6323802 C19.157665,21.5569939 19.1957454,21.790776 19.2177474,22.0389577 M19.8270341,16.9567388 C19.8067245,16.7110982 20.1223688,16.8313774 19.8270341,16.9567388 C19.7864149,17.565758 18.9841875,16.7619204 19.8270341,16.9567388 M23.8897913,5.97914587 C23.8838677,6.17650537 23.6409993,6.13669466 23.482754,6.18243463 C23.4886776,5.98422809 23.7315461,6.02488584 23.8897913,5.97914587 M24.2951362,8.62189972 C24.2105131,8.53634903 24.4279946,8.75488445 24.2951362,8.62189972 M38.3087293,7.19887842 C38.5549827,7.1777025 38.4339716,7.49364711 38.3087293,7.19887842 C38.0641684,7.21920729 38.1843333,6.90326268 38.3087293,7.19887842 M43.7923092,12.2810974 C42.8479149,13.294153 39.9859601,13.2653538 38.3087293,12.8909636 C39.8522555,11.5966919 41.5142541,12.3793536 43.7923092,12.2810974 M43.1830226,24.4784228 C42.3926424,25.3805167 40.6553292,25.3356237 38.918016,25.2915778 C39.6076946,24.2878396 41.5692592,24.5563501 43.1830226,24.4784228 M13.9381093,38.5045 C14.317221,37.0289625 15.0322866,36.6206909 15.9682186,36.065882 C16.5165766,35.394182 16.3524076,34.0101244 16.3744097,32.8132618 C16.2864016,32.5117169 16.1146166,32.8928833 15.7659692,32.8132618 C15.7659692,32.9259177 15.6009541,33.0436558 15.5628737,32.8132618 L15.7659692,32.8132618 C17.1546351,31.5283075 15.344546,29.3446474 15.7659692,27.1211766 C21.6396619,25.2085682 24.8883445,20.6676056 26.1229962,14.1098491 C26.7238205,21.0191258 25.9452876,30.0561581 27.1384739,36.2691707 C27.3754188,36.3022051 27.4998148,36.2242778 27.5455113,36.065882 C27.4321163,36.065882 27.3136439,35.9015569 27.5455113,35.8625932 L27.5455113,36.065882 C28.1700301,36.1548208 27.7536842,35.7084326 27.7477606,35.6593044 C27.295873,31.539319 27.6605988,21.7365657 27.3424157,14.7205624 C27.1960177,11.5018238 26.3937903,5.75552824 30.1849072,6.7923009 C29.2049712,8.68034524 29.6551663,11.2951469 29.7795624,14.1098491 C30.0960529,21.3155885 29.7931021,29.4124103 30.3880028,35.8625932 C33.4640542,38.9568175 41.4947908,37.6938861 46.0272066,36.87819 C46.6779586,34.3438568 45.3916867,32.1322445 45.6201692,29.3565059 C43.9344761,27.9292494 41.2011485,28.5823146 39.1219578,28.1376204 C38.8080059,27.8420047 38.9434029,27.0966126 38.918016,26.5113104 C42.6769762,27.083907 44.1874993,24.9231169 46.2303021,23.2586902 C46.6737274,20.1500663 46.3919323,17.218473 45.0117288,15.7370062 C42.4087208,15.5896219 40.5478578,15.0212604 38.1056338,15.940295 C38.3527334,15.2025262 37.7002889,14.3351608 38.1056338,14.1098491 C42.4755731,15.0415893 45.0540404,13.2128375 46.8387425,10.858076 C47.399794,9.11063977 46.804047,6.85244049 46.4325514,5.3692796 C44.1874993,5.26932929 39.9901913,4.05129082 37.7002889,4.35283581 C32.5382769,5.030465 26.3345541,4.60864083 25.9207469,9.6383435 C24.0268808,-0.972482593 10.0276737,0.0702193249 0.330707258,2.31994824 C-0.387743259,5.67167163 0.24523788,9.75523454 0.53380281,14.3139849 C1.00853866,21.8297397 2.23980545,28.9651751 2.5639121,37.4889033 C5.84390527,38.5214407 10.0623691,38.3545746 13.9381093,38.5045" id="Fill-62"></path>
                    <path d="M121.801142,42.6178786 L122.207333,42.6178786 C122.186177,42.372238 122.501821,42.4933642 122.207333,42.6178786 C122.184485,42.8660603 122.146404,43.0989953 121.801142,43.0244561 L121.801142,42.6178786 Z M122.613524,41.1948573 C122.945247,41.1592818 123.0231,42.5247046 122.410428,42.2113011 C122.581367,41.975825 122.678684,41.6666566 122.613524,41.1948573 L122.613524,41.1948573 Z M123.832097,44.6507662 C123.826174,44.8489727 123.582459,44.808315 123.425906,44.8540549 C123.430983,44.6566954 123.674698,44.6965062 123.832097,44.6507662 L123.832097,44.6507662 Z M124.440538,41.8047236 C124.94743,41.8877332 124.454077,42.5933146 124.035193,42.4145899 C124.107122,42.1477734 124.393149,42.0952571 124.440538,41.8047236 L124.440538,41.8047236 Z M125.050671,42.6178786 C124.90258,42.0630697 125.453477,42.20876 125.456862,41.8047236 C125.75812,41.8428402 125.643033,42.2960047 125.660803,42.6178786 L125.050671,42.6178786 C125.009205,43.2268978 124.207824,42.4239073 125.050671,42.6178786 L125.050671,42.6178786 Z M125.253766,41.3981461 C125.386624,41.5311308 125.168297,41.3125954 125.253766,41.3981461 L125.253766,41.3981461 Z M126.675435,41.6014348 C126.670358,41.7996414 126.426643,41.7589836 126.268398,41.8047236 C126.275167,41.6073641 126.518036,41.6471748 126.675435,41.6014348 L126.675435,41.6014348 Z M120.988759,77.7876807 C120.982836,77.9841931 120.739967,77.9443824 120.583415,77.9909694 C120.587646,77.7919159 120.83136,77.8317266 120.988759,77.7876807 L120.988759,77.7876807 Z M122.004237,76.9736786 C122.168406,77.0812522 122.333421,77.1862848 122.613524,77.1769674 C122.610985,77.5810038 122.059242,77.4353135 122.207333,77.9909694 C121.52527,77.8046214 122.106631,77.6114971 122.004237,76.9736786 L122.004237,76.9736786 Z M122.004237,76.5671011 C122.136249,76.7000858 121.918768,76.4815504 122.004237,76.5671011 L122.004237,76.5671011 Z M115.911371,76.5671011 L116.520657,76.5671011 C116.499502,76.3214605 116.815992,76.4425867 116.520657,76.5671011 L116.520657,78.5999887 C120.39132,78.0909197 125.021052,79.3868856 127.487817,76.5671011 C127.445506,74.2885729 127.693451,72.3005783 127.893162,70.2651496 C127.696836,70.2600674 127.736609,70.0169679 127.690913,69.8585721 C124.953354,68.2356502 117.025858,72.2421328 119.160899,65.1829307 C120.837284,64.2181561 123.850714,64.5916992 125.863053,63.9631981 C127.178943,62.0082379 127.064701,58.0779886 126.268398,55.6283591 C123.809249,55.39373 121.769831,56.5999099 119.973282,55.8324949 C119.798112,53.7581025 120.401475,52.4655248 121.394951,51.5625839 C122.980788,52.0894406 124.591167,51.9149511 126.066148,52.1724502 C127.639293,49.3636772 127.207715,44.5965559 127.081626,40.9915686 C125.782661,41.0390026 125.28423,40.4511593 123.832097,40.1784135 C123.865946,40.6874825 123.519838,40.815385 123.222811,40.9915686 C122.850469,40.468947 123.453832,40.1301324 122.613524,39.9751248 C121.733443,40.2809049 122.890242,41.4337216 122.004237,41.8047236 C121.731751,41.0288382 121.432185,40.6104021 122.004237,39.9751248 C120.872826,39.6913675 120.294003,39.8438341 119.363149,40.1784135 C118.879104,39.0671016 115.576263,39.2517556 115.708275,39.771836 C115.23777,38.9273406 111.174167,39.3703407 110.428637,40.3817023 C109.469857,41.6810563 110.392249,44.8811601 110.428637,46.8869425 C110.556418,54.1570567 108.583852,67.930717 109.208371,75.9572348 C110.157843,76.0233037 110.087606,77.1108985 111.036231,77.1769674 C111.070927,76.8720342 110.964301,76.4273401 111.240173,76.3646594 C111.205477,76.6678984 111.312103,77.1142867 111.036231,77.1769674 C111.127624,77.3582332 111.214786,77.540346 111.443269,77.5835449 C111.381494,77.0473708 111.724217,76.9169272 112.255651,76.9736786 C112.375816,77.6225086 111.874847,77.6030267 112.255651,77.9909694 C113.161965,78.0900727 114.749495,78.86257 114.895893,77.9909694 C114.287452,77.9494646 115.08968,77.1464741 114.895893,77.9909694 C115.815747,77.8385029 114.585326,78.5483194 115.506026,78.3966999 C115.688812,77.7859866 115.624498,76.8821987 115.911371,76.5671011 L115.911371,76.5671011 Z" id="Fill-65"></path>
                    <path d="M20.4566303,74.3313483 C23.5005249,72.7016501 26.6611994,67.6787237 26.5486506,63.7603329 C26.4132536,58.9889764 22.6297527,55.5000331 18.221733,55.0180693 C20.0055889,52.6582256 21.2876296,48.1799437 19.8464974,44.8544785 C19.3759927,43.7668836 18.0474093,43.2849198 17.8155419,42.2117246 C14.4221537,39.9442079 5.82867311,38.8794831 2.98956653,41.8051471 C1.8243058,52.6218031 2.59945382,64.5353713 3.39660387,75.346945 C8.64577767,76.7716604 16.0697663,76.6784864 20.4566303,74.3313483" id="Fill-67"></path>
                    <path d="M145.156792,42.0082665 C145.162715,41.8109069 145.405584,41.8498706 145.562983,41.8049777 C145.557905,42.0023372 145.315037,41.9625265 145.156792,42.0082665 M144.953696,79.210109 C144.869073,79.1245584 145.087401,79.3430938 144.953696,79.210109 M140.282498,77.9903765 C140.241033,78.5993957 139.439652,77.7955581 140.282498,77.9903765 C140.062478,76.9120991 140.899401,77.7498181 140.282498,77.9903765 M139.064771,77.9903765 C139.069849,77.79217 139.312717,77.8319807 139.470116,77.7870877 C139.464193,77.9844472 139.221324,77.9446365 139.064771,77.9903765 M138.048447,42.0082665 C137.851275,42.0023372 137.891048,41.7592377 137.845352,41.6016889 C138.017983,41.6389585 138.0366,41.5220675 138.048447,41.3984002 C138.298932,41.487339 138.466486,41.6584404 138.454638,42.0082665 C138.274391,41.8837521 138.090759,41.7626259 138.048447,42.0082665 M134.798919,43.4312878 C134.714295,43.3457371 134.932623,43.5642725 134.798919,43.4312878 M133.37725,43.4312878 C133.139459,43.3982533 133.206311,43.0602858 133.174154,42.8214215 C133.519417,42.7468823 133.557497,42.9798173 133.580345,43.227999 C133.407714,43.1907294 133.389097,43.3076204 133.37725,43.4312878 M148.812512,42.6181327 C148.496021,43.0467332 148.449478,43.7455383 147.797034,43.8378653 C147.429769,43.366913 148.215918,42.7511175 148.812512,42.6181327 M146.578461,63.7601635 C148.321697,62.5514424 150.097091,61.9119299 151.655849,60.5075434 C156.419286,56.2181506 155.921702,46.3315407 150.234181,44.041154 C149.777216,41.8786699 146.96942,41.5855952 144.34441,41.1951114 C140.521136,40.6250559 135.737389,40.9604823 132.564867,42.0082665 C132.667261,53.6711119 133.588808,66.8018715 132.564867,80.2265528 C141.572155,80.8008436 148.703348,81.3226181 156.733238,79.6166866 C154.245318,73.4333202 150.076781,68.9321683 146.578461,63.7601635" id="Fill-69"></path>
                    <path d="M68.5893453,72.5015801 C69.2714079,72.0102989 68.0993773,73.1834444 68.5893453,72.5015801 M67.1676765,72.7048688 C67.1736001,72.5066623 67.4164685,72.54732 67.5747138,72.5015801 C67.5687902,72.6989396 67.3259218,72.6591288 67.1676765,72.7048688 M67.3716183,69.2489599 C67.6068706,68.4451223 67.6068706,70.0519505 67.3716183,69.2489599 M74.0729253,60.3042546 C74.759219,54.8755978 75.6528394,47.2234701 74.8861537,42.0082665 C67.3022273,41.3196258 58.6943608,42.067559 50.717783,42.8214215 C50.5290733,48.7108662 51.1129731,53.047693 51.5301652,58.8812333 C52.7445073,59.6308606 55.2197344,59.1184035 56.8098033,59.4910996 C58.7189015,64.2014695 57.0095139,69.8562851 57.6230317,75.3467756 C59.8384657,77.4347206 65.1908798,76.4021831 68.1840005,76.1607777 C68.1873854,75.0638654 68.1645371,75.5788636 68.7924409,75.7542002 C70.1371027,71.7900694 70.1100233,65.6177145 69.6056693,61.9305647 C70.6659974,60.9590138 72.43039,60.6930444 74.0729253,60.3042546" id="Fill-71"></path>
                    <path d="M32.2361723,45.46426 C32.3681844,45.5972448 32.1498567,45.3787093 32.2361723,45.46426 M34.6733189,44.4478162 C34.9229572,44.5367551 35.0905111,44.7078564 35.0786638,45.0576825 C34.3745992,45.2347131 34.3822153,44.744279 34.6733189,44.4478162 M35.4857011,74.5345523 C44.4235979,77.0849792 46.7346561,66.2581588 46.8582059,57.8648742 C46.9453677,52.032181 46.2675363,48.2425397 45.8435743,42.4149287 C41.4380933,42.8926572 35.9232028,42.3327661 31.4229439,43.83795 C31.1834604,43.5355579 31.247774,42.9299269 30.6114079,43.0247949 C30.4201596,43.5313228 30.8475065,44.6104472 29.3928346,44.0412387 C29.2743622,45.1169751 30.228065,44.1708353 30.4083123,44.651105 C30.377848,45.0271892 29.7203262,44.7756194 29.5959301,45.0576825 C30.0131222,49.1387043 30.2542982,54.1717951 30.2052168,58.2714517 C30.1324409,64.2396708 30.2813776,73.0488503 35.4857011,74.5345523" id="Fill-73"></path>
                    <path d="M96.8208118,64.1669104 C99.2850379,63.5849963 101.927819,63.1809599 103.522965,61.7265983 C104.683148,55.7617673 104.824469,50.7786517 103.92831,44.2437652 C97.7762072,42.4167074 86.5323297,43.0943366 79.3537481,42.8215909 C78.2104894,48.1147219 77.9396953,55.4254938 78.7444615,60.9142903 C80.2507535,61.9883326 82.0430717,62.1238584 84.2280414,62.1340228 C85.308679,66.6555036 83.6864532,69.1237679 85.0412698,73.3149045 C87.8854538,74.9454497 93.2226356,73.6477898 96.210679,73.5181932 C97.6932765,71.2811699 97.2963939,66.7613832 96.8208118,64.1669104" id="Fill-75"></path>
                </g>
                <path d="M2.908,192 L2.908,182.99 L9.198,182.99 C13.72,182.99 16.304,179.862 16.304,176.156 C16.304,172.45 13.754,169.322 9.198,169.322 L0.086,169.322 L0.086,192 L2.908,192 Z M8.858,180.474 L2.908,180.474 L2.908,171.838 L8.858,171.838 C11.544,171.838 13.38,173.606 13.38,176.156 C13.38,178.706 11.544,180.474 8.858,180.474 L8.858,180.474 Z M42.902,192 L42.902,189.484 L30.866,189.484 L30.866,181.664 L42.664,181.664 L42.664,179.148 L30.866,179.148 L30.866,171.838 L42.902,171.838 L42.902,169.322 L28.044,169.322 L28.044,192 L42.902,192 Z M74.804,192 L65.692,169.322 L62.19,169.322 L53.044,192 L56.274,192 L58.28,186.934 L69.568,186.934 L71.574,192 L74.804,192 Z M68.752,184.452 L59.13,184.452 L63.924,172.212 L68.752,184.452 Z M104.53,192 L104.53,169.322 L101.708,169.322 L101.708,187.036 L88.652,169.322 L85.762,169.322 L85.762,192 L88.584,192 L88.584,173.912 L101.81,192 L104.53,192 Z M127.082,192.408 C133.236,192.408 136.364,188.804 136.364,183.16 L136.364,169.322 L133.508,169.322 L133.508,183.126 C133.508,187.274 131.264,189.892 127.082,189.892 C122.9,189.892 120.69,187.274 120.69,183.126 L120.69,169.322 L117.834,169.322 L117.834,183.194 C117.834,188.77 120.962,192.408 127.082,192.408 L127.082,192.408 Z M158.1,192 L158.1,171.838 L165.308,171.838 L165.308,169.322 L148.104,169.322 L148.104,171.838 L155.278,171.838 L155.278,192 L158.1,192 Z M204.19,192 C208.338,192 210.752,189.518 210.752,185.88 C210.752,183.16 208.746,180.678 206.332,180.304 C208.406,179.862 210.31,177.958 210.31,175.102 C210.31,171.702 207.896,169.322 203.952,169.322 L193.854,169.322 L193.854,192 L204.19,192 Z M203.476,179.148 L196.676,179.148 L196.676,171.838 L203.476,171.838 C206.026,171.838 207.386,173.47 207.386,175.51 C207.386,177.584 206.026,179.148 203.476,179.148 L203.476,179.148 Z M203.646,189.484 L196.676,189.484 L196.676,181.664 L203.646,181.664 C206.4,181.664 207.828,183.5 207.828,185.574 C207.828,187.988 206.264,189.484 203.646,189.484 L203.646,189.484 Z M232.488,192.408 C238.642,192.408 241.77,188.804 241.77,183.16 L241.77,169.322 L238.914,169.322 L238.914,183.126 C238.914,187.274 236.67,189.892 232.488,189.892 C228.306,189.892 226.096,187.274 226.096,183.126 L226.096,169.322 L223.24,169.322 L223.24,183.194 C223.24,188.77 226.368,192.408 232.488,192.408 L232.488,192.408 Z M263.506,192 L263.506,171.838 L270.714,171.838 L270.714,169.322 L253.51,169.322 L253.51,171.838 L260.684,171.838 L260.684,192 L263.506,192 Z M290.886,192 L290.886,171.838 L298.094,171.838 L298.094,169.322 L280.89,169.322 L280.89,171.838 L288.064,171.838 L288.064,192 L290.886,192 Z M324.692,192 L324.692,189.484 L312.656,189.484 L312.656,181.664 L324.454,181.664 L324.454,179.148 L312.656,179.148 L312.656,171.838 L324.692,171.838 L324.692,169.322 L309.834,169.322 L309.834,192 L324.692,192 Z M353.636,192 L347.516,182.752 C350.61,182.48 353.432,180.236 353.432,176.156 C353.432,171.974 350.44,169.322 346.292,169.322 L337.18,169.322 L337.18,192 L340.002,192 L340.002,182.99 L344.558,182.99 L350.304,192 L353.636,192 Z M345.952,180.508 L340.002,180.508 L340.002,171.838 L345.952,171.838 C348.638,171.838 350.508,173.572 350.508,176.156 C350.508,178.706 348.638,180.508 345.952,180.508 L345.952,180.508 Z M390.444,192 C397.516,192 402.072,187.138 402.072,180.678 C402.072,174.252 397.516,169.322 390.444,169.322 L382.692,169.322 L382.692,192 L390.444,192 Z M390.444,189.484 L385.514,189.484 L385.514,171.838 L390.444,171.838 C396.054,171.838 399.148,175.782 399.148,180.678 C399.148,185.54 395.952,189.484 390.444,189.484 L390.444,189.484 Z M422.55,192 L422.55,182.412 L431.458,169.322 L428.16,169.322 L421.122,179.862 L414.084,169.322 L410.786,169.322 L419.728,182.412 L419.728,192 L422.55,192 Z M461.184,192 L461.184,169.322 L458.362,169.322 L458.362,187.036 L445.306,169.322 L442.416,169.322 L442.416,192 L445.238,192 L445.238,173.912 L458.464,192 L461.184,192 Z M493.902,192 L484.79,169.322 L481.288,169.322 L472.142,192 L475.372,192 L477.378,186.934 L488.666,186.934 L490.672,192 L493.902,192 Z M487.85,184.452 L478.228,184.452 L483.022,172.212 L487.85,184.452 Z M527.062,192 L527.062,169.322 L523.016,169.322 L515.978,186.798 L508.906,169.322 L504.86,169.322 L504.86,192 L507.682,192 L507.682,172.926 L515.4,192 L516.556,192 L524.24,172.926 L524.24,192 L527.062,192 Z M543.188,192 L543.188,169.322 L540.366,169.322 L540.366,192 L543.188,192 Z M564.924,192 L564.924,171.838 L572.132,171.838 L572.132,169.322 L554.928,169.322 L554.928,171.838 L562.102,171.838 L562.102,192 L564.924,192 Z M598.73,192 L598.73,189.484 L586.694,189.484 L586.694,181.664 L598.492,181.664 L598.492,179.148 L586.694,179.148 L586.694,171.838 L598.73,171.838 L598.73,169.322 L583.872,169.322 L583.872,192 L598.73,192 Z" id="PEANUT-BUTTER-DYNAMI" fill="#FFFFFF"></path>
                <path d="M81.4259977,231.168 C83.9459977,231.168 84.8699977,229.768 84.8699977,228.424 C84.8699977,224.938 79.3399977,226.142 79.3399977,224.042 C79.3399977,223.16 80.1519977,222.558 81.2579977,222.558 C82.2799977,222.558 83.2599977,222.894 83.9599977,223.678 L84.6599977,222.824 C83.8759977,221.998 82.7699977,221.508 81.3559977,221.508 C79.5079977,221.508 78.1359977,222.572 78.1359977,224.112 C78.1359977,227.444 83.6659977,226.1 83.6659977,228.508 C83.6659977,229.236 83.1339977,230.132 81.4679977,230.132 C80.1519977,230.132 79.1439977,229.488 78.5419977,228.788 L77.8419977,229.684 C78.6119977,230.552 79.8159977,231.168 81.4259977,231.168 L81.4259977,231.168 Z M95.4719978,231.168 C98.2299978,231.168 100.119998,229.096 100.119998,226.338 C100.119998,223.58 98.2299978,221.508 95.4719978,221.508 C92.7139978,221.508 90.8379978,223.58 90.8379978,226.338 C90.8379978,229.096 92.7139978,231.168 95.4719978,231.168 L95.4719978,231.168 Z M95.4719978,230.132 C93.3719978,230.132 92.0419978,228.508 92.0419978,226.338 C92.0419978,224.154 93.3719978,222.544 95.4719978,222.544 C97.5579978,222.544 98.9159978,224.154 98.9159978,226.338 C98.9159978,228.508 97.5579978,230.132 95.4719978,230.132 L95.4719978,230.132 Z M119.195998,231.168 C120.847998,231.168 121.967998,230.384 122.751998,229.306 L121.771998,228.774 C121.239998,229.558 120.259998,230.132 119.195998,230.132 C117.151998,230.132 115.597998,228.55 115.597998,226.338 C115.597998,224.098 117.151998,222.544 119.195998,222.544 C120.259998,222.544 121.239998,223.104 121.771998,223.902 L122.737998,223.356 C121.995998,222.292 120.847998,221.508 119.195998,221.508 C116.507998,221.508 114.393998,223.468 114.393998,226.338 C114.393998,229.208 116.507998,231.168 119.195998,231.168 L119.195998,231.168 Z M132.653998,231.168 C135.187998,231.168 136.475998,229.684 136.475998,227.36 L136.475998,221.662 L135.299998,221.662 L135.299998,227.346 C135.299998,229.054 134.375998,230.132 132.653998,230.132 C130.931998,230.132 130.021998,229.054 130.021998,227.346 L130.021998,221.662 L128.845998,221.662 L128.845998,227.374 C128.845998,229.67 130.133998,231.168 132.653998,231.168 L132.653998,231.168 Z M146.741998,231 L146.741998,222.698 L149.709998,222.698 L149.709998,221.662 L142.625998,221.662 L142.625998,222.698 L145.579998,222.698 L145.579998,231 L146.741998,231 Z M161.977998,231 L161.977998,229.964 L157.021998,229.964 L157.021998,226.744 L161.879998,226.744 L161.879998,225.708 L157.021998,225.708 L157.021998,222.698 L161.977998,222.698 L161.977998,221.662 L155.859998,221.662 L155.859998,231 L161.977998,231 Z M177.833999,231 L177.833999,221.662 L176.671999,221.662 L176.671999,231 L177.833999,231 Z M188.099999,231 L188.099999,222.698 L191.067999,222.698 L191.067999,221.662 L183.983999,221.662 L183.983999,222.698 L186.937999,222.698 L186.937999,231 L188.099999,231 Z M214.595999,231 L214.595999,221.662 L212.929999,221.662 L210.031999,228.858 L207.119999,221.662 L205.453999,221.662 L205.453999,231 L206.615999,231 L206.615999,223.146 L209.793999,231 L210.269999,231 L213.433999,223.146 L213.433999,231 L214.595999,231 Z M229.383999,231 L225.631999,221.662 L224.189999,221.662 L220.423999,231 L221.753999,231 L222.579999,228.914 L227.227999,228.914 L228.053999,231 L229.383999,231 Z M226.891999,227.892 L222.929999,227.892 L224.903999,222.852 L226.891999,227.892 Z M242.309999,231 L238.067999,226.086 L241.959999,221.662 L240.503999,221.662 L236.373999,226.478 L236.373999,221.662 L235.211999,221.662 L235.211999,231 L236.373999,231 L236.373999,227.864 L237.311999,226.8 L240.853999,231 L242.309999,231 Z M254.354,231 L254.354,229.964 L249.398,229.964 L249.398,226.744 L254.256,226.744 L254.256,225.708 L249.398,225.708 L249.398,222.698 L254.354,222.698 L254.354,221.662 L248.236,221.662 L248.236,231 L254.354,231 Z M263.836,231.168 C266.356,231.168 267.28,229.768 267.28,228.424 C267.28,224.938 261.75,226.142 261.75,224.042 C261.75,223.16 262.562,222.558 263.668,222.558 C264.69,222.558 265.67,222.894 266.37,223.678 L267.07,222.824 C266.286,221.998 265.18,221.508 263.766,221.508 C261.918,221.508 260.546,222.572 260.546,224.112 C260.546,227.444 266.076,226.1 266.076,228.508 C266.076,229.236 265.544,230.132 263.878,230.132 C262.562,230.132 261.554,229.488 260.952,228.788 L260.252,229.684 C261.022,230.552 262.226,231.168 263.836,231.168 L263.836,231.168 Z M285.74,231 L285.74,227.052 L289.408,221.662 L288.05,221.662 L285.152,226.002 L282.254,221.662 L280.896,221.662 L284.578,227.052 L284.578,231 L285.74,231 Z M298.932,231.168 C301.69,231.168 303.58,229.096 303.58,226.338 C303.58,223.58 301.69,221.508 298.932,221.508 C296.174,221.508 294.298,223.58 294.298,226.338 C294.298,229.096 296.174,231.168 298.932,231.168 L298.932,231.168 Z M298.932,230.132 C296.832,230.132 295.502,228.508 295.502,226.338 C295.502,224.154 296.832,222.544 298.932,222.544 C301.018,222.544 302.376,224.154 302.376,226.338 C302.376,228.508 301.018,230.132 298.932,230.132 L298.932,230.132 Z M313.804,231.168 C316.338,231.168 317.626,229.684 317.626,227.36 L317.626,221.662 L316.45,221.662 L316.45,227.346 C316.45,229.054 315.526,230.132 313.804,230.132 C312.082,230.132 311.172,229.054 311.172,227.346 L311.172,221.662 L309.996,221.662 L309.996,227.374 C309.996,229.67 311.284,231.168 313.804,231.168 L313.804,231.168 Z M341.056,231 L343.73,221.662 L342.428,221.662 L340.37,229.446 L338.228,221.662 L337.262,221.662 L335.12,229.446 L333.048,221.662 L331.76,221.662 L334.42,231 L335.68,231 L337.738,223.468 L339.796,231 L341.056,231 Z M356.964001,231 L353.212001,221.662 L351.770001,221.662 L348.004001,231 L349.334001,231 L350.160001,228.914 L354.808001,228.914 L355.634001,231 L356.964001,231 Z M354.472001,227.892 L350.510001,227.892 L352.484001,222.852 L354.472001,227.892 Z M370.520001,231 L370.520001,221.662 L369.358001,221.662 L369.358001,228.956 L363.982001,221.662 L362.792001,221.662 L362.792001,231 L363.954001,231 L363.954001,223.552 L369.400001,231 L370.520001,231 Z M380.786001,231 L380.786001,222.698 L383.754001,222.698 L383.754001,221.662 L376.670001,221.662 L376.670001,222.698 L379.624001,222.698 L379.624001,231 L380.786001,231 Z M401.612001,231 L401.612001,222.698 L404.580001,222.698 L404.580001,221.662 L397.496001,221.662 L397.496001,222.698 L400.450001,222.698 L400.450001,231 L401.612001,231 Z M414.608001,231.168 C417.366001,231.168 419.256001,229.096 419.256001,226.338 C419.256001,223.58 417.366001,221.508 414.608001,221.508 C411.850001,221.508 409.974001,223.58 409.974001,226.338 C409.974001,229.096 411.850001,231.168 414.608001,231.168 L414.608001,231.168 Z M414.608001,230.132 C412.508001,230.132 411.178001,228.508 411.178001,226.338 C411.178001,224.154 412.508001,222.544 414.608001,222.544 C416.694001,222.544 418.052001,224.154 418.052001,226.338 C418.052001,228.508 416.694001,230.132 414.608001,230.132 L414.608001,230.132 Z M440.026002,231 L440.026002,229.964 L435.070002,229.964 L435.070002,226.744 L439.928002,226.744 L439.928002,225.708 L435.070002,225.708 L435.070002,222.698 L440.026002,222.698 L440.026002,221.662 L433.908002,221.662 L433.908002,231 L440.026002,231 Z M454.352002,231 L450.712002,226.198 L454.142002,221.662 L452.714002,221.662 L449.956002,225.386 L447.184002,221.662 L445.770002,221.662 L449.200002,226.212 L445.560002,231 L446.974002,231 L449.956002,227.024 L452.938002,231 L454.352002,231 Z M461.384002,231 L461.384002,227.29 L463.974002,227.29 C465.836002,227.29 466.900002,226.002 466.900002,224.476 C466.900002,222.95 465.850002,221.662 463.974002,221.662 L460.222002,221.662 L460.222002,231 L461.384002,231 Z M463.834002,226.254 L461.384002,226.254 L461.384002,222.698 L463.834002,222.698 C464.940002,222.698 465.696002,223.426 465.696002,224.476 C465.696002,225.526 464.940002,226.254 463.834002,226.254 L463.834002,226.254 Z M478.398002,231 L478.398002,229.964 L474.058002,229.964 L474.058002,221.662 L472.896002,221.662 L472.896002,231 L478.398002,231 Z M488.342002,231.168 C491.100002,231.168 492.990002,229.096 492.990002,226.338 C492.990002,223.58 491.100002,221.508 488.342002,221.508 C485.584002,221.508 483.708002,223.58 483.708002,226.338 C483.708002,229.096 485.584002,231.168 488.342002,231.168 L488.342002,231.168 Z M488.342002,230.132 C486.242002,230.132 484.912002,228.508 484.912002,226.338 C484.912002,224.154 486.242002,222.544 488.342002,222.544 C490.428002,222.544 491.786002,224.154 491.786002,226.338 C491.786002,228.508 490.428002,230.132 488.342002,230.132 L488.342002,230.132 Z M502.598002,231 C505.510002,231 507.386002,228.998 507.386002,226.338 C507.386002,223.692 505.510002,221.662 502.598002,221.662 L499.406002,221.662 L499.406002,231 L502.598002,231 Z M502.598002,229.964 L500.568002,229.964 L500.568002,222.698 L502.598002,222.698 C504.908002,222.698 506.182002,224.322 506.182002,226.338 C506.182002,228.34 504.866002,229.964 502.598002,229.964 L502.598002,229.964 Z M519.934002,231 L519.934002,229.964 L514.978002,229.964 L514.978002,226.744 L519.836002,226.744 L519.836002,225.708 L514.978002,225.708 L514.978002,222.698 L519.934002,222.698 L519.934002,221.662 L513.816002,221.662 L513.816002,231 L519.934002,231 Z" id="SO-CUTE-IT-MAKES-YOU" fill="#FFFFFF"></path>
            </g>
        </g>
    </g>
</svg>