<?xml version="1.0" encoding="UTF-8"?>
<svg width="353px" height="233px" viewBox="0 0 353 233" version="1.1" xmlns="http://www.w3.org/2000/svg" xmlns:xlink="http://www.w3.org/1999/xlink">
    <!-- Generator: Sketch 41.2 (35397) - http://www.bohemiancoding.com/sketch -->
    <title>Group 8 Copy</title>
    <desc>Created with Sketch.</desc>
    <defs>
        <polygon id="path-1" points="28.769901 13.038099 35.2487921 13.038099 35.2487921 0.319207921 28.769901 0.319207921"></polygon>
        <mask id="mask-2" maskContentUnits="userSpaceOnUse" maskUnits="objectBoundingBox" x="0" y="0" width="6.47889109" height="12.7188911" fill="white">
            <use xlink:href="#path-1"></use>
        </mask>
        <polygon id="path-3" points="9.38677228 24.1115248 0.393346535 15.1160396 4.97346535 10.5359208 13.9689505 19.5293465"></polygon>
        <mask id="mask-4" maskContentUnits="userSpaceOnUse" maskUnits="objectBoundingBox" x="0" y="0" width="13.575604" height="13.575604" fill="white">
            <use xlink:href="#path-3"></use>
        </mask>
        <polygon id="path-5" points="12.5829703 4.98376238 18.4543366 2.24681188 23.8293861 13.7733069 17.9580198 16.5102574"></polygon>
        <mask id="mask-6" maskContentUnits="userSpaceOnUse" maskUnits="objectBoundingBox" x="0" y="0" width="11.2464158" height="14.2634455" fill="white">
            <use xlink:href="#path-5"></use>
        </mask>
        <polygon id="path-7" points="39.6950495 13.7630099 45.070099 2.23445545 50.9435248 4.97552475 45.5664158 16.4999604"></polygon>
        <mask id="mask-8" maskContentUnits="userSpaceOnUse" maskUnits="objectBoundingBox" x="0" y="0" width="11.2484752" height="14.265505" fill="white">
            <use xlink:href="#path-7"></use>
        </mask>
        <polygon id="path-9" points="53.9358416 24.1115248 49.3536634 19.5293465 58.3491485 10.5359208 62.9292673 15.1160396"></polygon>
        <mask id="mask-10" maskContentUnits="userSpaceOnUse" maskUnits="objectBoundingBox" x="0" y="0" width="13.575604" height="13.575604" fill="white">
            <use xlink:href="#path-9"></use>
        </mask>
        <path d="M43.5893861,90.8177426 C38.2925941,88.902495 35.5494653,83.0558416 37.4647129,77.7569901 C38.9598416,73.621703 42.8541782,71.0536238 47.0100594,71.0330297 L56.8993267,43.6738218 C56.8993267,43.6738218 58.6106931,40.9451089 61.1828911,42.2816634 C63.8127525,43.6470495 62.9910495,45.8753267 62.9910495,45.8753267 L53.1676832,73.0574257 C56.6707327,75.6749307 58.2132277,80.364198 56.6501386,84.6930693 C54.7348911,89.9898614 48.8882376,92.7329901 43.5893861,90.8177426 L43.5893861,90.8177426 Z" id="path-11"></path>
        <mask id="mask-12" maskContentUnits="userSpaceOnUse" maskUnits="objectBoundingBox" x="0" y="0" width="26.2581345" height="49.5148868" fill="white">
            <use xlink:href="#path-11"></use>
        </mask>
        <ellipse id="path-13" cx="52" cy="52" rx="52" ry="52"></ellipse>
        <mask id="mask-14" maskContentUnits="userSpaceOnUse" maskUnits="objectBoundingBox" x="0" y="0" width="104" height="104" fill="white">
            <use xlink:href="#path-13"></use>
        </mask>
    </defs>
    <g id="Page-1" stroke="none" stroke-width="1" fill="none" fill-rule="evenodd">
        <g id="1170---Hackermeter" transform="translate(-711.000000, -436.000000)">
            <g id="Group-8-Copy" transform="translate(711.000000, 436.000000)">
                <path d="M18.904,186.052 L18.904,163.374 L16.082,163.374 L16.082,173.132 L2.822,173.132 L2.822,163.374 L0,163.374 L0,186.052 L2.822,186.052 L2.822,175.648 L16.082,175.648 L16.082,186.052 L18.904,186.052 Z M55.7770007,186.052 L46.6650007,163.374 L43.1630007,163.374 L34.0170007,186.052 L37.2470007,186.052 L39.2530007,180.986 L50.5410007,180.986 L52.5470007,186.052 L55.7770007,186.052 Z M49.7250007,178.504 L40.1030007,178.504 L44.8970007,166.264 L49.7250007,178.504 Z M80.3760014,186.46 C84.3880014,186.46 87.1080014,184.556 89.0120014,181.938 L86.6320014,180.646 C85.3400014,182.55 82.9600014,183.944 80.3760014,183.944 C75.4120014,183.944 71.6380014,180.102 71.6380014,174.73 C71.6380014,169.29 75.4120014,165.516 80.3760014,165.516 C82.9600014,165.516 85.3400014,166.876 86.6320014,168.814 L88.9780014,167.488 C87.1760014,164.904 84.3880014,163 80.3760014,163 C73.8480014,163 68.7140014,167.76 68.7140014,174.73 C68.7140014,181.7 73.8480014,186.46 80.3760014,186.46 L80.3760014,186.46 Z M122.009002,186.052 L111.707002,174.118 L121.159002,163.374 L117.623002,163.374 L107.593002,175.07 L107.593002,163.374 L104.771002,163.374 L104.771002,186.052 L107.593002,186.052 L107.593002,178.436 L109.871002,175.852 L118.473002,186.052 L122.009002,186.052 Z M152.218003,186.052 L152.218003,183.536 L140.182003,183.536 L140.182003,175.716 L151.980003,175.716 L151.980003,173.2 L140.182003,173.2 L140.182003,165.89 L152.218003,165.89 L152.218003,163.374 L137.360003,163.374 L137.360003,186.052 L152.218003,186.052 Z M185.317003,186.052 L179.197003,176.804 C182.291003,176.532 185.113003,174.288 185.113003,170.208 C185.113003,166.026 182.121003,163.374 177.973003,163.374 L168.861003,163.374 L168.861003,186.052 L171.683003,186.052 L171.683003,177.042 L176.239003,177.042 L181.985003,186.052 L185.317003,186.052 Z M177.633003,174.56 L171.683003,174.56 L171.683003,165.89 L177.633003,165.89 C180.319003,165.89 182.189003,167.624 182.189003,170.208 C182.189003,172.758 180.319003,174.56 177.633003,174.56 L177.633003,174.56 Z M223.924004,186.052 L223.924004,163.374 L219.878004,163.374 L212.840004,180.85 L205.768004,163.374 L201.722004,163.374 L201.722004,186.052 L204.544004,186.052 L204.544004,166.978 L212.262004,186.052 L213.418004,186.052 L221.102004,166.978 L221.102004,186.052 L223.924004,186.052 Z M256.241005,186.052 L256.241005,183.536 L244.205005,183.536 L244.205005,175.716 L256.003005,175.716 L256.003005,173.2 L244.205005,173.2 L244.205005,165.89 L256.241005,165.89 L256.241005,163.374 L241.383005,163.374 L241.383005,186.052 L256.241005,186.052 Z M281.316005,186.052 L281.316005,165.89 L288.524005,165.89 L288.524005,163.374 L271.320005,163.374 L271.320005,165.89 L278.494005,165.89 L278.494005,186.052 L281.316005,186.052 Z M319.277006,186.052 L319.277006,183.536 L307.241006,183.536 L307.241006,175.716 L319.039006,175.716 L319.039006,173.2 L307.241006,173.2 L307.241006,165.89 L319.277006,165.89 L319.277006,163.374 L304.419006,163.374 L304.419006,186.052 L319.277006,186.052 Z M352.376007,186.052 L346.256007,176.804 C349.350007,176.532 352.172007,174.288 352.172007,170.208 C352.172007,166.026 349.180007,163.374 345.032007,163.374 L335.920007,163.374 L335.920007,186.052 L338.742007,186.052 L338.742007,177.042 L343.298007,177.042 L349.044007,186.052 L352.376007,186.052 Z M344.692007,174.56 L338.742007,174.56 L338.742007,165.89 L344.692007,165.89 C347.378007,165.89 349.248007,167.624 349.248007,170.208 C349.248007,172.758 347.378007,174.56 344.692007,174.56 L344.692007,174.56 Z" id="HACKERMETER" fill="#FFFFFF"></path>
                <g id="Group-6" transform="translate(5.000000, 211.000000)">
                    <path d="M1.82750372,7 L1.82750372,4.35 L3.67750372,4.35 C5.00750372,4.35 5.76750372,3.43 5.76750372,2.34 C5.76750372,1.25 5.01750372,0.33 3.67750372,0.33 L0.997503719,0.33 L0.997503719,7 L1.82750372,7 Z M3.57750372,3.61 L1.82750372,3.61 L1.82750372,1.07 L3.57750372,1.07 C4.36750372,1.07 4.90750372,1.59 4.90750372,2.34 C4.90750372,3.09 4.36750372,3.61 3.57750372,3.61 L3.57750372,3.61 Z M15.3825035,7 L12.7025035,0.33 L11.6725035,0.33 L8.98250353,7 L9.93250353,7 L10.5225035,5.51 L13.8425035,5.51 L14.4325035,7 L15.3825035,7 Z M13.6025035,4.78 L10.7725035,4.78 L12.1825035,1.18 L13.6025035,4.78 Z M20.6575033,7 L20.6575033,0.33 L19.8275033,0.33 L19.8275033,7 L20.6575033,7 Z M30.6325031,7 L28.8325031,4.28 C29.7425031,4.2 30.5725031,3.54 30.5725031,2.34 C30.5725031,1.11 29.6925031,0.33 28.4725031,0.33 L25.7925031,0.33 L25.7925031,7 L26.6225031,7 L26.6225031,4.35 L27.9625031,4.35 L29.6525031,7 L30.6325031,7 Z M28.3725031,3.62 L26.6225031,3.62 L26.6225031,1.07 L28.3725031,1.07 C29.1625031,1.07 29.7125031,1.58 29.7125031,2.34 C29.7125031,3.09 29.1625031,3.62 28.3725031,3.62 L28.3725031,3.62 Z M43.7825028,7.12 C45.5825028,7.12 46.2425028,6.12 46.2425028,5.16 C46.2425028,2.67 42.2925028,3.53 42.2925028,2.03 C42.2925028,1.4 42.8725028,0.97 43.6625028,0.97 C44.3925028,0.97 45.0925028,1.21 45.5925028,1.77 L46.0925028,1.16 C45.5325028,0.57 44.7425028,0.22 43.7325028,0.22 C42.4125028,0.22 41.4325028,0.98 41.4325028,2.08 C41.4325028,4.46 45.3825028,3.5 45.3825028,5.22 C45.3825028,5.74 45.0025028,6.38 43.8125028,6.38 C42.8725028,6.38 42.1525028,5.92 41.7225028,5.42 L41.2225028,6.06 C41.7725028,6.68 42.6325028,7.12 43.7825028,7.12 L43.7825028,7.12 Z M53.4775026,7 L53.4775026,1.07 L55.5975026,1.07 L55.5975026,0.33 L50.5375026,0.33 L50.5375026,1.07 L52.6475026,1.07 L52.6475026,7 L53.4775026,7 Z M62.9925024,7.12 C64.8025024,7.12 65.7225024,6.06 65.7225024,4.4 L65.7225024,0.33 L64.8825024,0.33 L64.8825024,4.39 C64.8825024,5.61 64.2225024,6.38 62.9925024,6.38 C61.7625024,6.38 61.1125024,5.61 61.1125024,4.39 L61.1125024,0.33 L60.2725024,0.33 L60.2725024,4.41 C60.2725024,6.05 61.1925024,7.12 62.9925024,7.12 L62.9925024,7.12 Z M73.1375022,7 C75.2175022,7 76.5575022,5.57 76.5575022,3.67 C76.5575022,1.78 75.2175022,0.33 73.1375022,0.33 L70.8575022,0.33 L70.8575022,7 L73.1375022,7 Z M73.1375022,6.26 L71.6875022,6.26 L71.6875022,1.07 L73.1375022,1.07 C74.7875022,1.07 75.6975022,2.23 75.6975022,3.67 C75.6975022,5.1 74.7575022,6.26 73.1375022,6.26 L73.1375022,6.26 Z M85.802502,7 L85.802502,6.26 L82.262502,6.26 L82.262502,3.96 L85.732502,3.96 L85.732502,3.22 L82.262502,3.22 L82.262502,1.07 L85.802502,1.07 L85.802502,0.33 L81.432502,0.33 L81.432502,7 L85.802502,7 Z M96.2175018,7 L96.2175018,0.33 L95.3875018,0.33 L95.3875018,5.54 L91.5475018,0.33 L90.6975018,0.33 L90.6975018,7 L91.5275018,7 L91.5275018,1.68 L95.4175018,7 L96.2175018,7 Z M103.832502,7 L103.832502,1.07 L105.952502,1.07 L105.952502,0.33 L100.892502,0.33 L100.892502,1.07 L103.002502,1.07 L103.002502,7 L103.832502,7 Z M112.757501,7.12 C114.557501,7.12 115.217501,6.12 115.217501,5.16 C115.217501,2.67 111.267501,3.53 111.267501,2.03 C111.267501,1.4 111.847501,0.97 112.637501,0.97 C113.367501,0.97 114.067501,1.21 114.567501,1.77 L115.067501,1.16 C114.507501,0.57 113.717501,0.22 112.707501,0.22 C111.387501,0.22 110.407501,0.98 110.407501,2.08 C110.407501,4.46 114.357501,3.5 114.357501,5.22 C114.357501,5.74 113.977501,6.38 112.787501,6.38 C111.847501,6.38 111.127501,5.92 110.697501,5.42 L110.197501,6.06 C110.747501,6.68 111.607501,7.12 112.757501,7.12 L112.757501,7.12 Z M132.197501,7 L134.107501,0.33 L133.177501,0.33 L131.707501,5.89 L130.177501,0.33 L129.487501,0.33 L127.957501,5.89 L126.477501,0.33 L125.557501,0.33 L127.457501,7 L128.357501,7 L129.827501,1.62 L131.297501,7 L132.197501,7 Z M139.432501,7 L139.432501,0.33 L138.602501,0.33 L138.602501,7 L139.432501,7 Z M147.047501,7 L147.047501,1.07 L149.167501,1.07 L149.167501,0.33 L144.107501,0.33 L144.107501,1.07 L146.217501,1.07 L146.217501,7 L147.047501,7 Z M159.4025,7 L159.4025,0.33 L158.5725,0.33 L158.5725,3.2 L154.6725,3.2 L154.6725,0.33 L153.8425,0.33 L153.8425,7 L154.6725,7 L154.6725,3.94 L158.5725,3.94 L158.5725,7 L159.4025,7 Z M175.5425,7 L173.7425,4.28 C174.6525,4.2 175.4825,3.54 175.4825,2.34 C175.4825,1.11 174.6025,0.33 173.3825,0.33 L170.7025,0.33 L170.7025,7 L171.5325,7 L171.5325,4.35 L172.8725,4.35 L174.5625,7 L175.5425,7 Z M173.2825,3.62 L171.5325,3.62 L171.5325,1.07 L173.2825,1.07 C174.0725,1.07 174.6225,1.58 174.6225,2.34 C174.6225,3.09 174.0725,3.62 173.2825,3.62 L173.2825,3.62 Z M184.7375,7 L184.7375,6.26 L181.1975,6.26 L181.1975,3.96 L184.6675,3.96 L184.6675,3.22 L181.1975,3.22 L181.1975,1.07 L184.7375,1.07 L184.7375,0.33 L180.3675,0.33 L180.3675,7 L184.7375,7 Z M195.3425,7 L192.6625,0.33 L191.6325,0.33 L188.9425,7 L189.8925,7 L190.4825,5.51 L193.8025,5.51 L194.3925,7 L195.3425,7 Z M193.5625,4.78 L190.7325,4.78 L192.1425,1.18 L193.5625,4.78 Z M203.6075,7 L203.6075,6.26 L200.5075,6.26 L200.5075,0.33 L199.6775,0.33 L199.6775,7 L203.6075,7 Z M218.277499,7 L218.277499,6.26 L215.177499,6.26 L215.177499,0.33 L214.347499,0.33 L214.347499,7 L218.277499,7 Z M223.792499,7 L223.792499,0.33 L222.962499,0.33 L222.962499,7 L223.792499,7 Z M229.757499,7 L229.757499,3.96 L233.227499,3.96 L233.227499,3.22 L229.757499,3.22 L229.757499,1.07 L233.297499,1.07 L233.297499,0.33 L228.927499,0.33 L228.927499,7 L229.757499,7 Z M242.382499,7 L242.382499,6.26 L238.842499,6.26 L238.842499,3.96 L242.312499,3.96 L242.312499,3.22 L238.842499,3.22 L238.842499,1.07 L242.382499,1.07 L242.382499,0.33 L238.012499,0.33 L238.012499,7 L242.382499,7 Z M258.282498,7 L256.482498,4.28 C257.392498,4.2 258.222498,3.54 258.222498,2.34 C258.222498,1.11 257.342498,0.33 256.122498,0.33 L253.442498,0.33 L253.442498,7 L254.272498,7 L254.272498,4.35 L255.612498,4.35 L257.302498,7 L258.282498,7 Z M256.022498,3.62 L254.272498,3.62 L254.272498,1.07 L256.022498,1.07 C256.812498,1.07 257.362498,1.58 257.362498,2.34 C257.362498,3.09 256.812498,3.62 256.022498,3.62 L256.022498,3.62 Z M267.477498,7 L267.477498,6.26 L263.937498,6.26 L263.937498,3.96 L267.407498,3.96 L267.407498,3.22 L263.937498,3.22 L263.937498,1.07 L267.477498,1.07 L267.477498,0.33 L263.107498,0.33 L263.107498,7 L267.477498,7 Z M275.532498,7.12 C276.712498,7.12 277.512498,6.56 278.072498,5.79 L277.372498,5.41 C276.992498,5.97 276.292498,6.38 275.532498,6.38 C274.072498,6.38 272.962498,5.25 272.962498,3.67 C272.962498,2.07 274.072498,0.96 275.532498,0.96 C276.292498,0.96 276.992498,1.36 277.372498,1.93 L278.062498,1.54 C277.532498,0.78 276.712498,0.22 275.532498,0.22 C273.612498,0.22 272.102498,1.62 272.102498,3.67 C272.102498,5.72 273.612498,7.12 275.532498,7.12 L275.532498,7.12 Z M287.547498,7 L285.747498,4.28 C286.657498,4.2 287.487498,3.54 287.487498,2.34 C287.487498,1.11 286.607498,0.33 285.387498,0.33 L282.707498,0.33 L282.707498,7 L283.537498,7 L283.537498,4.35 L284.877498,4.35 L286.567498,7 L287.547498,7 Z M285.287498,3.62 L283.537498,3.62 L283.537498,1.07 L285.287498,1.07 C286.077498,1.07 286.627498,1.58 286.627498,2.34 C286.627498,3.09 286.077498,3.62 285.287498,3.62 L285.287498,3.62 Z M295.092497,7.12 C296.902497,7.12 297.822497,6.06 297.822497,4.4 L297.822497,0.33 L296.982497,0.33 L296.982497,4.39 C296.982497,5.61 296.322497,6.38 295.092497,6.38 C293.862497,6.38 293.212497,5.61 293.212497,4.39 L293.212497,0.33 L292.372497,0.33 L292.372497,4.41 C292.372497,6.05 293.292497,7.12 295.092497,7.12 L295.092497,7.12 Z M303.787497,7 L303.787497,0.33 L302.957497,0.33 L302.957497,7 L303.787497,7 Z M311.402497,7 L311.402497,1.07 L313.522497,1.07 L313.522497,0.33 L308.462497,0.33 L308.462497,1.07 L310.572497,1.07 L310.572497,7 L311.402497,7 Z M322.567497,7 L322.567497,6.26 L319.027497,6.26 L319.027497,3.96 L322.497497,3.96 L322.497497,3.22 L319.027497,3.22 L319.027497,1.07 L322.567497,1.07 L322.567497,0.33 L318.197497,0.33 L318.197497,7 L322.567497,7 Z M332.302497,7 L330.502497,4.28 C331.412497,4.2 332.242497,3.54 332.242497,2.34 C332.242497,1.11 331.362497,0.33 330.142497,0.33 L327.462497,0.33 L327.462497,7 L328.292497,7 L328.292497,4.35 L329.632497,4.35 L331.322497,7 L332.302497,7 Z M330.042497,3.62 L328.292497,3.62 L328.292497,1.07 L330.042497,1.07 C330.832497,1.07 331.382497,1.58 331.382497,2.34 C331.382497,3.09 330.832497,3.62 330.042497,3.62 L330.042497,3.62 Z M339.287496,7.12 C341.087496,7.12 341.747496,6.12 341.747496,5.16 C341.747496,2.67 337.797496,3.53 337.797496,2.03 C337.797496,1.4 338.377496,0.97 339.167496,0.97 C339.897496,0.97 340.597496,1.21 341.097496,1.77 L341.597496,1.16 C341.037496,0.57 340.247496,0.22 339.237496,0.22 C337.917496,0.22 336.937496,0.98 336.937496,2.08 C336.937496,4.46 340.887496,3.5 340.887496,5.22 C340.887496,5.74 340.507496,6.38 339.317496,6.38 C338.377496,6.38 337.657496,5.92 337.227496,5.42 L336.727496,6.06 C337.277496,6.68 338.137496,7.12 339.287496,7.12 L339.287496,7.12 Z" id="PAIR-STUDENTS-WITH-R" fill="#FFFFFF"></path>
                    <path d="M51.4575007,21 L51.4575007,14.33 L50.6275007,14.33 L50.6275007,17.2 L46.7275007,17.2 L46.7275007,14.33 L45.8975007,14.33 L45.8975007,21 L46.7275007,21 L46.7275007,17.94 L50.6275007,17.94 L50.6275007,21 L51.4575007,21 Z M62.3025005,21 L59.6225005,14.33 L58.5925005,14.33 L55.9025005,21 L56.8525005,21 L57.4425005,19.51 L60.7625005,19.51 L61.3525005,21 L62.3025005,21 Z M60.5225005,18.78 L57.6925005,18.78 L59.1025005,15.18 L60.5225005,18.78 Z M69.5375003,21.12 C70.7175003,21.12 71.5175003,20.56 72.0775003,19.79 L71.3775003,19.41 C70.9975003,19.97 70.2975003,20.38 69.5375003,20.38 C68.0775003,20.38 66.9675003,19.25 66.9675003,17.67 C66.9675003,16.07 68.0775003,14.96 69.5375003,14.96 C70.2975003,14.96 70.9975003,15.36 71.3775003,15.93 L72.0675003,15.54 C71.5375003,14.78 70.7175003,14.22 69.5375003,14.22 C67.6175003,14.22 66.1075003,15.62 66.1075003,17.67 C66.1075003,19.72 67.6175003,21.12 69.5375003,21.12 L69.5375003,21.12 Z M81.7825001,21 L78.7525001,17.49 L81.5325001,14.33 L80.4925001,14.33 L77.5425001,17.77 L77.5425001,14.33 L76.7125001,14.33 L76.7125001,21 L77.5425001,21 L77.5425001,18.76 L78.2125001,18 L80.7425001,21 L81.7825001,21 Z M90.6674999,21 L90.6674999,20.26 L87.1274999,20.26 L87.1274999,17.96 L90.5974999,17.96 L90.5974999,17.22 L87.1274999,17.22 L87.1274999,15.07 L90.6674999,15.07 L90.6674999,14.33 L86.2974999,14.33 L86.2974999,21 L90.6674999,21 Z M100.4025,21 L98.6024997,18.28 C99.5124997,18.2 100.3425,17.54 100.3425,16.34 C100.3425,15.11 99.4624997,14.33 98.2424997,14.33 L95.5624997,14.33 L95.5624997,21 L96.3924997,21 L96.3924997,18.35 L97.7324997,18.35 L99.4224997,21 L100.4025,21 Z M98.1424997,17.62 L96.3924997,17.62 L96.3924997,15.07 L98.1424997,15.07 C98.9324997,15.07 99.4824997,15.58 99.4824997,16.34 C99.4824997,17.09 98.9324997,17.62 98.1424997,17.62 L98.1424997,17.62 Z M107.3875,21.12 C109.1875,21.12 109.8475,20.12 109.8475,19.16 C109.8475,16.67 105.8975,17.53 105.8975,16.03 C105.8975,15.4 106.4775,14.97 107.2675,14.97 C107.9975,14.97 108.6975,15.21 109.1975,15.77 L109.6975,15.16 C109.1375,14.57 108.3475,14.22 107.3375,14.22 C106.0175,14.22 105.0375,14.98 105.0375,16.08 C105.0375,18.46 108.9875,17.5 108.9875,19.22 C108.9875,19.74 108.6075,20.38 107.4175,20.38 C106.4775,20.38 105.7575,19.92 105.3275,19.42 L104.8275,20.06 C105.3775,20.68 106.2375,21.12 107.3875,21.12 L107.3875,21.12 Z" id="HACKERS" fill="#FFFFFF"></path>
                    <path d="M40.5,3.5 L115.506666,3.5" id="Line" stroke="#FFFFFF" stroke-linecap="square"></path>
                </g>
                <g id="hackermeter-copy" transform="translate(124.000000, 0.000000)">
                    <g id="Group-4" transform="translate(19.780594, 13.520000)" stroke="#FEFEFE" stroke-width="4" fill="#FFFFFF">
                        <use id="Path" mask="url(#mask-2)" xlink:href="#path-1"></use>
                        <use id="Path" mask="url(#mask-4)" xlink:href="#path-3"></use>
                        <use id="Path" mask="url(#mask-6)" xlink:href="#path-5"></use>
                        <use id="Path" mask="url(#mask-8)" xlink:href="#path-7"></use>
                        <use id="Path" mask="url(#mask-10)" xlink:href="#path-9"></use>
                    </g>
                    <use id="Page-1" stroke="#FEFEFE" mask="url(#mask-12)" stroke-width="4" fill="#FFFFFF" xlink:href="#path-11"></use>
                    <use id="Oval-10" stroke="#FFFFFF" mask="url(#mask-14)" stroke-width="6" xlink:href="#path-13"></use>
                </g>
            </g>
        </g>
    </g>
</svg>