<?xml version="1.0" encoding="UTF-8"?>
<svg width="237px" height="241px" viewBox="0 0 237 241" version="1.1" xmlns="http://www.w3.org/2000/svg" xmlns:xlink="http://www.w3.org/1999/xlink">
    <!-- Generator: Sketch 41 (35326) - http://www.bohemiancoding.com/sketch -->
    <title>Page 1</title>
    <desc>Created with Sketch.</desc>
    <defs></defs>
    <g id="Page-1" stroke="none" stroke-width="1" fill="none" fill-rule="evenodd">
        <g id="1170---Shopilly" transform="translate(-759.000000, -371.000000)">
            <g id="Group-5" transform="translate(759.000000, 371.000000)">
                <g id="Page-1">
                    <g id="Group-6" transform="translate(54.000000, 0.000000)" fill="#FEFEFE">
                        <path d="M32.5291514,46.0743211 C30.7824216,48.246061 29.4982324,50.5701016 28.6800703,53.0615569 C27.8584216,55.5495244 27.5876378,58.142126 27.8630703,60.8509878 C28.1361784,63.5551992 29.0984486,66.2082561 30.7498811,68.8136463 C32.6604757,71.8259472 34.8313946,73.9290935 37.2672865,75.1195976 C39.7043405,76.308939 42.2715568,76.9588333 44.9805568,77.0657927 C47.6895568,77.1692642 50.4787459,76.8390854 53.3481243,76.0729309 C56.2279622,75.307939 59.0520162,74.4708659 61.8423676,73.5675244 C63.0370703,73.1896789 64.3015027,72.7978821 65.6286919,72.3874837 C66.9500703,71.9770854 68.2226378,71.750378 69.4382595,71.6992236 C70.6492324,71.6492317 71.8206919,71.8631504 72.946827,72.3514431 C74.0694757,72.8397358 75.067773,73.7651667 75.9359081,75.135874 C77.2386919,77.1878659 77.5129622,79.3224024 76.7494216,81.5290203 C75.9916919,83.7402886 74.6528811,85.4562886 72.7411243,86.6688821 C70.1367189,88.320939 67.5915838,88.8801504 65.0940973,88.3500041 C62.6000973,87.8256707 60.4733405,86.3910203 58.6998811,84.0588415 L45.8672865,92.199378 L55.9606649,108.120045 L65.5089892,102.059402 L62.6430973,97.5415325 C65.7704757,98.5355569 68.8397459,98.719248 71.8532324,98.1030691 C74.8702054,97.484565 77.7790973,96.2894106 80.5868811,94.5083049 C83.1169081,92.9015894 85.344773,90.9612073 87.2646649,88.6871585 C89.1799081,86.4165976 90.5640432,83.9797846 91.4100973,81.3743943 C92.2561514,78.7748171 92.5525027,76.0671179 92.3026378,73.2489715 C92.0504486,70.4319878 91.0323946,67.6173293 89.2531243,64.8108089 C87.2995297,61.7299146 85.0879351,59.5605 82.6055568,58.3002398 C80.1313135,57.0399797 77.5059892,56.3784593 74.7260973,56.3121911 C71.9508541,56.2505732 69.1093676,56.6191179 66.2039622,57.4015488 C63.2950703,58.1932805 60.4408,59.0954593 57.6248811,60.1080854 C56.4685297,60.555687 55.2633676,60.9637602 54.0047459,61.3276545 C52.7472865,61.6915488 51.532827,61.8891911 50.3497459,61.9182561 C49.167827,61.9496463 48.0242595,61.734565 46.9260162,61.2846382 C45.8219622,60.830061 44.8562054,59.9534593 44.0333946,58.6536707 C42.8166108,56.7365407 42.6411243,54.8321992 43.5069351,52.9406463 C44.3692595,51.0444431 45.6569351,49.5586382 47.3653135,48.4739309 C49.3502865,47.2136707 51.3666378,46.7521179 53.4027459,47.090435 C55.4400162,47.4310772 57.1565297,48.5506626 58.5534486,50.4480285 L70.6666649,42.7609065 L61.221773,27.8668171 L51.9837459,33.7309797 L54.3952324,37.5338496 C51.5607189,36.5479634 48.8761243,36.400313 46.3449351,37.1001992 C43.8090973,37.7931098 41.3092865,38.9219959 38.8489892,40.4822073 C36.3852054,42.0470691 34.2747189,43.9142073 32.5291514,46.0743211" id="Fill-3"></path>
                        <path d="M125.763727,115.618128 C124.537646,124.463201 122.402754,135.812518 122.391132,135.881111 C122.382997,135.914827 121.234781,139.277071 112.836997,139.277071 L20.1998892,139.277071 C11.7904838,139.277071 10.6608622,135.92529 10.6538892,135.92529 C10.6538892,135.92529 10.6538892,135.92529 10.6538892,135.926453 C10.6329703,135.812518 8.49924054,124.464363 7.2719973,115.618128 C6.13424054,107.417136 8.72934865,104.280437 8.73980811,104.265323 L18.4206189,93.7054122 L23.337727,101.634355 L17.8848622,107.91938 L27.2344568,107.91938 L29.9701865,107.91938 L41.6836189,107.91938 L47.7989162,120.913778 L76.3021054,120.913778 L80.7113486,120.913778 L85.2368081,120.913778 L87.1032405,116.946981 L88.9220243,113.082493 L91.3521054,107.91938 L97.2419432,107.91938 L101.650024,107.91938 L115.150862,107.91938 L110.426673,102.473754 L118.220132,97.6373309 L124.280808,104.249046 C124.307538,104.280437 126.901484,107.417136 125.763727,115.618128 L125.763727,115.618128 Z M25.7933757,105.594176 L22.9797811,105.594176 L24.6195919,103.702624 L25.7933757,105.594176 Z M110.055943,105.594176 L105.397997,105.594176 L108.426592,103.715412 L110.055943,105.594176 Z M3.35318649,64.9984528 C2.39207838,63.4463797 2.09107838,61.6141195 2.50713243,59.8376642 L12.5354297,17.0213715 C14.5401595,8.46462358 22.0744568,2.48768862 30.8569162,2.48768862 C32.295673,2.48768862 33.7402405,2.65510325 35.1522676,2.98644472 L77.9523757,13.0185341 C79.7293216,13.4347455 81.2366459,14.5182902 82.1977541,16.0680382 L123.907754,83.3291927 C125.892727,86.5309976 124.903727,90.7524041 121.704295,92.7381276 L118.630376,94.6459569 L116.620997,95.8934285 L108.883322,100.694973 L106.882078,101.936632 L100.988754,105.594176 L89.8773216,105.594176 L85.2937541,115.33329 L83.7620243,118.588575 L80.0489162,118.588575 L49.2737,118.588575 L43.1584027,105.594176 L28.5279432,105.594176 L26.2152405,101.86455 L24.9322135,99.7962821 L20.0522946,91.9266317 L18.779727,89.8746398 L3.35318649,64.9984528 Z M126.008943,102.694648 L120.229511,96.3898593 L122.930376,94.7145504 C127.217592,92.0521927 128.543619,86.3961358 125.88343,82.1038106 L84.1722676,14.8426561 C82.8845919,12.7639244 80.8635919,11.311835 78.4823216,10.7537862 L35.6822135,0.721696748 C34.0970243,0.350826829 32.4734838,0.162485366 30.8569162,0.162485366 C20.9889973,0.162485366 12.5249703,6.87650976 10.2727,16.4912252 L0.244402703,59.3075179 C-0.313435135,61.688526 0.0898351351,64.1451033 1.37867297,66.2249976 L17.1480514,91.6545829 L7.02213243,102.699298 C6.8849973,102.851599 3.66464595,106.531233 4.96975405,115.937843 C6.20397027,124.838721 8.34815946,136.24268 8.37953784,136.401957 C8.50156486,136.934428 9.87291622,141.602274 20.1998892,141.602274 L112.836997,141.602274 C123.16397,141.602274 124.534159,136.933266 124.666646,136.356615 C124.687565,136.24268 126.831754,124.838721 128.06597,115.937843 C129.371078,106.532396 126.150727,102.851599 126.008943,102.694648 L126.008943,102.694648 Z" id="Fill-5"></path>
                        <path d="M31.1270027,16.3252057 C33.2630568,16.3252057 35.0016514,18.0644577 35.0016514,20.2013195 C35.0016514,22.3381813 33.2630568,24.0774333 31.1270027,24.0774333 C28.9909486,24.0774333 27.2523541,22.3381813 27.2523541,20.2013195 C27.2523541,18.0644577 28.9909486,16.3252057 31.1270027,16.3252057 M31.1270027,25.6271813 C34.1184081,25.6271813 36.5508135,23.1938561 36.5508135,20.2013195 C36.5508135,17.2087829 34.1184081,14.7754577 31.1270027,14.7754577 C28.1355973,14.7754577 25.7031919,17.2087829 25.7031919,20.2013195 C25.7031919,23.1938561 28.1355973,25.6271813 31.1270027,25.6271813" id="Fill-8"></path>
                    </g>
                    <path d="M11.0344976,208.408 C17.1544976,208.408 19.3984976,205.008 19.3984976,201.744 C19.3984976,193.278 5.9684976,196.202 5.9684976,191.102 C5.9684976,188.96 7.9404976,187.498 10.6264976,187.498 C13.1084976,187.498 15.4884976,188.314 17.1884976,190.218 L18.8884976,188.144 C16.9844976,186.138 14.2984976,184.948 10.8644976,184.948 C6.3764976,184.948 3.0444976,187.532 3.0444976,191.272 C3.0444976,199.364 16.4744976,196.1 16.4744976,201.948 C16.4744976,203.716 15.1824976,205.892 11.1364976,205.892 C7.9404976,205.892 5.4924976,204.328 4.0304976,202.628 L2.3304976,204.804 C4.2004976,206.912 7.1244976,208.408 11.0344976,208.408 L11.0344976,208.408 Z M54.6734983,208 L54.6734983,185.322 L51.8514983,185.322 L51.8514983,195.08 L38.5914983,195.08 L38.5914983,185.322 L35.7694983,185.322 L35.7694983,208 L38.5914983,208 L38.5914983,197.596 L51.8514983,197.596 L51.8514983,208 L54.6734983,208 Z M82.468499,208.408 C89.166499,208.408 93.756499,203.376 93.756499,196.678 C93.756499,189.98 89.166499,184.948 82.468499,184.948 C75.770499,184.948 71.214499,189.98 71.214499,196.678 C71.214499,203.376 75.770499,208.408 82.468499,208.408 L82.468499,208.408 Z M82.468499,205.892 C77.368499,205.892 74.138499,201.948 74.138499,196.678 C74.138499,191.374 77.368499,187.464 82.468499,187.464 C87.534499,187.464 90.832499,191.374 90.832499,196.678 C90.832499,201.948 87.534499,205.892 82.468499,205.892 L82.468499,205.892 Z M113.1195,208 L113.1195,198.99 L119.4095,198.99 C123.9315,198.99 126.5155,195.862 126.5155,192.156 C126.5155,188.45 123.9655,185.322 119.4095,185.322 L110.2975,185.322 L110.2975,208 L113.1195,208 Z M119.0695,196.474 L113.1195,196.474 L113.1195,187.838 L119.0695,187.838 C121.7555,187.838 123.5915,189.606 123.5915,192.156 C123.5915,194.706 121.7555,196.474 119.0695,196.474 L119.0695,196.474 Z M145.2325,208 L145.2325,185.322 L142.4105,185.322 L142.4105,208 L145.2325,208 Z M175.679501,208 L175.679501,205.484 L165.139501,205.484 L165.139501,185.322 L162.317501,185.322 L162.317501,208 L175.679501,208 Z M204.596502,208 L204.596502,205.484 L194.056502,205.484 L194.056502,185.322 L191.234502,185.322 L191.234502,208 L204.596502,208 Z M225.761502,208 L225.761502,198.412 L234.669502,185.322 L231.371502,185.322 L224.333502,195.862 L217.295502,185.322 L213.997502,185.322 L222.939502,198.412 L222.939502,208 L225.761502,208 Z" id="SHOPILLY" fill="#FFFFFF"></path>
                    <path d="M7.03750238,240 L4.35750238,233.33 L3.32750238,233.33 L0.637502384,240 L1.58750238,240 L2.17750238,238.51 L5.49750238,238.51 L6.08750238,240 L7.03750238,240 Z M5.25750238,237.78 L2.42750238,237.78 L3.83750238,234.18 L5.25750238,237.78 Z M19.807502,240.12 C21.607502,240.12 22.267502,239.12 22.267502,238.16 C22.267502,235.67 18.317502,236.53 18.317502,235.03 C18.317502,234.4 18.897502,233.97 19.687502,233.97 C20.417502,233.97 21.117502,234.21 21.617502,234.77 L22.117502,234.16 C21.557502,233.57 20.767502,233.22 19.757502,233.22 C18.437502,233.22 17.457502,233.98 17.457502,235.08 C17.457502,237.46 21.407502,236.5 21.407502,238.22 C21.407502,238.74 21.027502,239.38 19.837502,239.38 C18.897502,239.38 18.177502,238.92 17.747502,238.42 L17.247502,239.06 C17.797502,239.68 18.657502,240.12 19.807502,240.12 L19.807502,240.12 Z M33.6125018,240 L33.6125018,233.33 L32.4225018,233.33 L30.3525018,238.47 L28.2725018,233.33 L27.0825018,233.33 L27.0825018,240 L27.9125018,240 L27.9125018,234.39 L30.1825018,240 L30.5225018,240 L32.7825018,234.39 L32.7825018,240 L33.6125018,240 Z M44.4575016,240 L41.7775016,233.33 L40.7475016,233.33 L38.0575016,240 L39.0075016,240 L39.5975016,238.51 L42.9175016,238.51 L43.5075016,240 L44.4575016,240 Z M42.6775016,237.78 L39.8475016,237.78 L41.2575016,234.18 L42.6775016,237.78 Z M53.7425014,240 L51.9425014,237.28 C52.8525014,237.2 53.6825014,236.54 53.6825014,235.34 C53.6825014,234.11 52.8025014,233.33 51.5825014,233.33 L48.9025014,233.33 L48.9025014,240 L49.7325014,240 L49.7325014,237.35 L51.0725014,237.35 L52.7625014,240 L53.7425014,240 Z M51.4825014,236.62 L49.7325014,236.62 L49.7325014,234.07 L51.4825014,234.07 C52.2725014,234.07 52.8225014,234.58 52.8225014,235.34 C52.8225014,236.09 52.2725014,236.62 51.4825014,236.62 L51.4825014,236.62 Z M60.9475012,240 L60.9475012,234.07 L63.0675012,234.07 L63.0675012,233.33 L58.0075012,233.33 L58.0075012,234.07 L60.1175012,234.07 L60.1175012,240 L60.9475012,240 Z M74.7375009,240 L74.7375009,233.33 L73.9075009,233.33 L73.9075009,240 L74.7375009,240 Z M85.3925007,240 L85.3925007,233.33 L84.5625007,233.33 L84.5625007,238.54 L80.7225007,233.33 L79.8725007,233.33 L79.8725007,240 L80.7025007,240 L80.7025007,234.68 L84.5925007,240 L85.3925007,240 Z M93.5675005,240 C94.7875005,240 95.4975005,239.27 95.4975005,238.2 C95.4975005,237.4 94.9075005,236.67 94.1975005,236.56 C94.8075005,236.43 95.3675005,235.87 95.3675005,235.03 C95.3675005,234.03 94.6575005,233.33 93.4975005,233.33 L90.5275005,233.33 L90.5275005,240 L93.5675005,240 Z M93.3575005,236.22 L91.3575005,236.22 L91.3575005,234.07 L93.3575005,234.07 C94.1075005,234.07 94.5075005,234.55 94.5075005,235.15 C94.5075005,235.76 94.1075005,236.22 93.3575005,236.22 L93.3575005,236.22 Z M93.4075005,239.26 L91.3575005,239.26 L91.3575005,236.96 L93.4075005,236.96 C94.2175005,236.96 94.6375005,237.5 94.6375005,238.11 C94.6375005,238.82 94.1775005,239.26 93.4075005,239.26 L93.4075005,239.26 Z M103.4325,240.12 C105.4025,240.12 106.7525,238.64 106.7525,236.67 C106.7525,234.7 105.4025,233.22 103.4325,233.22 C101.4625,233.22 100.1225,234.7 100.1225,236.67 C100.1225,238.64 101.4625,240.12 103.4325,240.12 L103.4325,240.12 Z M103.4325,239.38 C101.9325,239.38 100.9825,238.22 100.9825,236.67 C100.9825,235.11 101.9325,233.96 103.4325,233.96 C104.9225,233.96 105.8925,235.11 105.8925,236.67 C105.8925,238.22 104.9225,239.38 103.4325,239.38 L103.4325,239.38 Z M116.9375,240 L114.3375,236.57 L116.7875,233.33 L115.7675,233.33 L113.7975,235.99 L111.8175,233.33 L110.8075,233.33 L113.2575,236.58 L110.6575,240 L111.6675,240 L113.7975,237.16 L115.9275,240 L116.9375,240 Z M128.4075,240 L128.4075,236.96 L131.8775,236.96 L131.8775,236.22 L128.4075,236.22 L128.4075,234.07 L131.9475,234.07 L131.9475,233.33 L127.5775,233.33 L127.5775,240 L128.4075,240 Z M139.7025,240.12 C141.6725,240.12 143.0225,238.64 143.0225,236.67 C143.0225,234.7 141.6725,233.22 139.7025,233.22 C137.7325,233.22 136.3925,234.7 136.3925,236.67 C136.3925,238.64 137.7325,240.12 139.7025,240.12 L139.7025,240.12 Z M139.7025,239.38 C138.2025,239.38 137.2525,238.22 137.2525,236.67 C137.2525,235.11 138.2025,233.96 139.7025,233.96 C141.1925,233.96 142.1625,235.11 142.1625,236.67 C142.1625,238.22 141.1925,239.38 139.7025,239.38 L139.7025,239.38 Z M152.727499,240 L150.927499,237.28 C151.837499,237.2 152.667499,236.54 152.667499,235.34 C152.667499,234.11 151.787499,233.33 150.567499,233.33 L147.887499,233.33 L147.887499,240 L148.717499,240 L148.717499,237.35 L150.057499,237.35 L151.747499,240 L152.727499,240 Z M150.467499,236.62 L148.717499,236.62 L148.717499,234.07 L150.467499,234.07 C151.257499,234.07 151.807499,234.58 151.807499,235.34 C151.807499,236.09 151.257499,236.62 150.467499,236.62 L150.467499,236.62 Z M165.877499,240.12 C167.677499,240.12 168.337499,239.12 168.337499,238.16 C168.337499,235.67 164.387499,236.53 164.387499,235.03 C164.387499,234.4 164.967499,233.97 165.757499,233.97 C166.487499,233.97 167.187499,234.21 167.687499,234.77 L168.187499,234.16 C167.627499,233.57 166.837499,233.22 165.827499,233.22 C164.507499,233.22 163.527499,233.98 163.527499,235.08 C163.527499,237.46 167.477499,236.5 167.477499,238.22 C167.477499,238.74 167.097499,239.38 165.907499,239.38 C164.967499,239.38 164.247499,238.92 163.817499,238.42 L163.317499,239.06 C163.867499,239.68 164.727499,240.12 165.877499,240.12 L165.877499,240.12 Z M178.712499,240 L178.712499,233.33 L177.882499,233.33 L177.882499,236.2 L173.982499,236.2 L173.982499,233.33 L173.152499,233.33 L173.152499,240 L173.982499,240 L173.982499,236.94 L177.882499,236.94 L177.882499,240 L178.712499,240 Z M186.887499,240.12 C188.857499,240.12 190.207499,238.64 190.207499,236.67 C190.207499,234.7 188.857499,233.22 186.887499,233.22 C184.917499,233.22 183.577499,234.7 183.577499,236.67 C183.577499,238.64 184.917499,240.12 186.887499,240.12 L186.887499,240.12 Z M186.887499,239.38 C185.387499,239.38 184.437499,238.22 184.437499,236.67 C184.437499,235.11 185.387499,233.96 186.887499,233.96 C188.377499,233.96 189.347499,235.11 189.347499,236.67 C189.347499,238.22 188.377499,239.38 186.887499,239.38 L186.887499,239.38 Z M195.902498,240 L195.902498,237.35 L197.752498,237.35 C199.082498,237.35 199.842498,236.43 199.842498,235.34 C199.842498,234.25 199.092498,233.33 197.752498,233.33 L195.072498,233.33 L195.072498,240 L195.902498,240 Z M197.652498,236.61 L195.902498,236.61 L195.902498,234.07 L197.652498,234.07 C198.442498,234.07 198.982498,234.59 198.982498,235.34 C198.982498,236.09 198.442498,236.61 197.652498,236.61 L197.652498,236.61 Z M205.347498,240 L205.347498,237.35 L207.197498,237.35 C208.527498,237.35 209.287498,236.43 209.287498,235.34 C209.287498,234.25 208.537498,233.33 207.197498,233.33 L204.517498,233.33 L204.517498,240 L205.347498,240 Z M207.097498,236.61 L205.347498,236.61 L205.347498,234.07 L207.097498,234.07 C207.887498,234.07 208.427498,234.59 208.427498,235.34 C208.427498,236.09 207.887498,236.61 207.097498,236.61 L207.097498,236.61 Z M214.792498,240 L214.792498,233.33 L213.962498,233.33 L213.962498,240 L214.792498,240 Z M225.447498,240 L225.447498,233.33 L224.617498,233.33 L224.617498,238.54 L220.777498,233.33 L219.927498,233.33 L219.927498,240 L220.757498,240 L220.757498,234.68 L224.647498,240 L225.447498,240 Z M233.742498,240.13 C234.832498,240.13 235.742498,239.67 236.362498,238.97 L236.362498,236.57 L233.242498,236.57 L233.242498,237.31 L235.542498,237.31 L235.542498,238.66 C235.202498,239 234.542498,239.38 233.742498,239.38 C232.282498,239.38 231.172498,238.25 231.172498,236.67 C231.172498,235.07 232.282498,233.96 233.742498,233.96 C234.542498,233.96 235.252498,234.34 235.672498,234.88 L236.332498,234.46 C235.752498,233.74 234.932498,233.22 233.742498,233.22 C231.842498,233.22 230.312498,234.59 230.312498,236.67 C230.312498,238.74 231.842498,240.13 233.742498,240.13 L233.742498,240.13 Z" id="A-SMART-INBOX-FOR-SH" fill="#FFFFFF"></path>
                </g>
            </g>
        </g>
    </g>
</svg>