<?xml version="1.0" encoding="UTF-8"?>
<svg width="293px" height="240px" viewBox="0 0 293 240" version="1.1" xmlns="http://www.w3.org/2000/svg" xmlns:xlink="http://www.w3.org/1999/xlink">
    <!-- Generator: Sketch 41 (35326) - http://www.bohemiancoding.com/sketch -->
    <title>Group 10</title>
    <desc>Created with Sketch.</desc>
    <defs></defs>
    <g id="Page-1" stroke="none" stroke-width="1" fill="none" fill-rule="evenodd">
        <g id="1170---RepairPal" transform="translate(-725.000000, -373.000000)" fill="#FFFFFF">
            <g id="Group-10" transform="translate(725.000000, 373.000000)">
                <path d="M33.8754969,206 L27.7554969,196.752 C30.8494969,196.48 33.6714969,194.236 33.6714969,190.156 C33.6714969,185.974 30.6794969,183.322 26.5314969,183.322 L17.4194969,183.322 L17.4194969,206 L20.2414969,206 L20.2414969,196.99 L24.7974969,196.99 L30.5434969,206 L33.8754969,206 Z M26.1914969,194.508 L20.2414969,194.508 L20.2414969,185.838 L26.1914969,185.838 C28.8774969,185.838 30.7474969,187.572 30.7474969,190.156 C30.7474969,192.706 28.8774969,194.508 26.1914969,194.508 L26.1914969,194.508 Z M65.1384976,206 L65.1384976,203.484 L53.1024976,203.484 L53.1024976,195.664 L64.9004976,195.664 L64.9004976,193.148 L53.1024976,193.148 L53.1024976,185.838 L65.1384976,185.838 L65.1384976,183.322 L50.2804976,183.322 L50.2804976,206 L65.1384976,206 Z M84.6034983,206 L84.6034983,196.99 L90.8934983,196.99 C95.4154983,196.99 97.9994983,193.862 97.9994983,190.156 C97.9994983,186.45 95.4494983,183.322 90.8934983,183.322 L81.7814983,183.322 L81.7814983,206 L84.6034983,206 Z M90.5534983,194.474 L84.6034983,194.474 L84.6034983,185.838 L90.5534983,185.838 C93.2394983,185.838 95.0754983,187.606 95.0754983,190.156 C95.0754983,192.706 93.2394983,194.474 90.5534983,194.474 L90.5534983,194.474 Z M130.690499,206 L121.578499,183.322 L118.076499,183.322 L108.930499,206 L112.160499,206 L114.166499,200.934 L125.454499,200.934 L127.460499,206 L130.690499,206 Z M124.638499,198.452 L115.016499,198.452 L119.810499,186.212 L124.638499,198.452 Z M148.6255,206 L148.6255,183.322 L145.8035,183.322 L145.8035,206 L148.6255,206 Z M182.5405,206 L176.4205,196.752 C179.5145,196.48 182.3365,194.236 182.3365,190.156 C182.3365,185.974 179.3445,183.322 175.1965,183.322 L166.0845,183.322 L166.0845,206 L168.9065,206 L168.9065,196.99 L173.4625,196.99 L179.2085,206 L182.5405,206 Z M174.8565,194.508 L168.9065,194.508 L168.9065,185.838 L174.8565,185.838 C177.5425,185.838 179.4125,187.572 179.4125,190.156 C179.4125,192.706 177.5425,194.508 174.8565,194.508 L174.8565,194.508 Z M201.767501,206 L201.767501,196.99 L208.057501,196.99 C212.579501,196.99 215.163501,193.862 215.163501,190.156 C215.163501,186.45 212.613501,183.322 208.057501,183.322 L198.945501,183.322 L198.945501,206 L201.767501,206 Z M207.717501,194.474 L201.767501,194.474 L201.767501,185.838 L207.717501,185.838 C210.403501,185.838 212.239501,187.606 212.239501,190.156 C212.239501,192.706 210.403501,194.474 207.717501,194.474 L207.717501,194.474 Z M247.854502,206 L238.742502,183.322 L235.240502,183.322 L226.094502,206 L229.324502,206 L231.330502,200.934 L242.618502,200.934 L244.624502,206 L247.854502,206 Z M241.802502,198.452 L232.180502,198.452 L236.974502,186.212 L241.802502,198.452 Z M275.955502,206 L275.955502,203.484 L265.415502,203.484 L265.415502,183.322 L262.593502,183.322 L262.593502,206 L275.955502,206 Z" id="REPAIRPAL"></path>
                <path d="M4.18000261,238.13 C5.27000261,238.13 6.18000261,237.67 6.80000261,236.97 L6.80000261,234.57 L3.68000261,234.57 L3.68000261,235.31 L5.98000261,235.31 L5.98000261,236.66 C5.64000261,237 4.98000261,237.38 4.18000261,237.38 C2.72000261,237.38 1.61000261,236.25 1.61000261,234.67 C1.61000261,233.07 2.72000261,231.96 4.18000261,231.96 C4.98000261,231.96 5.69000261,232.34 6.11000261,232.88 L6.77000261,232.46 C6.19000261,231.74 5.37000261,231.22 4.18000261,231.22 C2.28000261,231.22 0.750002613,232.59 0.750002613,234.67 C0.750002613,236.74 2.28000261,238.13 4.18000261,238.13 L4.18000261,238.13 Z M14.4450024,238.12 C16.2550024,238.12 17.1750024,237.06 17.1750024,235.4 L17.1750024,231.33 L16.3350024,231.33 L16.3350024,235.39 C16.3350024,236.61 15.6750024,237.38 14.4450024,237.38 C13.2150024,237.38 12.5650024,236.61 12.5650024,235.39 L12.5650024,231.33 L11.7250024,231.33 L11.7250024,235.41 C11.7250024,237.05 12.6450024,238.12 14.4450024,238.12 L14.4450024,238.12 Z M27.1500022,238 L25.3500022,235.28 C26.2600022,235.2 27.0900022,234.54 27.0900022,233.34 C27.0900022,232.11 26.2100022,231.33 24.9900022,231.33 L22.3100022,231.33 L22.3100022,238 L23.1400022,238 L23.1400022,235.35 L24.4800022,235.35 L26.1700022,238 L27.1500022,238 Z M24.8900022,234.62 L23.1400022,234.62 L23.1400022,232.07 L24.8900022,232.07 C25.6800022,232.07 26.2300022,232.58 26.2300022,233.34 C26.2300022,234.09 25.6800022,234.62 24.8900022,234.62 L24.8900022,234.62 Z M37.685002,238 L35.005002,231.33 L33.975002,231.33 L31.285002,238 L32.235002,238 L32.825002,236.51 L36.145002,236.51 L36.735002,238 L37.685002,238 Z M35.905002,235.78 L33.075002,235.78 L34.485002,232.18 L35.905002,235.78 Z M47.6500019,238 L47.6500019,231.33 L46.8200019,231.33 L46.8200019,236.54 L42.9800019,231.33 L42.1300019,231.33 L42.1300019,238 L42.9600019,238 L42.9600019,232.68 L46.8500019,238 L47.6500019,238 Z M55.2650017,238 L55.2650017,232.07 L57.3850017,232.07 L57.3850017,231.33 L52.3250017,231.33 L52.3250017,232.07 L54.4350017,232.07 L54.4350017,238 L55.2650017,238 Z M66.4300015,238 L66.4300015,237.26 L62.8900015,237.26 L62.8900015,234.96 L66.3600015,234.96 L66.3600015,234.22 L62.8900015,234.22 L62.8900015,232.07 L66.4300015,232.07 L66.4300015,231.33 L62.0600015,231.33 L62.0600015,238 L66.4300015,238 Z M75.6950013,238 L75.6950013,237.26 L72.1550013,237.26 L72.1550013,234.96 L75.6250013,234.96 L75.6250013,234.22 L72.1550013,234.22 L72.1550013,232.07 L75.6950013,232.07 L75.6950013,231.33 L71.3250013,231.33 L71.3250013,238 L75.6950013,238 Z M82.8700011,238 C84.9500011,238 86.2900011,236.57 86.2900011,234.67 C86.2900011,232.78 84.9500011,231.33 82.8700011,231.33 L80.5900011,231.33 L80.5900011,238 L82.8700011,238 Z M82.8700011,237.26 L81.4200011,237.26 L81.4200011,232.07 L82.8700011,232.07 C84.5200011,232.07 85.4300011,233.23 85.4300011,234.67 C85.4300011,236.1 84.4900011,237.26 82.8700011,237.26 L82.8700011,237.26 Z M100.370001,238.12 C101.060001,238.12 101.680001,237.94 102.180001,237.62 L102.830001,238.31 L103.400001,237.81 L102.770001,237.14 C103.350001,236.52 103.690001,235.66 103.690001,234.67 C103.690001,232.7 102.340001,231.22 100.370001,231.22 C98.4000007,231.22 97.0600007,232.7 97.0600007,234.67 C97.0600007,236.64 98.4000007,238.12 100.370001,238.12 L100.370001,238.12 Z M100.370001,237.38 C98.8700007,237.38 97.9200007,236.22 97.9200007,234.67 C97.9200007,233.11 98.8700007,231.96 100.370001,231.96 C101.860001,231.96 102.830001,233.11 102.830001,234.67 C102.830001,235.41 102.600001,236.06 102.210001,236.54 L101.270001,235.52 L100.690001,236.01 L101.640001,237.04 C101.280001,237.26 100.850001,237.38 100.370001,237.38 L100.370001,237.38 Z M111.275001,238.12 C113.085001,238.12 114.005001,237.06 114.005001,235.4 L114.005001,231.33 L113.165001,231.33 L113.165001,235.39 C113.165001,236.61 112.505001,237.38 111.275001,237.38 C110.045001,237.38 109.395001,236.61 109.395001,235.39 L109.395001,231.33 L108.555001,231.33 L108.555001,235.41 C108.555001,237.05 109.475001,238.12 111.275001,238.12 L111.275001,238.12 Z M124.59,238 L121.91,231.33 L120.88,231.33 L118.19,238 L119.14,238 L119.73,236.51 L123.05,236.51 L123.64,238 L124.59,238 Z M122.81,235.78 L119.98,235.78 L121.39,232.18 L122.81,235.78 Z M132.855,238 L132.855,237.26 L129.755,237.26 L129.755,231.33 L128.925,231.33 L128.925,238 L132.855,238 Z M138.37,238 L138.37,231.33 L137.54,231.33 L137.54,238 L138.37,238 Z M145.985,238 L145.985,232.07 L148.105,232.07 L148.105,231.33 L143.045,231.33 L143.045,232.07 L145.155,232.07 L145.155,238 L145.985,238 Z M155.55,238 L155.55,235.18 L158.17,231.33 L157.2,231.33 L155.13,234.43 L153.06,231.33 L152.09,231.33 L154.72,235.18 L154.72,238 L155.55,238 Z M162.694999,237.76 C162.694999,237.28 162.404999,237 162.064999,237 C161.764999,237 161.534999,237.25 161.534999,237.54 C161.534999,237.83 161.744999,238.05 162.014999,238.05 C162.064999,238.05 162.134999,238.04 162.154999,238.03 C162.114999,238.36 161.824999,238.75 161.504999,238.96 L161.884999,239.27 C162.344999,238.94 162.694999,238.37 162.694999,237.76 L162.694999,237.76 Z M179.274999,238 L179.274999,231.33 L178.444999,231.33 L178.444999,236.54 L174.604999,231.33 L173.754999,231.33 L173.754999,238 L174.584999,238 L174.584999,232.68 L178.474999,238 L179.274999,238 Z M188.779999,238 L188.779999,237.26 L185.239999,237.26 L185.239999,234.96 L188.709999,234.96 L188.709999,234.22 L185.239999,234.22 L185.239999,232.07 L188.779999,232.07 L188.779999,231.33 L184.409999,231.33 L184.409999,238 L188.779999,238 Z M196.704999,238 L199.384999,231.33 L198.434999,231.33 L196.184999,237.09 L193.934999,231.33 L192.984999,231.33 L195.674999,238 L196.704999,238 Z M208.199998,238 L208.199998,237.26 L204.659998,237.26 L204.659998,234.96 L208.129998,234.96 L208.129998,234.22 L204.659998,234.22 L204.659998,232.07 L208.199998,232.07 L208.199998,231.33 L203.829998,231.33 L203.829998,238 L208.199998,238 Z M217.934998,238 L216.134998,235.28 C217.044998,235.2 217.874998,234.54 217.874998,233.34 C217.874998,232.11 216.994998,231.33 215.774998,231.33 L213.094998,231.33 L213.094998,238 L213.924998,238 L213.924998,235.35 L215.264998,235.35 L216.954998,238 L217.934998,238 Z M215.674998,234.62 L213.924998,234.62 L213.924998,232.07 L215.674998,232.07 C216.464998,232.07 217.014998,232.58 217.014998,233.34 C217.014998,234.09 216.464998,234.62 215.674998,234.62 L215.674998,234.62 Z M231.964998,238.12 C233.934998,238.12 235.284998,236.64 235.284998,234.67 C235.284998,232.7 233.934998,231.22 231.964998,231.22 C229.994998,231.22 228.654998,232.7 228.654998,234.67 C228.654998,236.64 229.994998,238.12 231.964998,238.12 L231.964998,238.12 Z M231.964998,237.38 C230.464998,237.38 229.514998,236.22 229.514998,234.67 C229.514998,233.11 230.464998,231.96 231.964998,231.96 C233.454998,231.96 234.424998,233.11 234.424998,234.67 C234.424998,236.22 233.454998,237.38 231.964998,237.38 L231.964998,237.38 Z M242.979998,238 L245.659998,231.33 L244.709998,231.33 L242.459998,237.09 L240.209998,231.33 L239.259998,231.33 L241.949998,238 L242.979998,238 Z M254.474997,238 L254.474997,237.26 L250.934997,237.26 L250.934997,234.96 L254.404997,234.96 L254.404997,234.22 L250.934997,234.22 L250.934997,232.07 L254.474997,232.07 L254.474997,231.33 L250.104997,231.33 L250.104997,238 L254.474997,238 Z M264.209997,238 L262.409997,235.28 C263.319997,235.2 264.149997,234.54 264.149997,233.34 C264.149997,232.11 263.269997,231.33 262.049997,231.33 L259.369997,231.33 L259.369997,238 L260.199997,238 L260.199997,235.35 L261.539997,235.35 L263.229997,238 L264.209997,238 Z M261.949997,234.62 L260.199997,234.62 L260.199997,232.07 L261.949997,232.07 C262.739997,232.07 263.289997,232.58 263.289997,233.34 C263.289997,234.09 262.739997,234.62 261.949997,234.62 L261.949997,234.62 Z M269.864997,238 L269.864997,235.35 L271.714997,235.35 C273.044997,235.35 273.804997,234.43 273.804997,233.34 C273.804997,232.25 273.054997,231.33 271.714997,231.33 L269.034997,231.33 L269.034997,238 L269.864997,238 Z M271.614997,234.61 L269.864997,234.61 L269.864997,232.07 L271.614997,232.07 C272.404997,232.07 272.944997,232.59 272.944997,233.34 C272.944997,234.09 272.404997,234.61 271.614997,234.61 L271.614997,234.61 Z M283.419997,238 L280.739997,231.33 L279.709997,231.33 L277.019997,238 L277.969997,238 L278.559997,236.51 L281.879997,236.51 L282.469997,238 L283.419997,238 Z M281.639997,235.78 L278.809997,235.78 L280.219997,232.18 L281.639997,235.78 Z M290.004997,238 L290.004997,235.18 L292.624997,231.33 L291.654997,231.33 L289.584997,234.43 L287.514997,231.33 L286.544997,231.33 L289.174997,235.18 L289.174997,238 L290.004997,238 Z" id="GURANTEED-QUALITY,-N"></path>
                <g id="Group" transform="translate(81.187500, 0.000000)">
                    <path d="M130.298842,11.056626 C130.192973,9.4463157 129.06098,8.12609474 127.538082,7.72823223 L125.997088,7.28995479 C125.740105,7.21720792 98.8138724,0 64.6839659,0 C30.6164954,0 4.50102709,7.22978146 4.25218769,7.30252833 L2.23342154,7.89707681 C0.979270993,8.4350444 0.0952124877,9.63761302 0.00201082339,11.056626 C-0.00251352924,11.138354 0.00201082339,117.808615 0.00201082339,117.808615 C0.0988319698,119.162066 0.916834927,120.307156 2.08773739,120.869372 L65.1508791,137.646956 L128.212211,120.871169 C129.381304,120.308054 130.200212,119.163863 130.298842,117.813106 C130.298842,117.813106 130.304272,11.138354 130.298842,11.056626 M124.386418,116.183037 L65.1753106,131.564958 L5.96329786,116.183037 L5.96329786,13.1429344 C8.12322381,12.507971 32.9944951,6.08289563 64.7083974,6.08289563 C96.4603042,6.08289563 122.194822,12.5214426 124.386418,13.1438325 L124.386418,116.183037" id="Fill-1"></path>
                    <path d="M47.551231,71.3674721 C47.551231,60.9125795 42.3455108,55.7457555 31.811913,55.7457555 L18.1284609,55.7457555 L18.1284609,113.256197 L27.8132901,113.256197 L27.8132901,92.3706608 L31.811913,92.3706608 C42.3455108,92.3706608 47.551231,87.2038369 47.551231,76.7489442 L47.551231,71.3674721 L47.551231,71.3674721 Z M37.8664017,77.2294328 C37.8664017,81.5565244 35.8078213,83.6006216 31.4472502,83.6006216 L27.8132901,83.6006216 L27.8132901,64.5157948 L31.4472502,64.5157948 C35.8078213,64.5157948 37.8664017,66.559892 37.8664017,70.8869835 L37.8664017,77.2294328 L37.8664017,77.2294328 Z" id="Fill-3"></path>
                    <polyline id="Fill-4" points="100.325324 55.7457555 90.6423044 55.7457555 90.6423044 113.599275 110.939455 113.599275 110.939455 104.707991 100.325324 104.707991 100.325324 55.7457555"></polyline>
                    <path d="M59.5945957,55.7457555 L46.3282889,113.611849 L55.7859957,113.611849 L57.7540891,103.966153 L58.1504224,102.051383 L58.4580784,100.582076 L73.0807861,100.582076 L73.7820607,103.966153 L75.8714068,113.611849 L85.5779529,113.611849 L72.3080266,55.7457555 L59.5945957,55.7457555 L59.5945957,55.7457555 Z M60.2940607,91.8371838 L65.7377617,66.1314938 L71.2656158,91.8371838 L60.2940607,91.8371838 L60.2940607,91.8371838 Z" id="Fill-5"></path>
                    <path d="M22.2781971,35.7877743 L25.3420887,35.7877743 C27.5192072,35.7877743 28.5055161,36.7667137 28.5055161,38.9311576 L28.5055161,45.41461 L32.6570621,45.41461 L32.6570621,38.7757846 C32.6570621,35.9961357 31.6698483,34.5528738 29.3859551,33.9349744 C31.4635378,33.1105099 32.6036747,31.5154674 32.6036747,28.2696997 L32.6036747,26.6028085 C32.6036747,22.1221402 30.3731689,19.9091984 25.8587698,19.9091984 L18.1284609,19.9091984 L18.1284609,45.41461 L22.2781971,45.41461 L22.2781971,35.7877743 L22.2781971,35.7877743 Z M22.2781971,23.6677866 L25.7058467,23.6677866 C27.5725946,23.6677866 28.4530336,24.5443415 28.4530336,26.3971414 L28.4530336,29.0932661 C28.4530336,31.1544274 27.4694393,32.1315706 25.3918566,32.1315706 L22.2781971,32.1315706 L22.2781971,23.6677866 L22.2781971,23.6677866 Z" id="Fill-6"></path>
                    <polyline id="Fill-7" points="49.7892921 41.6030333 42.4218363 41.6030333 42.4218363 34.3983989 49.4264391 34.3983989 49.4264391 30.6389126 42.4218363 30.6389126 42.4218363 23.7207751 49.685232 23.7207751 49.685232 19.9091984 38.2711952 19.9091984 38.2711952 45.41461 49.7892921 45.41461 49.7892921 41.6030333"></polyline>
                    <path d="M58.5351189,37.3855111 L61.5456231,37.3855111 C66.0600222,37.3855111 68.2896232,35.1716712 68.2896232,30.691901 L68.2896232,26.6028085 C68.2896232,22.1221402 66.0600222,19.9091984 61.5456231,19.9091984 L54.3853827,19.9091984 L54.3853827,45.41461 L58.5351189,45.41461 L58.5351189,37.3855111 L58.5351189,37.3855111 Z M58.5351189,23.6677866 L61.3890805,23.6677866 C63.2585431,23.6677866 64.1389821,24.5443415 64.1389821,26.3971414 L64.1389821,30.89667 C64.1389821,32.7494699 63.2585431,33.6269229 61.3890805,33.6269229 L58.5351189,33.6269229 L58.5351189,23.6677866 L58.5351189,23.6677866 Z" id="Fill-8"></path>
                    <path d="M73.2973981,41.3210269 L73.5000891,40.3007745 L79.8124659,40.3007745 L80.0142521,41.3210269 L80.8847375,45.5268737 L84.9819913,45.5268737 L79.3808427,19.9091984 L74.0873501,19.9091984 L68.4852967,45.5268737 L72.4793952,45.5268737 L73.2973981,41.3210269 L73.2973981,41.3210269 Z M76.680709,24.507519 L79.0858549,36.6248124 L74.234844,36.6248124 L76.680709,24.507519 L76.680709,24.507519 Z" id="Fill-9"></path>
                    <polygon id="Fill-10" points="88.628031 19.9091984 92.7786721 19.9091984 92.7786721 45.41461 88.628031 45.41461"></polygon>
                    <path d="M109.957797,33.9349744 C112.034475,33.111408 113.174612,31.5163656 113.174612,28.2705978 L113.174612,26.6037066 C113.174612,22.1230383 110.944106,19.9091984 106.430612,19.9091984 L98.6993982,19.9091984 L98.6993982,45.4155081 L102.850039,45.4155081 L102.850039,35.7877743 L105.913026,35.7877743 C108.091049,35.7877743 109.077358,36.7676118 109.077358,38.9311576 L109.077358,45.4155081 L113.227999,45.4155081 L113.227999,38.7757846 C113.227999,35.9961357 112.240786,34.5537719 109.957797,33.9349744 M109.023971,29.0941642 C109.023971,31.1553255 108.040377,32.1315706 105.963699,32.1315706 L102.850039,32.1315706 L102.850039,23.6686848 L106.276784,23.6686848 C108.143532,23.6686848 109.023971,24.5452396 109.023971,26.3980395 L109.023971,29.0941642" id="Fill-11"></path>
                </g>
            </g>
        </g>
    </g>
</svg>