<?xml version="1.0" encoding="UTF-8"?>
<svg width="246px" height="239px" viewBox="0 0 246 239" version="1.1" xmlns="http://www.w3.org/2000/svg" xmlns:xlink="http://www.w3.org/1999/xlink">
    <!-- Generator: Sketch 41 (35326) - http://www.bohemiancoding.com/sketch -->
    <title>Group 5</title>
    <desc>Created with Sketch.</desc>
    <defs></defs>
    <g id="Page-1" stroke="none" stroke-width="1" fill="none" fill-rule="evenodd">
        <g id="1170---MixBit" transform="translate(-754.000000, -373.000000)" fill="#FFFFFF">
            <g id="Group-5" transform="translate(754.000000, 373.000000)">
                <path d="M55.8,131.609709 C55.8,134.693347 58.3053552,137.2 61.3902908,137.2 L184.609709,137.2 C187.693347,137.2 190.2,134.694645 190.2,131.609709 L190.2,8.39029078 C190.2,5.30665297 187.694645,2.8 184.609709,2.8 L61.3902908,2.8 C58.306653,2.8 55.8,5.30535516 55.8,8.39029078 L55.8,131.609709 Z M61.3902908,0 L184.609709,0 C189.243539,0 193,3.76275333 193,8.39029078 L193,131.609709 C193,136.243539 189.237247,140 184.609709,140 L61.3902908,140 C56.7564611,140 53,136.237247 53,131.609709 L53,8.39029078 C53,3.75646114 56.7627533,0 61.3902908,0 Z" id="Rectangle-213"></path>
                <path d="M88,35 L102,35 L102,49 L88,49 L88,35 Z M116,35 L130,35 L130,49 L116,49 L116,35 Z M130,35 L144,35 L144,49 L130,49 L130,35 Z M102,35 L116,35 L116,49 L102,49 L102,35 Z M88,49 L102,49 L102,63 L88,63 L88,49 Z M116,49 L130,49 L130,63 L116,63 L116,49 Z M144,49 L158,49 L158,63 L144,63 L144,49 Z M88,63 L102,63 L102,77 L88,77 L88,63 Z M116,63 L130,63 L130,77 L116,77 L116,63 Z M144,63 L158,63 L158,77 L144,77 L144,63 Z M88,77 L102,77 L102,91 L88,91 L88,77 Z M116,77 L130,77 L130,91 L116,91 L116,77 Z M144,77 L158,77 L158,91 L144,91 L144,77 Z M88,91 L102,91 L102,105 L88,105 L88,91 Z M116,91 L130,91 L130,105 L116,105 L116,91 Z M144,91 L158,91 L158,105 L144,105 L144,91 Z" id="Combined-Shape"></path>
                <path d="M63.3384983,206 L63.3384983,183.322 L59.2924983,183.322 L52.2544983,200.798 L45.1824983,183.322 L41.1364983,183.322 L41.1364983,206 L43.9584983,206 L43.9584983,186.926 L51.6764983,206 L52.8324983,206 L60.5164983,186.926 L60.5164983,206 L63.3384983,206 Z M83.619499,206 L83.619499,183.322 L80.797499,183.322 L80.797499,206 L83.619499,206 Z M120.1865,206 L111.3465,194.338 L119.6765,183.322 L116.2085,183.322 L109.5105,192.366 L102.7785,183.322 L99.3444997,183.322 L107.6745,194.372 L98.8344997,206 L102.2685,206 L109.5105,196.344 L116.7525,206 L120.1865,206 Z M145.7375,206 C149.8855,206 152.2995,203.518 152.2995,199.88 C152.2995,197.16 150.2935,194.678 147.8795,194.304 C149.9535,193.862 151.8575,191.958 151.8575,189.102 C151.8575,185.702 149.4435,183.322 145.4995,183.322 L135.4015,183.322 L135.4015,206 L145.7375,206 Z M145.0235,193.148 L138.2235,193.148 L138.2235,185.838 L145.0235,185.838 C147.5735,185.838 148.9335,187.47 148.9335,189.51 C148.9335,191.584 147.5735,193.148 145.0235,193.148 L145.0235,193.148 Z M145.1935,203.484 L138.2235,203.484 L138.2235,195.664 L145.1935,195.664 C147.9475,195.664 149.3755,197.5 149.3755,199.574 C149.3755,201.988 147.8115,203.484 145.1935,203.484 L145.1935,203.484 Z M171.764501,206 L171.764501,183.322 L168.942501,183.322 L168.942501,206 L171.764501,206 Z M197.655502,206 L197.655502,185.838 L204.863502,185.838 L204.863502,183.322 L187.659502,183.322 L187.659502,185.838 L194.833502,185.838 L194.833502,206 L197.655502,206 Z" id="MIXBIT"></path>
                <path d="M4.11250257,238.12 C5.29250257,238.12 6.09250257,237.56 6.65250257,236.79 L5.95250257,236.41 C5.57250257,236.97 4.87250257,237.38 4.11250257,237.38 C2.65250257,237.38 1.54250257,236.25 1.54250257,234.67 C1.54250257,233.07 2.65250257,231.96 4.11250257,231.96 C4.87250257,231.96 5.57250257,232.36 5.95250257,232.93 L6.64250257,232.54 C6.11250257,231.78 5.29250257,231.22 4.11250257,231.22 C2.19250257,231.22 0.682502575,232.62 0.682502575,234.67 C0.682502575,236.72 2.19250257,238.12 4.11250257,238.12 L4.11250257,238.12 Z M16.1275024,238 L14.3275024,235.28 C15.2375024,235.2 16.0675024,234.54 16.0675024,233.34 C16.0675024,232.11 15.1875024,231.33 13.9675024,231.33 L11.2875024,231.33 L11.2875024,238 L12.1175024,238 L12.1175024,235.35 L13.4575024,235.35 L15.1475024,238 L16.1275024,238 Z M13.8675024,234.62 L12.1175024,234.62 L12.1175024,232.07 L13.8675024,232.07 C14.6575024,232.07 15.2075024,232.58 15.2075024,233.34 C15.2075024,234.09 14.6575024,234.62 13.8675024,234.62 L13.8675024,234.62 Z M25.3225022,238 L25.3225022,237.26 L21.7825022,237.26 L21.7825022,234.96 L25.2525022,234.96 L25.2525022,234.22 L21.7825022,234.22 L21.7825022,232.07 L25.3225022,232.07 L25.3225022,231.33 L20.9525022,231.33 L20.9525022,238 L25.3225022,238 Z M35.927502,238 L33.247502,231.33 L32.217502,231.33 L29.527502,238 L30.477502,238 L31.067502,236.51 L34.387502,236.51 L34.977502,238 L35.927502,238 Z M34.147502,235.78 L31.317502,235.78 L32.727502,232.18 L34.147502,235.78 Z M42.1825018,238 L42.1825018,232.07 L44.3025018,232.07 L44.3025018,231.33 L39.2425018,231.33 L39.2425018,232.07 L41.3525018,232.07 L41.3525018,238 L42.1825018,238 Z M53.3475016,238 L53.3475016,237.26 L49.8075016,237.26 L49.8075016,234.96 L53.2775016,234.96 L53.2775016,234.22 L49.8075016,234.22 L49.8075016,232.07 L53.3475016,232.07 L53.3475016,231.33 L48.9775016,231.33 L48.9775016,238 L53.3475016,238 Z M66.3275012,235.91 L66.3275012,235.25 L63.9275012,235.25 L63.9275012,235.91 L66.3275012,235.91 Z M81.9875009,238 L80.1875009,235.28 C81.0975009,235.2 81.9275009,234.54 81.9275009,233.34 C81.9275009,232.11 81.0475009,231.33 79.8275009,231.33 L77.1475009,231.33 L77.1475009,238 L77.9775009,238 L77.9775009,235.35 L79.3175009,235.35 L81.0075009,238 L81.9875009,238 Z M79.7275009,234.62 L77.9775009,234.62 L77.9775009,232.07 L79.7275009,232.07 C80.5175009,232.07 81.0675009,232.58 81.0675009,233.34 C81.0675009,234.09 80.5175009,234.62 79.7275009,234.62 L79.7275009,234.62 Z M91.1825007,238 L91.1825007,237.26 L87.6425007,237.26 L87.6425007,234.96 L91.1125007,234.96 L91.1125007,234.22 L87.6425007,234.22 L87.6425007,232.07 L91.1825007,232.07 L91.1825007,231.33 L86.8125007,231.33 L86.8125007,238 L91.1825007,238 Z M102.6075,238 L102.6075,231.33 L101.4175,231.33 L99.3475005,236.47 L97.2675005,231.33 L96.0775005,231.33 L96.0775005,238 L96.9075005,238 L96.9075005,232.39 L99.1775005,238 L99.5175005,238 L101.7775,232.39 L101.7775,238 L102.6075,238 Z M108.5725,238 L108.5725,231.33 L107.7425,231.33 L107.7425,238 L108.5725,238 Z M119.3275,238 L116.7275,234.57 L119.1775,231.33 L118.1575,231.33 L116.1875,233.99 L114.2075,231.33 L113.1975,231.33 L115.6475,234.58 L113.0475,238 L114.0575,238 L116.1875,235.16 L118.3175,238 L119.3275,238 Z M131.8875,235.91 L131.8875,235.25 L129.4875,235.25 L129.4875,235.91 L131.8875,235.91 Z M145.867499,238.12 C147.047499,238.12 147.847499,237.56 148.407499,236.79 L147.707499,236.41 C147.327499,236.97 146.627499,237.38 145.867499,237.38 C144.407499,237.38 143.297499,236.25 143.297499,234.67 C143.297499,233.07 144.407499,231.96 145.867499,231.96 C146.627499,231.96 147.327499,232.36 147.707499,232.93 L148.397499,232.54 C147.867499,231.78 147.047499,231.22 145.867499,231.22 C143.947499,231.22 142.437499,232.62 142.437499,234.67 C142.437499,236.72 143.947499,238.12 145.867499,238.12 L145.867499,238.12 Z M156.082499,238.12 C158.052499,238.12 159.402499,236.64 159.402499,234.67 C159.402499,232.7 158.052499,231.22 156.082499,231.22 C154.112499,231.22 152.772499,232.7 152.772499,234.67 C152.772499,236.64 154.112499,238.12 156.082499,238.12 L156.082499,238.12 Z M156.082499,237.38 C154.582499,237.38 153.632499,236.22 153.632499,234.67 C153.632499,233.11 154.582499,231.96 156.082499,231.96 C157.572499,231.96 158.542499,233.11 158.542499,234.67 C158.542499,236.22 157.572499,237.38 156.082499,237.38 L156.082499,237.38 Z M168.087499,238 L168.087499,237.26 L164.987499,237.26 L164.987499,231.33 L164.157499,231.33 L164.157499,238 L168.087499,238 Z M176.592499,238 L176.592499,237.26 L173.492499,237.26 L173.492499,231.33 L172.662499,231.33 L172.662499,238 L176.592499,238 Z M186.987499,238 L184.307499,231.33 L183.277499,231.33 L180.587499,238 L181.537499,238 L182.127499,236.51 L185.447499,236.51 L186.037499,238 L186.987499,238 Z M185.207499,235.78 L182.377499,235.78 L183.787499,232.18 L185.207499,235.78 Z M194.472498,238 C195.692498,238 196.402498,237.27 196.402498,236.2 C196.402498,235.4 195.812498,234.67 195.102498,234.56 C195.712498,234.43 196.272498,233.87 196.272498,233.03 C196.272498,232.03 195.562498,231.33 194.402498,231.33 L191.432498,231.33 L191.432498,238 L194.472498,238 Z M194.262498,234.22 L192.262498,234.22 L192.262498,232.07 L194.262498,232.07 C195.012498,232.07 195.412498,232.55 195.412498,233.15 C195.412498,233.76 195.012498,234.22 194.262498,234.22 L194.262498,234.22 Z M194.312498,237.26 L192.262498,237.26 L192.262498,234.96 L194.312498,234.96 C195.122498,234.96 195.542498,235.5 195.542498,236.11 C195.542498,236.82 195.082498,237.26 194.312498,237.26 L194.312498,237.26 Z M204.337498,238.12 C206.307498,238.12 207.657498,236.64 207.657498,234.67 C207.657498,232.7 206.307498,231.22 204.337498,231.22 C202.367498,231.22 201.027498,232.7 201.027498,234.67 C201.027498,236.64 202.367498,238.12 204.337498,238.12 L204.337498,238.12 Z M204.337498,237.38 C202.837498,237.38 201.887498,236.22 201.887498,234.67 C201.887498,233.11 202.837498,231.96 204.337498,231.96 C205.827498,231.96 206.797498,233.11 206.797498,234.67 C206.797498,236.22 205.827498,237.38 204.337498,237.38 L204.337498,237.38 Z M217.362498,238 L215.562498,235.28 C216.472498,235.2 217.302498,234.54 217.302498,233.34 C217.302498,232.11 216.422498,231.33 215.202498,231.33 L212.522498,231.33 L212.522498,238 L213.352498,238 L213.352498,235.35 L214.692498,235.35 L216.382498,238 L217.362498,238 Z M215.102498,234.62 L213.352498,234.62 L213.352498,232.07 L215.102498,232.07 C215.892498,232.07 216.442498,232.58 216.442498,233.34 C216.442498,234.09 215.892498,234.62 215.102498,234.62 L215.102498,234.62 Z M227.897498,238 L225.217498,231.33 L224.187498,231.33 L221.497498,238 L222.447498,238 L223.037498,236.51 L226.357498,236.51 L226.947498,238 L227.897498,238 Z M226.117498,235.78 L223.287498,235.78 L224.697498,232.18 L226.117498,235.78 Z M234.152498,238 L234.152498,232.07 L236.272498,232.07 L236.272498,231.33 L231.212498,231.33 L231.212498,232.07 L233.322498,232.07 L233.322498,238 L234.152498,238 Z M245.317497,238 L245.317497,237.26 L241.777497,237.26 L241.777497,234.96 L245.247497,234.96 L245.247497,234.22 L241.777497,234.22 L241.777497,232.07 L245.317497,232.07 L245.317497,231.33 L240.947497,231.33 L240.947497,238 L245.317497,238 Z" id="CREATE---REMIX---COL"></path>
            </g>
        </g>
    </g>
</svg>