<?xml version="1.0" encoding="UTF-8"?>
<svg width="359px" height="63px" viewBox="0 0 359 63" version="1.1" xmlns="http://www.w3.org/2000/svg" xmlns:xlink="http://www.w3.org/1999/xlink">
    <!-- Generator: Sketch 41.1 (35376) - http://www.bohemiancoding.com/sketch -->
    <title>Page 1</title>
    <desc>Created with Sketch.</desc>
    <defs>
        <polygon id="path-1" points="38.873953 0.140538462 0 0.140538462 0 62.1922269 38.873953 62.1922269"></polygon>
        <polygon id="path-3" points="0 62.3257248 358.868362 62.3257248 358.868362 0.273955541 0 0.273955541"></polygon>
    </defs>
    <g id="Page-1" stroke="none" stroke-width="1" fill="none" fill-rule="evenodd">
        <g id="1170---All-data" transform="translate(-706.000000, -1895.000000)">
            <g id="Page-1" transform="translate(706.000000, 1895.000000)">
                <g id="Group-3" transform="translate(0.000000, 0.133417)">
                    <mask id="mask-2" fill="white">
                        <use xlink:href="#path-1"></use>
                    </mask>
                    <g id="Clip-2"></g>
                    <path d="M32.1314771,12.0668423 C30.9658123,10.17765 29.4115926,8.80134231 27.4696241,7.93872692 C25.5268494,7.07691923 23.5010434,6.64561154 21.393012,6.64561154 C19.8387923,6.64561154 18.3127871,6.84107308 16.8149966,7.22957308 C15.3163999,7.61968846 13.9701619,8.20284231 12.7778948,8.98145769 C11.5840154,9.76088077 10.6263323,10.7882654 9.90565161,12.0668423 C9.18416477,13.3462269 8.82382441,14.8477269 8.82382441,16.5705346 C8.82382441,17.90565 9.03180609,19.0873038 9.44776946,20.1154962 C9.86373282,21.1444962 10.5433009,22.0757654 11.4872798,22.9093038 C12.4304525,23.74365 13.7065572,24.5222654 15.3163999,25.2443423 C16.9254365,25.9680346 18.8964257,26.6909192 21.2269491,27.4129962 C23.5010434,28.1366885 25.7074227,28.9144962 27.8444748,29.7488423 C29.9799146,30.5823808 31.8670662,31.6388423 33.5051235,32.9174192 C35.1407624,34.1976115 36.4458878,35.7952269 37.4172751,37.7134962 C38.3878563,39.6317654 38.873953,42.0370731 38.873953,44.9278038 C38.873953,47.8750731 38.2911206,50.4322269 37.1254558,52.6008808 C35.9605972,54.7695346 34.4200817,56.5626115 32.5055216,57.9801115 C30.5909616,59.3984192 28.3853884,60.4548808 25.8879959,61.1494962 C23.3906035,61.8441115 20.8109857,62.1922269 18.1467242,62.1922269 C16.4264416,62.1922269 14.7053529,62.0387654 12.9858764,61.7334577 C11.2647877,61.4273423 9.61463848,60.9540346 8.03301034,60.31515 C6.45138219,59.6770731 4.96568359,58.8427269 3.57994517,57.8137269 C2.19178836,56.7855346 0.998715141,55.5198808 -8.06130556e-05,54.0183808 L5.99350004,49.0979192 C7.2696047,51.2665731 9.04470418,52.9069962 11.3212169,54.0183808 C13.5953111,55.1313808 16.0096721,55.6862654 18.5626876,55.6862654 C20.0612843,55.6862654 21.5727791,55.4649577 23.0995904,55.0191115 C24.6247894,54.5748808 25.9992419,53.9222654 27.2197236,53.05965 C28.4402053,52.19865 29.439001,51.1284577 30.216917,49.8482654 C30.9932207,48.5696885 31.3817756,47.0964577 31.3817756,45.4285731 C31.3817756,43.5934962 31.0762522,42.1065346 30.4668175,40.9660731 C29.8549644,39.8272269 28.9117916,38.8394192 27.6364931,38.0050731 C26.3587762,37.1715346 24.7505457,36.4203808 22.8085772,35.7532269 C20.8649965,35.0860731 18.590096,34.3082654 15.9822637,33.4181885 C13.8726201,32.7510346 11.9306516,31.9877654 10.1555521,31.1243423 C8.37884034,30.2633423 6.83913099,29.2060731 5.53561789,27.9549577 C4.23129865,26.70465 3.20509446,25.20315 2.45539305,23.4512654 C1.70649777,21.7001885 1.33164706,19.6018038 1.33164706,17.1544962 C1.33164706,14.3186885 1.88545875,11.8455346 2.99630665,9.73180385 C4.10634842,7.61968846 5.60494511,5.85326538 7.49209674,4.43576538 C9.3776361,3.01745769 11.5146882,1.94807308 13.9016408,1.22438077 C16.2869811,0.503111538 18.7835674,0.140457692 21.393012,0.140457692 C24.7231373,0.140457692 27.7614433,0.654957692 30.5079301,1.68315 C33.255223,2.71295769 35.7106967,4.50603462 37.8751572,7.06318846 L32.1314771,12.0668423 Z" id="Fill-1" fill="#221F20" mask="url(#mask-2)"></path>
                </g>
                <polygon id="Fill-4" fill="#221F20" points="55.2722607 1.77521323 92.3147657 1.77521323 92.3147657 8.28036708 62.2646371 8.28036708 62.2646371 26.7959055 90.3171742 26.7959055 90.3171742 33.3010594 62.2646371 33.3010594 62.2646371 54.3188286 93.8133624 54.3188286 93.8133624 60.8239825 55.2722607 60.8239825"></polygon>
                <mask id="mask-4" fill="white">
                    <use xlink:href="#path-3"></use>
                </mask>
                <g id="Clip-7"></g>
                <polygon id="Fill-6" fill="#221F20" mask="url(#mask-4)" points="109.462049 60.8242248 116.454426 60.8242248 116.454426 1.77545554 109.462049 1.77545554"></polygon>
                <polygon id="Fill-8" fill="#221F20" mask="url(#mask-4)" points="147.860788 1.800494 151.107882 1.800494 163.667396 19.8475709 163.728662 19.8475709 163.728662 1.800494 166.301831 1.800494 166.301831 23.5306478 163.054737 23.5306478 150.495223 5.48357093 150.433957 5.48357093 150.433957 23.5306478 147.860788 23.5306478"></polygon>
                <path d="M183.79301,15.0595709 C183.751897,13.8318786 183.353669,12.8497248 182.598324,12.1131094 C181.84298,11.376494 180.801459,11.0081863 179.473762,11.0081863 C178.146065,11.0081863 177.073912,11.376494 176.257301,12.1131094 C175.440691,12.8497248 174.950564,13.8318786 174.786919,15.0595709 L183.79301,15.0595709 Z M185.845418,20.9218017 C184.987695,22.0267248 184.047747,22.7996863 183.027186,23.2390709 C182.005818,23.6784555 180.821612,23.8989555 179.473762,23.8989555 C178.350822,23.8989555 177.339935,23.6994555 176.441099,23.3004555 C175.542263,22.9014555 174.782082,22.3643402 174.158943,21.6891094 C173.535805,21.0138786 173.056157,20.2158786 172.719194,19.2951094 C172.382232,18.3743402 172.21375,17.3921863 172.21375,16.3486478 C172.21375,15.2437248 172.397548,14.2260325 172.765144,13.2947632 C173.132739,12.363494 173.64302,11.565494 174.296792,10.9007632 C174.950564,10.2360325 175.726061,9.71910939 176.624897,9.35080169 C177.523732,8.982494 178.503181,8.79834016 179.565661,8.79834016 C180.566069,8.79834016 181.485058,8.96714785 182.322628,9.30476323 C183.159391,9.64237862 183.879266,10.1334555 184.482251,10.777994 C185.084431,11.4225325 185.549568,12.2100325 185.876051,13.1413017 C186.202534,14.0725709 186.366178,15.1314555 186.366178,16.3179555 L186.366178,17.0852632 L174.786919,17.0852632 C174.827226,17.6991094 174.975554,18.2871094 175.231097,18.8500709 C175.48664,19.4130325 175.81796,19.9041094 176.226668,20.3233017 C176.635377,20.742494 177.115024,21.0752632 177.666417,21.3208017 C178.217811,21.5663402 178.81999,21.6891094 179.473762,21.6891094 C180.515283,21.6891094 181.393159,21.5049555 182.108197,21.1366478 C182.822429,20.7683402 183.466527,20.2263786 184.038073,19.5099555 L185.845418,20.9218017 Z" id="Fill-9" fill="#221F20" mask="url(#mask-4)"></path>
                <polygon id="Fill-10" fill="#221F20" mask="url(#mask-4)" points="207.227547 23.5304863 204.868809 23.5304863 200.794625 12.4812555 200.73336 12.4812555 197.11867 23.5304863 194.668033 23.5304863 190.011823 9.16648631 192.646258 9.16648631 195.923985 20.2157171 195.985251 20.2157171 199.691839 9.16648631 202.203742 9.16648631 205.971596 20.2157171 206.032862 20.2157171 209.279956 9.16648631 211.853124 9.16648631"></polygon>
                <polygon id="Fill-11" fill="#221F20" mask="url(#mask-4)" points="241.995071 23.5304863 239.636333 23.5304863 235.562956 12.4812555 235.50169 12.4812555 231.887 23.5304863 229.436363 23.5304863 224.780153 9.16648631 227.414588 9.16648631 230.692315 20.2157171 230.753581 20.2157171 234.459363 9.16648631 236.972878 9.16648631 240.739926 20.2157171 240.801998 20.2157171 244.048286 9.16648631 246.620648 9.16648631"></polygon>
                <path d="M257.832635,16.6248786 C256.301793,16.6248786 255.086148,16.8397248 254.188118,17.2694171 C253.288477,17.6991094 252.839462,18.4050325 252.839462,19.3871863 C252.839462,20.2877632 253.140955,20.9266478 253.743134,21.3054555 C254.345314,21.6842632 255.095821,21.8732632 255.994657,21.8732632 C256.688735,21.8732632 257.296558,21.7561478 257.817318,21.5203017 C258.338078,21.2852632 258.771777,20.9726863 259.119219,20.5841863 C259.465855,20.1956863 259.731878,19.7401478 259.915676,19.2183786 C260.10028,18.6966094 260.201046,18.1393017 260.222005,17.5456478 L260.222005,16.6248786 L257.832635,16.6248786 Z M250.909585,11.0081863 C251.644776,10.2513786 252.517816,9.69326323 253.528704,9.33545554 C254.539591,8.97764785 255.565795,8.79834016 256.607316,8.79834016 C258.730664,8.79834016 260.263118,9.29991708 261.20226,10.3022632 C262.141402,11.3054171 262.611376,12.8295325 262.611376,14.8754171 L262.611376,21.0445709 C262.611376,21.4540709 262.63153,21.8781094 262.672642,22.3183017 C262.713755,22.758494 262.764541,23.1623402 262.825807,23.5306478 L260.528335,23.5306478 C260.44611,23.2035325 260.400966,22.8400709 260.390487,22.4410709 C260.380007,22.0420709 260.37517,21.6891094 260.37517,21.3821863 L260.313904,21.3821863 C259.84393,22.1188017 259.215955,22.7221478 258.429977,23.1930325 C257.644,23.6631094 256.699215,23.8989555 255.597235,23.8989555 C254.861237,23.8989555 254.171996,23.8068786 253.528704,23.6227248 C252.885411,23.4385709 252.323538,23.1671863 251.843891,22.8093786 C251.364243,22.4515709 250.981331,22.0065325 250.695155,21.4742632 C250.408978,20.941994 250.266293,20.3281478 250.266293,19.6327248 C250.266293,18.4462248 250.572623,17.5149555 251.185282,16.8397248 C251.797941,16.164494 252.558928,15.6637248 253.467438,15.3358017 C254.375947,15.0086863 255.356201,14.8035325 256.408202,14.7219555 C257.459396,14.6403786 258.424334,14.5991863 259.303017,14.5991863 L260.222005,14.5991863 L260.222005,14.169494 C260.222005,13.1259555 259.910033,12.3384555 259.2877,11.8061863 C258.664561,11.2739171 257.791522,11.0081863 256.668582,11.0081863 C255.892278,11.0081863 255.131291,11.1358017 254.387233,11.3918402 C253.640756,11.6478786 252.982147,12.0412248 252.4106,12.573494 L250.909585,11.0081863 Z" id="Fill-12" fill="#221F20" mask="url(#mask-4)"></path>
                <path d="M274.037148,26.8144825 C273.792085,27.4283286 273.542184,27.9856363 273.286641,28.4872132 C273.031097,28.9879825 272.724768,29.4184825 272.368458,29.7762902 C272.00973,30.1340978 271.581675,30.4103286 271.081068,30.6049825 C270.580461,30.7996363 269.973444,30.8965594 269.258407,30.8965594 C268.91177,30.8965594 268.548205,30.8755594 268.171743,30.8351748 C267.792861,30.7939825 267.440582,30.6922132 267.114099,30.5282517 L267.420429,28.4411748 C267.666299,28.5437517 267.921036,28.6099825 268.186253,28.6406748 C268.45147,28.6713671 268.757799,28.6867132 269.106048,28.6867132 C269.881545,28.6867132 270.453898,28.4718671 270.821494,28.0421748 C271.189089,27.6124825 271.504286,27.0390209 271.770309,26.3234055 L272.750564,23.6224825 L266.80777,9.16640554 L269.595369,9.16640554 L274.037148,20.4304825 L274.098414,20.4304825 L278.356396,9.16640554 L280.960198,9.16640554 L274.037148,26.8144825 Z" id="Fill-13" fill="#221F20" mask="url(#mask-4)"></path>
                <path d="M285.61665,19.7554132 C286.085817,20.3490671 286.601741,20.819144 287.163614,21.1672594 C287.724681,21.5153748 288.434882,21.6890286 289.292605,21.6890286 C289.6602,21.6890286 290.032633,21.6478363 290.409902,21.5662594 C290.787977,21.4846825 291.130582,21.3514132 291.436912,21.1672594 C291.743242,20.9831055 291.987499,20.7529132 292.172103,20.4766825 C292.355095,20.2004517 292.4478,19.8676825 292.4478,19.4791825 C292.4478,19.0906825 292.359932,18.7732594 292.186614,18.5277209 C292.014102,18.2821825 291.783548,18.0729902 291.498178,17.8985286 C291.211196,17.7248748 290.884713,17.5867594 290.517923,17.4841825 C290.150328,17.3824132 289.771446,17.2895286 289.384504,17.2079517 C288.710579,17.0649902 288.067286,16.9010286 287.453821,16.7168748 C286.841968,16.5327209 286.305085,16.2920286 285.845591,15.9956055 C285.386902,15.6991825 285.019307,15.3155286 284.74361,14.844644 C284.467107,14.3737594 284.329259,13.7704132 284.329259,13.0337978 C284.329259,12.3383748 284.48323,11.7245286 284.78956,11.1922594 C285.095889,10.6599902 285.503791,10.2206055 286.014072,9.87249016 C286.525159,9.52437477 287.096705,9.258644 287.730324,9.07449016 C288.36233,8.89033631 289.016908,8.79825939 289.690833,8.79825939 C290.711395,8.79825939 291.655373,9.00260554 292.523576,9.41210554 C293.392585,9.82160554 294.070541,10.4863363 294.561474,11.4071055 L292.570332,12.7268748 C292.264002,12.2156055 291.860131,11.8012594 291.36033,11.4838363 C290.859723,11.1664132 290.2519,11.0081055 289.536862,11.0081055 C289.21038,11.0081055 288.87906,11.0492978 288.542097,11.1308748 C288.205135,11.2124517 287.903642,11.3352209 287.638425,11.4991825 C287.372402,11.663144 287.152328,11.8723363 286.97901,12.1283748 C286.805692,12.3844132 286.71863,12.6759902 286.71863,13.0031055 C286.71863,13.3100286 286.815366,13.5709132 287.010449,13.7857594 C287.203921,14.0006055 287.469944,14.1896055 287.806906,14.3535671 C288.143869,14.5175286 288.530811,14.6604902 288.970153,14.7832594 C289.409494,14.9060286 289.864151,15.0086055 290.334126,15.0901825 C290.966938,15.2129517 291.569118,15.3712594 292.14147,15.5659132 C292.713017,15.7605671 293.213624,16.0214517 293.642485,16.3485671 C294.070541,16.6756825 294.407503,17.0851825 294.653373,17.5762594 C294.898437,18.0673363 295.020969,18.6706825 295.020969,19.3871055 C295.020969,20.2052978 294.857324,20.9015286 294.530841,21.4741825 C294.203552,22.0468363 293.769048,22.5128748 293.228134,22.8706825 C292.687221,23.2284902 292.074561,23.4901825 291.390963,23.6533363 C290.705752,23.8164902 290.006837,23.8988748 289.292605,23.8988748 C288.067286,23.8988748 287.010449,23.7098748 286.122093,23.3310671 C285.232931,22.9522594 284.431638,22.2519902 283.717406,21.228644 L285.61665,19.7554132 Z" id="Fill-14" fill="#221F20" mask="url(#mask-4)"></path>
                <path d="M302.128138,20.0314825 C302.638419,20.0314825 303.072117,20.2107902 303.430039,20.5685978 C303.787155,20.9264055 303.965309,21.3617517 303.965309,21.8730209 C303.965309,22.3850978 303.776675,22.8196363 303.399406,23.177444 C303.020524,23.5352517 302.597306,23.7145594 302.128138,23.7145594 C301.658164,23.7145594 301.234945,23.5352517 300.85687,23.177444 C300.478795,22.8196363 300.29016,22.3850978 300.29016,21.8730209 C300.29016,21.3617517 300.468315,20.9264055 300.826237,20.5685978 C301.183353,20.2107902 301.617051,20.0314825 302.128138,20.0314825" id="Fill-15" fill="#221F20" mask="url(#mask-4)"></path>
                <path d="M352.685502,43.912844 L353.623838,43.912844 C353.826177,43.912844 354.024485,43.9063825 354.21715,43.8926517 C354.410622,43.8789209 354.580715,43.839344 354.728237,43.7747286 C354.874953,43.7109209 354.995066,43.6091517 355.086965,43.4710363 C355.178864,43.3321132 355.224813,43.1431132 355.224813,42.9032286 C355.224813,42.7013055 355.183701,42.537344 355.100669,42.4129594 C355.017638,42.2885748 354.912035,42.1940748 354.783054,42.1294594 C354.654073,42.064844 354.512194,42.0236517 354.355805,42.0050748 C354.198609,41.9864978 354.043026,41.9776132 353.885831,41.9776132 L352.685502,41.9776132 L352.685502,43.912844 Z M351.774575,41.2304978 L354.038189,41.2304978 C355.436826,41.2304978 356.135741,41.802344 356.135741,42.9452286 C356.135741,43.4896132 355.984188,43.8878055 355.680277,44.1414209 C355.376366,44.3950363 354.999097,44.5444594 354.54847,44.5904978 L356.273589,47.2453825 L355.294141,47.2453825 L353.665757,44.6599594 L352.685502,44.6599594 L352.685502,47.2453825 L351.774575,47.2453825 L351.774575,41.2304978 Z M349.511766,44.2448055 C349.511766,44.8715748 349.622206,45.4523055 349.843086,45.9869978 C350.063966,46.5216902 350.362234,46.9853055 350.739503,47.3770363 C351.116772,47.7687671 351.562562,48.0773055 352.078486,48.3034594 C352.593603,48.5288055 353.145803,48.6418825 353.734278,48.6418825 C354.322753,48.6418825 354.872534,48.5288055 355.383621,48.3034594 C355.893902,48.0773055 356.340498,47.7687671 356.721798,47.3770363 C357.103904,46.9853055 357.405397,46.5216902 357.626276,45.9869978 C357.847156,45.4523055 357.957596,44.8715748 357.957596,44.2448055 C357.957596,43.6269209 357.847156,43.0486132 357.626276,42.5098825 C357.405397,41.970344 357.103904,41.5051132 356.721798,41.1133825 C356.340498,40.7216517 355.893902,40.4131132 355.383621,40.1869594 C354.872534,39.9608055 354.322753,39.8477286 353.734278,39.8477286 C353.145803,39.8477286 352.593603,39.9608055 352.078486,40.1869594 C351.562562,40.4131132 351.116772,40.7216517 350.739503,41.1133825 C350.362234,41.5051132 350.063966,41.970344 349.843086,42.5098825 C349.622206,43.0486132 349.511766,43.6269209 349.511766,44.2448055 L349.511766,44.2448055 Z M348.600839,44.2448055 C348.600839,43.5170748 348.736269,42.8369978 349.007935,42.2053825 C349.278795,41.5737671 349.649615,41.0301902 350.118783,40.573844 C350.587951,40.1174978 351.132895,39.7580748 351.754421,39.4955748 C352.375142,39.2330748 353.035363,39.1014209 353.734278,39.1014209 C354.433193,39.1014209 355.093414,39.2330748 355.714941,39.4955748 C356.335661,39.7580748 356.880606,40.1174978 357.349774,40.573844 C357.818942,41.0301902 358.189762,41.5737671 358.461428,42.2053825 C358.732288,42.8369978 358.867717,43.5170748 358.867717,44.2448055 C358.867717,44.9822286 358.732288,45.6647286 358.461428,46.2914978 C358.189762,46.9182671 357.818942,47.4594209 357.349774,47.9157671 C356.880606,48.3721132 356.335661,48.7315363 355.714941,48.994844 C355.093414,49.257344 354.433193,49.3881902 353.734278,49.3881902 C353.035363,49.3881902 352.375142,49.257344 351.754421,48.994844 C351.132895,48.7315363 350.587951,48.3721132 350.118783,47.9157671 C349.649615,47.4594209 349.278795,46.9182671 349.007935,46.2914978 C348.736269,45.6647286 348.600839,44.9822286 348.600839,44.2448055 L348.600839,44.2448055 Z" id="Fill-16" fill="#221F20" mask="url(#mask-4)"></path>
                <polygon id="Fill-17" fill="#221F20" mask="url(#mask-4)" points="147.860788 38.7926402 151.107882 38.7926402 163.667396 56.8397171 163.728662 56.8397171 163.728662 38.7926402 166.301831 38.7926402 166.301831 60.522794 163.054737 60.522794 150.495223 42.4757171 150.433957 42.4757171 150.433957 60.522794 147.860788 60.522794"></polygon>
                <path d="M183.79301,52.0517171 C183.751897,50.8240248 183.353669,49.8418709 182.598324,49.1052555 C181.84298,48.3686402 180.801459,48.0003325 179.473762,48.0003325 C178.146065,48.0003325 177.073912,48.3686402 176.257301,49.1052555 C175.440691,49.8418709 174.950564,50.8240248 174.786919,52.0517171 L183.79301,52.0517171 Z M185.845418,57.9139478 C184.987695,59.0188709 184.047747,59.7918325 183.027186,60.2312171 C182.005818,60.6706017 180.821612,60.8911017 179.473762,60.8911017 C178.350822,60.8911017 177.339935,60.6916017 176.441099,60.2926017 C175.542263,59.8936017 174.782082,59.3564863 174.158943,58.6812555 C173.535805,58.0060248 173.056157,57.2080248 172.719194,56.2872555 C172.382232,55.3664863 172.21375,54.3843325 172.21375,53.340794 C172.21375,52.2358709 172.397548,51.2181786 172.765144,50.2869094 C173.132739,49.3556402 173.64302,48.5576402 174.296792,47.8929094 C174.950564,47.2281786 175.726061,46.7112555 176.624897,46.3429478 C177.523732,45.9746402 178.503181,45.7904863 179.565661,45.7904863 C180.566069,45.7904863 181.485058,45.959294 182.322628,46.2969094 C183.159391,46.6345248 183.879266,47.1256017 184.482251,47.7701402 C185.084431,48.4146786 185.549568,49.2021786 185.876051,50.1334478 C186.202534,51.0647171 186.366178,52.1236017 186.366178,53.3101017 L186.366178,54.0774094 L174.786919,54.0774094 C174.827226,54.6912555 174.975554,55.2792555 175.231097,55.8422171 C175.48664,56.4051786 175.81796,56.8962555 176.226668,57.3154478 C176.635377,57.7346402 177.115024,58.0674094 177.666417,58.3129478 C178.217811,58.5584863 178.81999,58.6812555 179.473762,58.6812555 C180.515283,58.6812555 181.393159,58.4971017 182.108197,58.128794 C182.822429,57.7604863 183.466527,57.2185248 184.038073,56.5021017 L185.845418,57.9139478 Z" id="Fill-18" fill="#221F20" mask="url(#mask-4)"></path>
                <polygon id="Fill-19" fill="#221F20" mask="url(#mask-4)" points="207.227547 60.5226325 204.868809 60.5226325 200.794625 49.4734017 200.73336 49.4734017 197.11867 60.5226325 194.668033 60.5226325 190.011823 46.1586325 192.646258 46.1586325 195.923985 57.2078632 195.985251 57.2078632 199.691839 46.1586325 202.203742 46.1586325 205.971596 57.2078632 206.032862 57.2078632 209.279956 46.1586325 211.853124 46.1586325"></polygon>
                <path d="M233.35706,53.6170248 C231.825412,53.6170248 230.610573,53.8318709 229.711738,54.2615632 C228.812902,54.6912555 228.363887,55.3971786 228.363887,56.3793325 C228.363887,57.2799094 228.66538,57.918794 229.26756,58.2976017 C229.869739,58.6764094 230.620247,58.8654094 231.519082,58.8654094 C232.213161,58.8654094 232.820983,58.748294 233.341743,58.5124478 C233.862504,58.2774094 234.296202,57.9648325 234.643644,57.5763325 C234.99028,57.1878325 235.256304,56.732294 235.440101,56.2105248 C235.624705,55.6887555 235.725471,55.1314478 235.745625,54.537794 L235.745625,53.6170248 L233.35706,53.6170248 Z M226.434011,48.0003325 C227.169202,47.2435248 228.042241,46.6854094 229.053129,46.3276017 C230.064017,45.969794 231.090221,45.7904863 232.131741,45.7904863 C234.255089,45.7904863 235.786737,46.2920632 236.726686,47.2944094 C237.665022,48.2975632 238.135802,49.8216786 238.135802,51.8675632 L238.135802,58.0367171 C238.135802,58.4462171 238.156761,58.8702555 238.197068,59.3104478 C238.23818,59.7506402 238.288967,60.1544863 238.350233,60.522794 L236.05276,60.522794 C235.971341,60.1956786 235.925392,59.8322171 235.914106,59.4332171 C235.905239,59.0342171 235.900402,58.6812555 235.900402,58.3743325 L235.839136,58.3743325 C235.368356,59.1109478 234.739574,59.714294 233.954403,60.1851786 C233.168425,60.6552555 232.22364,60.8911017 231.120854,60.8911017 C230.385663,60.8911017 229.696421,60.7990248 229.053129,60.6148709 C228.409837,60.4307171 227.847964,60.1593325 227.368316,59.8015248 C226.888668,59.4437171 226.50495,58.9986786 226.21958,58.4664094 C225.933404,57.9341402 225.790719,57.320294 225.790719,56.6248709 C225.790719,55.4383709 226.097048,54.5071017 226.709707,53.8318709 C227.322367,53.1566402 228.083354,52.6558709 228.991863,52.3279478 C229.900372,52.0008325 230.880627,51.7956786 231.932627,51.7141017 C232.984628,51.6325248 233.94876,51.5913325 234.828248,51.5913325 L235.745625,51.5913325 L235.745625,51.1616402 C235.745625,50.1181017 235.434458,49.3306017 234.812126,48.7983325 C234.188987,48.2660632 233.315947,48.0003325 232.193007,48.0003325 C231.416704,48.0003325 230.655716,48.1279478 229.910852,48.3839863 C229.165181,48.6400248 228.506572,49.0333709 227.935026,49.5656402 L226.434011,48.0003325 Z" id="Fill-20" fill="#221F20" mask="url(#mask-4)"></path>
                <path d="M244.292946,49.5655594 C244.292946,48.9105209 244.272793,48.2974825 244.232487,47.7240209 C244.190568,47.1513671 244.171221,46.6295978 244.171221,46.1587132 L246.437254,46.1587132 C246.437254,46.5480209 246.447733,46.9365209 246.467887,47.3250209 C246.488846,47.7143286 246.49852,48.1133286 246.49852,48.5220209 L246.560592,48.5220209 C246.72343,48.1739055 246.953177,47.8362902 247.249027,47.5091748 C247.544877,47.1820594 247.897962,46.8904825 248.30667,46.634444 C248.714572,46.3792132 249.174067,46.1740594 249.684348,46.0205978 C250.194628,45.8671363 250.746828,45.7904055 251.338527,45.7904055 C252.27767,45.7904055 253.089443,45.9333671 253.774654,46.2200978 C254.458253,46.5068286 255.024962,46.9058286 255.473977,47.4170978 C255.923798,47.9291748 256.255924,48.5478671 256.469548,49.2739825 C256.683979,50.0009055 256.792001,50.7932517 256.792001,51.6526363 L256.792001,60.5227132 L254.401824,60.5227132 L254.401824,51.8981748 C254.401824,50.6914825 254.136607,49.7392132 253.606173,49.0437902 C253.074933,48.3483671 252.247037,48.0002517 251.124903,48.0002517 C250.348599,48.0002517 249.679511,48.1335209 249.117638,48.3992517 C248.555765,48.6649825 248.097076,49.0437902 247.739154,49.5348671 C247.382039,50.025944 247.116016,50.6090978 246.942698,51.2843286 C246.769379,51.9595594 246.683123,52.7066748 246.683123,53.5248671 L246.683123,60.5227132 L244.292946,60.5227132 L244.292946,49.5655594 Z" id="Fill-21" fill="#221F20" mask="url(#mask-4)"></path>
                <path d="M263.407914,56.7476402 C263.877082,57.341294 264.393006,57.8113709 264.954879,58.1594863 C265.515945,58.5076017 266.226146,58.6812555 267.083869,58.6812555 C267.451465,58.6812555 267.823897,58.6400632 268.201166,58.5584863 C268.579242,58.4769094 268.921847,58.3436402 269.228177,58.1594863 C269.534506,57.9753325 269.778764,57.7451402 269.963368,57.4689094 C270.146359,57.1926786 270.239064,56.8599094 270.239064,56.4714094 C270.239064,56.0829094 270.151196,55.7654863 269.977878,55.5199478 C269.805366,55.2744094 269.574813,55.0652171 269.289443,54.8907555 C269.00246,54.7171017 268.675977,54.5789863 268.309188,54.4764094 C267.941592,54.3746402 267.562711,54.2817555 267.175768,54.2001786 C266.501843,54.0572171 265.858551,53.8932555 265.245086,53.7091017 C264.633232,53.5249478 264.09635,53.2842555 263.636855,52.9878325 C263.178167,52.6914094 262.810571,52.3077555 262.534875,51.8368709 C262.258372,51.3659863 262.120524,50.7626402 262.120524,50.0260248 C262.120524,49.3306017 262.274494,48.7167555 262.580824,48.1844863 C262.887154,47.6522171 263.295056,47.2128325 263.805336,46.8647171 C264.316423,46.5166017 264.88797,46.2508709 265.521588,46.0667171 C266.153595,45.8825632 266.808173,45.7904863 267.482098,45.7904863 C268.502659,45.7904863 269.446638,45.9948325 270.314841,46.4043325 C271.183849,46.8138325 271.861805,47.4785632 272.352739,48.3993325 L270.361596,49.7191017 C270.055267,49.2078325 269.651395,48.7934863 269.151594,48.4760632 C268.650987,48.1586402 268.043165,48.0003325 267.328127,48.0003325 C267.001644,48.0003325 266.670324,48.0415248 266.333362,48.1231017 C265.996399,48.2046786 265.694906,48.3274478 265.429689,48.4914094 C265.163666,48.6553709 264.943593,48.8645632 264.770275,49.1206017 C264.596957,49.3766402 264.509894,49.6682171 264.509894,49.9953325 C264.509894,50.3022555 264.60663,50.5631402 264.801714,50.7779863 C264.995185,50.9928325 265.261208,51.1818325 265.598171,51.345794 C265.935133,51.5097555 266.322076,51.6527171 266.761417,51.7754863 C267.200758,51.8982555 267.655416,52.0008325 268.12539,52.0824094 C268.758203,52.2051786 269.360382,52.3634863 269.932735,52.5581402 C270.504281,52.752794 271.004888,53.0136786 271.43375,53.340794 C271.861805,53.6679094 272.198768,54.0774094 272.444638,54.5684863 C272.689701,55.0595632 272.812233,55.6629094 272.812233,56.3793325 C272.812233,57.1975248 272.648589,57.8937555 272.322106,58.4664094 C271.994817,59.0390632 271.560312,59.5051017 271.019399,59.8629094 C270.478485,60.2207171 269.865826,60.4824094 269.182227,60.6455632 C268.497016,60.8087171 267.798101,60.8911017 267.083869,60.8911017 C265.858551,60.8911017 264.801714,60.7021017 263.913358,60.323294 C263.024196,59.9444863 262.222902,59.2442171 261.50867,58.2208709 L263.407914,56.7476402 Z" id="Fill-22" fill="#221F20" mask="url(#mask-4)"></path>
                <polygon id="Fill-23" fill="#221F20" mask="url(#mask-4)" points="293.305523 60.5226325 290.946785 60.5226325 286.873407 49.4734017 286.811335 49.4734017 283.196646 60.5226325 280.746009 60.5226325 276.090605 46.1586325 278.724233 46.1586325 282.002766 57.2078632 282.064032 57.2078632 285.769814 46.1586325 288.282523 46.1586325 292.049571 57.2078632 292.111643 57.2078632 295.357931 46.1586325 297.9311 46.1586325"></polygon>
                <path d="M313.155762,52.0517171 C313.113843,50.8240248 312.715615,49.8418709 311.961077,49.1052555 C311.204926,48.3686402 310.163405,48.0003325 308.836515,48.0003325 C307.508011,48.0003325 306.435858,48.3686402 305.619248,49.1052555 C304.802637,49.8418709 304.31251,50.8240248 304.148865,52.0517171 L313.155762,52.0517171 Z M315.20817,57.9139478 C314.349641,59.0188709 313.410499,59.7918325 312.389938,60.2312171 C311.367764,60.6706017 310.183559,60.8911017 308.836515,60.8911017 C307.712769,60.8911017 306.701881,60.6916017 305.803851,60.2926017 C304.905016,59.8936017 304.144029,59.3564863 303.521696,58.6812555 C302.897751,58.0060248 302.418909,57.2080248 302.081947,56.2872555 C301.744984,55.3664863 301.576503,54.3843325 301.576503,53.340794 C301.576503,52.2358709 301.759494,51.2181786 302.12709,50.2869094 C302.494685,49.3556402 303.004966,48.5576402 303.659544,47.8929094 C304.31251,47.2281786 305.088007,46.7112555 305.986843,46.3429478 C306.885679,45.9746402 307.865933,45.7904863 308.928413,45.7904863 C309.928015,45.7904863 310.84781,45.959294 311.68538,46.2969094 C312.522143,46.6345248 313.242018,47.1256017 313.844198,47.7701402 C314.447183,48.4146786 314.911514,49.2021786 315.238803,50.1334478 C315.56448,51.0647171 315.728125,52.1236017 315.728125,53.3101017 L315.728125,54.0774094 L304.148865,54.0774094 C304.189978,54.6912555 304.338306,55.2792555 304.593849,55.8422171 C304.848587,56.4051786 305.179906,56.8962555 305.588615,57.3154478 C305.997323,57.7346402 306.477777,58.0674094 307.028364,58.3129478 C307.580563,58.5584863 308.181937,58.6812555 308.836515,58.6812555 C309.878035,58.6812555 310.755105,58.4971017 311.470143,58.128794 C312.185181,57.7604863 312.828473,57.2185248 313.400826,56.5021017 L315.20817,57.9139478 Z" id="Fill-24" fill="#221F20" mask="url(#mask-4)"></path>
                <path d="M321.211505,49.5655594 C321.211505,48.9105209 321.191352,48.2974825 321.151045,47.7240209 C321.109127,47.1513671 321.08978,46.6295978 321.08978,46.1587132 L323.355813,46.1587132 C323.355813,46.5480209 323.366292,46.9365209 323.386445,47.3250209 C323.407405,47.7143286 323.417078,48.1133286 323.417078,48.5220209 L323.479151,48.5220209 C323.641989,48.1739055 323.871736,47.8362902 324.167586,47.5091748 C324.463436,47.1820594 324.816521,46.8904825 325.225229,46.634444 C325.633131,46.3792132 326.092626,46.1740594 326.602906,46.0205978 C327.113187,45.8671363 327.665386,45.7904055 328.257086,45.7904055 C328.420731,45.7904055 328.584375,45.8009055 328.74802,45.8210978 C328.910858,45.8420978 329.073697,45.8824825 329.237341,45.9438671 L329.084982,48.3685594 C328.676274,48.2457902 328.247413,48.1844055 327.798398,48.1844055 C326.328016,48.1844055 325.259893,48.6601363 324.596447,49.6115978 C323.933002,50.5630594 323.601682,51.8674825 323.601682,53.5248671 L323.601682,60.5227132 L321.211505,60.5227132 L321.211505,49.5655594 Z" id="Fill-25" fill="#221F20" mask="url(#mask-4)"></path>
                <path d="M334.078155,56.7476402 C334.547323,57.341294 335.063247,57.8113709 335.62512,58.1594863 C336.186186,58.5076017 336.896387,58.6812555 337.75411,58.6812555 C338.121706,58.6812555 338.494138,58.6400632 338.871407,58.5584863 C339.249482,58.4769094 339.592088,58.3436402 339.898418,58.1594863 C340.204747,57.9753325 340.449005,57.7451402 340.633609,57.4689094 C340.8166,57.1926786 340.909305,56.8599094 340.909305,56.4714094 C340.909305,56.0829094 340.821437,55.7654863 340.648119,55.5199478 C340.475607,55.2744094 340.245054,55.0652171 339.959684,54.8907555 C339.672701,54.7171017 339.346218,54.5789863 338.979429,54.4764094 C338.611833,54.3746402 338.232952,54.2817555 337.846009,54.2001786 C337.172084,54.0572171 336.528792,53.8932555 335.915327,53.7091017 C335.303473,53.5249478 334.76659,53.2842555 334.307096,52.9878325 C333.848408,52.6914094 333.480812,52.3077555 333.205116,51.8368709 C332.928613,51.3659863 332.790765,50.7626402 332.790765,50.0260248 C332.790765,49.3306017 332.944735,48.7167555 333.251065,48.1844863 C333.557395,47.6522171 333.965297,47.2128325 334.475577,46.8647171 C334.986664,46.5166017 335.558211,46.2508709 336.191829,46.0667171 C336.823836,45.8825632 337.478414,45.7904863 338.152339,45.7904863 C339.1729,45.7904863 340.116879,45.9948325 340.985082,46.4043325 C341.85409,46.8138325 342.532046,47.4785632 343.02298,48.3993325 L341.031837,49.7191017 C340.725508,49.2078325 340.321636,48.7934863 339.821835,48.4760632 C339.321228,48.1586402 338.713406,48.0003325 337.998368,48.0003325 C337.671885,48.0003325 337.340565,48.0415248 337.003603,48.1231017 C336.66664,48.2046786 336.365147,48.3274478 336.09993,48.4914094 C335.833907,48.6553709 335.613834,48.8645632 335.440516,49.1206017 C335.267198,49.3766402 335.180135,49.6682171 335.180135,49.9953325 C335.180135,50.3022555 335.276871,50.5631402 335.471955,50.7779863 C335.665426,50.9928325 335.931449,51.1818325 336.268412,51.345794 C336.605374,51.5097555 336.992317,51.6527171 337.431658,51.7754863 C337.870999,51.8982555 338.325657,52.0008325 338.795631,52.0824094 C339.428443,52.2051786 340.030623,52.3634863 340.602976,52.5581402 C341.174522,52.752794 341.675129,53.0136786 342.103991,53.340794 C342.532046,53.6679094 342.869009,54.0774094 343.114878,54.5684863 C343.359942,55.0595632 343.482474,55.6629094 343.482474,56.3793325 C343.482474,57.1975248 343.31883,57.8937555 342.992347,58.4664094 C342.665058,59.0390632 342.230553,59.5051017 341.68964,59.8629094 C341.148726,60.2207171 340.536067,60.4824094 339.852468,60.6455632 C339.167257,60.8087171 338.468342,60.8911017 337.75411,60.8911017 C336.528792,60.8911017 335.471955,60.7021017 334.583599,60.323294 C333.694437,59.9444863 332.893143,59.2442171 332.178911,58.2208709 L334.078155,56.7476402 Z" id="Fill-26" fill="#221F20" mask="url(#mask-4)"></path>
                <path d="M350.588837,57.0236286 C351.099118,57.0236286 351.532816,57.2029363 351.890738,57.560744 C352.247854,57.9185517 352.426009,58.3538978 352.426009,58.8651671 C352.426009,59.377244 352.237374,59.8117825 351.860105,60.1695902 C351.481224,60.5273978 351.058005,60.7067055 350.588837,60.7067055 C350.118863,60.7067055 349.695645,60.5273978 349.317569,60.1695902 C348.939494,59.8117825 348.75086,59.377244 348.75086,58.8651671 C348.75086,58.3538978 348.929014,57.9185517 349.286936,57.560744 C349.644052,57.2029363 350.077751,57.0236286 350.588837,57.0236286" id="Fill-27" fill="#221F20" mask="url(#mask-4)"></path>
            </g>
        </g>
    </g>
</svg>