<?xml version="1.0" encoding="UTF-8"?>
<svg width="256px" height="221px" viewBox="0 0 256 221" version="1.1" xmlns="http://www.w3.org/2000/svg" xmlns:xlink="http://www.w3.org/1999/xlink">
    <!-- Generator: Sketch 41.1 (35376) - http://www.bohemiancoding.com/sketch -->
    <title>Group 6</title>
    <desc>Created with Sketch.</desc>
    <defs></defs>
    <g id="Page-1" stroke="none" stroke-width="1" fill="none" fill-rule="evenodd">
        <g id="1170---All-data" transform="translate(-758.000000, -434.000000)" fill="#FFFFFF">
            <g id="Group-6" transform="translate(758.000000, 435.000000)">
                <path d="M6.47000267,219 L3.79000267,212.33 L2.76000267,212.33 L0.0700026703,219 L1.02000267,219 L1.61000267,217.51 L4.93000267,217.51 L5.52000267,219 L6.47000267,219 Z M4.69000267,216.78 L1.86000267,216.78 L3.27000267,213.18 L4.69000267,216.78 Z M16.4350025,219 L16.4350025,212.33 L15.6050025,212.33 L15.6050025,217.54 L11.7650025,212.33 L10.9150025,212.33 L10.9150025,219 L11.7450025,219 L11.7450025,213.68 L15.6350025,219 L16.4350025,219 Z M30.7750021,219.12 C32.7450021,219.12 34.0950021,217.64 34.0950021,215.67 C34.0950021,213.7 32.7450021,212.22 30.7750021,212.22 C28.8050021,212.22 27.4650021,213.7 27.4650021,215.67 C27.4650021,217.64 28.8050021,219.12 30.7750021,219.12 L30.7750021,219.12 Z M30.7750021,218.38 C29.2750021,218.38 28.3250021,217.22 28.3250021,215.67 C28.3250021,214.11 29.2750021,212.96 30.7750021,212.96 C32.2650021,212.96 33.2350021,214.11 33.2350021,215.67 C33.2350021,217.22 32.2650021,218.38 30.7750021,218.38 L30.7750021,218.38 Z M41.7900019,219 L44.4700019,212.33 L43.5200019,212.33 L41.2700019,218.09 L39.0200019,212.33 L38.0700019,212.33 L40.7600019,219 L41.7900019,219 Z M53.2850017,219 L53.2850017,218.26 L49.7450017,218.26 L49.7450017,215.96 L53.2150017,215.96 L53.2150017,215.22 L49.7450017,215.22 L49.7450017,213.07 L53.2850017,213.07 L53.2850017,212.33 L48.9150017,212.33 L48.9150017,219 L53.2850017,219 Z M63.0200015,219 L61.2200015,216.28 C62.1300015,216.2 62.9600015,215.54 62.9600015,214.34 C62.9600015,213.11 62.0800015,212.33 60.8600015,212.33 L58.1800015,212.33 L58.1800015,219 L59.0100015,219 L59.0100015,216.35 L60.3500015,216.35 L62.0400015,219 L63.0200015,219 Z M60.7600015,215.62 L59.0100015,215.62 L59.0100015,213.07 L60.7600015,213.07 C61.5500015,213.07 62.1000015,213.58 62.1000015,214.34 C62.1000015,215.09 61.5500015,215.62 60.7600015,215.62 L60.7600015,215.62 Z M70.7750013,219 L73.4550013,212.33 L72.5050013,212.33 L70.2550013,218.09 L68.0050013,212.33 L67.0550013,212.33 L69.7450013,219 L70.7750013,219 Z M78.7300011,219 L78.7300011,212.33 L77.9000011,212.33 L77.9000011,219 L78.7300011,219 Z M88.235001,219 L88.235001,218.26 L84.695001,218.26 L84.695001,215.96 L88.165001,215.96 L88.165001,215.22 L84.695001,215.22 L84.695001,213.07 L88.235001,213.07 L88.235001,212.33 L83.865001,212.33 L83.865001,219 L88.235001,219 Z M99.1300008,219 L101.040001,212.33 L100.110001,212.33 L98.6400008,217.89 L97.1100008,212.33 L96.4200008,212.33 L94.8900008,217.89 L93.4100008,212.33 L92.4900008,212.33 L94.3900008,219 L95.2900008,219 L96.7600008,213.62 L98.2300008,219 L99.1300008,219 Z M114.74,219.12 C116.71,219.12 118.06,217.64 118.06,215.67 C118.06,213.7 116.71,212.22 114.74,212.22 C112.77,212.22 111.43,213.7 111.43,215.67 C111.43,217.64 112.77,219.12 114.74,219.12 L114.74,219.12 Z M114.74,218.38 C113.24,218.38 112.29,217.22 112.29,215.67 C112.29,214.11 113.24,212.96 114.74,212.96 C116.23,212.96 117.2,214.11 117.2,215.67 C117.2,217.22 116.23,218.38 114.74,218.38 L114.74,218.38 Z M123.755,219 L123.755,215.96 L127.225,215.96 L127.225,215.22 L123.755,215.22 L123.755,213.07 L127.295,213.07 L127.295,212.33 L122.925,212.33 L122.925,219 L123.755,219 Z M140.945,219 L140.945,216.18 L143.565,212.33 L142.595,212.33 L140.525,215.43 L138.455,212.33 L137.485,212.33 L140.115,216.18 L140.115,219 L140.945,219 Z M150.65,219.12 C152.62,219.12 153.97,217.64 153.97,215.67 C153.97,213.7 152.62,212.22 150.65,212.22 C148.68,212.22 147.34,213.7 147.34,215.67 C147.34,217.64 148.68,219.12 150.65,219.12 L150.65,219.12 Z M150.65,218.38 C149.15,218.38 148.2,217.22 148.2,215.67 C148.2,214.11 149.15,212.96 150.65,212.96 C152.14,212.96 153.11,214.11 153.11,215.67 C153.11,217.22 152.14,218.38 150.65,218.38 L150.65,218.38 Z M161.554999,219.12 C163.364999,219.12 164.284999,218.06 164.284999,216.4 L164.284999,212.33 L163.444999,212.33 L163.444999,216.39 C163.444999,217.61 162.784999,218.38 161.554999,218.38 C160.324999,218.38 159.674999,217.61 159.674999,216.39 L159.674999,212.33 L158.834999,212.33 L158.834999,216.41 C158.834999,218.05 159.754999,219.12 161.554999,219.12 L161.554999,219.12 Z M174.259999,219 L172.459999,216.28 C173.369999,216.2 174.199999,215.54 174.199999,214.34 C174.199999,213.11 173.319999,212.33 172.099999,212.33 L169.419999,212.33 L169.419999,219 L170.249999,219 L170.249999,216.35 L171.589999,216.35 L173.279999,219 L174.259999,219 Z M171.999999,215.62 L170.249999,215.62 L170.249999,213.07 L171.999999,213.07 C172.789999,213.07 173.339999,213.58 173.339999,214.34 C173.339999,215.09 172.789999,215.62 171.999999,215.62 L171.999999,215.62 Z M186.079999,219 L186.079999,215.96 L189.549999,215.96 L189.549999,215.22 L186.079999,215.22 L186.079999,213.07 L189.619999,213.07 L189.619999,212.33 L185.249999,212.33 L185.249999,219 L186.079999,219 Z M195.164999,219 L195.164999,212.33 L194.334999,212.33 L194.334999,219 L195.164999,219 Z M205.819998,219 L205.819998,212.33 L204.989998,212.33 L204.989998,217.54 L201.149998,212.33 L200.299998,212.33 L200.299998,219 L201.129998,219 L201.129998,213.68 L205.019998,219 L205.819998,219 Z M216.664998,219 L213.984998,212.33 L212.954998,212.33 L210.264998,219 L211.214998,219 L211.804998,217.51 L215.124998,217.51 L215.714998,219 L216.664998,219 Z M214.884998,216.78 L212.054998,216.78 L213.464998,213.18 L214.884998,216.78 Z M226.629998,219 L226.629998,212.33 L225.799998,212.33 L225.799998,217.54 L221.959998,212.33 L221.109998,212.33 L221.109998,219 L221.939998,219 L221.939998,213.68 L225.829998,219 L226.629998,219 Z M234.924998,219.12 C236.104998,219.12 236.904998,218.56 237.464998,217.79 L236.764998,217.41 C236.384998,217.97 235.684998,218.38 234.924998,218.38 C233.464998,218.38 232.354998,217.25 232.354998,215.67 C232.354998,214.07 233.464998,212.96 234.924998,212.96 C235.684998,212.96 236.384998,213.36 236.764998,213.93 L237.454998,213.54 C236.924998,212.78 236.104998,212.22 234.924998,212.22 C233.004998,212.22 231.494998,213.62 231.494998,215.67 C231.494998,217.72 233.004998,219.12 234.924998,219.12 L234.924998,219.12 Z M246.469998,219 L246.469998,218.26 L242.929998,218.26 L242.929998,215.96 L246.399998,215.96 L246.399998,215.22 L242.929998,215.22 L242.929998,213.07 L246.469998,213.07 L246.469998,212.33 L242.099998,212.33 L242.099998,219 L246.469998,219 Z M253.524998,219.12 C255.324998,219.12 255.984998,218.12 255.984998,217.16 C255.984998,214.67 252.034998,215.53 252.034998,214.03 C252.034998,213.4 252.614998,212.97 253.404998,212.97 C254.134998,212.97 254.834998,213.21 255.334998,213.77 L255.834998,213.16 C255.274998,212.57 254.484998,212.22 253.474998,212.22 C252.154998,212.22 251.174998,212.98 251.174998,214.08 C251.174998,216.46 255.124998,215.5 255.124998,217.22 C255.124998,217.74 254.744998,218.38 253.554998,218.38 C252.614998,218.38 251.894998,217.92 251.464998,217.42 L250.964998,218.06 C251.514998,218.68 252.374998,219.12 253.524998,219.12 L253.524998,219.12 Z" id="AN-OVERVIEW-OF-YOUR"></path>
                <g id="alldata" transform="translate(56.000000, 0.000000)" stroke="#FFFFFF">
                    <polygon id="Line-Copy-4" transform="translate(114.884763, 81.172764) rotate(-14.000000) translate(-114.884763, -81.172764) " points="92.2533337 105.247407 137.516191 58.4221698 136.186456 57.0981204"></polygon>
                    <polygon id="Line-Copy-2" transform="translate(24.731312, 41.455998) rotate(-3.000000) translate(-24.731312, -41.455998) " points="2.02424999 70.5670712 46.767399 14.3433883 47.4383749 13.6875614 46.1273912 12.3449239 45.4564153 13.0007507"></polygon>
                    <polygon id="Line-Copy-3" transform="translate(76.911939, 62.185926) rotate(22.000000) translate(-76.911939, -62.185926) " points="114.821097 98.5037781 40.9838372 26.5230178 40.3120008 25.8680734 39.0027811 27.2124329 39.6746175 27.8673772"></polygon>
                    <path d="M50.3535719,14.2110317 L50.3535719,14.2110317 C53.5623615,14.2110317 56.1635995,11.6081926 56.1635995,8.39742781 C56.1635995,5.18666306 53.5623615,2.58382394 50.3535719,2.58382394 C47.1447823,2.58382394 44.5435444,5.18666306 44.5435444,8.39742781 C44.5435444,11.6081926 47.1447823,14.2110317 50.3535719,14.2110317 L50.3535719,14.2110317 Z M50.3535719,16.7948556 L50.3535719,16.7948556 C45.7186536,16.7948556 41.96131,13.0351991 41.96131,8.39742781 C41.96131,3.7596565 45.7186536,0 50.3535719,0 C54.9884903,0 58.7458339,3.7596565 58.7458339,8.39742781 C58.7458339,13.0351991 54.9884903,16.7948556 50.3535719,16.7948556 L50.3535719,16.7948556 Z" id="Oval-7-Copy" stroke-width="2"></path>
                    <path d="M132.877482,53.3990282 L132.877482,53.3990282 C136.086271,53.3990282 138.687509,50.796189 138.687509,47.5854243 C138.687509,44.3746595 136.086271,41.7718204 132.877482,41.7718204 C129.668692,41.7718204 127.067454,44.3746595 127.067454,47.5854243 C127.067454,50.796189 129.668692,53.3990282 132.877482,53.3990282 L132.877482,53.3990282 Z M132.877482,55.9828521 L132.877482,55.9828521 C128.242563,55.9828521 124.48522,52.2231956 124.48522,47.5854243 C124.48522,42.947653 128.242563,39.1879965 132.877482,39.1879965 C137.5124,39.1879965 141.269744,42.947653 141.269744,47.5854243 C141.269744,52.2231956 137.5124,55.9828521 132.877482,55.9828521 L132.877482,55.9828521 Z" id="Oval-7-Copy-3" stroke-width="2"></path>
                </g>
                <path d="M17.3179973,187.408 C24.0159973,187.408 28.6059973,182.376 28.6059973,175.678 C28.6059973,168.98 24.0159973,163.948 17.3179973,163.948 C10.6199973,163.948 6.06399725,168.98 6.06399725,175.678 C6.06399725,182.376 10.6199973,187.408 17.3179973,187.408 Z M17.3179973,184.892 C12.2179973,184.892 8.98799725,180.948 8.98799725,175.678 C8.98799725,170.374 12.2179973,166.464 17.3179973,166.464 C22.3839973,166.464 25.6819973,170.374 25.6819973,175.678 C25.6819973,180.948 22.3839973,184.892 17.3179973,184.892 Z M63.9149979,187 L63.9149979,164.322 L61.0929979,164.322 L61.0929979,182.036 L48.0369979,164.322 L45.1469979,164.322 L45.1469979,187 L47.9689979,187 L47.9689979,168.912 L61.1949979,187 L63.9149979,187 Z M96.2319986,187 L96.2319986,184.484 L84.1959986,184.484 L84.1959986,176.664 L95.9939986,176.664 L95.9939986,174.148 L84.1959986,174.148 L84.1959986,166.838 L96.2319986,166.838 L96.2319986,164.322 L81.3739986,164.322 L81.3739986,187 L96.2319986,187 Z M144.138,187 L153.25,164.322 L150.02,164.322 L142.37,183.906 L134.72,164.322 L131.49,164.322 L140.636,187 L144.138,187 Z M171.185001,187 L171.185001,164.322 L168.363001,164.322 L168.363001,187 L171.185001,187 Z M203.502001,187 L203.502001,184.484 L191.466001,184.484 L191.466001,176.664 L203.264001,176.664 L203.264001,174.148 L191.466001,174.148 L191.466001,166.838 L203.502001,166.838 L203.502001,164.322 L188.644001,164.322 L188.644001,187 L203.502001,187 Z M240.545002,187 L247.039002,164.322 L243.877002,164.322 L238.879002,183.226 L233.677002,164.322 L231.331002,164.322 L226.129002,183.226 L221.097002,164.322 L217.969002,164.322 L224.429002,187 L227.489002,187 L232.487002,168.708 L237.485002,187 L240.545002,187 Z" id="ONE-VIEW"></path>
            </g>
        </g>
    </g>
</svg>