<?xml version="1.0" encoding="UTF-8"?>
<svg width="635px" height="236px" viewBox="0 0 635 236" version="1.1" xmlns="http://www.w3.org/2000/svg" xmlns:xlink="http://www.w3.org/1999/xlink">
    <!-- Generator: Sketch 40.3 (33839) - http://www.bohemiancoding.com/sketch -->
    <title>phoenix_icon</title>
    <desc>Created with Sketch.</desc>
    <defs></defs>
    <g id="Page-1" stroke="none" stroke-width="1" fill="none" fill-rule="evenodd">
        <g id="1170---University-of-Phoenix" transform="translate(-570.000000, -427.000000)" fill="#FFFFFF">
            <g id="Group-8" transform="translate(570.000000, 426.000000)">
                <g id="phoenix_icon">
                    <path d="M175.218437,236.61346 L171.110108,226.388625 L169.531161,226.388625 L165.407502,236.61346 L166.863813,236.61346 L167.768258,234.329351 L172.857681,234.329351 L173.762127,236.61346 L175.218437,236.61346 Z M172.489771,233.210291 L168.151498,233.210291 L170.31297,227.69164 L172.489771,233.210291 Z M196.327277,236.797415 C198.136168,236.797415 199.362535,235.938958 200.220992,234.75858 L199.147921,234.176055 C198.565397,235.034512 197.492326,235.663025 196.327277,235.663025 C194.089158,235.663025 192.387573,233.930782 192.387573,231.508707 C192.387573,229.055973 194.089158,227.354389 196.327277,227.354389 C197.492326,227.354389 198.565397,227.967573 199.147921,228.841359 L200.205663,228.243505 C199.393194,227.078457 198.136168,226.22 196.327277,226.22 C193.383997,226.22 191.069229,228.366142 191.069229,231.508707 C191.069229,234.651273 193.383997,236.797415 196.327277,236.797415 L196.327277,236.797415 Z M213.182157,236.61346 L213.182157,235.47907 L208.429985,235.47907 L208.429985,226.388625 L207.15763,226.388625 L207.15763,236.61346 L213.182157,236.61346 Z M229.117262,236.61346 L225.008933,226.388625 L223.429985,226.388625 L219.306327,236.61346 L220.762637,236.61346 L221.667083,234.329351 L226.756506,234.329351 L227.660951,236.61346 L229.117262,236.61346 Z M226.388596,233.210291 L222.050323,233.210291 L224.211794,227.69164 L226.388596,233.210291 Z M239.027839,236.797415 C241.787165,236.797415 242.798917,235.264456 242.798917,233.792816 C242.798917,229.975749 236.743731,231.294093 236.743731,228.994655 C236.743731,228.028891 237.632847,227.369719 238.843884,227.369719 C239.962944,227.369719 241.036015,227.737629 241.802494,228.596086 L242.568974,227.660981 C241.710517,226.756536 240.49948,226.22 238.951191,226.22 C236.927686,226.22 235.425386,227.385049 235.425386,229.071303 C235.425386,232.719745 241.480573,231.248104 241.480573,233.884793 C241.480573,234.681932 240.898049,235.663025 239.073828,235.663025 C237.632847,235.663025 236.529117,234.957864 235.869944,234.191385 L235.103465,235.172478 C235.946592,236.122913 237.264937,236.797415 239.027839,236.797415 L239.027839,236.797415 Z M253.491304,236.797415 C256.250629,236.797415 257.262382,235.264456 257.262382,233.792816 C257.262382,229.975749 251.207195,231.294093 251.207195,228.994655 C251.207195,228.028891 252.096311,227.369719 253.307349,227.369719 C254.426408,227.369719 255.49948,227.737629 256.265959,228.596086 L257.032438,227.660981 C256.173981,226.756536 254.962944,226.22 253.414656,226.22 C251.39115,226.22 249.888851,227.385049 249.888851,229.071303 C249.888851,232.719745 255.944038,231.248104 255.944038,233.884793 C255.944038,234.681932 255.361513,235.663025 253.537292,235.663025 C252.096311,235.663025 250.992581,234.957864 250.333409,234.191385 L249.56693,235.172478 C250.410057,236.122913 251.728401,236.797415 253.491304,236.797415 L253.491304,236.797415 Z M272.063097,236.61346 L269.303772,232.443812 C270.698764,232.321175 271.97112,231.309423 271.97112,229.469872 C271.97112,227.584333 270.622116,226.388625 268.751907,226.388625 L264.643578,226.388625 L264.643578,236.61346 L265.915933,236.61346 L265.915933,232.551119 L267.970098,232.551119 L270.560798,236.61346 L272.063097,236.61346 Z M268.598611,231.432059 L265.915933,231.432059 L265.915933,227.523015 L268.598611,227.523015 C269.809648,227.523015 270.652775,228.304824 270.652775,229.469872 C270.652775,230.619591 269.809648,231.432059 268.598611,231.432059 L268.598611,231.432059 Z M284.119817,236.797415 C287.139745,236.797415 289.209239,234.528636 289.209239,231.508707 C289.209239,228.488779 287.139745,226.22 284.119817,226.22 C281.099888,226.22 279.045724,228.488779 279.045724,231.508707 C279.045724,234.528636 281.099888,236.797415 284.119817,236.797415 L284.119817,236.797415 Z M284.119817,235.663025 C281.820379,235.663025 280.364068,233.884793 280.364068,231.508707 C280.364068,229.117292 281.820379,227.354389 284.119817,227.354389 C286.403925,227.354389 287.890895,229.117292 287.890895,231.508707 C287.890895,233.884793 286.403925,235.663025 284.119817,235.663025 L284.119817,235.663025 Z M301.327277,236.797415 C304.347206,236.797415 306.4167,234.528636 306.4167,231.508707 C306.4167,228.488779 304.347206,226.22 301.327277,226.22 C298.307349,226.22 296.253184,228.488779 296.253184,231.508707 C296.253184,234.528636 298.307349,236.797415 301.327277,236.797415 L301.327277,236.797415 Z M301.327277,235.663025 C299.027839,235.663025 297.571529,233.884793 297.571529,231.508707 C297.571529,229.117292 299.027839,227.354389 301.327277,227.354389 C303.611386,227.354389 305.098355,229.117292 305.098355,231.508707 C305.098355,233.884793 303.611386,235.663025 301.327277,235.663025 L301.327277,235.663025 Z M323.884763,236.61346 L323.884763,226.388625 L322.060543,226.388625 L318.887318,234.268033 L315.698764,226.388625 L313.874543,226.388625 L313.874543,236.61346 L315.146899,236.61346 L315.146899,228.013562 L318.626715,236.61346 L319.147921,236.61346 L322.612408,228.013562 L322.612408,236.61346 L323.884763,236.61346 Z M345.86739,236.797415 C348.887318,236.797415 350.956812,234.528636 350.956812,231.508707 C350.956812,228.488779 348.887318,226.22 345.86739,226.22 C342.847461,226.22 340.793296,228.488779 340.793296,231.508707 C340.793296,234.528636 342.847461,236.797415 345.86739,236.797415 L345.86739,236.797415 Z M345.86739,235.663025 C343.567952,235.663025 342.111641,233.884793 342.111641,231.508707 C342.111641,229.117292 343.567952,227.354389 345.86739,227.354389 C348.151498,227.354389 349.638468,229.117292 349.638468,231.508707 C349.638468,233.884793 348.151498,235.663025 345.86739,235.663025 L345.86739,235.663025 Z M366.876587,236.61346 L366.876587,226.388625 L365.604232,226.388625 L365.604232,234.37534 L359.717671,226.388625 L358.414656,226.388625 L358.414656,236.61346 L359.687011,236.61346 L359.687011,228.45812 L365.650221,236.61346 L366.876587,236.61346 Z M388.000757,236.61346 L388.000757,227.523015 L391.250629,227.523015 L391.250629,226.388625 L383.493859,226.388625 L383.493859,227.523015 L386.728401,227.523015 L386.728401,236.61346 L388.000757,236.61346 Z M406.940461,236.61346 L406.940461,226.388625 L405.668105,226.388625 L405.668105,230.788217 L399.689566,230.788217 L399.689566,226.388625 L398.417211,226.388625 L398.417211,236.61346 L399.689566,236.61346 L399.689566,231.922606 L405.668105,231.922606 L405.668105,236.61346 L406.940461,236.61346 Z M421.511232,236.61346 L421.511232,235.47907 L416.084559,235.47907 L416.084559,231.953265 L421.403925,231.953265 L421.403925,230.818876 L416.084559,230.818876 L416.084559,227.523015 L421.511232,227.523015 L421.511232,226.388625 L414.812203,226.388625 L414.812203,236.61346 L421.511232,236.61346 Z M443.309903,236.812744 C444.980828,236.812744 446.375821,236.107583 447.326255,235.034512 L447.326255,231.355411 L442.543424,231.355411 L442.543424,232.489801 L446.069229,232.489801 L446.069229,234.559295 C445.548023,235.080501 444.53627,235.663025 443.309903,235.663025 C441.071784,235.663025 439.3702,233.930782 439.3702,231.508707 C439.3702,229.055973 441.071784,227.354389 443.309903,227.354389 C444.53627,227.354389 445.624671,227.936914 446.268514,228.764711 L447.280266,228.120869 C446.39115,227.017138 445.134124,226.22 443.309903,226.22 C440.397282,226.22 438.051855,228.320153 438.051855,231.508707 C438.051855,234.681932 440.397282,236.812744 443.309903,236.812744 L443.309903,236.812744 Z M459.53627,236.797415 C462.556199,236.797415 464.625693,234.528636 464.625693,231.508707 C464.625693,228.488779 462.556199,226.22 459.53627,226.22 C456.516342,226.22 454.462177,228.488779 454.462177,231.508707 C454.462177,234.528636 456.516342,236.797415 459.53627,236.797415 L459.53627,236.797415 Z M459.53627,235.663025 C457.236832,235.663025 455.780522,233.884793 455.780522,231.508707 C455.780522,229.117292 457.236832,227.354389 459.53627,227.354389 C461.820379,227.354389 463.307349,229.117292 463.307349,231.508707 C463.307349,233.884793 461.820379,235.663025 459.53627,235.663025 L459.53627,235.663025 Z" id="A-CLASSROOM-ON-THE-G"></path>
                    <path d="M353.373253,72.4768941 C359.680218,72.4768941 364.913158,67.9074824 365.967451,61.8933647 C366.001278,61.6976 366.032287,61.4999529 366.056718,61.3013647 C366.13283,60.7488941 366.098063,60.8806588 365.884761,60.9691294 C365.772942,61.0246588 365.491985,61.1385412 365.306873,61.2063059 C362.501063,62.1917176 359.478192,62.7263059 356.340684,62.7263059 L325.007882,62.7319529 C324.294684,62.7150118 323.235692,62.7997176 322.365572,62.1747765 C322.252813,62.0759529 322.185158,62.0665412 322.264089,62.2792471 C322.590149,63.2147765 325.172322,70.8665412 325.172322,70.8665412 C325.751149,72.3347765 327.120227,72.4881882 328.291037,72.4881882 L353.373253,72.4768941 Z" id="Fill-1"></path>
                    <path d="M326.287504,74.1194353 C326.391806,74.4667294 327.886797,78.6512 327.886797,78.6512 C329.071703,81.9942588 332.142496,84.3377882 335.819366,84.3377882 L349.250797,84.3509647 C355.807711,84.3509647 361.221065,79.4022588 361.954935,73.0286118 C362.008496,72.6728471 361.993461,72.7942588 361.648608,72.9100235 C358.708427,74.0017882 355.547427,74.5966118 352.225746,74.5966118 C352.225746,74.5966118 330.134453,74.6295529 329.113047,74.5966118 C328.092582,74.5636706 327.369987,74.5570824 326.539332,74.1081412 C326.426573,74.0535529 326.166289,73.8361412 326.287504,74.1194353" id="Fill-3"></path>
                    <path d="M266.009189,66.1175529 C263.053034,63.6187294 262.314465,60.8177882 262.263723,57.9349647 C262.228956,55.9547294 262.861344,53.8013176 263.800999,52.2032 L289.390628,72.3679059 C293.619077,75.5735529 298.082439,74.6323765 300.861939,72.0846118 C301.003827,71.9434353 301.016042,72.0008471 300.989732,72.1617882 C300.963422,72.2916706 300.289689,76.4206118 299.879999,78.1674353 C298.667844,83.3326118 291.392094,86.4234353 286.561327,82.6888471 L266.009189,66.1175529 Z" id="Fill-5"></path>
                    <path d="M307.095235,38.6928941 C305.350296,40.4839529 304.000951,43.7451294 303.074451,46.2100706 C302.389442,48.0340706 301.477037,48.7371294 300.199106,48.9150118 C298.550951,49.1437176 297.575589,48.8086588 296.232822,47.7677176 C294.903209,46.7361882 282.44902,36.7343059 281.593934,36.0284235 C281.352442,36.2947765 274.276839,42.4848941 274.276839,42.4848941 L294.236054,58.2665412 C295.694399,59.3121882 297.24577,60.3973647 299.210589,60.1347765 C303.818658,59.4063059 304.370235,55.1192471 305.177399,51.7912471 C305.405735,50.8745412 305.649106,50.0001882 305.907511,49.1616 C308.90783,39.4260706 313.86827,34.7776 319.850115,32.0011294 C320.200606,31.8401882 319.990123,32.0463059 319.91683,32.1263059 C317.702063,34.5234824 316.549106,38.4340706 316.951278,43.4985412 C317.310227,48.0086588 320.291753,57.1804235 320.764399,58.3672471 C321.17033,59.3216 321.779227,60.6194824 323.904727,60.6194824 L355.445192,60.6213647 C362.01808,60.6213647 367.433313,55.9136 368.157787,49.5380706 C368.185037,49.2538353 368.23202,49.2830118 367.868373,49.4345412 C364.931951,50.5056 361.752158,50.8745412 358.440813,50.8745412 C358.440813,50.8745412 331.293235,50.9131294 325.907132,50.8707765 C321.461623,50.8359529 320.575528,45.0533647 320.497537,43.6811294 C319.831322,35.3677176 324.000572,31.6933647 324.000572,31.6933647 C326.133589,29.3319529 328.416011,29.4298353 328.974166,29.4872471 C329.000477,29.4900706 329.178072,29.5051294 329.023028,29.3950118 C328.416951,28.9630118 326.247287,27.4204235 325.224942,26.6759529 C324.262735,25.9248941 323.097563,25.7112471 322.001925,26.2091294 L315.851882,28.7559529 C315.329434,28.9667765 314.748727,28.6411294 314.278899,28.3898353 C313.926528,28.1903059 313.451063,28.0736 312.935192,28.3305412 C312.935192,28.3305412 306.56433,31.5983059 304.343925,32.5743059 C302.490925,33.3893647 300.866261,32.7521882 299.469934,31.3197176 C299.267908,31.1211294 299.305494,30.9865412 299.18052,31.3583059 C298.921175,32.0434824 298.778347,32.7851294 298.779287,33.5625412 C298.779287,35.5126588 299.467115,37.4100706 300.994054,38.4096 C302.565158,39.4411294 304.676563,39.3291294 307.021942,38.5460706 C307.330149,38.4444235 307.229606,38.5460706 307.095235,38.6928941" id="Fill-7"></path>
                    <path d="M288.869214,14.5725176 C292.327145,11.4553412 293.690584,5.94757647 292.260429,1.28687059 C292.119481,0.775811765 292.113843,0.906635294 291.9588,1.19463529 C290.745705,3.21816471 288.317636,5.71604706 286.489067,7.25110588 L262.74774,28.6675765 C260.600628,30.6252235 259.965421,33.0468706 260.004886,35.5174588 C260.004886,35.5174588 260.001128,40.8087529 260.000188,41.7094588 C259.989852,42.1508706 260.154291,42.0125176 260.219128,41.6887529 C260.580895,40.0859294 261.923662,38.5179294 264.061378,36.5264 C264.796188,35.8609882 288.869214,14.5725176 288.869214,14.5725176" id="Fill-10"></path>
                    <path d="M331.025246,101.324329 C329.086737,95.4720941 323.487332,92.0603294 320.437211,89.8984471 C319.167737,88.9996235 313.95547,85.4928 311.77453,82.0565647 C307.350634,75.0918588 309.721384,69.9351529 311.661772,66.6833882 C312.155091,65.8128 312.051728,66.1055059 312.054547,66.5328 C312.123142,70.0593882 314.128366,74.0518588 319.643203,77.4928 C325.746263,81.2631529 333.010737,87.2292706 331.464065,101.663153 C331.338151,102.807624 331.153978,101.714918 331.025246,101.324329" id="Fill-13"></path>
                    <path d="M302.602556,103.1424 C301.052125,105.162165 300.101194,107.947106 300.214892,110.820518 C300.288185,112.717929 300.960039,114.687812 302.280254,116.812988 C302.358246,116.948518 302.519866,117.205459 302.225754,117.011576 C291.040099,110.225694 291.143461,94.2379294 300.469539,84.8826353 C300.578539,84.7584 300.541892,84.9296941 300.531556,85.0369882 C299.879435,90.8694588 305.23453,95.7513412 308.071349,98.2068706 C310.328401,100.156047 314.183806,102.988047 317.133384,105.132988 C320.403384,107.511341 322.813599,110.728282 323.229866,114.860047 C324.722039,113.097224 324.140392,111.184753 323.924272,110.419576 C322.514789,105.458635 316.02647,101.708988 314.275892,100.285929 C311.627004,98.1315765 308.335392,95.6440471 305.53428,91.2600471 C302.815858,87.0059294 303.138159,78.8619294 305.804901,76.0666353 C306.046392,75.8115765 305.991892,75.9386353 306.003168,76.2501647 C305.94303,80.4751059 308.772332,82.8882824 310.593384,84.8609882 C313.037427,87.5122824 321.697289,93.4445176 323.879168,95.4454588 C329.149694,100.279341 331.661392,108.584282 327.330522,117.252518 C325.326237,121.264753 321.977306,126.101459 312.344901,127.195106 C311.91078,127.237459 311.989711,127.104753 312.228384,126.996518 C315.977608,125.253459 316.517909,122.229459 316.433341,119.962165 C316.289573,116.172047 313.964866,114.046871 310.262625,111.458635 C305.654556,108.517459 303.606108,105.552753 302.602556,103.1424" id="Fill-15"></path>
                    <path d="M290.977988,70.8096941 C295.747678,74.1028706 301.481453,70.8896941 302.493462,65.0148706 C302.817643,63.5842824 303.389893,60.6986353 303.411505,60.5856941 C303.441574,60.4341647 303.389893,60.4652235 303.304384,60.5367529 C299.786316,63.3433412 296.812307,62.8002824 293.294238,60.3786353 L272.576721,43.9579294 C272.576721,43.9579294 266.008531,49.9918118 265.38554,50.6026353 L290.977988,70.8096941 Z" id="Fill-18"></path>
                    <path d="M260.013437,54.4208941 C260.009678,54.9291294 260.171299,54.7456 260.275601,54.3380706 C260.800868,51.9503059 263.047584,49.8919529 265.117644,47.7884235 C265.117644,47.7884235 265.297118,47.5719529 268.218506,44.9140706 C271.140834,42.2571294 285.847377,29.4778353 285.847377,29.4778353 C289.037506,26.5856 292.264282,21.5173647 290.923394,15.6124235 C290.839765,15.2077176 290.796541,15.3931294 290.681903,15.5437176 C290.020385,16.5216 288.093153,18.3013647 285.10317,20.8971294 C279.344023,25.9503059 270.188963,33.9446588 265.215368,38.4679529 C264.070868,39.5088941 262.26673,41.0721882 261.544135,42.1799529 C259.998403,44.3983059 260.020015,46.2317176 260.009678,47.6773647 L260.013437,54.4208941 Z" id="Fill-20"></path>
                    <path d="M10.0654928,194.408 C16.2194928,194.408 19.3474928,190.804 19.3474928,185.16 L19.3474928,171.322 L16.4914928,171.322 L16.4914928,185.126 C16.4914928,189.274 14.2474928,191.892 10.0654928,191.892 C5.88349279,191.892 3.67349279,189.274 3.67349279,185.126 L3.67349279,171.322 L0.81749279,171.322 L0.81749279,185.194 C0.81749279,190.77 3.94549279,194.408 10.0654928,194.408 L10.0654928,194.408 Z M55.5744935,194 L55.5744935,171.322 L52.7524935,171.322 L52.7524935,189.036 L39.6964935,171.322 L36.8064935,171.322 L36.8064935,194 L39.6284935,194 L39.6284935,175.912 L52.8544935,194 L55.5744935,194 Z M75.8554942,194 L75.8554942,171.322 L73.0334942,171.322 L73.0334942,194 L75.8554942,194 Z M103.616495,194 L112.728495,171.322 L109.498495,171.322 L101.848495,190.906 L94.1984949,171.322 L90.9684949,171.322 L100.114495,194 L103.616495,194 Z M142.699496,194 L142.699496,191.484 L130.663496,191.484 L130.663496,183.664 L142.461496,183.664 L142.461496,181.148 L130.663496,181.148 L130.663496,173.838 L142.699496,173.838 L142.699496,171.322 L127.841496,171.322 L127.841496,194 L142.699496,194 Z M175.798496,194 L169.678496,184.752 C172.772496,184.48 175.594496,182.236 175.594496,178.156 C175.594496,173.974 172.602496,171.322 168.454496,171.322 L159.342496,171.322 L159.342496,194 L162.164496,194 L162.164496,184.99 L166.720496,184.99 L172.466496,194 L175.798496,194 Z M168.114496,182.508 L162.164496,182.508 L162.164496,173.838 L168.114496,173.838 C170.800496,173.838 172.670496,175.572 172.670496,178.156 C172.670496,180.706 170.800496,182.508 168.114496,182.508 L168.114496,182.508 Z M199.547497,194.408 C205.667497,194.408 207.911497,191.008 207.911497,187.744 C207.911497,179.278 194.481497,182.202 194.481497,177.102 C194.481497,174.96 196.453497,173.498 199.139497,173.498 C201.621497,173.498 204.001497,174.314 205.701497,176.218 L207.401497,174.144 C205.497497,172.138 202.811497,170.948 199.377497,170.948 C194.889497,170.948 191.557497,173.532 191.557497,177.272 C191.557497,185.364 204.987497,182.1 204.987497,187.948 C204.987497,189.716 203.695497,191.892 199.649497,191.892 C196.453497,191.892 194.005497,190.328 192.543497,188.628 L190.843497,190.804 C192.713497,192.912 195.637497,194.408 199.547497,194.408 L199.547497,194.408 Z M227.104498,194 L227.104498,171.322 L224.282498,171.322 L224.282498,194 L227.104498,194 Z M252.995498,194 L252.995498,173.838 L260.203498,173.838 L260.203498,171.322 L242.999498,171.322 L242.999498,173.838 L250.173498,173.838 L250.173498,194 L252.995498,194 Z M285.516499,194 L285.516499,184.412 L294.424499,171.322 L291.126499,171.322 L284.088499,181.862 L277.050499,171.322 L273.752499,171.322 L282.694499,184.412 L282.694499,194 L285.516499,194 Z M340.8345,194.408 C347.5325,194.408 352.1225,189.376 352.1225,182.678 C352.1225,175.98 347.5325,170.948 340.8345,170.948 C334.1365,170.948 329.5805,175.98 329.5805,182.678 C329.5805,189.376 334.1365,194.408 340.8345,194.408 L340.8345,194.408 Z M340.8345,191.892 C335.7345,191.892 332.5045,187.948 332.5045,182.678 C332.5045,177.374 335.7345,173.464 340.8345,173.464 C345.9005,173.464 349.1985,177.374 349.1985,182.678 C349.1985,187.948 345.9005,191.892 340.8345,191.892 L340.8345,191.892 Z M371.485501,194 L371.485501,183.664 L383.283501,183.664 L383.283501,181.148 L371.485501,181.148 L371.485501,173.838 L383.521501,173.838 L383.521501,171.322 L368.663501,171.322 L368.663501,194 L371.485501,194 Z M423.335502,194 L423.335502,184.99 L429.625502,184.99 C434.147502,184.99 436.731502,181.862 436.731502,178.156 C436.731502,174.45 434.181502,171.322 429.625502,171.322 L420.513502,171.322 L420.513502,194 L423.335502,194 Z M429.285502,182.474 L423.335502,182.474 L423.335502,173.838 L429.285502,173.838 C431.971502,173.838 433.807502,175.606 433.807502,178.156 C433.807502,180.706 431.971502,182.474 429.285502,182.474 L429.285502,182.474 Z M471.530503,194 L471.530503,171.322 L468.708503,171.322 L468.708503,181.08 L455.448503,181.08 L455.448503,171.322 L452.626503,171.322 L452.626503,194 L455.448503,194 L455.448503,183.596 L468.708503,183.596 L468.708503,194 L471.530503,194 Z M499.325504,194.408 C506.023504,194.408 510.613504,189.376 510.613504,182.678 C510.613504,175.98 506.023504,170.948 499.325504,170.948 C492.627504,170.948 488.071504,175.98 488.071504,182.678 C488.071504,189.376 492.627504,194.408 499.325504,194.408 L499.325504,194.408 Z M499.325504,191.892 C494.225504,191.892 490.995504,187.948 490.995504,182.678 C490.995504,177.374 494.225504,173.464 499.325504,173.464 C504.391504,173.464 507.689504,177.374 507.689504,182.678 C507.689504,187.948 504.391504,191.892 499.325504,191.892 L499.325504,191.892 Z M542.012504,194 L542.012504,191.484 L529.976504,191.484 L529.976504,183.664 L541.774504,183.664 L541.774504,181.148 L529.976504,181.148 L529.976504,173.838 L542.012504,173.838 L542.012504,171.322 L527.154504,171.322 L527.154504,194 L542.012504,194 Z M577.423505,194 L577.423505,171.322 L574.601505,171.322 L574.601505,189.036 L561.545505,171.322 L558.655505,171.322 L558.655505,194 L561.477505,194 L561.477505,175.912 L574.703505,194 L577.423505,194 Z M597.704506,194 L597.704506,171.322 L594.882506,171.322 L594.882506,194 L597.704506,194 Z M634.271507,194 L625.431507,182.338 L633.761507,171.322 L630.293507,171.322 L623.595507,180.366 L616.863507,171.322 L613.429507,171.322 L621.759507,182.372 L612.919507,194 L616.353507,194 L623.595507,184.344 L630.837507,194 L634.271507,194 Z" id="UNIVERSITY-OF-PHOENI"></path>
                </g>
            </g>
        </g>
    </g>
</svg>