<?xml version="1.0" encoding="UTF-8"?>
<svg width="287px" height="221px" viewBox="0 0 287 221" version="1.1" xmlns="http://www.w3.org/2000/svg" xmlns:xlink="http://www.w3.org/1999/xlink">
    <!-- Generator: Sketch 40.3 (33839) - http://www.bohemiancoding.com/sketch -->
    <title>Group 8</title>
    <desc>Created with Sketch.</desc>
    <defs></defs>
    <g id="Page-1" stroke="none" stroke-width="1" fill="none" fill-rule="evenodd">
        <g id="1170---Pop-money" transform="translate(-1094.000000, -434.000000)" fill="#FFFFFF">
            <g id="popmoney-copy" transform="translate(1094.000000, 434.000000)">
                <g id="Group-8">
                    <path d="M10.7819973,188 L10.7819973,178.99 L17.0719973,178.99 C21.5939973,178.99 24.1779973,175.862 24.1779973,172.156 C24.1779973,168.45 21.6279973,165.322 17.0719973,165.322 L7.95999725,165.322 L7.95999725,188 L10.7819973,188 Z M16.7319973,176.474 L10.7819973,176.474 L10.7819973,167.838 L16.7319973,167.838 C19.4179973,167.838 21.2539973,169.606 21.2539973,172.156 C21.2539973,174.706 19.4179973,176.474 16.7319973,176.474 L16.7319973,176.474 Z M50.4089979,188.408 C57.1069979,188.408 61.6969979,183.376 61.6969979,176.678 C61.6969979,169.98 57.1069979,164.948 50.4089979,164.948 C43.7109979,164.948 39.1549979,169.98 39.1549979,176.678 C39.1549979,183.376 43.7109979,188.408 50.4089979,188.408 L50.4089979,188.408 Z M50.4089979,185.892 C45.3089979,185.892 42.0789979,181.948 42.0789979,176.678 C42.0789979,171.374 45.3089979,167.464 50.4089979,167.464 C55.4749979,167.464 58.7729979,171.374 58.7729979,176.678 C58.7729979,181.948 55.4749979,185.892 50.4089979,185.892 L50.4089979,185.892 Z M81.0599986,188 L81.0599986,178.99 L87.3499986,178.99 C91.8719986,178.99 94.4559986,175.862 94.4559986,172.156 C94.4559986,168.45 91.9059986,165.322 87.3499986,165.322 L78.2379986,165.322 L78.2379986,188 L81.0599986,188 Z M87.0099986,176.474 L81.0599986,176.474 L81.0599986,167.838 L87.0099986,167.838 C89.6959986,167.838 91.5319986,169.606 91.5319986,172.156 C91.5319986,174.706 89.6959986,176.474 87.0099986,176.474 L87.0099986,176.474 Z M132.552999,188 L132.552999,165.322 L128.506999,165.322 L121.468999,182.798 L114.396999,165.322 L110.350999,165.322 L110.350999,188 L113.172999,188 L113.172999,168.926 L120.890999,188 L122.046999,188 L129.730999,168.926 L129.730999,188 L132.552999,188 Z M160.348,188.408 C167.046,188.408 171.636,183.376 171.636,176.678 C171.636,169.98 167.046,164.948 160.348,164.948 C153.65,164.948 149.094,169.98 149.094,176.678 C149.094,183.376 153.65,188.408 160.348,188.408 L160.348,188.408 Z M160.348,185.892 C155.248,185.892 152.018,181.948 152.018,176.678 C152.018,171.374 155.248,167.464 160.348,167.464 C165.414,167.464 168.712,171.374 168.712,176.678 C168.712,181.948 165.414,185.892 160.348,185.892 L160.348,185.892 Z M206.945001,188 L206.945001,165.322 L204.123001,165.322 L204.123001,183.036 L191.067001,165.322 L188.177001,165.322 L188.177001,188 L190.999001,188 L190.999001,169.912 L204.225001,188 L206.945001,188 Z M239.262001,188 L239.262001,185.484 L227.226001,185.484 L227.226001,177.664 L239.024001,177.664 L239.024001,175.148 L227.226001,175.148 L227.226001,167.838 L239.262001,167.838 L239.262001,165.322 L224.404001,165.322 L224.404001,188 L239.262001,188 Z M265.323002,188 L265.323002,178.412 L274.231002,165.322 L270.933002,165.322 L263.895002,175.862 L256.857002,165.322 L253.559002,165.322 L262.501002,178.412 L262.501002,188 L265.323002,188 Z" id="POPMONEY"></path>
                    <path d="M3.59000305,220 L3.59000305,214.07 L5.71000305,214.07 L5.71000305,213.33 L0.650003052,213.33 L0.650003052,214.07 L2.76000305,214.07 L2.76000305,220 L3.59000305,220 Z M15.9450029,220 L15.9450029,213.33 L15.1150029,213.33 L15.1150029,216.2 L11.2150029,216.2 L11.2150029,213.33 L10.3850029,213.33 L10.3850029,220 L11.2150029,220 L11.2150029,216.94 L15.1150029,216.94 L15.1150029,220 L15.9450029,220 Z M25.4500027,220 L25.4500027,219.26 L21.9100027,219.26 L21.9100027,216.96 L25.3800027,216.96 L25.3800027,216.22 L21.9100027,216.22 L21.9100027,214.07 L25.4500027,214.07 L25.4500027,213.33 L21.0800027,213.33 L21.0800027,220 L25.4500027,220 Z M40.8800023,220 L40.8800023,219.26 L37.3400023,219.26 L37.3400023,216.96 L40.8100023,216.96 L40.8100023,216.22 L37.3400023,216.22 L37.3400023,214.07 L40.8800023,214.07 L40.8800023,213.33 L36.5100023,213.33 L36.5100023,220 L40.8800023,220 Z M51.4850021,220 L48.8050021,213.33 L47.7750021,213.33 L45.0850021,220 L46.0350021,220 L46.6250021,218.51 L49.9450021,218.51 L50.5350021,220 L51.4850021,220 Z M49.7050021,217.78 L46.8750021,217.78 L48.2850021,214.18 L49.7050021,217.78 Z M57.9500019,220.12 C59.7500019,220.12 60.4100019,219.12 60.4100019,218.16 C60.4100019,215.67 56.4600019,216.53 56.4600019,215.03 C56.4600019,214.4 57.0400019,213.97 57.8300019,213.97 C58.5600019,213.97 59.2600019,214.21 59.7600019,214.77 L60.2600019,214.16 C59.7000019,213.57 58.9100019,213.22 57.9000019,213.22 C56.5800019,213.22 55.6000019,213.98 55.6000019,215.08 C55.6000019,217.46 59.5500019,216.5 59.5500019,218.22 C59.5500019,218.74 59.1700019,219.38 57.9800019,219.38 C57.0400019,219.38 56.3200019,218.92 55.8900019,218.42 L55.3900019,219.06 C55.9400019,219.68 56.8000019,220.12 57.9500019,220.12 L57.9500019,220.12 Z M67.8950017,220 L67.8950017,217.18 L70.5150017,213.33 L69.5450017,213.33 L67.4750017,216.43 L65.4050017,213.33 L64.4350017,213.33 L67.0650017,217.18 L67.0650017,220 L67.8950017,220 Z M87.1250013,220 L89.0350013,213.33 L88.1050013,213.33 L86.6350013,218.89 L85.1050013,213.33 L84.4150013,213.33 L82.8850013,218.89 L81.4050013,213.33 L80.4850013,213.33 L82.3850013,220 L83.2850013,220 L84.7550013,214.62 L86.2250013,220 L87.1250013,220 Z M98.7700011,220 L96.0900011,213.33 L95.0600011,213.33 L92.3700011,220 L93.3200011,220 L93.9100011,218.51 L97.2300011,218.51 L97.8200011,220 L98.7700011,220 Z M96.9900011,217.78 L94.1600011,217.78 L95.5700011,214.18 L96.9900011,217.78 Z M105.355001,220 L105.355001,217.18 L107.975001,213.33 L107.005001,213.33 L104.935001,216.43 L102.865001,213.33 L101.895001,213.33 L104.525001,217.18 L104.525001,220 L105.355001,220 Z M121.065001,220 L121.065001,214.07 L123.185001,214.07 L123.185001,213.33 L118.125001,213.33 L118.125001,214.07 L120.235001,214.07 L120.235001,220 L121.065001,220 Z M130.63,220.12 C132.6,220.12 133.95,218.64 133.95,216.67 C133.95,214.7 132.6,213.22 130.63,213.22 C128.66,213.22 127.32,214.7 127.32,216.67 C127.32,218.64 128.66,220.12 130.63,220.12 L130.63,220.12 Z M130.63,219.38 C129.13,219.38 128.18,218.22 128.18,216.67 C128.18,215.11 129.13,213.96 130.63,213.96 C132.12,213.96 133.09,215.11 133.09,216.67 C133.09,218.22 132.12,219.38 130.63,219.38 L130.63,219.38 Z M148.14,220.13 C149.23,220.13 150.14,219.67 150.76,218.97 L150.76,216.57 L147.64,216.57 L147.64,217.31 L149.94,217.31 L149.94,218.66 C149.6,219 148.94,219.38 148.14,219.38 C146.68,219.38 145.57,218.25 145.57,216.67 C145.57,215.07 146.68,213.96 148.14,213.96 C148.94,213.96 149.65,214.34 150.07,214.88 L150.73,214.46 C150.15,213.74 149.33,213.22 148.14,213.22 C146.24,213.22 144.71,214.59 144.71,216.67 C144.71,218.74 146.24,220.13 148.14,220.13 L148.14,220.13 Z M156.515,220 L156.515,213.33 L155.685,213.33 L155.685,220 L156.515,220 Z M164.68,220 L167.36,213.33 L166.41,213.33 L164.16,219.09 L161.91,213.33 L160.96,213.33 L163.65,220 L164.68,220 Z M176.174999,220 L176.174999,219.26 L172.634999,219.26 L172.634999,216.96 L176.104999,216.96 L176.104999,216.22 L172.634999,216.22 L172.634999,214.07 L176.174999,214.07 L176.174999,213.33 L171.804999,213.33 L171.804999,220 L176.174999,220 Z M192.584999,220 C192.094999,219.55 191.684999,219.15 191.284999,218.74 C191.684999,218.18 191.974999,217.55 192.194999,217.02 L191.554999,216.73 C191.434999,217.1 191.194999,217.71 190.834999,218.26 C190.574999,217.98 190.314999,217.69 190.044999,217.37 C189.824999,217.12 189.534999,216.78 189.264999,216.42 C190.114999,215.98 190.964999,215.54 190.964999,214.54 C190.964999,213.7 190.324999,213.23 189.464999,213.23 C188.514999,213.23 187.784999,213.89 187.784999,214.77 C187.784999,215.24 187.994999,215.76 188.294999,216.27 C187.524999,216.69 186.824999,217.22 186.824999,218.26 C186.824999,219.49 187.754999,220.12 188.894999,220.12 C189.704999,220.12 190.324999,219.79 190.814999,219.3 C191.084999,219.57 191.344999,219.83 191.544999,220 L192.584999,220 Z M188.974999,219.5 C188.264999,219.5 187.624999,219.04 187.624999,218.21 C187.624999,217.52 188.054999,217.11 188.614999,216.77 C188.874999,217.15 189.164999,217.51 189.444999,217.83 C189.634999,218.06 189.984999,218.44 190.364999,218.84 C189.984999,219.23 189.524999,219.5 188.974999,219.5 L188.974999,219.5 Z M188.554999,214.79 C188.554999,214.21 188.974999,213.81 189.484999,213.81 C189.934999,213.81 190.274999,214.08 190.274999,214.57 C190.274999,215.24 189.664999,215.59 188.954999,215.94 C188.724999,215.55 188.554999,215.14 188.554999,214.79 L188.554999,214.79 Z M206.554999,220.13 C207.644999,220.13 208.554999,219.67 209.174999,218.97 L209.174999,216.57 L206.054999,216.57 L206.054999,217.31 L208.354999,217.31 L208.354999,218.66 C208.014999,219 207.354999,219.38 206.554999,219.38 C205.094999,219.38 203.984999,218.25 203.984999,216.67 C203.984999,215.07 205.094999,213.96 206.554999,213.96 C207.354999,213.96 208.064999,214.34 208.484999,214.88 L209.144999,214.46 C208.564999,213.74 207.744999,213.22 206.554999,213.22 C204.654999,213.22 203.124999,214.59 203.124999,216.67 C203.124999,218.74 204.654999,220.13 206.554999,220.13 L206.554999,220.13 Z M218.469998,220 L218.469998,219.26 L214.929998,219.26 L214.929998,216.96 L218.399998,216.96 L218.399998,216.22 L214.929998,216.22 L214.929998,214.07 L218.469998,214.07 L218.469998,213.33 L214.099998,213.33 L214.099998,220 L218.469998,220 Z M225.844998,220 L225.844998,214.07 L227.964998,214.07 L227.964998,213.33 L222.904998,213.33 L222.904998,214.07 L225.014998,214.07 L225.014998,220 L225.844998,220 Z M245.334998,220 L245.334998,213.33 L244.144998,213.33 L242.074998,218.47 L239.994998,213.33 L238.804998,213.33 L238.804998,220 L239.634998,220 L239.634998,214.39 L241.904998,220 L242.244998,220 L244.504998,214.39 L244.504998,220 L245.334998,220 Z M253.509998,220.12 C255.479998,220.12 256.829998,218.64 256.829998,216.67 C256.829998,214.7 255.479998,213.22 253.509998,213.22 C251.539998,213.22 250.199998,214.7 250.199998,216.67 C250.199998,218.64 251.539998,220.12 253.509998,220.12 L253.509998,220.12 Z M253.509998,219.38 C252.009998,219.38 251.059998,218.22 251.059998,216.67 C251.059998,215.11 252.009998,213.96 253.509998,213.96 C254.999998,213.96 255.969998,215.11 255.969998,216.67 C255.969998,218.22 254.999998,219.38 253.509998,219.38 L253.509998,219.38 Z M267.214998,220 L267.214998,213.33 L266.384998,213.33 L266.384998,218.54 L262.544998,213.33 L261.694998,213.33 L261.694998,220 L262.524998,220 L262.524998,214.68 L266.414998,220 L267.214998,220 Z M276.719997,220 L276.719997,219.26 L273.179997,219.26 L273.179997,216.96 L276.649997,216.96 L276.649997,216.22 L273.179997,216.22 L273.179997,214.07 L276.719997,214.07 L276.719997,213.33 L272.349997,213.33 L272.349997,220 L276.719997,220 Z M284.384997,220 L284.384997,217.18 L287.004997,213.33 L286.034997,213.33 L283.964997,216.43 L281.894997,213.33 L280.924997,213.33 L283.554997,217.18 L283.554997,220 L284.384997,220 Z" id="THE-EASY-WAY-TO-GIVE"></path>
                    <path d="M166.393969,41.8329234 C166.411301,30.8603182 157.530092,21.9112249 146.540154,21.8274535 C135.535774,21.7451265 126.488466,30.7259951 126.443691,41.7765944 C126.400361,52.7073139 135.340789,61.7084033 146.310505,61.776287 C157.355327,61.8427264 166.376637,52.884967 166.393969,41.8329234 M105.003998,73.4103972 L105.003998,41.1771958 C105.003998,20.8164197 120.985553,2.96300741 141.253892,0.678071054 C163.046003,-1.77874104 182.099657,11.735892 186.987283,33.1207009 C192.11178,55.5367642 176.728179,78.5970005 154.021804,82.5689189 C144.925389,84.1620193 136.211722,83.0556595 127.947243,78.8959776 C126.524574,78.179588 126.411916,78.5623365 126.419138,79.9113444 C126.463912,89.2114109 126.41336,98.5114774 126.469689,107.812988 C126.478355,109.154774 126.162046,109.57652 124.761042,109.557744 C118.696284,109.476861 112.630081,109.476861 106.565323,109.557744 C105.209093,109.575076 104.970778,109.144664 104.975111,107.89676 C105.022774,96.4013054 105.003998,84.9058513 105.003998,73.4103972" id="Fill-1"></path>
                </g>
            </g>
        </g>
    </g>
</svg>