<?xml version="1.0" encoding="UTF-8"?>
<svg width="470px" height="214px" viewBox="0 0 470 214" version="1.1" xmlns="http://www.w3.org/2000/svg" xmlns:xlink="http://www.w3.org/1999/xlink">
    <!-- Generator: Sketch 41 (35326) - http://www.bohemiancoding.com/sketch -->
    <title>Group 11</title>
    <desc>Created with Sketch.</desc>
    <defs></defs>
    <g id="Page-1" stroke="none" stroke-width="1" fill="none" fill-rule="evenodd">
        <g id="1170---absolut-sharing" transform="translate(-646.000000, -450.000000)">
            <g id="-updated" transform="translate(645.000000, 450.000000)">
                <g id="Group-11" transform="translate(1.000000, 0.000000)">
                    <path d="M21.76,172.052 L12.648,149.374 L9.146,149.374 L0,172.052 L3.23,172.052 L5.236,166.986 L16.524,166.986 L18.53,172.052 L21.76,172.052 Z M15.708,164.504 L6.086,164.504 L10.88,152.264 L15.708,164.504 Z M47.2090007,172.052 C51.3570007,172.052 53.7710007,169.57 53.7710007,165.932 C53.7710007,163.212 51.7650007,160.73 49.3510007,160.356 C51.4250007,159.914 53.3290007,158.01 53.3290007,155.154 C53.3290007,151.754 50.9150007,149.374 46.9710007,149.374 L36.8730007,149.374 L36.8730007,172.052 L47.2090007,172.052 Z M46.4950007,159.2 L39.6950007,159.2 L39.6950007,151.89 L46.4950007,151.89 C49.0450007,151.89 50.4050007,153.522 50.4050007,155.562 C50.4050007,157.636 49.0450007,159.2 46.4950007,159.2 Z M46.6650007,169.536 L39.6950007,169.536 L39.6950007,161.716 L46.6650007,161.716 C49.4190007,161.716 50.8470007,163.552 50.8470007,165.626 C50.8470007,168.04 49.2830007,169.536 46.6650007,169.536 Z M77.7580014,172.46 C83.8780014,172.46 86.1220014,169.06 86.1220014,165.796 C86.1220014,157.33 72.6920014,160.254 72.6920014,155.154 C72.6920014,153.012 74.6640014,151.55 77.3500014,151.55 C79.8320014,151.55 82.2120014,152.366 83.9120014,154.27 L85.6120014,152.196 C83.7080014,150.19 81.0220014,149 77.5880014,149 C73.1000014,149 69.7680014,151.584 69.7680014,155.324 C69.7680014,163.416 83.1980014,160.152 83.1980014,166 C83.1980014,167.768 81.9060014,169.944 77.8600014,169.944 C74.6640014,169.944 72.2160014,168.38 70.7540014,166.68 L69.0540014,168.856 C70.9240014,170.964 73.8480014,172.46 77.7580014,172.46 Z M112.829002,172.46 C119.527002,172.46 124.117002,167.428 124.117002,160.73 C124.117002,154.032 119.527002,149 112.829002,149 C106.131002,149 101.575002,154.032 101.575002,160.73 C101.575002,167.428 106.131002,172.46 112.829002,172.46 Z M112.829002,169.944 C107.729002,169.944 104.499002,166 104.499002,160.73 C104.499002,155.426 107.729002,151.516 112.829002,151.516 C117.895002,151.516 121.193002,155.426 121.193002,160.73 C121.193002,166 117.895002,169.944 112.829002,169.944 Z M153.646003,172.052 L153.646003,169.536 L143.106003,169.536 L143.106003,149.374 L140.284003,149.374 L140.284003,172.052 L153.646003,172.052 Z M177.905003,172.46 C184.059003,172.46 187.187003,168.856 187.187003,163.212 L187.187003,149.374 L184.331003,149.374 L184.331003,163.178 C184.331003,167.326 182.087003,169.944 177.905003,169.944 C173.723003,169.944 171.513003,167.326 171.513003,163.178 L171.513003,149.374 L168.657003,149.374 L168.657003,163.246 C168.657003,168.822 171.785003,172.46 177.905003,172.46 Z M213.078004,172.052 L213.078004,151.89 L220.286004,151.89 L220.286004,149.374 L203.082004,149.374 L203.082004,151.89 L210.256004,151.89 L210.256004,172.052 L213.078004,172.052 Z M264.486005,172.46 C270.606005,172.46 272.850005,169.06 272.850005,165.796 C272.850005,157.33 259.420005,160.254 259.420005,155.154 C259.420005,153.012 261.392005,151.55 264.078005,151.55 C266.560005,151.55 268.940005,152.366 270.640005,154.27 L272.340005,152.196 C270.436005,150.19 267.750005,149 264.316005,149 C259.828005,149 256.496005,151.584 256.496005,155.324 C256.496005,163.416 269.926005,160.152 269.926005,166 C269.926005,167.768 268.634005,169.944 264.588005,169.944 C261.392005,169.944 258.944005,168.38 257.482005,166.68 L255.782005,168.856 C257.652005,170.964 260.576005,172.46 264.486005,172.46 Z M308.125006,172.052 L308.125006,149.374 L305.303006,149.374 L305.303006,159.132 L292.043006,159.132 L292.043006,149.374 L289.221006,149.374 L289.221006,172.052 L292.043006,172.052 L292.043006,161.648 L305.303006,161.648 L305.303006,172.052 L308.125006,172.052 Z M344.998007,172.052 L335.886007,149.374 L332.384007,149.374 L323.238007,172.052 L326.468007,172.052 L328.474007,166.986 L339.762007,166.986 L341.768007,172.052 L344.998007,172.052 Z M338.946007,164.504 L329.324007,164.504 L334.118007,152.264 L338.946007,164.504 Z M376.567008,172.052 L370.447008,162.804 C373.541008,162.532 376.363008,160.288 376.363008,156.208 C376.363008,152.026 373.371008,149.374 369.223008,149.374 L360.111008,149.374 L360.111008,172.052 L362.933008,172.052 L362.933008,163.042 L367.489008,163.042 L373.235008,172.052 L376.567008,172.052 Z M368.883008,160.56 L362.933008,160.56 L362.933008,151.89 L368.883008,151.89 C371.569008,151.89 373.439008,153.624 373.439008,156.208 C373.439008,158.758 371.569008,160.56 368.883008,160.56 Z M395.794008,172.052 L395.794008,149.374 L392.972008,149.374 L392.972008,172.052 L395.794008,172.052 Z M432.021009,172.052 L432.021009,149.374 L429.199009,149.374 L429.199009,167.088 L416.143009,149.374 L413.253009,149.374 L413.253009,172.052 L416.075009,172.052 L416.075009,153.964 L429.301009,172.052 L432.021009,172.052 Z M460.22401,172.494 C463.93001,172.494 467.02401,170.93 469.13201,168.55 L469.13201,160.39 L458.52401,160.39 L458.52401,162.906 L466.34401,162.906 L466.34401,167.496 C465.18801,168.652 462.94401,169.944 460.22401,169.944 C455.26001,169.944 451.48601,166.102 451.48601,160.73 C451.48601,155.29 455.26001,151.516 460.22401,151.516 C462.94401,151.516 465.35801,152.808 466.78601,154.644 L469.03001,153.216 C467.05801,150.768 464.27001,149 460.22401,149 C453.76401,149 448.56201,153.658 448.56201,160.73 C448.56201,167.768 453.76401,172.494 460.22401,172.494 Z" id="ABSOLUT-SHARING" fill="#FFFFFF"></path>
                    <path d="M38.968,213.136 L41.26,205.132 L40.144,205.132 L38.38,211.804 L36.544,205.132 L35.716,205.132 L33.88,211.804 L32.104,205.132 L31,205.132 L33.28,213.136 L34.36,213.136 L36.124,206.68 L37.888,213.136 L38.968,213.136 Z M50.062,213.28 C52.426,213.28 54.046,211.504 54.046,209.14 C54.046,206.776 52.426,205 50.062,205 C47.698,205 46.09,206.776 46.09,209.14 C46.09,211.504 47.698,213.28 50.062,213.28 Z M50.062,212.392 C48.262,212.392 47.122,211 47.122,209.14 C47.122,207.268 48.262,205.888 50.062,205.888 C51.85,205.888 53.014,207.268 53.014,209.14 C53.014,211 51.85,212.392 50.062,212.392 Z M65.6919999,213.136 L63.5319999,209.872 C64.6239999,209.776 65.6199999,208.984 65.6199999,207.544 C65.6199999,206.068 64.5639999,205.132 63.0999999,205.132 L59.8839999,205.132 L59.8839999,213.136 L60.8799999,213.136 L60.8799999,209.956 L62.4879999,209.956 L64.5159999,213.136 L65.6919999,213.136 Z M62.9799999,209.08 L60.8799999,209.08 L60.8799999,206.02 L62.9799999,206.02 C63.9279999,206.02 64.5879999,206.632 64.5879999,207.544 C64.5879999,208.444 63.9279999,209.08 62.9799999,209.08 Z M76.0659999,213.136 L76.0659999,212.248 L72.3459999,212.248 L72.3459999,205.132 L71.3499999,205.132 L71.3499999,213.136 L76.0659999,213.136 Z M84.4239998,213.136 C86.9199998,213.136 88.5279998,211.42 88.5279998,209.14 C88.5279998,206.872 86.9199998,205.132 84.4239998,205.132 L81.6879998,205.132 L81.6879998,213.136 L84.4239998,213.136 Z M84.4239998,212.248 L82.6839998,212.248 L82.6839998,206.02 L84.4239998,206.02 C86.4039998,206.02 87.4959998,207.412 87.4959998,209.14 C87.4959998,210.856 86.3679998,212.248 84.4239998,212.248 Z M108.976,213.136 L111.268,205.132 L110.152,205.132 L108.388,211.804 L106.552,205.132 L105.724,205.132 L103.888,211.804 L102.112,205.132 L101.008,205.132 L103.288,213.136 L104.368,213.136 L106.132,206.68 L107.896,213.136 L108.976,213.136 Z M117.658,213.136 L117.658,205.132 L116.662,205.132 L116.662,213.136 L117.658,213.136 Z M126.556,213.136 C129.052,213.136 130.66,211.42 130.66,209.14 C130.66,206.872 129.052,205.132 126.556,205.132 L123.82,205.132 L123.82,213.136 L126.556,213.136 Z M126.556,212.248 L124.816,212.248 L124.816,206.02 L126.556,206.02 C128.536,206.02 129.628,207.412 129.628,209.14 C129.628,210.856 128.5,212.248 126.556,212.248 Z M141.754,213.136 L141.754,212.248 L137.506,212.248 L137.506,209.488 L141.67,209.488 L141.67,208.6 L137.506,208.6 L137.506,206.02 L141.754,206.02 L141.754,205.132 L136.51,205.132 L136.51,213.136 L141.754,213.136 Z M156.022,213.136 L156.022,205.132 L155.026,205.132 L155.026,213.136 L156.022,213.136 Z M168.808,213.136 L168.808,205.132 L167.812,205.132 L167.812,211.384 L163.204,205.132 L162.184,205.132 L162.184,213.136 L163.18,213.136 L163.18,206.752 L167.848,213.136 L168.808,213.136 Z M175.966,213.136 L175.966,205.132 L174.97,205.132 L174.97,213.136 L175.966,213.136 Z M185.103999,213.136 L185.103999,206.02 L187.647999,206.02 L187.647999,205.132 L181.575999,205.132 L181.575999,206.02 L184.107999,206.02 L184.107999,213.136 L185.103999,213.136 Z M194.253999,213.136 L194.253999,205.132 L193.257999,205.132 L193.257999,213.136 L194.253999,213.136 Z M207.267999,213.136 L204.051999,205.132 L202.815999,205.132 L199.587999,213.136 L200.727999,213.136 L201.435999,211.348 L205.419999,211.348 L206.127999,213.136 L207.267999,213.136 Z M205.131999,210.472 L201.735999,210.472 L203.427999,206.152 L205.131999,210.472 Z M214.773999,213.136 L214.773999,206.02 L217.317999,206.02 L217.317999,205.132 L211.245999,205.132 L211.245999,206.02 L213.777999,206.02 L213.777999,213.136 L214.773999,213.136 Z M223.923999,213.136 L223.923999,205.132 L222.927999,205.132 L222.927999,213.136 L223.923999,213.136 Z M233.721999,213.136 L236.937999,205.132 L235.797999,205.132 L233.097999,212.044 L230.397999,205.132 L229.257999,205.132 L232.485999,213.136 L233.721999,213.136 Z M247.515999,213.136 L247.515999,212.248 L243.267999,212.248 L243.267999,209.488 L247.431999,209.488 L247.431999,208.6 L243.267999,208.6 L243.267999,206.02 L247.515999,206.02 L247.515999,205.132 L242.271999,205.132 L242.271999,213.136 L247.515999,213.136 Z M255.981999,213.28 C258.141999,213.28 258.933999,212.08 258.933999,210.928 C258.933999,207.94 254.193999,208.972 254.193999,207.172 C254.193999,206.416 254.889999,205.9 255.837999,205.9 C256.713999,205.9 257.553999,206.188 258.153999,206.86 L258.753999,206.128 C258.081999,205.42 257.133999,205 255.921999,205 C254.337999,205 253.161999,205.912 253.161999,207.232 C253.161999,210.088 257.901999,208.936 257.901999,211 C257.901999,211.624 257.445999,212.392 256.017999,212.392 C254.889999,212.392 254.025999,211.84 253.509999,211.24 L252.909999,212.008 C253.569999,212.752 254.601999,213.28 255.981999,213.28 Z M274.701999,213.28 C276.861999,213.28 277.653999,212.08 277.653999,210.928 C277.653999,207.94 272.913999,208.972 272.913999,207.172 C272.913999,206.416 273.609999,205.9 274.557999,205.9 C275.433999,205.9 276.273999,206.188 276.873999,206.86 L277.473999,206.128 C276.801999,205.42 275.853999,205 274.641999,205 C273.057999,205 271.881999,205.912 271.881999,207.232 C271.881999,210.088 276.621999,208.936 276.621999,211 C276.621999,211.624 276.165999,212.392 274.737999,212.392 C273.609999,212.392 272.745999,211.84 272.229999,211.24 L271.629999,212.008 C272.289999,212.752 273.321999,213.28 274.701999,213.28 Z M290.103999,213.136 L290.103999,205.132 L289.107999,205.132 L289.107999,208.576 L284.427999,208.576 L284.427999,205.132 L283.431999,205.132 L283.431999,213.136 L284.427999,213.136 L284.427999,209.464 L289.107999,209.464 L289.107999,213.136 L290.103999,213.136 Z M303.117999,213.136 L299.901999,205.132 L298.665999,205.132 L295.437999,213.136 L296.577999,213.136 L297.285999,211.348 L301.269999,211.348 L301.977999,213.136 L303.117999,213.136 Z M300.981999,210.472 L297.585999,210.472 L299.277999,206.152 L300.981999,210.472 Z M314.259999,213.136 L312.099999,209.872 C313.191999,209.776 314.187999,208.984 314.187999,207.544 C314.187999,206.068 313.131999,205.132 311.667999,205.132 L308.451999,205.132 L308.451999,213.136 L309.447999,213.136 L309.447999,209.956 L311.055999,209.956 L313.083999,213.136 L314.259999,213.136 Z M311.547999,209.08 L309.447999,209.08 L309.447999,206.02 L311.547999,206.02 C312.495999,206.02 313.155999,206.632 313.155999,207.544 C313.155999,208.444 312.495999,209.08 311.547999,209.08 Z M325.293999,213.136 L325.293999,212.248 L321.045999,212.248 L321.045999,209.488 L325.209999,209.488 L325.209999,208.6 L321.045999,208.6 L321.045999,206.02 L325.293999,206.02 L325.293999,205.132 L320.049999,205.132 L320.049999,213.136 L325.293999,213.136 Z M333.903999,213.136 C336.399999,213.136 338.007999,211.42 338.007999,209.14 C338.007999,206.872 336.399999,205.132 333.903999,205.132 L331.167999,205.132 L331.167999,213.136 L333.903999,213.136 Z M333.903999,212.248 L332.163999,212.248 L332.163999,206.02 L333.903999,206.02 C335.883999,206.02 336.975999,207.412 336.975999,209.14 C336.975999,210.856 335.847999,212.248 333.903999,212.248 Z M355.047999,213.292 C356.355999,213.292 357.447999,212.74 358.191999,211.9 L358.191999,209.02 L354.447999,209.02 L354.447999,209.908 L357.207999,209.908 L357.207999,211.528 C356.799999,211.936 356.007999,212.392 355.047999,212.392 C353.295999,212.392 351.963999,211.036 351.963999,209.14 C351.963999,207.22 353.295999,205.888 355.047999,205.888 C356.007999,205.888 356.859999,206.344 357.363999,206.992 L358.155999,206.488 C357.459999,205.624 356.475999,205 355.047999,205 C352.767999,205 350.931999,206.644 350.931999,209.14 C350.931999,211.624 352.767999,213.292 355.047999,213.292 Z M368.685999,213.136 L368.685999,212.248 L364.965999,212.248 L364.965999,205.132 L363.969999,205.132 L363.969999,213.136 L368.685999,213.136 Z M377.547999,213.28 C379.911999,213.28 381.531999,211.504 381.531999,209.14 C381.531999,206.776 379.911999,205 377.547999,205 C375.183999,205 373.575999,206.776 373.575999,209.14 C373.575999,211.504 375.183999,213.28 377.547999,213.28 Z M377.547999,212.392 C375.747999,212.392 374.607999,211 374.607999,209.14 C374.607999,207.268 375.747999,205.888 377.547999,205.888 C379.335999,205.888 380.499999,207.268 380.499999,209.14 C380.499999,211 379.335999,212.392 377.547999,212.392 Z M391.017999,213.136 C392.481999,213.136 393.333999,212.26 393.333999,210.976 C393.333999,210.016 392.625999,209.14 391.773999,209.008 C392.505999,208.852 393.177999,208.18 393.177999,207.172 C393.177999,205.972 392.325999,205.132 390.933999,205.132 L387.369999,205.132 L387.369999,213.136 L391.017999,213.136 Z M390.765999,208.6 L388.365999,208.6 L388.365999,206.02 L390.765999,206.02 C391.665999,206.02 392.145999,206.596 392.145999,207.316 C392.145999,208.048 391.665999,208.6 390.765999,208.6 Z M390.825999,212.248 L388.365999,212.248 L388.365999,209.488 L390.825999,209.488 C391.797999,209.488 392.301999,210.136 392.301999,210.868 C392.301999,211.72 391.749999,212.248 390.825999,212.248 Z M406.059999,213.136 L402.843999,205.132 L401.607999,205.132 L398.379999,213.136 L399.519999,213.136 L400.227999,211.348 L404.211999,211.348 L404.919999,213.136 L406.059999,213.136 Z M403.923999,210.472 L400.527999,210.472 L402.219999,206.152 L403.923999,210.472 Z M415.977999,213.136 L415.977999,212.248 L412.257999,212.248 L412.257999,205.132 L411.261999,205.132 L411.261999,213.136 L415.977999,213.136 Z M426.183999,213.136 L426.183999,212.248 L422.463999,212.248 L422.463999,205.132 L421.467999,205.132 L421.467999,213.136 L426.183999,213.136 Z M433.653999,213.136 L433.653999,209.752 L436.797999,205.132 L435.633999,205.132 L433.149999,208.852 L430.665999,205.132 L429.501999,205.132 L432.657999,209.752 L432.657999,213.136 L433.653999,213.136 Z" id="WORLD-WIDE-INITIATIV" fill="#FFFFFF"></path>
                    <g id="Group-10" transform="translate(136.000000, 0.000000)" fill="#FEFEFE">
                        <path d="M142.376479,57.3856754 C142.885505,56.464823 143.184843,56.3850361 143.184843,56.3850361 L131.788739,56.3850361 C131.788739,56.3850361 132.256232,56.4846426 131.836856,57.761741 L126.922349,70.9946754 L126.918297,57.7160033 C126.924375,56.3921508 127.256635,56.3819869 127.256635,56.3819869 L116.550882,56.3819869 C116.550882,56.3819869 116.856804,56.4109541 116.898336,57.8552492 L116.898336,90.151659 C116.817297,91.7733148 116.540245,91.8129541 116.540245,91.8129541 L116.898336,91.8129541 L117.357726,91.8129541 L126.470557,91.8129541 L126.917791,91.8129541 L127.287531,91.8129541 C127.287531,91.8129541 127.003388,91.7753475 126.925388,90.0967738 L126.917791,90.125741 L126.917284,75.6985443 L131.520297,90.1963803 C131.862687,91.7367246 131.415453,91.8180361 131.415453,91.8180361 L132.231921,91.8180361 L132.229895,91.8129541 L142.173882,91.8129541 L142.173882,91.8180361 L142.712284,91.8180361 C142.712284,91.8180361 142.314181,91.6691344 141.729687,90.1008393 L141.737284,90.1298066 L135.215168,72.7875934 L142.376479,57.3856754 Z" id="Fill-1"></path>
                        <path d="M74.5185052,84.3955689 C71.9667909,84.3955689 71.4055961,79.1555525 71.4055961,73.9241754 C71.4055961,68.6922902 71.9667909,63.4512574 74.5185052,63.4512574 C77.069713,63.4512574 77.6309078,68.6922902 77.6309078,73.9241754 C77.6309078,79.1555525 77.069713,84.3955689 74.5185052,84.3955689 M74.5185052,55.6773721 C65.3575571,55.6773721 61.275726,62.9979459 61.275726,73.9241754 C61.275726,85.6996016 65.7804792,92.6466508 74.5185052,92.6466508 C82.8331026,92.6466508 87.9198169,85.2747492 87.9198169,73.9241754 C87.9198169,62.5730934 83.6804662,55.6773721 74.5185052,55.6773721" id="Fill-3"></path>
                        <path d="M99.5777779,84.5216016 L99.5777779,63.4431262 C103.092336,63.4431262 104.522674,69.056159 104.522674,74.0837492 C104.522674,79.110323 103.092336,84.5216016 99.5777779,84.5216016 M100.075155,56.3751262 L90.5161026,56.3751262 L90.5176221,56.3664869 L89.701661,56.3664869 C89.701661,56.3664869 89.9716221,56.408159 90.056713,57.9744213 L90.056713,90.1107492 L90.052661,90.0970279 C89.975674,91.7750934 89.6920377,91.8132082 89.6920377,91.8132082 L90.056713,91.8132082 L90.5079987,91.8132082 L100.075155,91.8132082 C112.13831,91.8132082 114.762453,82.0558311 114.762453,73.7640934 C114.762453,61.7955525 108.961077,56.3751262 100.075155,56.3751262" id="Fill-5"></path>
                        <path d="M154.462123,79.6242623 L156.200409,68.1115738 L157.870318,79.6212131 L154.462123,79.6242623 Z M168.964045,90.4275082 L161.865032,57.533459 C161.724227,56.4596393 162.047877,56.3849344 162.047877,56.3849344 L150.452721,56.3869672 C150.452721,56.3869672 150.812838,56.4677705 150.639617,57.5939344 L143.004734,90.2618361 L143.041201,90.0966721 C143.0255,90.1754426 143.008786,90.2465902 142.992578,90.3172295 L142.969786,90.4087049 C142.634994,91.7472951 142.126981,91.8128525 142.126981,91.8128525 L153.014058,91.816918 C153.014058,91.816918 152.692435,91.7666066 152.801838,90.6567049 L153.459773,86.1225738 L158.804292,86.120541 L159.418162,90.5804754 C159.529084,91.7615246 159.193279,91.816918 159.193279,91.816918 L169.802292,91.8128525 C169.802292,91.8128525 169.299851,91.7472951 168.964045,90.4275082 L168.964045,90.4275082 Z" id="Fill-7"></path>
                        <path d="M52.0304468,56.4387525 C52.0304468,56.4387525 52.3956286,56.4565393 52.3348494,57.4185557 L48.8213039,78.5066869 L44.9481481,57.444982 C44.8742,56.4346869 45.2550831,56.4346869 45.2550831,56.4346869 L34.2591091,56.4346869 C34.2591091,56.4346869 34.4961481,56.4804246 34.7179922,56.9967525 L42.9307844,90.9326049 C43.1227455,91.8356705 42.6253688,91.9174902 42.6253688,91.9174902 L54.7128364,91.9174902 C54.7128364,91.9174902 54.3127065,91.8707361 54.4190701,91.0189984 L62.036226,57.163441 C62.2742779,56.4941459 62.5594338,56.4387525 62.5594338,56.4387525 L52.0304468,56.4387525 Z" id="Fill-9"></path>
                        <path d="M105.391614,29.1983918 C102.843445,29.1983918 102.282251,23.9639656 102.282251,18.7366541 C102.282251,13.5098508 102.843445,8.27542459 105.391614,8.27542459 C107.941809,8.27542459 108.500978,13.5098508 108.500978,18.7366541 C108.500978,23.9639656 107.941809,29.1983918 105.391614,29.1983918 M105.391614,0.508145902 C96.2402896,0.508145902 92.1620039,7.82160492 92.1620039,18.7366541 C92.1620039,30.5014082 96.6627052,37.442359 105.391614,37.442359 C113.699121,37.442359 118.780264,30.0770639 118.780264,18.7366541 C118.780264,7.39624426 114.544965,0.508145902 105.391614,0.508145902" id="Fill-11"></path>
                        <path d="M136.36587,28.3264279 L136.388662,28.3325262 L130.881558,28.3325262 L130.881558,2.96487049 C130.959558,1.29798525 131.241675,1.2588541 131.241675,1.2588541 L130.426221,1.2588541 L130.42774,1.26444426 L120.888948,1.26444426 L120.888948,1.27054262 L120.527818,1.27054262 C120.527818,1.27054262 120.809429,1.31018197 120.888948,2.97350984 L120.888948,35.0529197 C120.801831,36.5764934 120.535922,36.6176574 120.535922,36.6176574 L121.351883,36.6176574 L121.349857,36.6105426 L138.078325,36.6105426 L138.078325,28.7827885 L138.078325,28.3325262 L138.078325,27.9635754 C138.078325,27.9635754 138.038312,28.2486738 136.36587,28.3264279" id="Fill-14"></path>
                        <path d="M87.2431416,16.9473443 C84.6833234,14.5842295 79.5084792,11.9741311 81.1069727,9.69537705 C82.5292065,7.66818033 87.2213623,9.20903279 89.4301805,11.1300164 L89.4301805,2.60654098 L89.4301805,2.59434426 L89.4301805,1.78681967 C89.4301805,1.78681967 89.3273623,2.19591803 88.2708169,1.93572131 C87.0172455,1.34468852 84.7451156,0.569180328 81.437713,0.569180328 C74.8218948,0.569180328 70.8368039,4.5097377 70.8368039,10.6162295 C70.8368039,14.9211639 71.9303234,16.5250328 74.2860247,19.2260984 C76.365687,21.6110656 83.5335831,25.2121475 81.0092195,27.8293607 C79.7850247,29.0978197 76.8286221,29.9927541 70.8368039,25.2965082 L70.8368039,34.650377 L70.8368039,34.6742623 L70.8368039,35.469082 C70.8368039,35.469082 70.9689987,35.1087705 72.1698948,35.5925738 C73.5581935,36.4041639 75.973661,37.4596885 79.1665961,37.4596885 C87.3834403,37.4596885 91.4490636,32.5637213 91.4490636,24.9666885 C91.4490636,20.950918 89.1232455,18.6833443 87.2431416,16.9473443" id="Fill-16"></path>
                        <path d="M55.9318143,29.0045656 L55.056087,29.0045656 L55.056087,21.6280902 L55.9318143,21.6280902 C57.6873208,21.6280902 59.1105675,23.5546639 59.1105675,25.3160738 C59.1105675,27.0774836 57.6873208,29.0045656 55.9318143,29.0045656 L55.9318143,29.0045656 Z M55.0976195,8.43022131 L55.9318143,8.43022131 C57.5282818,8.43022131 58.8218662,10.2272049 58.8218662,11.8285328 C58.8218662,13.4293525 57.5282818,15.2263361 55.9318143,15.2263361 L55.0976195,15.2263361 L55.0976195,8.43022131 Z M61.7767494,18.2851721 C65.1889961,18.2013197 68.1074117,14.5753361 68.1074117,10.1687623 C68.1074117,4.64568033 63.9789831,1.30072951 56.6236844,1.26922131 L44.8309961,1.26617213 C44.8309961,1.26617213 45.1465416,1.33731967 45.2245416,3.01487705 L45.2123857,2.94118852 L45.2123857,34.9235328 L45.2220091,34.9011721 C45.1440091,36.5787295 44.8603727,36.6015984 44.8603727,36.6015984 L57.6979571,36.6082049 C65.6103987,36.6102377 69.3584506,32.7062705 69.3584506,26.8203361 C69.3584506,21.7952869 65.7304377,18.5677295 61.7767494,18.2851721 L61.7767494,18.2851721 Z" id="Fill-18"></path>
                        <path d="M29.4662623,24.4107213 L31.2050545,12.898541 L32.8749636,24.4081803 L29.4662623,24.4107213 Z M43.9691974,35.2139672 L36.8701844,2.38445902 C36.7288727,1.31114754 37.0530286,1.25270492 37.0530286,1.25270492 L25.4563532,1.25422951 C25.4563532,1.25422951 25.8174831,1.31877049 25.6442623,2.44493443 L18.0093792,35.0488033 L18.0453403,34.8836393 C18.029639,34.9619016 18.0134312,35.0330492 17.9967169,35.1036885 L17.9754442,35.1956721 C17.639639,36.5337541 17.1321325,36.6003279 17.1321325,36.6003279 L28.0187039,36.603377 C28.0187039,36.603377 27.697587,36.5525574 27.8064831,35.4426557 L28.4639117,30.9100492 L33.8094442,30.9085246 L34.4238208,35.3674426 C34.5347429,36.5474754 34.1979247,36.603377 34.1979247,36.603377 L44.8074442,36.6003279 C44.8074442,36.6003279 44.3044961,36.5332459 43.9691974,35.2139672 L43.9691974,35.2139672 Z" id="Fill-20"></path>
                        <path d="M153.566896,1.2624623 C153.566896,1.2624623 153.850532,1.30159344 153.927013,2.97864262 L153.943221,2.9196918 L153.94474,27.3461672 C153.94474,28.4880852 152.829442,29.4140197 151.454818,29.4140197 C150.080195,29.4140197 148.965403,28.4880852 148.965403,27.3466754 L148.958818,27.3461672 L148.958312,2.93087213 L148.970974,2.97965902 C149.048468,1.30210164 149.33261,1.26297049 149.33261,1.26297049 L138.618247,1.2624623 C138.618247,1.2624623 138.872506,1.30057705 138.966208,2.73674098 L138.974312,25.6289705 C138.974312,32.406282 142.760857,37.4232 151.20461,37.4232 C159.64887,37.4232 163.435416,32.406282 163.435416,25.6289705 L163.437948,2.89174098 L163.461247,2.97965902 C163.538234,1.30210164 163.82339,1.26297049 163.82339,1.26297049 L153.566896,1.2624623 Z" id="Fill-22"></path>
                        <path d="M186.450329,1.26048033 L164.862056,1.26048033 L164.866108,9.90744754 C164.866108,9.90744754 164.906121,9.62285738 166.578562,9.54459508 L166.554251,9.53849672 L170.659381,9.53849672 L170.659381,34.9122508 L170.656848,34.9010705 C170.578848,36.5786279 170.295212,36.617759 170.295212,36.617759 L181.009575,36.6121689 C181.009575,36.6121689 180.734549,36.5704967 180.653004,34.9691689 L180.653004,9.53849672 L184.79916,9.53849672 L184.730277,9.5567918 C186.400186,9.6350541 186.440199,9.91964426 186.440199,9.91964426 L186.450329,1.26048033 Z" id="Fill-24"></path>
                        <path d="M191.580044,0.924257377 C193.302629,0.924257377 194.701564,2.32637213 194.701564,4.05627377 C194.701564,5.78515902 193.302629,7.18727377 191.580044,7.18727377 C189.85594,7.18727377 188.458525,5.78515902 188.458525,4.05627377 C188.458525,2.32637213 189.85594,0.924257377 191.580044,0.924257377 L191.580044,0.558863934 C189.654862,0.558863934 188.094356,2.12461803 188.094356,4.05627377 C188.094356,5.98691311 189.654862,7.55317541 191.580044,7.55317541 C193.505226,7.55317541 195.064719,5.98691311 195.064719,4.05627377 C195.064719,2.12461803 193.505226,0.558863934 191.580044,0.558863934 L191.580044,0.924257377 Z" id="Fill-26"></path>
                        <path d="M190.861381,3.90493279 L190.861381,2.51247377 L191.643913,2.51247377 C192.312484,2.51247377 192.559147,2.75437541 192.559147,3.20870328 C192.559147,3.66303115 192.312484,3.90493279 191.643913,3.90493279 L190.861381,3.90493279 L190.861381,4.37908033 L191.635303,4.37908033 C191.652523,4.37908033 191.67177,4.37908033 191.689497,4.37857213 L192.592575,5.95042459 L193.215562,5.95042459 L192.272471,4.3053918 C192.788588,4.1666541 193.100082,3.77280164 193.100082,3.20870328 C193.100082,2.44488361 192.5789,2.03832623 191.635303,2.03832623 L190.279926,2.03832623 L190.279926,5.95042459 L190.861381,5.95042459 L190.861381,4.37908033 L190.861381,3.90493279 Z" id="Fill-28"></path>
                        <path d="M128.601274,54.2124443 C126.593027,55.4300836 123.426936,55.092641 121.465794,54.0157721 L121.971274,53.4155918 C125.005677,49.9949197 128.059832,46.5844115 131.468027,43.2110016 C132.075819,44.3818869 131.398638,46.1432967 130.890625,47.2775918 C130.983313,47.5113623 131.308988,47.5591328 131.449287,47.3716082 C132.567625,46.1321164 132.614729,43.9905754 132.053534,42.7241492 C133.405871,41.2945918 134.59917,39.9814115 135.88617,38.6895754 L136.192599,38.3053787 C135.585313,44.0683295 133.738131,50.7445098 128.601274,54.2124443 M120.882313,53.635641 C118.827469,52.183723 117.954781,49.5253459 118.467858,47.089559 C118.887742,44.981559 120.195508,42.747018 122.251365,41.7158869 C124.679495,40.4042311 129.369625,39.7628869 131.098287,42.6682475 L130.876443,42.9203131 C127.234248,46.4339852 124.431313,49.8866738 120.882313,53.635641 M139.622573,32.612559 C140.496274,33.2615262 138.365962,35.3283623 137.478586,36.265477 C137.806287,35.0000672 138.553871,32.6516902 139.622573,32.612559 M140.74243,32.2370016 C140.696339,31.9092148 140.370157,31.7216902 140.08956,31.6754443 C137.614326,32.0967393 137.17317,35.1652311 136.473196,37.0862148 L131.916781,41.889182 L131.666066,42.1702148 C129.627936,39.3243131 125.379975,39.4056246 122.577547,40.6715426 C120.056222,41.6549033 118.095079,44.2319689 117.674183,46.8562967 C117.0203,49.760641 118.202456,52.3661656 120.378858,54.1387557 C119.374482,55.4560016 117.305456,57.5883951 116.779209,58.2820836 L117.59517,58.3522148 L120.974495,54.5239689 C121.297638,54.8339689 122.950832,55.3828213 122.950832,55.3828213 C127.013923,56.4139525 130.935703,54.9142639 133.784729,52.1506902 C136.912832,48.9637885 137.32056,44.4200016 137.099729,39.9209361 C137.070352,39.3243131 137.137716,37.8053131 137.220781,37.6498049 C137.970391,36.2421 140.626443,34.7363131 140.74243,32.2370016" id="Fill-30"></path>
                        <path d="M175.758555,46.5544787 C177.099243,46.4513148 180.178723,44.8189869 180.672048,43.2283311 C180.672048,43.2283311 180.917697,42.5239705 180.287113,42.6804951 C180.298256,42.6784623 178.114762,43.3772328 176.22149,45.7901508 L175.758555,46.5544787 Z M161.687658,42.6992984 C161.696269,42.6967574 159.513282,43.3950197 157.621529,45.8089541 L157.157581,46.5727738 C158.497256,46.470118 161.577749,44.8377902 162.070568,43.2466262 C162.070568,43.2466262 162.316217,42.5427738 161.687658,42.6992984 L161.687658,42.6992984 Z M169.088542,42.4518066 C166.519606,44.1385115 164.720542,47.0022 163.465957,49.5253967 C163.091658,50.3344459 162.711282,51.2822328 163.344399,51.8692 C163.718697,52.150741 164.044879,51.8692 164.464256,51.6349213 C166.143282,50.3801836 170.317801,45.1711672 169.987061,42.7795934 C169.909061,42.3654131 169.505386,42.189577 169.088542,42.4518066 L169.088542,42.4518066 Z M189.260658,51.0728557 C189.026152,51.4987246 189.056035,51.9215443 189.429827,51.9215443 C190.596788,51.8270197 191.289165,50.6718885 192.183126,49.6336426 C192.323425,49.5868885 192.622256,49.6981836 192.622256,49.7916918 C191.832632,51.1114787 190.895113,52.3382656 189.447048,52.7595607 C188.748087,52.9003311 188.139788,52.5725443 187.8131,51.9632164 C187.009801,49.6864951 189.307256,47.3238885 190.801918,45.3093967 C191.363113,44.7473311 192.338113,43.6557246 192.245425,42.8588721 C191.732347,42.3903148 191.077957,42.9528885 190.610464,43.2339213 C187.342061,45.6234623 185.712165,49.5731672 183.377736,52.4785279 L180.990632,52.4785279 C182.250788,50.2470361 183.989074,47.8473311 185.343438,45.5512984 C185.810425,44.9419705 186.500775,43.8900033 186.500775,43.0931508 C186.221697,42.4843311 185.661009,42.9528885 185.333814,43.1404131 C183.160957,45.1152656 181.229191,47.5779869 179.065451,49.7937246 C179.065451,49.7937246 178.998087,49.8648721 178.979347,49.882659 L178.977321,49.880118 C177.295762,51.4641672 175.826425,53.3053639 173.586204,52.4317738 C173.071606,52.1974951 172.512944,51.6359377 172.419243,51.0261016 C172.417723,51.0215279 172.417723,51.0164459 172.415697,51.0113639 C171.553645,51.8112656 170.553321,52.6889213 169.367113,52.618282 C168.761853,52.5257902 168.067451,52.4317738 167.713918,51.4006426 C167.574632,50.8853311 167.506256,50.6373311 167.433827,49.8481016 C166.173165,51.0240689 164.494139,53.6534787 162.596814,52.4785279 C161.756035,51.7279213 161.592438,50.4396426 161.592438,49.3160197 L161.242957,49.6199213 C161.086957,49.732741 160.896516,49.880118 160.741022,50.004118 C159.046295,51.3599869 157.264451,53.3399213 154.98523,52.450577 C154.472152,52.2162984 153.910957,51.6537246 153.818269,51.0454131 C153.304684,49.2733311 154.583581,47.2634131 154.583581,47.2634131 L154.588139,47.255282 C153.958568,47.0103311 152.943555,46.4137082 152.511009,45.9913967 L152.277009,46.3405279 C150.78336,48.730577 149.289204,51.8224459 146.486269,52.7595607 C145.785788,52.9003311 145.179009,52.5725443 144.805217,52.150741 C144.178684,51.4291016 144.192866,50.6271672 144.069788,50.0417246 C142.762529,51.0261016 141.116425,53.4151344 139.248477,52.5725443 C138.687788,52.1974951 138.455308,51.5403967 138.455308,50.8853311 C138.546983,47.8869705 141.396516,46.012741 142.376581,43.341659 C142.469775,43.060118 142.353788,42.8085607 142.050905,42.7323311 C140.135347,42.9666098 138.647775,45.1584623 137.919438,46.1530033 C137.826243,46.1997574 137.520321,46.1530033 137.427126,46.0594951 C138.407697,44.1852656 140.460516,42.037118 142.563477,41.9359869 C143.259399,41.9009213 143.608879,42.2520852 143.684347,42.7795934 C144.104736,44.3605934 143.03097,45.5436754 142.424191,46.808577 C141.490217,48.4485279 139.738256,50.8009705 139.688619,51.7975443 C139.73623,52.0328393 139.949464,52.2442492 140.183464,52.2442492 C141.337762,52.1858066 142.951451,50.1271016 144.010529,48.823577 C145.460113,46.7623311 146.778516,44.2315115 148.039178,42.075741 C148.563905,42.037118 149.855464,42.0772656 150.199373,42.0528721 L149.661477,42.8792 C148.213918,45.643282 146.644295,48.1090525 145.665749,51.0809869 C145.371477,51.7975443 145.757931,52.2620361 146.300892,52.2213803 C148.035126,51.6765934 149.475594,49.9009541 150.268762,48.4017738 L151.623126,45.8719705 C151.623126,43.9037246 151.856619,41.8424787 153.537165,40.7645934 C154.051762,40.7183475 154.331853,41.2331508 154.192061,41.7484623 C154.144957,43.1073803 153.327983,44.3605934 152.858464,45.4501672 C153.504243,45.9929213 154.257399,46.3410361 154.988269,46.5961508 C156.271217,44.6741508 158.25971,42.2962984 161.382749,41.7205115 C161.943944,41.6737574 162.409918,41.8145279 162.737113,42.2830852 C163.35149,43.8625607 161.263723,45.4816754 159.911892,46.2302492 C159.065035,46.8156918 156.888632,47.3447246 156.880529,47.3823311 C156.809619,47.4529705 156.318321,48.2798066 156.013412,49.0304131 C155.639113,49.8262492 155.247594,51.306118 155.872606,51.8412492 C157.600762,52.450577 158.907516,50.6042984 160.215788,49.5253967 C162.924009,47.0438721 164.651152,42.9666098 168.434152,41.7952164 C169.084996,41.5207902 170.115204,41.2799049 170.674879,41.8892328 L170.89723,42.3466098 C172.667931,39.4346426 174.351516,36.2319869 176.046243,33.3149377 L178.071204,33.3622 L177.58649,34.2520525 L169.22884,49.7129213 C169.014087,50.2846426 168.761853,50.7445607 168.994334,51.3528721 C169.22884,51.8692 169.974905,51.9154459 170.395801,51.6349213 C171.304451,51.2121016 171.811451,50.6500361 172.313892,49.8150689 C172.420762,48.4495443 173.184555,47.2456262 173.184555,47.2456262 L173.533529,46.6596754 C174.814451,44.7239541 176.816619,42.2856262 179.984736,41.7027246 C180.543399,41.6554623 181.011399,41.7957246 181.338594,42.264282 C181.95297,43.8442656 179.865204,45.4633803 178.513373,46.2124623 C177.667022,46.7979049 175.490619,47.3259213 175.479983,47.3645443 C175.4111,47.4341672 174.919295,48.2610033 174.614386,49.0116098 C174.240594,49.8084623 173.849074,51.2883311 174.474594,51.8224459 C175.585334,52.5689869 177.117983,50.7415115 178.583775,49.3744623 C180.786009,47.1485607 182.636736,44.5293148 184.866827,42.6251016 C185.521217,42.1565443 186.314892,41.6874787 187.108061,41.9690197 C187.762957,42.4843311 187.626204,43.7634623 187.439308,44.6065607 L187.342061,44.8997902 C188.837736,43.6348885 190.937658,41.4537082 192.945905,41.7814951 C193.505581,42.2032984 193.505581,42.9996426 193.413905,43.6557246 C192.992503,46.3262984 190.568931,48.730577 189.260658,51.0728557 L189.260658,51.0728557 Z" id="Fill-32"></path>
                        <path d="M78.9629351,56.0864197 C77.6085714,58.5689607 76.0678182,61.0520098 74.0124675,63.2545344 C73.3585844,63.8176164 72.6064416,64.5072393 71.7190649,64.4609934 C71.2703117,64.4965672 70.7288701,64.2256984 70.6827792,63.7103869 C70.776987,61.3411738 72.8890649,59.3917311 74.8998442,57.9118623 C76.2562338,56.7643541 78.151026,55.568059 79.6705065,54.8636984 L78.9629351,56.0864197 Z M31.7212727,46.0048131 C31.5738831,46.1862393 30.8784675,45.2531902 30.2245844,45.6277311 C29.9986883,45.9910918 29.9601948,46.8418131 30.8333896,47.1792557 C30.8374416,47.2636164 30.1916623,48.4446656 29.8244545,48.9061082 C29.011026,50.0764852 28.0041169,51.2250098 26.8954026,51.8688951 C26.475013,52.0564197 25.8677273,52.1976984 25.541039,51.7281246 C25.3075455,51.4470918 25.541039,51.073059 25.541039,50.7442557 C26.9369351,47.8968295 28.8793377,45.1042885 31.0648571,42.6735836 C31.5156364,42.2695672 32.2044675,41.7822066 32.5453377,42.3112393 C33.2731688,42.8997311 32.8016234,44.4969934 31.7212727,46.0048131 L31.7212727,46.0048131 Z M15.8275065,35.5639115 C18.3498442,32.7993213 21.4318571,30.1287475 24.9803506,29.2856492 C25.6813377,29.2856492 26.5211039,29.2383869 26.8482987,29.9884852 C27.0118961,33.5255344 22.926013,35.2828787 20.4041818,37.1566 C18.1629481,38.4687639 15.4592857,39.6757311 12.7510649,39.7224852 C13.3932987,38.2405836 14.894039,36.9228295 15.8275065,35.5639115 L15.8275065,35.5639115 Z M90.0647662,47.1690918 L85.8269351,50.4637311 C85.3528571,50.7783049 84.1134675,51.7199934 83.5755714,52.072682 C84.9299351,49.3080918 87.2689221,45.3116328 88.7630779,42.641059 L89.0988831,42.0271574 C88.2793766,42.0017475 87.7374286,42.0530754 86.8140909,42.0139443 L83.8662987,47.1838295 C82.6051299,48.8237803 81.4442468,51.4857148 79.1564156,51.8135016 C78.8758182,51.7199934 78.7117143,51.4155836 78.8226364,51.073059 C79.8032078,48.5427475 82.4754675,46.6060098 82.7560649,43.7946656 C82.8482468,43.044059 82.7028831,42.207059 82.0550779,41.9199279 C79.6380909,41.2404689 77.2342727,45.1220754 75.7406234,46.9963049 C74.3396623,48.6840262 72.7984026,51.1187967 70.6042727,51.6346164 C70.2765714,51.4938459 70.2304805,51.1650426 70.2765714,50.8387803 C71.5716753,47.0024033 75.0168442,45.3624525 75.4934545,42.6395344 C75.3187143,40.5706656 73.0035325,42.1196492 72.3065974,41.4727148 C72.8282857,40.434977 74.0615974,39.5781574 74.0615974,38.2192393 C73.9678961,37.9387148 73.5951169,37.750682 73.2218312,37.8446984 C71.9140649,38.5942885 71.0727792,40.0934689 71.165974,41.7334197 C69.0184416,44.8263049 67.1515065,47.2127967 64.6732338,50.0414197 C63.8790519,50.6975016 63.0853766,51.5878623 62.0582078,51.4470918 C61.5917273,51.2595672 61.5917273,50.7442557 61.6378182,50.2756984 C61.7497532,47.9877967 64.2923506,44.9431902 66.2068961,41.6632885 C66.8896494,41.6632885 67.8818701,41.6841246 68.4537013,41.6754852 C68.5504416,41.4859279 68.6021039,41.3451574 68.7348052,40.9548623 C68.0236883,40.9579115 67.4979481,40.9579115 66.5898052,40.9553705 C67.2614156,39.7545016 69.0680779,36.8349115 69.6095195,35.6579279 C68.9551299,35.6111738 68.2511039,35.6045672 67.5217532,35.6513213 L64.2219481,40.9807803 C63.5341299,40.9924689 62.4988571,40.9833213 61.8935974,40.9802721 C61.8464935,41.1495016 61.6712468,41.3975016 61.5891948,41.6551574 L63.8253636,41.6516 L63.5042468,42.1730098 C61.1232208,45.8742066 60.2373636,48.4959934 56.5475584,51.4470918 C56.1276753,51.5878623 55.4469481,51.9156492 55.1668571,51.4003377 C55.0736623,51.1187967 55.0534026,50.7442557 55.2402987,50.5109934 C56.500961,48.355223 58.0427273,46.340223 58.6961039,43.9974361 C58.8156364,43.2280262 58.8364026,42.4047475 58.1354156,41.9361902 C56.0344805,41.1393377 54.4314286,43.4043705 53.0922597,44.3257311 C53.0097013,43.5095672 53.2791558,42.3579934 52.3451818,41.8421738 C51.7384026,41.561141 51.0105714,41.7674689 50.5709351,42.0764525 C47.3025325,44.5600098 45.9010649,48.1676984 42.8661558,50.9317803 C42.4452597,51.1187967 41.9782727,51.7281246 41.5578831,51.1650426 C42.3986623,47.8866656 44.4362857,45.2099934 46.0474416,42.1232066 C45.3935584,42.0764525 44.611026,42.1348951 43.9865195,42.1704689 C42.2117662,44.8877967 40.6244156,47.6523869 38.3360779,50.0881738 C37.7753896,50.7442557 36.9817143,51.6346164 36.0016494,51.6813705 C35.8142468,51.6813705 35.6739481,51.4470918 35.6739481,51.2128131 C36.889026,48.6362557 39.2700519,46.5745016 40.0171299,43.8104197 C40.1108312,43.2478459 40.1108312,42.4982557 39.5506494,42.1704689 C37.2420519,41.6963213 35.4237403,43.8409115 33.8242338,45.2287967 C33.3987792,45.5977475 33.2686104,45.7786656 32.8411299,45.8980918 C33.4924805,44.7388951 34.1331948,43.0603213 33.1526234,41.7486656 C32.4116234,40.8339115 30.0052727,42.1633541 29.1371429,42.8285836 C28.693961,43.0964033 28.231026,43.4917803 27.5487792,44.0446984 C23.7196883,48.0731738 19.7502987,52.6184852 14.0532597,52.7592557 C12.5125065,52.6662557 10.8780519,52.0101738 10.2241688,50.4637311 C9.3372987,47.0440754 10.4637403,43.6579607 12.2668571,40.7647967 C17.3095065,40.1554689 21.6648442,37.7191738 25.541039,34.3457639 C26.8954026,33.1743705 27.9686623,31.581682 27.7356753,29.7074525 C27.2220909,28.6763213 26.0546234,28.5355508 24.9803506,28.5823049 C18.6765325,29.6606984 12.7925974,34.2990098 9.3372987,39.9211902 C6.67516883,39.9679443 4.24703896,38.6562885 2.56598701,36.5010262 C1.49171429,35.0018459 1.72520779,32.4247803 2.56598701,30.8783377 C3.86514286,27.7417475 6.5525974,26.0215016 11.0183506,25.7699443 L10.9712468,25.4431738 C7.74893506,24.9746164 4.85432468,25.9122393 2.56598701,28.0675016 C1.02472727,29.8009607 0.277649351,32.0502393 0.55774026,34.4392721 C0.931532468,37.2506164 3.68635065,39.3591246 6.20818182,40.1087148 C7.04896104,40.4370098 8.01180519,40.6712885 8.91083117,40.7881738 C8.07055844,42.8026656 7.56254545,45.2155836 7.60964935,47.6523869 C7.84263636,49.7608951 8.63631169,52.137223 10.8780519,52.9787967 C15.8275065,54.5725016 20.1706883,51.9156492 23.9531818,49.3390918 C24.0625844,50.0764852 23.8133896,51.0263049 24.2332727,51.7758951 C24.6070649,52.478223 25.2609481,52.8060098 26.008026,52.8060098 C28.6301429,52.4080918 31.503987,47.3698295 31.8813247,47.1828131 C32.2758831,47.1223377 32.9773766,46.6298951 33.3997922,46.3361574 C35.3502987,44.9807967 36.2128571,43.6228951 38.1962857,42.8733049 C38.5224675,42.8733049 38.756974,43.2010918 38.6627662,43.5288787 C37.1215065,45.7781574 34.8336753,47.7469115 34.274,50.370223 C34.274,51.1650426 34.1802987,52.0101738 34.9734675,52.431977 C36.9817143,53.2278131 38.5695714,50.9500754 39.930013,49.6912721 C40.087026,50.6568459 39.6899351,51.8688951 40.671013,52.431977 C41.3243896,52.6662557 42.0714675,52.3521902 42.6792597,52.1168951 C45.7572208,49.6556984 47.3440649,45.9611082 50.3698571,43.144682 C50.3698571,43.144682 51.281039,42.3579934 51.5621429,42.8763541 C51.7824675,43.2808787 51.6214026,43.5903705 51.6214026,43.5903705 C50.2675455,46.5623049 48.2476494,49.362977 46.835039,52.3247475 C47.5588182,52.4365508 48.434039,52.385223 49.169974,52.3501574 C50.5238312,50.1013869 51.7384026,47.6523869 53.5121429,45.5906328 C54.4937273,44.5132557 55.4742987,43.1543377 56.8747532,42.7792885 C57.1320519,42.806223 57.2196753,42.9469934 57.1553506,43.1543377 C55.9407792,45.4971246 54.0262338,47.606141 53.6524416,50.3234689 C53.6063506,51.1187967 53.8859351,51.9156492 54.4937273,52.2906984 C56.8747532,53.3213213 58.416013,50.5109934 59.8640779,49.3390918 C60.049961,50.416977 60.4237532,51.6346164 61.498026,52.1976984 C63.7863636,52.7125016 65.4208182,50.2294525 66.7275714,48.7770262 C68.596026,46.5277475 69.8465584,44.5528951 71.7995974,42.0922066 C72.302039,42.0896656 73.4953377,42.0490098 73.4026494,42.7645508 C72.3861169,45.5560754 68.1077662,47.6523869 68.8082468,51.0263049 C69.0417403,51.6346164 69.4828961,52.3384689 70.1828701,52.431977 C72.3977662,52.5646164 74.5731558,49.5733705 76.0678182,47.699141 C77.4682727,46.0124361 79.317987,42.8809279 80.9808052,42.8102885 C81.2614026,42.8570426 81.4412078,43.0171246 81.4017013,43.3256 C81.350039,43.4389279 81.343961,43.5517475 81.2862208,43.6635508 C80.0888701,46.0078623 77.5807143,48.102141 77.0007792,50.6512557 C76.860987,51.5939607 77.094987,52.2906984 77.8886623,52.6184852 C79.2729091,52.9401738 80.3167922,52.1976984 81.3905584,51.8688951 C81.0507013,52.5407311 80.606,53.057059 80.1764935,53.7431246 C76.4405974,56.0396656 70.970974,58.9231738 70.0592857,62.9353869 C70.0126883,63.6387311 69.995974,64.2384033 70.4168701,64.7069607 C70.9770519,65.2222721 71.7894675,65.188223 72.5649091,64.9890098 C77.6546623,63.1615344 80.409987,57.5850918 82.9313117,53.3213213 C85.4536494,51.5878623 87.8939351,49.5601574 90.3686623,47.5573541 L90.3104156,47.3718623 L90.0647662,47.1690918 Z" id="Fill-34"></path>
                        <path d="M118.740453,35.0955066 C118.413765,36.6881951 117.160194,37.9536049 116.134038,39.2657689 C115.199051,40.3899 113.330596,41.8331787 112.011687,42.3657689 C113.13357,39.7887033 115.713142,36.5479328 118.234973,34.8612279 C118.536843,34.7280803 118.773375,34.8159984 118.740453,35.0955066 M109.697012,49.2289656 C109.765895,49.6334902 109.883908,49.8997852 109.013245,49.7747689 L108.170947,49.6157033 C108.275791,49.3351787 108.551323,48.6770639 108.802038,48.3314902 C108.98944,48.0255557 109.108973,48.2532279 109.246739,48.3772279 C109.385012,48.5022443 109.574947,48.7543098 109.697012,49.2289656 M107.653817,57.912523 C106.806453,60.1440148 105.814232,62.3165557 103.712284,63.768982 C103.291388,64.004277 102.870999,63.6297361 102.824401,63.2546869 C102.869986,60.6649164 104.091648,58.5045721 105.091973,56.132818 C105.902869,54.2123426 106.62057,52.4260311 107.7617,50.498441 L109.488843,50.7327197 C109.316129,53.2914902 108.492064,55.7130475 107.653817,57.912523 M104.020739,45.3905557 C103.927038,45.3377033 103.856129,45.2416541 103.771038,45.2091295 C103.503103,45.0531131 103.231116,44.9326705 102.810726,45.0388836 C102.401986,45.1268016 102.027181,46.065441 103.359258,46.6112443 C103.186038,47.1016541 102.601038,47.9691459 101.844336,48.9636869 C100.961518,50.1228836 99.6957909,51.9158016 98.0618429,51.9630639 C97.6414532,51.8222934 97.2205571,51.4004902 97.3613623,50.8389328 C98.5252844,47.4746705 101.213245,43.0985885 104.081012,41.6822443 C104.351986,41.6156705 104.602194,41.5973754 104.798206,41.6695393 C105.970232,42.097441 104.349453,44.9946705 104.020739,45.3905557 M118.562168,33.9241131 C114.359284,35.610818 111.510258,40.2023754 109.082635,43.856818 C108.194245,44.3721295 106.582583,45.3854738 105.329012,45.9206049 C104.957245,46.0014082 104.754648,46.0700148 104.707038,45.8362443 C105.144142,44.6399492 107.276986,41.6695393 105.090453,40.973818 C104.264869,40.9072443 103.210349,41.2970311 102.47644,41.7391623 C102.4577,41.7472934 102.439466,41.7539 102.420726,41.7635557 C98.1413623,43.9421951 95.3065182,49.0719328 91.4303234,52.009818 L91.1340247,52.2146213 L91.4384273,52.5866213 L92.2974403,51.9772934 C93.0293234,51.521441 94.2828948,49.994818 95.7729987,48.9636869 C95.8667,50.1823426 95.5866091,51.681523 96.7540766,52.4783754 C97.6014403,52.8325885 97.6282844,52.9479492 98.6220247,52.7126541 C101.610336,51.3059656 102.490116,49.3844738 104.263856,46.8079164 C105.19783,47.0421951 107.732323,45.4866049 108.223622,45.1110475 L105.066142,51.4472443 C103.362804,55.2246705 100.676869,59.5880475 101.097258,63.1616869 C101.236544,63.7232443 101.750129,64.2853098 102.31183,64.5668508 C104.178765,65.1761787 105.580739,63.3024574 106.559791,62.0360311 C108.673895,58.7098836 109.875804,54.8674082 110.389388,50.8389328 L110.463843,50.5579 C112.052206,50.0415721 114.044245,49.0175557 114.891103,47.183982 L114.398791,47.1372279 C113.635505,47.9920148 112.817518,48.8239328 111.789843,49.198982 C111.09544,49.4561295 110.732284,49.7051459 110.623388,49.1044574 C110.584895,48.3386049 109.911258,47.7048836 109.57596,47.2185393 C109.536453,47.0681131 109.66409,46.8394246 109.688401,46.6686705 C110.041427,45.5790967 110.65631,44.7593754 111.239284,43.8674902 C112.596687,42.8353426 115.295791,41.5521459 116.881622,39.6403098 C118.084544,38.1873754 119.384206,36.600277 119.682025,34.4861787 C119.677466,33.8483918 119.074739,33.8306049 118.562168,33.9241131" id="Fill-37"></path>
                    </g>
                </g>
            </g>
        </g>
    </g>
</svg>