<?xml version="1.0" encoding="UTF-8"?>
<svg width="150px" height="81px" viewBox="0 0 150 81" version="1.1" xmlns="http://www.w3.org/2000/svg" xmlns:xlink="http://www.w3.org/1999/xlink">
    <!-- Generator: Sketch 41 (35326) - http://www.bohemiancoding.com/sketch -->
    <title>Page 1</title>
    <desc>Created with Sketch.</desc>
    <defs></defs>
    <g id="Page-1" stroke="none" stroke-width="1" fill="none" fill-rule="evenodd">
        <g id="1170---BoardVantage" transform="translate(-803.000000, -2399.000000)" fill="#1D1C1B">
            <g id="Page-1" transform="translate(803.000000, 2399.000000)">
                <path d="M4.30772761,5.5021774 L0.317442431,4.88121511 L8.90191895e-05,4.88121511 L8.90191895e-05,1.82597438 L21.5129115,1.82597438 L21.5129115,4.88121511 L20.9151477,4.88121511 C18.448871,4.57847939 17.2212964,5.5021774 17.2212964,7.93601324 L17.2212964,9.46739567 L26.4410139,56.5529794 L31.9766722,25.6717233 L28.9064003,10.0830468 C28.287717,6.11030441 26.7579222,4.57847939 23.9845293,4.88121511 L23.6671759,4.88121511 L23.6671759,1.82597438 L44.5724424,1.82597438 L44.5724424,4.88121511 L44.2760085,4.88121511 C40.8946146,4.57847939 39.3541375,5.80447052 39.3541375,8.55653294 L48.5787511,56.24449 L49.1871972,56.24449 L57.4966935,10.9992207 L57.4966935,9.16510254 C57.4966935,5.80447052 55.9508753,4.57847939 52.5743774,4.88121511 L51.6534739,4.88121511 L51.6534739,1.82597438 L69.7742201,1.82597438 L69.7742201,4.88121511 L68.8639989,4.88121511 L64.5568054,5.5021774 L61.7936498,11.6064625 L47.3453902,79.7768808 L43.0479888,79.7768808 L34.1309366,35.1419516 L24.9005368,79.7768808 L20.290678,79.7768808 L6.45576066,10.0830468 L4.30772761,5.5021774 Z" id="Fill-1"></path>
                <path d="M101.751604,0.910243094 L101.751604,27.8076919 L98.9888939,27.8076919 L98.9888939,26.8919607 C98.9888939,11.6095607 94.6919376,3.9681394 86.0855624,3.9681394 C80.2427878,3.66540368 77.1734062,6.72020181 77.4698401,13.4463344 C77.4698401,16.8144906 78.3956397,20.1720244 80.549459,23.2268225 L89.7691764,31.483895 L101.143158,42.7962081 C104.217881,47.3739794 105.753017,53.1839381 105.753017,59.6024664 C105.753017,72.446162 99.6084675,78.8642477 87.6153571,78.8642477 C83.0054984,78.8642477 78.3956397,77.3324227 73.7866711,73.9691351 L71.9341818,78.5668231 L69.7799174,78.5668231 L69.7799174,51.3529181 L72.2466391,51.3529181 L72.2466391,52.269092 C72.2466391,60.5186403 74.0826599,66.6357607 77.4698401,70.9147796 C80.2427878,73.9691351 83.3077186,75.5014027 86.6940085,75.5014027 C93.7701439,75.5014027 97.4542031,71.5304307 97.4542031,63.2680471 C97.4542031,55.631937 92.8390032,48.2905958 83.6197308,41.2643831 C74.0826599,34.2310888 69.1710261,26.5892249 69.1710261,17.7244681 C68.8639099,12.2168025 70.7168443,7.93866881 74.0826599,4.88387068 C76.8560528,1.52058309 80.549459,0.000265557646 85.1544216,0.000265557646 C89.7691764,0.000265557646 93.7701439,1.52058309 97.7613193,4.88387068 L99.9097974,0.910243094 L101.751604,0.910243094 Z" id="Fill-3"></path>
                <path d="M123.281385,60.5206762 C123.281385,65.1024308 121.132017,67.5491019 116.517707,67.8562636 L118.660844,73.6666649 C120.195535,75.4981275 122.349354,76.4138588 124.815631,76.4138588 L130.346393,73.9671877 L131.88687,65.4157888 L131.88687,9.46766122 C131.573968,6.41551867 130.346393,4.88679182 127.588579,4.88679182 L125.429863,4.88679182 L125.429863,1.82623994 L149.09784,1.82623994 L149.09784,4.88679182 L146.948917,4.88679182 C144.186207,4.88679182 142.641279,6.41551867 142.958632,9.46766122 L142.958632,63.2705257 C142.641279,74.2805457 136.798059,79.7771464 125.429863,80.0905044 C121.428896,79.7771464 118.041271,78.5639905 115.892792,75.8035188 C112.516295,72.4406738 110.981604,68.4648332 110.981604,63.2705257 L113.442539,57.1578312 L117.438611,55.0187644 C120.814663,55.0187644 122.968928,56.8533251 123.281385,60.5206762" id="Fill-5"></path>
            </g>
        </g>
    </g>
</svg>