<?xml version="1.0" encoding="UTF-8"?>
<svg width="417px" height="236px" viewBox="0 0 417 236" version="1.1" xmlns="http://www.w3.org/2000/svg" xmlns:xlink="http://www.w3.org/1999/xlink">
    <!-- Generator: Sketch 41.2 (35397) - http://www.bohemiancoding.com/sketch -->
    <title>Group</title>
    <desc>Created with Sketch.</desc>
    <defs></defs>
    <g id="Page-1" stroke="none" stroke-width="1" fill="none" fill-rule="evenodd">
        <g id="1170---Adidas" transform="translate(-672.000000, -429.000000)">
            <g id="Group" transform="translate(672.000000, 429.000000)">
                <path d="M22.1689952,193 L13.0569952,170.322 L9.55499519,170.322 L0.408995193,193 L3.63899519,193 L5.64499519,187.934 L16.9329952,187.934 L18.9389952,193 L22.1689952,193 Z M16.1169952,185.452 L6.49499519,185.452 L11.2889952,173.212 L16.1169952,185.452 Z M45.0339959,193 C52.1059959,193 56.6619959,188.138 56.6619959,181.678 C56.6619959,175.252 52.1059959,170.322 45.0339959,170.322 L37.2819959,170.322 L37.2819959,193 L45.0339959,193 Z M45.0339959,190.484 L40.1039959,190.484 L40.1039959,172.838 L45.0339959,172.838 C50.6439959,172.838 53.7379959,176.782 53.7379959,181.678 C53.7379959,186.54 50.5419959,190.484 45.0339959,190.484 Z M76.0589966,193 L76.0589966,170.322 L73.2369966,170.322 L73.2369966,193 L76.0589966,193 Z M101.269997,193 C108.341997,193 112.897997,188.138 112.897997,181.678 C112.897997,175.252 108.341997,170.322 101.269997,170.322 L93.5179973,170.322 L93.5179973,193 L101.269997,193 Z M101.269997,190.484 L96.3399973,190.484 L96.3399973,172.838 L101.269997,172.838 C106.879997,172.838 109.973997,176.782 109.973997,181.678 C109.973997,186.54 106.777997,190.484 101.269997,190.484 Z M147.628998,193 L138.516998,170.322 L135.014998,170.322 L125.868998,193 L129.098998,193 L131.104998,187.934 L142.392998,187.934 L144.398998,193 L147.628998,193 Z M141.576998,185.452 L131.954998,185.452 L136.748998,173.212 L141.576998,185.452 Z M169.609999,193.408 C175.729999,193.408 177.973999,190.008 177.973999,186.744 C177.973999,178.278 164.543999,181.202 164.543999,176.102 C164.543999,173.96 166.515999,172.498 169.201999,172.498 C171.683999,172.498 174.063999,173.314 175.763999,175.218 L177.463999,173.144 C175.559999,171.138 172.873999,169.948 169.439999,169.948 C164.951999,169.948 161.619999,172.532 161.619999,176.272 C161.619999,184.364 175.049999,181.1 175.049999,186.948 C175.049999,188.716 173.757999,190.892 169.711999,190.892 C166.515999,190.892 164.067999,189.328 162.605999,187.628 L160.905999,189.804 C162.775999,191.912 165.699999,193.408 169.609999,193.408 Z M223.738,193 L223.738,172.838 L230.946,172.838 L230.946,170.322 L213.742,170.322 L213.742,172.838 L220.916,172.838 L220.916,193 L223.738,193 Z M261.699001,193 L261.699001,190.484 L249.663001,190.484 L249.663001,182.664 L261.461001,182.664 L261.461001,180.148 L249.663001,180.148 L249.663001,172.838 L261.699001,172.838 L261.699001,170.322 L246.841001,170.322 L246.841001,193 L261.699001,193 Z M289.086001,193.408 C293.098001,193.408 295.818001,191.504 297.722001,188.886 L295.342001,187.594 C294.050001,189.498 291.670001,190.892 289.086001,190.892 C284.122001,190.892 280.348001,187.05 280.348001,181.678 C280.348001,176.238 284.122001,172.464 289.086001,172.464 C291.670001,172.464 294.050001,173.824 295.342001,175.762 L297.688001,174.436 C295.886001,171.852 293.098001,169.948 289.086001,169.948 C282.558001,169.948 277.424001,174.708 277.424001,181.678 C277.424001,188.648 282.558001,193.408 289.086001,193.408 Z M332.385002,193 L332.385002,170.322 L329.563002,170.322 L329.563002,180.08 L316.303002,180.08 L316.303002,170.322 L313.481002,170.322 L313.481002,193 L316.303002,193 L316.303002,182.596 L329.563002,182.596 L329.563002,193 L332.385002,193 Z M352.666003,193 L352.666003,182.664 L364.464003,182.664 L364.464003,180.148 L352.666003,180.148 L352.666003,172.838 L364.702003,172.838 L364.702003,170.322 L349.844003,170.322 L349.844003,193 L352.666003,193 Z M383.555003,193 L383.555003,170.322 L380.733003,170.322 L380.733003,193 L383.555003,193 Z M409.446004,193 L409.446004,172.838 L416.654004,172.838 L416.654004,170.322 L399.450004,170.322 L399.450004,172.838 L406.624004,172.838 L406.624004,193 L409.446004,193 Z" id="ADIDAS-TECHFIT" fill="#FFFFFF"></path>
                <path d="M76.5170005,234 C79.0130005,234 80.6210005,232.284 80.6210005,230.004 C80.6210005,227.736 79.0130005,225.996 76.5170005,225.996 L73.7810005,225.996 L73.7810005,234 L76.5170005,234 Z M76.5170005,233.112 L74.7770005,233.112 L74.7770005,226.884 L76.5170005,226.884 C78.4970005,226.884 79.5890005,228.276 79.5890005,230.004 C79.5890005,231.72 78.4610005,233.112 76.5170005,233.112 Z M90.1190004,234.144 C92.4830004,234.144 94.1030004,232.368 94.1030004,230.004 C94.1030004,227.64 92.4830004,225.864 90.1190004,225.864 C87.7550004,225.864 86.1470004,227.64 86.1470004,230.004 C86.1470004,232.368 87.7550004,234.144 90.1190004,234.144 Z M90.1190004,233.256 C88.3190004,233.256 87.1790004,231.864 87.1790004,230.004 C87.1790004,228.132 88.3190004,226.752 90.1190004,226.752 C91.9070004,226.752 93.0710004,228.132 93.0710004,230.004 C93.0710004,231.864 91.9070004,233.256 90.1190004,233.256 Z M106.565,234 L106.565,225.996 L105.569,225.996 L105.569,232.248 L100.961,225.996 L99.9410004,225.996 L99.9410004,234 L100.937,234 L100.937,227.616 L105.605,234 L106.565,234 Z M113.903,226.788 C113.903,226.2 113.555,225.876 113.147,225.876 C112.787,225.876 112.511,226.176 112.511,226.524 C112.511,226.872 112.763,227.136 113.087,227.136 C113.147,227.136 113.231,227.124 113.255,227.112 C113.207,227.496 112.859,227.976 112.475,228.228 L112.931,228.6 C113.483,228.204 113.903,227.52 113.903,226.788 Z M122.753,234 L122.753,226.884 L125.297,226.884 L125.297,225.996 L119.225,225.996 L119.225,226.884 L121.757,226.884 L121.757,234 L122.753,234 Z M139.301,234 L139.301,230.82 L141.521,230.82 C143.117,230.82 144.029,229.716 144.029,228.408 C144.029,227.1 143.129,225.996 141.521,225.996 L138.305,225.996 L138.305,234 L139.301,234 Z M141.401,229.932 L139.301,229.932 L139.301,226.884 L141.401,226.884 C142.349,226.884 142.997,227.508 142.997,228.408 C142.997,229.308 142.349,229.932 141.401,229.932 Z M154.883,234 L154.883,233.112 L150.635,233.112 L150.635,230.352 L154.799,230.352 L154.799,229.464 L150.635,229.464 L150.635,226.884 L154.883,226.884 L154.883,225.996 L149.639,225.996 L149.639,234 L154.883,234 Z M166.565,234 L164.405,230.736 C165.497,230.64 166.493,229.848 166.493,228.408 C166.493,226.932 165.437,225.996 163.973,225.996 L160.757,225.996 L160.757,234 L161.753,234 L161.753,230.82 L163.361,230.82 L165.389,234 L166.565,234 Z M163.853,229.944 L161.753,229.944 L161.753,226.884 L163.853,226.884 C164.801,226.884 165.461,227.496 165.461,228.408 C165.461,229.308 164.801,229.944 163.853,229.944 Z M173.351,234 L173.351,230.352 L177.515,230.352 L177.515,229.464 L173.351,229.464 L173.351,226.884 L177.599,226.884 L177.599,225.996 L172.355,225.996 L172.355,234 L173.351,234 Z M186.905,234.144 C189.269,234.144 190.889,232.368 190.889,230.004 C190.889,227.64 189.269,225.864 186.905,225.864 C184.541,225.864 182.933,227.64 182.933,230.004 C182.933,232.368 184.541,234.144 186.905,234.144 Z M186.905,233.256 C185.105,233.256 183.965,231.864 183.965,230.004 C183.965,228.132 185.105,226.752 186.905,226.752 C188.693,226.752 189.857,228.132 189.857,230.004 C189.857,231.864 188.693,233.256 186.905,233.256 Z M202.535,234 L200.375,230.736 C201.467,230.64 202.463,229.848 202.463,228.408 C202.463,226.932 201.407,225.996 199.943,225.996 L196.727,225.996 L196.727,234 L197.723,234 L197.723,230.82 L199.331,230.82 L201.359,234 L202.535,234 Z M199.823,229.944 L197.723,229.944 L197.723,226.884 L199.823,226.884 C200.771,226.884 201.431,227.496 201.431,228.408 C201.431,229.308 200.771,229.944 199.823,229.944 Z M216.161,234 L216.161,225.996 L214.733,225.996 L212.249,232.164 L209.753,225.996 L208.325,225.996 L208.325,234 L209.321,234 L209.321,227.268 L212.045,234 L212.453,234 L215.165,227.268 L215.165,234 L216.161,234 Z M223.499,233.712 C223.499,233.136 223.151,232.8 222.743,232.8 C222.383,232.8 222.107,233.1 222.107,233.448 C222.107,233.796 222.359,234.06 222.683,234.06 C222.743,234.06 222.827,234.048 222.851,234.036 C222.803,234.432 222.455,234.9 222.071,235.152 L222.527,235.524 C223.079,235.128 223.499,234.444 223.499,233.712 Z M240.419,234.144 C242.783,234.144 244.403,232.368 244.403,230.004 C244.403,227.64 242.783,225.864 240.419,225.864 C238.055,225.864 236.447,227.64 236.447,230.004 C236.447,232.368 238.055,234.144 240.419,234.144 Z M240.419,233.256 C238.619,233.256 237.479,231.864 237.479,230.004 C237.479,228.132 238.619,226.752 240.419,226.752 C242.207,226.752 243.371,228.132 243.371,230.004 C243.371,231.864 242.207,233.256 240.419,233.256 Z M253.505,234.144 C255.677,234.144 256.781,232.872 256.781,230.88 L256.781,225.996 L255.773,225.996 L255.773,230.868 C255.773,232.332 254.981,233.256 253.505,233.256 C252.029,233.256 251.249,232.332 251.249,230.868 L251.249,225.996 L250.241,225.996 L250.241,230.892 C250.241,232.86 251.345,234.144 253.505,234.144 Z M265.919,234 L265.919,226.884 L268.463,226.884 L268.463,225.996 L262.391,225.996 L262.391,226.884 L264.923,226.884 L264.923,234 L265.919,234 Z M275.069,234 L275.069,230.82 L277.289,230.82 C278.885,230.82 279.797,229.716 279.797,228.408 C279.797,227.1 278.897,225.996 277.289,225.996 L274.073,225.996 L274.073,234 L275.069,234 Z M277.169,229.932 L275.069,229.932 L275.069,226.884 L277.169,226.884 C278.117,226.884 278.765,227.508 278.765,228.408 C278.765,229.308 278.117,229.932 277.169,229.932 Z M290.651,234 L290.651,233.112 L286.403,233.112 L286.403,230.352 L290.567,230.352 L290.567,229.464 L286.403,229.464 L286.403,226.884 L290.651,226.884 L290.651,225.996 L285.407,225.996 L285.407,234 L290.651,234 Z M302.333,234 L300.173,230.736 C301.265,230.64 302.261,229.848 302.261,228.408 C302.261,226.932 301.205,225.996 299.741,225.996 L296.525,225.996 L296.525,234 L297.521,234 L297.521,230.82 L299.129,230.82 L301.157,234 L302.333,234 Z M299.621,229.944 L297.521,229.944 L297.521,226.884 L299.621,226.884 C300.569,226.884 301.229,227.496 301.229,228.408 C301.229,229.308 300.569,229.944 299.621,229.944 Z M309.119,234 L309.119,230.352 L313.283,230.352 L313.283,229.464 L309.119,229.464 L309.119,226.884 L313.367,226.884 L313.367,225.996 L308.123,225.996 L308.123,234 L309.119,234 Z M322.673,234.144 C325.037,234.144 326.657,232.368 326.657,230.004 C326.657,227.64 325.037,225.864 322.673,225.864 C320.309,225.864 318.701,227.64 318.701,230.004 C318.701,232.368 320.309,234.144 322.673,234.144 Z M322.673,233.256 C320.873,233.256 319.733,231.864 319.733,230.004 C319.733,228.132 320.873,226.752 322.673,226.752 C324.461,226.752 325.625,228.132 325.625,230.004 C325.625,231.864 324.461,233.256 322.673,233.256 Z M338.303,234 L336.143,230.736 C337.235,230.64 338.231,229.848 338.231,228.408 C338.231,226.932 337.175,225.996 335.711,225.996 L332.495,225.996 L332.495,234 L333.491,234 L333.491,230.82 L335.099,230.82 L337.127,234 L338.303,234 Z M335.591,229.944 L333.491,229.944 L333.491,226.884 L335.591,226.884 C336.539,226.884 337.199,227.496 337.199,228.408 C337.199,229.308 336.539,229.944 335.591,229.944 Z M351.929,234 L351.929,225.996 L350.501,225.996 L348.017,232.164 L345.521,225.996 L344.093,225.996 L344.093,234 L345.089,234 L345.089,227.268 L347.813,234 L348.221,234 L350.933,227.268 L350.933,234 L351.929,234 Z" id="DON’T-PERFORM,-OUTPE" fill="#FFFFFF"></path>
                <path d="M270.770125,63.6604383 C271.056451,63.1512108 271.453173,62.7528395 271.960884,62.4647317 C272.467414,62.1997437 272.995788,62.0444263 273.524752,62.0444263 L273.546595,62.0444263 C274.076149,62.0444263 274.604523,62.1997437 275.111643,62.4647317 C275.618764,62.7528395 276.015487,63.1512108 276.301222,63.6604383 C276.587547,64.1690731 276.720378,64.6996419 276.720378,65.2758575 C276.720378,65.8283605 276.587547,66.3595222 276.301222,66.8687497 C276.03674,67.3548575 275.640607,67.7544144 275.134077,68.0413365 C274.626366,68.3288515 274.097993,68.4616419 273.546595,68.4616419 L273.524752,68.4616419 C272.973945,68.4616419 272.444981,68.3288515 271.938451,68.0413365 C271.43133,67.7544144 271.034607,67.3548575 270.770125,66.8687497 C270.4838,66.3595222 270.329716,65.8283605 270.329716,65.2758575 C270.329716,64.6996419 270.4838,64.1690731 270.770125,63.6604383 Z M271.629101,68.5950251 C272.24721,68.9489353 272.864137,69.1042527 273.524752,69.1042527 L273.546595,69.1042527 C274.2078,69.1042527 274.824728,68.9489353 275.441655,68.5950251 C276.059173,68.2624563 276.522017,67.7982826 276.852619,67.1787916 C277.204475,66.5593006 277.359149,65.9172826 277.359149,65.2758575 C277.359149,64.5893784 277.204475,63.9473605 276.852619,63.3278695 C276.522017,62.7083784 276.03674,62.2442048 275.419812,61.9116359 C274.802884,61.5796599 274.185957,61.4024084 273.546595,61.4024084 L273.524752,61.4024084 C272.88539,61.4249353 272.268463,61.5796599 271.651535,61.9116359 C271.034607,62.2442048 270.571173,62.7083784 270.219318,63.3278695 C269.866872,63.9473605 269.712788,64.5893784 269.712788,65.2758575 C269.712788,65.9172826 269.866872,66.5593006 270.219318,67.1787916 C270.54992,67.7982826 271.012173,68.2624563 271.629101,68.5950251 Z" id="Fill-1" fill="#FEFEFE"></path>
                <path d="M272.510629,63.8146886 L273.282231,63.8146886 L273.52487,63.8146886 C273.723231,63.8372156 273.855472,63.8591497 273.943436,63.8810838 C274.075677,63.9255449 274.163641,63.9919401 274.230352,64.1022036 C274.295882,64.1905329 274.318316,64.3013892 274.318316,64.4341796 C274.318316,64.6114311 274.252195,64.7661557 274.120545,64.877012 C274.010147,64.9878683 273.811195,65.0323293 273.52487,65.0536707 L273.326508,65.0536707 L272.510629,65.0536707 L272.510629,63.8146886 Z M272.510629,65.6292934 L272.907942,65.6292934 C273.14999,65.6292934 273.326508,65.6737545 273.436316,65.7846108 C273.481183,65.8065449 273.503617,65.8278862 273.52487,65.8504132 C273.701388,66.0057305 273.899159,66.3157725 274.141798,66.735485 L274.516677,67.3994371 L275.309533,67.3994371 L274.824846,66.5813533 C274.582798,66.2043234 274.362593,65.9174012 274.207918,65.7620838 C274.120545,65.6737545 274.010147,65.6067665 273.855472,65.5403713 C274.207918,65.5190299 274.494243,65.3862395 274.714448,65.1639341 C274.934653,64.9428144 275.045051,64.6778263 275.045051,64.3683772 C275.045051,64.1472575 274.97952,63.947479 274.84728,63.7708204 C274.714448,63.5710419 274.53852,63.4382515 274.318316,63.3724491 C274.141798,63.3054611 273.876725,63.2615928 273.52487,63.2615928 C273.458749,63.2615928 273.370786,63.2396587 273.282231,63.2396587 L271.849424,63.2396587 L271.849424,67.3994371 L272.510629,67.3994371 L272.510629,65.6292934 Z" id="Fill-3" fill="#FEFEFE"></path>
                <polygon id="Fill-5" fill="#FEFEFE" points="173.541492 64.2798701 179.490564 64.2798701 173.541492 54.3217743 168.516335 45.9346365 147.162371 58.8141216 150.423528 64.2798701"></polygon>
                <polygon id="Fill-7" fill="#FEFEFE" points="228.898858 64.2798701 239.873677 64.2798701 257.965894 64.2798701 239.873677 34.0066186 219.863376 0.592636527 211.62134 5.57109162 198.531255 13.4715287 211.62134 35.3564569"></polygon>
                <path d="M218.739328,86.6745593 C218.100557,89.9937269 215.169412,92.5380862 211.688051,92.5380862 L211.62134,92.5380862 C207.677135,92.494218 204.482099,89.2627868 204.482099,85.3016012 C204.482099,81.3410084 207.677135,78.1101701 211.62134,78.0882359 L211.688051,78.0882359 C215.169412,78.0882359 218.100557,80.6106611 218.739328,83.9298287 L218.739328,86.6745593 Z M218.739328,74.2598407 C216.689593,72.9319365 214.288002,72.157721 211.688051,72.157721 L211.62134,72.157721 C204.437822,72.2015892 198.597376,78.0882359 198.597376,85.3016012 C198.597376,92.5161521 204.437822,98.402206 211.62134,98.4466671 L211.688051,98.4466671 C214.288002,98.4466671 216.689593,97.6724515 218.739328,96.3439545 L218.739328,97.7169126 L224.755701,97.7169126 L224.755701,85.3016012 L224.755701,64.2798108 L218.739328,64.2798108 L218.739328,74.2598407 Z" id="Fill-10" fill="#FEFEFE"></path>
                <path d="M246.991901,86.6745593 C246.35254,89.9937269 243.421395,92.5380862 239.939443,92.5380862 L239.873323,92.5380862 C235.928528,92.494218 232.734082,89.2627868 232.734082,85.3016012 C232.734082,81.3410084 235.928528,78.1101701 239.873323,78.0882359 L239.939443,78.0882359 C243.421395,78.0882359 246.35254,80.6106611 246.991901,83.9298287 L246.991901,86.6745593 Z M246.991901,74.2598407 C244.96401,72.9319365 242.539986,72.157721 239.939443,72.157721 L239.873323,72.157721 C232.689214,72.2015892 226.849359,78.0882359 226.849359,85.3016012 C226.849359,92.5161521 232.689214,98.402206 239.873323,98.4466671 L239.939443,98.4466671 C242.539986,98.4466671 244.96401,97.6724515 246.991901,96.3439545 L246.991901,97.7169126 L253.007094,97.7169126 L253.007094,85.3016012 L253.007094,72.8210802 L246.991901,72.8210802 L246.991901,74.2598407 Z" id="Fill-12" fill="#FEFEFE"></path>
                <path d="M274.40622,83.6647222 C274.186016,83.5544587 273.877257,83.4436024 273.524811,83.3102192 C272.180558,82.8460455 269.998582,82.2704228 266.95763,81.6058778 C264.290967,81.0095066 262.946714,80.2346982 262.946714,79.2607042 C262.946714,78.574818 263.189353,78.0211293 263.651606,77.6239437 C264.269714,77.0921892 265.370148,76.8272012 266.95763,76.8272012 C268.566365,76.8272012 269.7341,77.1805186 270.417739,77.8669976 C270.835714,78.2878958 271.145064,79.0389916 271.343425,80.101315 L273.524811,80.101315 L277.734088,80.101315 C277.734088,76.9599916 276.455955,74.7025545 273.943377,73.3301892 C273.811136,73.2418599 273.679486,73.1754647 273.524811,73.1090695 C271.783835,72.2909856 269.469618,71.8700874 266.582751,71.8700874 C263.079546,71.8700874 260.434727,72.7996204 258.671907,74.6806204 C257.261534,76.1851832 256.577895,78.0211293 256.577895,80.1902371 C256.577895,82.8899138 257.900305,84.8379018 260.588811,86.098818 C261.602461,86.5855186 264.070763,87.2719976 267.993714,88.1126084 C270.6161,88.6882311 271.937919,89.5069078 271.937919,90.5467042 C271.937919,91.1661952 271.673437,91.6973569 271.100787,92.1840575 C270.373461,92.8035485 269.271847,93.1141832 267.795353,93.1141832 C265.833582,93.1141832 264.445052,92.7822072 263.630353,92.140782 C262.814473,91.5206982 262.395317,90.6130994 262.395317,89.4618539 L255.696486,89.4618539 C255.696486,92.5160335 256.974618,94.794812 259.553317,96.2999677 C261.602461,97.4725545 264.290967,98.0707042 267.618835,98.0707042 C269.844498,98.0707042 271.828112,97.6942671 273.524811,96.9639198 C273.877257,96.809788 274.186016,96.6544707 274.516618,96.4766263 C277.139004,95.0165246 278.460823,92.693285 278.460823,89.5069078 C278.460823,86.8955605 277.11716,84.9481653 274.40622,83.6647222" id="Fill-14" fill="#FEFEFE"></path>
                <path d="M152.143192,86.6745593 C151.50383,89.9937269 148.572686,92.5380862 145.06889,92.5380862 L145.00218,92.5380862 C141.080408,92.494218 137.884782,89.2627868 137.884782,85.3016012 C137.884782,81.3410084 141.080408,78.1101701 145.00218,78.0882359 L145.06889,78.0882359 C148.572686,78.0882359 151.50383,80.6106611 152.143192,83.9298287 L152.143192,86.6745593 Z M152.143192,74.2598407 C150.092276,72.9319365 147.669433,72.157721 145.06889,72.157721 L145.00218,72.157721 C137.840505,72.2015892 132.000059,78.0882359 132.000059,85.3016012 C132.000059,92.5161521 137.840505,98.402206 145.00218,98.4466671 L145.06889,98.4466671 C147.669433,98.4466671 150.092276,97.6724515 152.143192,96.3439545 L152.143192,97.7169126 L158.158975,97.7169126 L158.158975,85.3016012 L158.158975,72.8210802 L152.143192,72.8210802 L152.143192,74.2598407 Z" id="Fill-16" fill="#FEFEFE"></path>
                <polygon id="Fill-18" fill="#FEFEFE" points="189.694253 70.1880359 196.239 70.1880359 196.239 64.4122455 189.694253 64.4122455"></polygon>
                <polygon id="Fill-20" fill="#FEFEFE" points="189.694253 97.7165569 196.239 97.7165569 196.239 72.1573653 189.694253 72.1573653"></polygon>
                <path d="M180.681146,86.6745593 C180.041784,89.9937269 177.11064,92.5380862 173.607435,92.5380862 L173.541314,92.5380862 C169.59711,92.494218 166.401483,89.2627868 166.401483,85.3016012 C166.401483,81.3410084 169.59711,78.1101701 173.541314,78.0882359 L173.607435,78.0882359 C177.11064,78.0882359 180.041784,80.6106611 180.681146,83.9298287 L180.681146,86.6745593 Z M180.681146,74.2598407 C178.631411,72.9319365 176.207977,72.157721 173.607435,72.157721 L173.541314,72.157721 C166.356616,72.2015892 160.51676,78.0882359 160.51676,85.3016012 C160.51676,92.5161521 166.356616,98.402206 173.541314,98.4466671 L173.607435,98.4466671 C176.207977,98.4466671 178.631411,97.6724515 180.681146,96.3439545 L180.681146,97.7169126 L186.696929,97.7169126 L186.696929,85.3016012 L186.696929,64.2798108 L180.681146,64.2798108 L180.681146,74.2598407 Z" id="Fill-21" fill="#FEFEFE"></path>
                <polygon id="Fill-22" fill="#FEFEFE" points="218.717425 64.2798701 211.621281 52.3737862 194.190859 23.2523731 173.541787 35.7334868 172.835714 36.1537922 173.541787 37.3269719 189.672823 64.2798701 211.621281 64.2798701"></polygon>
                <path d="M153.143202,114.166825 L154.293947,114.166825 C154.081074,114.724158 153.763309,115.563325 153.562777,116.095325 L146.83416,116.095325 C146.83416,116.095325 142.234266,128.134992 142.024479,128.682825 L136.844585,128.682825 C136.989585,128.299658 137.245649,127.631492 137.245649,127.631492 L141.685117,116.095325 L134.999691,116.095325 C135.160117,115.683658 135.514904,114.758992 135.743202,114.166825 L153.143202,114.166825 Z" id="Fill-1" fill="#FFFFFF"></path>
                <path d="M158.249979,128.682825 L170.757,128.682825 C170.932851,128.195158 171.426468,126.865158 171.478915,126.709992 L160.526787,126.709992 C159.74317,126.681492 158.962638,126.576992 158.58317,125.987992 C158.453596,125.794825 158.391894,125.569992 158.391894,125.313492 C158.391894,125.091825 158.441255,124.854325 158.543064,124.575658 L159.369872,122.368492 L173.08934,122.368492 C173.262106,121.890325 173.512,121.212658 173.81434,120.401992 L160.113383,120.401992 L161.159234,117.599492 C161.350511,117.092825 161.853383,116.440492 163.124447,116.209325 C163.124447,116.209325 163.775404,116.136492 163.908064,116.136492 L175.38466,116.136492 C175.582106,115.591825 175.909128,114.720992 176.10966,114.166825 L163.300298,114.166825 C161.837957,114.166825 160.551468,114.331492 159.474766,114.654492 L158.660298,114.942658 C157.691574,115.354325 156.960404,115.914825 156.454447,116.649492 C156.454447,116.649492 156.167532,117.156158 156.170617,117.156158 L152.687532,126.367992 C152.687532,126.367992 152.502426,126.839825 152.598064,127.172325 C152.78934,127.811992 153.795085,128.362992 155.535085,128.524492 C155.535085,128.524492 157.009766,128.682825 158.249979,128.682825" id="Fill-4" fill="#FFFFFF"></path>
                <path d="M220.340521,114.166825 L224.474564,114.166825 C223.687862,116.430992 219.979564,127.105825 219.979564,127.105825 C219.979564,127.105825 219.627862,128.128658 219.436585,128.682825 L214.232011,128.682825 C214.36467,128.299658 216.440947,122.368492 216.440947,122.368492 L205.390096,122.368492 C205.390096,122.368492 203.310734,128.229992 203.150309,128.682825 L197.948819,128.682825 C198.084564,128.299658 203.051585,114.410658 203.051585,114.410658 C203.0485,114.423325 203.131798,114.198492 203.131798,114.198492 C203.134883,114.192158 203.141053,114.176325 203.141053,114.166825 L208.299351,114.166825 C208.095734,114.736825 206.071904,120.443158 206.071904,120.443158 L217.116585,120.443158 L219.319351,114.166825 L220.340521,114.166825 Z" id="Fill-6" fill="#FFFFFF"></path>
                <path d="M228.068404,116.962675 L224.378617,127.602675 C224.378617,127.602675 224.141064,128.302508 224.011489,128.682508 L229.212979,128.682508 C229.40117,128.128342 231.381809,122.368175 231.381809,122.368175 L245.051915,122.368175 C245.218511,121.877342 245.443723,121.202842 245.718298,120.401675 L232.054362,120.401675 L232.396809,119.394675 C232.396809,119.394675 232.659043,118.637842 232.659043,118.647342 C232.659043,118.647342 233.047766,117.630842 233.053936,117.615008 C233.053936,117.615008 233.143404,117.333175 233.411809,117.038675 C234.109043,116.215342 235.250532,116.098175 236.355,116.098175 L247.165213,116.098175 C247.353404,115.550342 247.637234,114.701675 247.806915,114.166508 L235.577553,114.166508 C235.577553,114.166508 232.905851,114.153842 231.99883,114.347008 C231.091809,114.537008 228.737872,115.056342 228.068404,116.962675" id="Fill-8" fill="#FFFFFF"></path>
                <path d="M252.125755,114.166825 L256.577564,114.166825 C256.340011,114.885658 251.922138,128.128658 251.740117,128.682825 L246.529372,128.682825 C246.662032,128.302825 251.410011,114.166825 251.410011,114.166825 L252.125755,114.166825 Z" id="Fill-11" fill="#FFFFFF"></path>
                <path d="M260.868947,114.166825 L278.133202,114.166825 C277.880223,114.958492 277.670436,115.601325 277.513096,116.095325 L270.781394,116.095325 C270.781394,116.095325 266.826287,128.217325 266.672032,128.682825 L261.458202,128.682825 C261.578521,128.302825 265.60767,116.095325 265.60767,116.095325 L258.92533,116.095325 C259.095011,115.579158 259.563947,114.166825 259.563947,114.166825 L260.868947,114.166825 Z" id="Fill-13" fill="#FFFFFF"></path>
                <path d="M183.295181,120.401358 L184.344117,117.598858 C184.535394,117.092192 185.041351,116.439858 186.312415,116.208692 C186.312415,116.208692 186.963372,116.135858 187.096032,116.135858 L198.569543,116.135858 C198.776245,115.591192 199.094011,114.720358 199.297628,114.166192 L186.485181,114.166192 C186.485181,114.166192 183.341457,114.191525 181.928479,114.729858 C180.52167,115.261858 179.812096,116.015525 179.358585,117.158692 L175.8755,126.367358 C175.8755,126.367358 175.699649,126.877192 175.786032,127.171692 C175.968053,127.814525 176.979968,128.365525 178.723053,128.523858 C178.723053,128.523858 180.194649,128.682192 181.437947,128.682192 L193.938798,128.682192 C194.117734,128.194525 194.611351,126.864525 194.669968,126.709358 L183.71784,126.709358 C182.928053,126.680858 182.150606,126.576358 181.768053,125.990525 C181.641564,125.794192 181.576777,125.569358 181.576777,125.316025 C181.576777,125.091192 181.626138,124.853692 181.727947,124.575025 L182.55784,122.367858 L183.295181,120.401358 Z" id="Fill-15" fill="#FFFFFF"></path>
            </g>
        </g>
    </g>
</svg>