<?xml version="1.0" encoding="UTF-8"?>
<svg width="348px" height="196px" viewBox="0 0 348 196" version="1.1" xmlns="http://www.w3.org/2000/svg" xmlns:xlink="http://www.w3.org/1999/xlink">
    <!-- Generator: Sketch 41.2 (35397) - http://www.bohemiancoding.com/sketch -->
    <title>Page 1</title>
    <desc>Created with Sketch.</desc>
    <defs></defs>
    <g id="Page-1" stroke="none" stroke-width="1" fill="none" fill-rule="evenodd">
        <g id="1170---Adidas" transform="translate(-669.000000, -141.000000)" fill="#FFFFFF">
            <g id="Page-1" transform="translate(669.000000, 141.000000)">
                <path d="M136.975971,146.381974 C136.975971,144.595455 138.621669,143.376085 140.863223,143.376085 C142.934532,143.376085 144.920719,144.056664 146.339424,145.644681 L147.758129,143.914877 C146.16918,142.241787 143.927626,141.249277 141.061842,141.249277 C137.31646,141.249277 134.535799,143.404443 134.535799,146.523762 C134.535799,153.272834 145.743568,150.550519 145.743568,155.428 C145.743568,156.902587 144.665353,158.717464 141.288835,158.717464 C138.621669,158.717464 136.578734,157.413021 135.358647,155.995149 L133.939942,157.810026 C135.500518,159.568187 137.940691,160.815915 141.203712,160.815915 C146.31105,160.815915 148.183741,157.98017 148.183741,155.257855 C148.183741,148.196851 136.975971,150.635591 136.975971,146.381974 Z" id="Fill-1"></path>
                <polygon id="Fill-3" points="60.7773237 160.475626 63.1323741 160.475626 63.1323741 141.561209 60.7773237 141.561209"></polygon>
                <path d="M109.779396,154.180272 L113.780144,143.971591 L117.809266,154.180272 L109.779396,154.180272 Z M112.333065,141.561209 L104.700432,160.475626 L107.395971,160.475626 L109.070043,156.250366 L118.490245,156.250366 L120.164317,160.475626 L122.859856,160.475626 L115.255597,141.561209 L112.333065,141.561209 Z" id="Fill-5"></path>
                <path d="M37.2410072,158.377174 L33.1267626,158.377174 L33.1267626,143.65966 L37.2410072,143.65966 C41.9227338,143.65966 44.504777,146.949123 44.504777,151.032596 C44.504777,155.087711 41.8376115,158.377174 37.2410072,158.377174 M37.2410072,141.561209 L30.7717122,141.561209 L30.7717122,160.475626 L37.2410072,160.475626 C43.1428201,160.475626 46.9449496,156.420511 46.9449496,151.032596 C46.9449496,145.673038 43.1428201,141.561209 37.2410072,141.561209" id="Fill-6"></path>
                <path d="M5.07896403,154.180272 L9.07971223,143.971591 L13.1088345,154.180272 L5.07896403,154.180272 Z M7.63263309,141.561209 L0,160.475626 L2.69553957,160.475626 L4.36961151,156.250366 L13.7898129,156.250366 L15.4638849,160.475626 L18.1594245,160.475626 L10.5551655,141.561209 L7.63263309,141.561209 Z" id="Fill-7"></path>
                <path d="M84.1717698,158.377174 L80.0575252,158.377174 L80.0575252,143.65966 L84.1717698,143.65966 C88.8534964,143.65966 91.4355396,146.949123 91.4355396,151.032596 C91.4355396,155.087711 88.7683741,158.377174 84.1717698,158.377174 M84.1717698,141.561209 L77.7024748,141.561209 L77.7024748,160.475626 L84.1717698,160.475626 C90.0735827,160.475626 93.8757122,156.420511 93.8757122,151.032596 C93.8757122,145.673038 90.0735827,141.561209 84.1717698,141.561209" id="Fill-8"></path>
                <path d="M246.131137,155.966791 C245.052921,157.554809 243.066734,158.717464 240.910302,158.717464 C236.767683,158.717464 233.618158,155.513072 233.618158,151.032596 C233.618158,146.495404 236.767683,143.347728 240.910302,143.347728 C243.066734,143.347728 245.052921,144.482026 246.131137,146.0984 L248.08895,144.99246 C246.585122,142.837294 244.258446,141.249277 240.910302,141.249277 C235.462475,141.249277 231.177986,145.219319 231.177986,151.032596 C231.177986,156.845872 235.462475,160.815915 240.910302,160.815915 C244.258446,160.815915 246.528374,159.227898 248.117324,157.044374 L246.131137,155.966791 Z" id="Fill-9"></path>
                <polygon id="Fill-10" points="274.689669 149.699796 263.62377 149.699796 263.62377 141.561209 261.268719 141.561209 261.268719 160.475626 263.62377 160.475626 263.62377 151.798247 274.689669 151.798247 274.689669 160.475626 277.044719 160.475626 277.044719 141.561209 274.689669 141.561209"></polygon>
                <polygon id="Fill-11" points="178.033295 143.65966 184.02023 143.65966 184.02023 160.475626 186.375281 160.475626 186.375281 143.65966 192.39059 143.65966 192.39059 141.561209 178.033295 141.561209"></polygon>
                <polygon id="Fill-12" points="205.655482 160.475626 218.054964 160.475626 218.054964 158.377174 208.010532 158.377174 208.010532 151.854962 217.856345 151.854962 217.856345 149.756511 208.010532 149.756511 208.010532 143.65966 218.054964 143.65966 218.054964 141.561209 205.655482 141.561209"></polygon>
                <polygon id="Fill-13" points="291.61482 160.475626 293.969871 160.475626 293.969871 151.854962 303.815683 151.854962 303.815683 149.756511 293.969871 149.756511 293.969871 143.65966 304.014302 143.65966 304.014302 141.561209 291.61482 141.561209"></polygon>
                <polygon id="Fill-14" points="317.392691 160.475626 319.747741 160.475626 319.747741 141.561209 317.392691 141.561209"></polygon>
                <polygon id="Fill-15" points="333.012633 141.561209 333.012633 143.65966 338.999568 143.65966 338.999568 160.475626 341.354619 160.475626 341.354619 143.65966 347.369928 143.65966 347.369928 141.561209"></polygon>
                <polygon id="Fill-16" points="218.63246 188.736323 220.745496 188.736323 220.745496 194.67137 221.576691 194.67137 221.576691 188.736323 223.699741 188.736323 223.699741 187.995694 218.63246 187.995694"></polygon>
                <path d="M63.5145899,193.93074 L62.0625036,193.93074 L62.0625036,188.736323 L63.5145899,188.736323 C65.166964,188.736323 66.0782734,189.897311 66.0782734,191.338536 C66.0782734,192.769753 65.1369209,193.93074 63.5145899,193.93074 M63.5145899,187.995694 L61.2313094,187.995694 L61.2313094,194.67137 L63.5145899,194.67137 C65.5975827,194.67137 66.9395108,193.240153 66.9395108,191.338536 C66.9395108,189.446928 65.5975827,187.995694 63.5145899,187.995694" id="Fill-17"></path>
                <path d="M74.8658993,194.050843 C73.363741,194.050843 72.4123741,192.889855 72.4123741,191.338536 C72.4123741,189.777209 73.363741,188.62623 74.8658993,188.62623 C76.3580432,188.62623 77.3294388,189.777209 77.3294388,191.338536 C77.3294388,192.889855 76.3580432,194.050843 74.8658993,194.050843 M74.8658993,187.8856 C72.8930647,187.8856 71.5511367,189.36686 71.5511367,191.338536 C71.5511367,193.310213 72.8930647,194.791472 74.8658993,194.791472 C76.8387338,194.791472 78.1906763,193.310213 78.1906763,191.338536 C78.1906763,189.36686 76.8387338,187.8856 74.8658993,187.8856" id="Fill-18"></path>
                <polygon id="Fill-19" points="87.7594245 193.210128 83.9138993 187.995694 83.0626763 187.995694 83.0626763 194.67137 83.8938705 194.67137 83.8938705 189.346843 87.7894676 194.67137 88.5906187 194.67137 88.5906187 187.995694 87.7594245 187.995694"></polygon>
                <path d="M230.96518,191.278485 L229.212662,191.278485 L229.212662,188.736323 L230.96518,188.736323 C231.756317,188.736323 232.297094,189.256766 232.297094,190.007404 C232.297094,190.758043 231.756317,191.278485 230.96518,191.278485 M231.065324,187.995694 L228.381468,187.995694 L228.381468,194.67137 L229.212662,194.67137 L229.212662,192.019115 L231.065324,192.019115 C232.397237,192.019115 233.158331,191.098332 233.158331,190.007404 C233.158331,188.916477 232.407252,187.995694 231.065324,187.995694" id="Fill-20"></path>
                <path d="M247.949583,191.288494 L247.949583,188.736323 L249.702101,188.736323 C250.493237,188.736323 251.044029,189.246757 251.044029,190.007404 C251.044029,190.758043 250.493237,191.288494 249.702101,191.288494 L247.949583,191.288494 Z M251.905266,190.007404 C251.905266,188.776357 251.024,187.995694 249.802245,187.995694 L247.118388,187.995694 L247.118388,194.67137 L247.949583,194.67137 L247.949583,192.019115 L249.291511,192.019115 L250.983942,194.67137 L251.965353,194.67137 L250.162763,191.949055 C251.074072,191.868987 251.905266,191.208426 251.905266,190.007404 L251.905266,190.007404 Z" id="Fill-21"></path>
                <path d="M268.939741,194.050843 C267.437583,194.050843 266.486216,192.889855 266.486216,191.338536 C266.486216,189.777209 267.437583,188.62623 268.939741,188.62623 C270.431885,188.62623 271.403281,189.777209 271.403281,191.338536 C271.403281,192.889855 270.431885,194.050843 268.939741,194.050843 M268.939741,187.8856 C266.966906,187.8856 265.624978,189.36686 265.624978,191.338536 C265.624978,193.310213 266.966906,194.791472 268.939741,194.791472 C270.912576,194.791472 272.264518,193.310213 272.264518,191.338536 C272.264518,189.36686 270.912576,187.8856 268.939741,187.8856" id="Fill-22"></path>
                <path d="M277.967712,191.288494 L277.967712,188.736323 L279.72023,188.736323 C280.511367,188.736323 281.062158,189.246757 281.062158,190.007404 C281.062158,190.758043 280.511367,191.288494 279.72023,191.288494 L277.967712,191.288494 Z M281.923396,190.007404 C281.923396,188.776357 281.042129,187.995694 279.820374,187.995694 L277.136518,187.995694 L277.136518,194.67137 L277.967712,194.67137 L277.967712,192.019115 L279.30964,192.019115 L281.002072,194.67137 L281.983482,194.67137 L280.180892,191.949055 C281.092201,191.868987 281.923396,191.208426 281.923396,190.007404 L281.923396,190.007404 Z" id="Fill-23"></path>
                <polygon id="Fill-24" points="237.840058 194.67137 242.216345 194.67137 242.216345 193.93074 238.671252 193.93074 238.671252 191.628783 242.146245 191.628783 242.146245 190.888153 238.671252 190.888153 238.671252 188.736323 242.216345 188.736323 242.216345 187.995694 237.840058 187.995694"></polygon>
                <polygon id="Fill-25" points="256.797295 194.67137 257.628489 194.67137 257.628489 191.628783 261.103482 191.628783 261.103482 190.888153 257.628489 190.888153 257.628489 188.736323 261.173583 188.736323 261.173583 187.995694 256.797295 187.995694"></polygon>
                <polygon id="Fill-26" points="290.090129 193.140068 288.007137 187.995694 286.815424 187.995694 286.815424 194.67137 287.646619 194.67137 287.646619 189.056596 289.919885 194.67137 290.260374 194.67137 292.523626 189.056596 292.523626 194.67137 293.35482 194.67137 293.35482 187.995694 292.163108 187.995694"></polygon>
                <path d="M134.646791,191.288494 L134.646791,188.736323 L136.399309,188.736323 C137.190446,188.736323 137.741237,189.246757 137.741237,190.007404 C137.741237,190.758043 137.190446,191.288494 136.399309,191.288494 L134.646791,191.288494 Z M138.602475,190.007404 C138.602475,188.776357 137.721209,187.995694 136.499453,187.995694 L133.815597,187.995694 L133.815597,194.67137 L134.646791,194.67137 L134.646791,192.019115 L135.988719,192.019115 L137.681151,194.67137 L138.662561,194.67137 L136.859971,191.949055 C137.771281,191.868987 138.602475,191.208426 138.602475,190.007404 L138.602475,190.007404 Z" id="Fill-27"></path>
                <path d="M155.63695,194.050843 C154.134791,194.050843 153.183424,192.889855 153.183424,191.338536 C153.183424,189.777209 154.134791,188.62623 155.63695,188.62623 C157.129094,188.62623 158.100489,189.777209 158.100489,191.338536 C158.100489,192.889855 157.129094,194.050843 155.63695,194.050843 M155.63695,187.8856 C153.664115,187.8856 152.322187,189.36686 152.322187,191.338536 C152.322187,193.310213 153.664115,194.791472 155.63695,194.791472 C157.609784,194.791472 158.961727,193.310213 158.961727,191.338536 C158.961727,189.36686 157.609784,187.8856 155.63695,187.8856" id="Fill-28"></path>
                <path d="M185.544921,193.670519 C185.244489,193.670519 185.014158,193.920732 185.014158,194.210979 C185.014158,194.501226 185.22446,194.721413 185.494849,194.721413 C185.544921,194.721413 185.615022,194.711404 185.63505,194.701396 C185.594993,195.031677 185.304576,195.422009 184.984115,195.632187 L185.364662,195.942451 C185.825324,195.61217 186.175827,195.041685 186.175827,194.431166 C186.175827,193.950757 185.88541,193.670519 185.544921,193.670519" id="Fill-29"></path>
                <path d="M164.664921,191.288494 L164.664921,188.736323 L166.417439,188.736323 C167.208576,188.736323 167.759367,189.246757 167.759367,190.007404 C167.759367,190.758043 167.208576,191.288494 166.417439,191.288494 L164.664921,191.288494 Z M168.620604,190.007404 C168.620604,188.776357 167.739338,187.995694 166.517583,187.995694 L163.833727,187.995694 L163.833727,194.67137 L164.664921,194.67137 L164.664921,192.019115 L166.006849,192.019115 L167.699281,194.67137 L168.680691,194.67137 L166.878101,191.949055 C167.78941,191.868987 168.620604,191.208426 168.620604,190.007404 L168.620604,190.007404 Z" id="Fill-30"></path>
                <path d="M200.296115,194.050843 C198.793957,194.050843 197.84259,192.889855 197.84259,191.338536 C197.84259,189.777209 198.793957,188.62623 200.296115,188.62623 C201.788259,188.62623 202.759655,189.777209 202.759655,191.338536 C202.759655,192.889855 201.788259,194.050843 200.296115,194.050843 M200.296115,187.8856 C198.323281,187.8856 196.981353,189.36686 196.981353,191.338536 C196.981353,193.310213 198.323281,194.791472 200.296115,194.791472 C202.26895,194.791472 203.620892,193.310213 203.620892,191.338536 C203.620892,189.36686 202.26895,187.8856 200.296115,187.8856" id="Fill-31"></path>
                <polygon id="Fill-32" points="143.494504 194.67137 144.325698 194.67137 144.325698 191.628783 147.800691 191.628783 147.800691 190.888153 144.325698 190.888153 144.325698 188.736323 147.870791 188.736323 147.870791 187.995694 143.494504 187.995694"></polygon>
                <path d="M213.109525,192.059149 C213.109525,193.280187 212.448576,194.050843 211.216806,194.050843 C209.985036,194.050843 209.334101,193.280187 209.334101,192.059149 L209.334101,187.995694 L208.492892,187.995694 L208.492892,192.079166 C208.492892,193.720562 209.414216,194.791472 211.216806,194.791472 C213.02941,194.791472 213.950734,193.73057 213.950734,192.069157 L213.950734,187.995694 L213.109525,187.995694 L213.109525,192.059149 Z" id="Fill-33"></path>
                <polygon id="Fill-34" points="176.787338 193.140068 174.704345 187.995694 173.512633 187.995694 173.512633 194.67137 174.343827 194.67137 174.343827 189.056596 176.617094 194.67137 176.957583 194.67137 179.220835 189.056596 179.220835 194.67137 180.052029 194.67137 180.052029 187.995694 178.860317 187.995694"></polygon>
                <polygon id="Fill-35" points="124.537266 194.67137 128.913554 194.67137 128.913554 193.93074 125.36846 193.93074 125.36846 191.628783 128.843453 191.628783 128.843453 190.888153 125.36846 190.888153 125.36846 188.736323 128.913554 188.736323 128.913554 187.995694 124.537266 187.995694"></polygon>
                <path d="M94.0835108,187.895609 C93.7830791,187.895609 93.5527482,188.145821 93.5527482,188.436068 C93.5527482,188.726315 93.7630504,188.946502 94.0334388,188.946502 C94.0835108,188.946502 94.1536115,188.936494 94.1736403,188.926485 C94.1335827,189.246757 93.8431655,189.647098 93.522705,189.857277 L93.9032518,190.16754 C94.3639137,189.83726 94.7144173,189.266774 94.7144173,188.656255 C94.7144173,188.165838 94.424,187.895609 94.0835108,187.895609" id="Fill-36"></path>
                <polygon id="Fill-37" points="99.1557986 188.736323 101.268835 188.736323 101.268835 194.67137 102.100029 194.67137 102.100029 188.736323 104.223079 188.736323 104.223079 187.995694 99.1557986 187.995694"></polygon>
                <path d="M117.662388,191.278485 L115.909871,191.278485 L115.909871,188.736323 L117.662388,188.736323 C118.453525,188.736323 118.994302,189.256766 118.994302,190.007404 C118.994302,190.758043 118.453525,191.278485 117.662388,191.278485 M117.762532,187.995694 L115.078676,187.995694 L115.078676,194.67137 L115.909871,194.67137 L115.909871,192.019115 L117.762532,192.019115 C119.094446,192.019115 119.85554,191.098332 119.85554,190.007404 C119.85554,188.916477 119.10446,187.995694 117.762532,187.995694" id="Fill-38"></path>
                <path d="M225.625091,52.6008953 C225.863767,52.1763677 226.195076,51.8435847 226.619019,51.6033804 C227.041292,51.3823591 227.48276,51.2530826 227.924227,51.2530826 L227.941753,51.2530826 C228.384055,51.2530826 228.824688,51.3823591 229.247796,51.6033804 C229.671738,51.8435847 230.002213,52.1763677 230.240889,52.6008953 C230.479565,53.025423 230.590558,53.4674655 230.590558,53.947874 C230.590558,54.4090996 230.479565,54.8519762 230.240889,55.2765038 C230.020573,55.6818485 229.689263,56.0154655 229.26699,56.2548357 C228.843047,56.494206 228.402414,56.6051336 227.941753,56.6051336 L227.924227,56.6051336 C227.4644,56.6051336 227.022932,56.494206 226.599824,56.2548357 C226.176717,56.0154655 225.845407,55.6818485 225.625091,55.2765038 C225.386414,54.8519762 225.257896,54.4090996 225.257896,53.947874 C225.257896,53.4674655 225.386414,53.025423 225.625091,52.6008953 M226.341954,56.7168953 C226.857695,57.0121464 227.372601,57.141423 227.924227,57.141423 L227.941753,57.141423 C228.494213,57.141423 229.009119,57.0121464 229.524026,56.7168953 C230.038932,56.4391591 230.425321,56.0521634 230.700717,55.535057 C230.994472,55.0187847 231.123824,54.4833294 231.123824,53.947874 C231.123824,53.3757209 230.994472,52.8402655 230.700717,52.3231591 C230.425321,51.8068868 230.020573,51.4198911 229.505666,51.1421549 C228.99076,50.8652528 228.475853,50.7176272 227.941753,50.7176272 L227.924227,50.7176272 C227.390127,50.7368102 226.87522,50.8652528 226.360314,51.1421549 C225.845407,51.4198911 225.459019,51.8068868 225.165263,52.3231591 C224.871508,52.8402655 224.74299,53.3757209 224.74299,53.947874 C224.74299,54.4833294 224.871508,55.0187847 225.165263,55.535057 C225.441494,56.0521634 225.827047,56.4391591 226.341954,56.7168953" id="Fill-39"></path>
                <path d="M227.077594,52.7295881 L227.721853,52.7295881 L227.92381,52.7295881 C228.089882,52.7487711 228.20004,52.766286 228.273479,52.7846349 C228.383637,52.8221668 228.457076,52.8772136 228.51299,52.9689583 C228.567235,53.0431881 228.586429,53.1357668 228.586429,53.2458604 C228.586429,53.39432 228.53135,53.5227626 228.421191,53.6153413 C228.329393,53.70792 228.163321,53.7454519 227.92381,53.7629668 L227.758573,53.7629668 L227.077594,53.7629668 L227.077594,52.7295881 Z M227.077594,54.2433753 L227.408904,54.2433753 C227.61086,54.2433753 227.758573,54.2800732 227.850371,54.3726519 C227.887925,54.3910009 227.906285,54.4085157 227.92381,54.4276987 C228.071522,54.5569753 228.23676,54.8155285 228.438717,55.1658264 L228.751666,55.7196306 L229.41345,55.7196306 L229.008702,55.0373838 C228.806745,54.7229498 228.623148,54.4835796 228.493796,54.3534689 C228.421191,54.2800732 228.329393,54.2241923 228.20004,54.1691455 C228.493796,54.1507966 228.733306,54.040703 228.916904,53.8547115 C229.100501,53.6703881 229.192299,53.4493668 229.192299,53.1916477 C229.192299,53.0073243 229.138055,52.8405157 229.027896,52.6928902 C228.916904,52.5260817 228.770026,52.4159881 228.586429,52.3609413 C228.438717,52.3050604 228.217565,52.2683626 227.92381,52.2683626 C227.868731,52.2683626 227.795292,52.2500136 227.721853,52.2500136 L226.525968,52.2500136 L226.525968,55.7196306 L227.077594,55.7196306 L227.077594,54.2433753 Z" id="Fill-40"></path>
                <polygon id="Fill-41" points="144.484676 53.1175847 149.449309 53.1175847 144.484676 44.8121889 140.291151 37.817074 122.470547 48.5587081 125.191957 53.1175847"></polygon>
                <polygon id="Fill-42" points="190.682219 53.1175847 199.841212 53.1175847 214.939571 53.1175847 199.841212 27.8686145 183.142219 -8.34042557e-05 176.263168 4.15178043 165.33914 10.7415506 176.263168 28.9945719"></polygon>
                <path d="M176.319249,76.686126 L176.263335,76.686126 C172.97194,76.6494281 170.305609,73.9546366 170.305609,70.65016 C170.305609,67.3473515 172.97194,64.65256 176.263335,64.6342111 L176.319249,64.6342111 C179.224256,64.6342111 181.671105,66.7385004 182.203537,69.5066877 L182.203537,71.7953004 C181.671105,74.5643217 179.224256,76.686126 176.319249,76.686126 L176.319249,76.686126 Z M187.224918,81.0056323 L187.224918,70.65016 L187.224918,53.1177515 L182.203537,53.1177515 L182.203537,61.4414962 C180.49358,60.3338877 178.489033,59.6883387 176.319249,59.6883387 L176.263335,59.6883387 C170.268889,59.7250366 165.394386,64.6342111 165.394386,70.65016 C165.394386,76.667777 170.268889,81.5769515 176.263335,81.6144834 L176.319249,81.6144834 C178.489033,81.6144834 180.49358,80.9681004 182.203537,79.8604919 L182.203537,81.0056323 L187.224918,81.0056323 Z" id="Fill-43"></path>
                <path d="M199.895957,76.686126 L199.840878,76.686126 C196.548647,76.6494281 193.883151,73.9546366 193.883151,70.65016 C193.883151,67.3473515 196.548647,64.65256 199.840878,64.6342111 L199.895957,64.6342111 C202.801799,64.6342111 205.247813,66.7385004 205.781079,69.5066877 L205.781079,71.7953004 C205.247813,74.5643217 202.801799,76.686126 199.895957,76.686126 L199.895957,76.686126 Z M210.801626,81.0056323 L210.801626,70.65016 L210.801626,60.2413089 L205.781079,60.2413089 L205.781079,61.4414962 C204.089482,60.3338877 202.066576,59.6883387 199.895957,59.6883387 L199.840878,59.6883387 C193.845597,59.7250366 188.971928,64.6342111 188.971928,70.65016 C188.971928,76.667777 193.845597,81.5769515 199.840878,81.6144834 L199.895957,81.6144834 C202.066576,81.6144834 204.089482,80.9681004 205.781079,79.8604919 L205.781079,81.0056323 L210.801626,81.0056323 Z" id="Fill-44"></path>
                <path d="M217.128466,71.3154757 C217.974682,71.7216545 220.034308,72.2938077 223.308178,72.9952374 C225.496322,73.4748119 226.599574,74.1578928 226.599574,75.025297 C226.599574,75.5415694 226.379258,75.98528 225.901071,76.3906247 C225.294365,76.9077311 224.374711,77.1662843 223.142941,77.1662843 C221.505588,77.1662843 220.346423,76.8893821 219.667114,76.3547609 C218.986135,75.8376545 218.636466,75.0803438 218.636466,74.1203609 L213.045934,74.1203609 C213.045934,76.6675268 214.112466,78.5683098 216.264725,79.8235438 C217.974682,80.8018757 220.217905,81.3006332 222.995229,81.3006332 C224.852898,81.3006332 226.507776,80.9861991 227.923977,80.3773481 C228.217732,80.2489055 228.475603,80.1196289 228.751833,79.9711694 C230.939977,78.7534672 232.043229,76.8151523 232.043229,74.1578928 C232.043229,71.9802077 230.921617,70.3554928 228.6592,69.2854162 C228.475603,69.1936715 228.217732,69.1010928 227.923977,68.9893311 C226.802365,68.6023353 224.981416,68.1227609 222.443603,67.5681226 C220.217905,67.0710332 219.096294,66.4246502 219.096294,65.6122928 C219.096294,65.0401396 219.299085,64.57808 219.684639,64.2469651 C220.20038,63.8032545 221.118365,63.5822332 222.443603,63.5822332 C223.786365,63.5822332 224.760265,63.8774843 225.331085,64.4496374 C225.679919,64.8007694 225.93779,65.4271353 226.103862,66.3137226 L227.923977,66.3137226 L231.436524,66.3137226 C231.436524,63.6931609 230.369991,61.8107268 228.273646,60.6655864 C228.162653,60.5921906 228.053329,60.5371438 227.923977,60.481263 C226.471056,59.7990162 224.539948,59.4478843 222.130653,59.4478843 C219.207286,59.4478843 216.999948,60.2235438 215.528668,61.7923779 C214.351977,63.0467779 213.781157,64.57808 213.781157,66.3871183 C213.781157,68.6390332 214.885243,70.2637481 217.128466,71.3154757" id="Fill-45"></path>
                <path d="M120.667706,64.6342945 L120.72362,64.6342945 C123.646987,64.6342945 126.093836,66.7377498 126.627102,69.5067711 L126.627102,71.7953838 C126.093836,74.5644051 123.646987,76.6862094 120.72362,76.6862094 L120.667706,76.6862094 C117.394671,76.6495115 114.72834,73.95472 114.72834,70.6502434 C114.72834,67.3474349 117.394671,64.6526434 120.667706,64.6342945 M120.667706,81.6137328 L120.72362,81.6137328 C122.893404,81.6137328 124.915476,80.9681838 126.627102,79.8605753 L126.627102,81.0057157 L131.647649,81.0057157 L131.647649,70.6502434 L131.647649,60.2413923 L126.627102,60.2413923 L126.627102,61.4415796 C124.915476,60.3339711 122.893404,59.6884221 120.72362,59.6884221 L120.667706,59.6884221 C114.690786,59.724286 109.817117,64.6342945 109.817117,70.6502434 C109.817117,76.6678604 114.690786,81.5770349 120.667706,81.6137328" id="Fill-46"></path>
                <polygon id="Fill-47" points="157.96446 58.0451915 163.426475 58.0451915 163.426475 53.2277617 157.96446 53.2277617"></polygon>
                <polygon id="Fill-48" points="157.96446 81.0055489 163.426475 81.0055489 163.426475 59.6882553 157.96446 59.6882553"></polygon>
                <path d="M144.539672,76.686126 L144.484593,76.686126 C141.193197,76.6494281 138.526032,73.9546366 138.526032,70.65016 C138.526032,67.3473515 141.193197,64.65256 144.484593,64.6342111 L144.539672,64.6342111 C147.463039,64.6342111 149.909053,66.7385004 150.443154,69.5066877 L150.443154,71.7953004 C149.909053,74.5643217 147.463039,76.686126 144.539672,76.686126 L144.539672,76.686126 Z M155.463701,81.0056323 L155.463701,70.65016 L155.463701,53.1177515 L150.443154,53.1177515 L150.443154,61.4414962 C148.732363,60.3338877 146.710291,59.6883387 144.539672,59.6883387 L144.484593,59.6883387 C138.488478,59.7250366 133.614809,64.6342111 133.614809,70.65016 C133.614809,76.667777 138.488478,81.5769515 144.484593,81.6144834 L144.539672,81.6144834 C146.710291,81.6144834 148.732363,80.9681004 150.443154,79.8604919 L150.443154,81.0056323 L155.463701,81.0056323 Z" id="Fill-49"></path>
                <polygon id="Fill-50" points="157.946852 53.1175847 176.263168 53.1175847 182.185845 53.1175847 176.263168 43.187474 161.717269 18.8993209 144.48501 29.309006 143.89583 29.6593038 144.48501 30.6376357"></polygon>
                <path d="M113.859925,106.832344 L118.182803,106.832344 C118.358055,106.375289 122.196904,96.3342502 122.196904,96.3342502 L127.811637,96.3342502 C127.979378,95.8897055 128.243925,95.1899438 128.421681,94.7253821 L127.461968,94.7253821 L112.941105,94.7253821 C112.749997,95.2191353 112.453738,95.9906247 112.320213,96.3342502 L117.899896,96.3342502 L114.194573,105.955765 C114.194573,105.955765 113.980932,106.512906 113.859925,106.832344" id="Fill-51"></path>
                <path d="M142.76337,105.186945 L133.623571,105.186945 C132.969298,105.162757 132.318363,105.076017 132.00124,104.584766 C131.893586,104.423796 131.841845,104.236136 131.841845,104.022621 C131.841845,103.837464 131.882737,103.638962 131.967859,103.407098 L132.658017,101.566366 L144.106967,101.566366 C144.251341,101.16686 144.459974,100.602213 144.712003,99.9258043 L133.278075,99.9258043 L134.150996,97.588817 C134.311226,97.1659574 134.730161,96.6221617 135.791686,96.4286638 C135.791686,96.4286638 136.334132,96.3686128 136.445125,96.3686128 L146.023053,96.3686128 C146.187456,95.9140596 146.460348,95.1876085 146.628089,94.7255489 L135.937729,94.7255489 C134.717643,94.7255489 133.644435,94.863166 132.745643,95.1325617 L132.065499,95.372766 C131.257672,95.7155574 130.646794,96.1834553 130.225355,96.7964766 C130.225355,96.7964766 129.985845,97.2185021 129.988348,97.2185021 L127.081672,104.901702 C127.081672,104.901702 126.926449,105.29537 127.006564,105.572272 C127.16596,106.10606 128.005499,106.565617 129.457586,106.700732 C129.457586,106.700732 130.688521,106.832511 131.723341,106.832511 L142.160837,106.832511 C142.307715,106.425498 142.719974,105.316221 142.76337,105.186945" id="Fill-52"></path>
                <path d="M178.442216,106.832344 L182.785957,106.832344 C182.945353,106.370284 183.239108,105.517059 183.239108,105.517059 C183.239108,105.517059 186.333554,96.6136545 186.990331,94.7253821 L183.540374,94.7253821 L182.687482,94.7253821 L180.849842,99.9598332 L171.632432,99.9598332 C171.632432,99.9598332 173.321525,95.2007864 173.490935,94.7253821 L169.186417,94.7253821 C169.186417,94.7337226 169.18141,94.7462332 169.178906,94.7520715 C169.178906,94.7520715 169.10964,94.9397311 169.112144,94.9288885 C169.112144,94.9288885 164.967022,106.512906 164.853525,106.832344 L169.193928,106.832344 C169.328288,106.454523 171.063281,101.566199 171.063281,101.566199 L180.285698,101.566199 C180.285698,101.566199 178.553209,106.512906 178.442216,106.832344" id="Fill-53"></path>
                <path d="M193.601329,99.0856732 C193.601329,99.0856732 193.819977,98.454303 193.819977,98.4626434 C193.819977,98.4626434 194.14461,97.6144221 194.149617,97.6010774 C194.149617,97.6010774 194.224725,97.3658774 194.44838,97.1206689 C195.030049,96.4342519 195.983085,96.3358349 196.904409,96.3358349 L205.925704,96.3358349 C206.08343,95.8796136 206.319603,95.1715115 206.461473,94.7252987 L196.255977,94.7252987 C196.255977,94.7252987 194.026106,94.7144562 193.269186,94.8754264 C192.512265,95.0338945 190.547776,95.4675966 189.989473,97.0572817 L186.910049,105.931494 C186.910049,105.931494 186.71143,106.515324 186.603776,106.83226 L190.944178,106.83226 C191.101071,106.370201 192.754279,101.566116 192.754279,101.566116 L204.162337,101.566116 C204.301704,101.156601 204.489473,100.593622 204.71897,99.925554 L193.315919,99.925554 L193.601329,99.0856732 Z" id="Fill-54"></path>
                <path d="M213.78099,94.7253821 L210.065652,94.7253821 L209.468127,94.7253821 C209.468127,94.7253821 205.505767,106.515408 205.395609,106.832344 L209.744357,106.832344 C209.896242,106.370284 213.582371,95.3250587 213.78099,94.7253821" id="Fill-55"></path>
                <path d="M231.769836,94.7253821 L217.362469,94.7253821 L216.273404,94.7253821 C216.273404,94.7253821 215.882009,95.9030502 215.740138,96.3342502 L221.316483,96.3342502 C221.316483,96.3342502 217.954153,106.515408 217.854009,106.832344 L222.20526,106.832344 C222.333778,106.44368 225.634354,96.3342502 225.634354,96.3342502 L231.252426,96.3342502 C231.383447,95.9222332 231.558699,95.3859438 231.769836,94.7253821" id="Fill-56"></path>
                <path d="M151.35004,104.586934 C151.244055,104.423462 151.190645,104.235803 151.190645,104.02479 C151.190645,103.83713 151.231537,103.638628 151.316659,103.40593 L152.009321,101.565198 L152.624371,99.9254706 L153.499796,97.5876494 C153.659191,97.1656238 154.081465,96.620994 155.142155,96.4283302 C155.142155,96.4283302 155.685436,96.3674451 155.796429,96.3674451 L165.371019,96.3674451 C165.543767,95.913726 165.809148,95.1872749 165.979393,94.7252153 L155.286529,94.7252153 C155.286529,94.7252153 152.66276,94.7460664 151.483565,95.1947813 C150.310213,95.6384919 149.717695,96.26736 149.339652,97.2206706 L146.432141,104.901369 C146.432141,104.901369 146.286098,105.32673 146.357868,105.571939 C146.509753,106.108228 147.354299,106.567786 148.808889,106.699564 C148.808889,106.699564 150.037321,106.832177 151.074645,106.832177 L161.507134,106.832177 C161.656515,106.425164 162.06794,105.315888 162.117177,105.186611 L152.977378,105.186611 C152.318098,105.162424 151.669666,105.075683 151.35004,104.586934" id="Fill-57"></path>
            </g>
        </g>
    </g>
</svg>