<?xml version="1.0" encoding="UTF-8"?>
<svg width="287px" height="191px" viewBox="0 0 287 191" version="1.1" xmlns="http://www.w3.org/2000/svg" xmlns:xlink="http://www.w3.org/1999/xlink">
    <!-- Generator: Sketch 46.2 (44496) - http://www.bohemiancoding.com/sketch -->
    <title>Group 9</title>
    <desc>Created with Sketch.</desc>
    <defs></defs>
    <g id="Page-1" stroke="none" stroke-width="1" fill="none" fill-rule="evenodd">
        <g id="1170---Move" transform="translate(-906.000000, -148.000000)" fill="#FFFFFF">
            <g id="Group-3" transform="translate(727.000000, 148.000000)">
                <g id="Group">
                    <g id="Group-9" transform="translate(179.000000, 0.000000)">
                        <path d="M18.2004969,158 L7.89849691,146.066 L17.3504969,135.322 L13.8144969,135.322 L3.78449691,147.018 L3.78449691,135.322 L0.96249691,135.322 L0.96249691,158 L3.78449691,158 L3.78449691,150.384 L6.06249691,147.8 L14.6644969,158 L18.2004969,158 Z M48.4094976,158 L48.4094976,155.484 L36.3734976,155.484 L36.3734976,147.664 L48.1714976,147.664 L48.1714976,145.148 L36.3734976,145.148 L36.3734976,137.838 L48.4094976,137.838 L48.4094976,135.322 L33.5514976,135.322 L33.5514976,158 L48.4094976,158 Z M83.8204983,158 L83.8204983,135.322 L80.9984983,135.322 L80.9984983,153.036 L67.9424983,135.322 L65.0524983,135.322 L65.0524983,158 L67.8744983,158 L67.8744983,139.912 L81.1004983,158 L83.8204983,158 Z M112.023499,158.408 C116.035499,158.408 118.755499,156.504 120.659499,153.886 L118.279499,152.594 C116.987499,154.498 114.607499,155.892 112.023499,155.892 C107.059499,155.892 103.285499,152.05 103.285499,146.678 C103.285499,141.238 107.059499,137.464 112.023499,137.464 C114.607499,137.464 116.987499,138.824 118.279499,140.762 L120.625499,139.436 C118.823499,136.852 116.035499,134.948 112.023499,134.948 C105.495499,134.948 100.361499,139.708 100.361499,146.678 C100.361499,153.648 105.495499,158.408 112.023499,158.408 Z M155.3225,158 L155.3225,135.322 L152.5005,135.322 L152.5005,145.08 L139.2405,145.08 L139.2405,135.322 L136.4185,135.322 L136.4185,158 L139.2405,158 L139.2405,147.596 L152.5005,147.596 L152.5005,158 L155.3225,158 Z M192.1955,158 L188.9655,158 L186.9595,152.934 L175.6715,152.934 L173.6655,158 L170.4355,158 L179.5815,135.322 L183.0835,135.322 L192.1955,158 Z M186.1435,150.452 L181.3155,138.212 L176.5215,150.452 L186.1435,150.452 Z M223.764501,158 L220.432501,158 L214.686501,148.99 L210.130501,148.99 L210.130501,158 L207.308501,158 L207.308501,135.322 L216.420501,135.322 C220.568501,135.322 223.560501,137.974 223.560501,142.156 C223.560501,146.236 220.738501,148.48 217.644501,148.752 L223.764501,158 Z M216.080501,146.508 C218.766501,146.508 220.636501,144.706 220.636501,142.156 C220.636501,139.572 218.766501,137.838 216.080501,137.838 L210.130501,137.838 L210.130501,146.508 L216.080501,146.508 Z M248.261502,158 L248.261502,137.838 L255.469502,137.838 L255.469502,135.322 L238.265502,135.322 L238.265502,137.838 L245.439502,137.838 L245.439502,158 L248.261502,158 Z M278.606502,158.408 C284.726502,158.408 286.970502,155.008 286.970502,151.744 C286.970502,143.278 273.540502,146.202 273.540502,141.102 C273.540502,138.96 275.512502,137.498 278.198502,137.498 C280.680502,137.498 283.060502,138.314 284.760502,140.218 L286.460502,138.144 C284.556502,136.138 281.870502,134.948 278.436502,134.948 C273.948502,134.948 270.616502,137.532 270.616502,141.272 C270.616502,149.364 284.046502,146.1 284.046502,151.948 C284.046502,153.716 282.754502,155.892 278.708502,155.892 C275.512502,155.892 273.064502,154.328 271.602502,152.628 L269.902502,154.804 C271.772502,156.912 274.696502,158.408 278.606502,158.408 Z" id="KENCHARTS-Copy-2"></path>
                        <path d="M7.97700048,190 L7.97700048,186.352 L12.1410005,186.352 L12.1410005,185.464 L7.97700048,185.464 L7.97700048,182.884 L12.2250005,182.884 L12.2250005,181.996 L6.98100048,181.996 L6.98100048,190 L7.97700048,190 Z M21.1470004,190.144 C23.3190004,190.144 24.4230004,188.872 24.4230004,186.88 L24.4230004,181.996 L23.4150004,181.996 L23.4150004,186.868 C23.4150004,188.332 22.6230004,189.256 21.1470004,189.256 C19.6710004,189.256 18.8910004,188.332 18.8910004,186.868 L18.8910004,181.996 L17.8830004,181.996 L17.8830004,186.892 C17.8830004,188.86 18.9870004,190.144 21.1470004,190.144 Z M35.1690004,190 L35.1690004,189.112 L31.4490004,189.112 L31.4490004,181.996 L30.4530004,181.996 L30.4530004,190 L35.1690004,190 Z M45.3750004,190 L45.3750004,189.112 L41.6550004,189.112 L41.6550004,181.996 L40.6590004,181.996 L40.6590004,190 L45.3750004,190 Z M52.8450003,190 L52.8450003,186.616 L55.9890003,181.996 L54.8250003,181.996 L52.3410003,185.716 L49.8570003,181.996 L48.6930003,181.996 L51.8490003,186.616 L51.8490003,190 L52.8450003,190 Z M72.5130002,190.144 C73.9290002,190.144 74.8890002,189.472 75.5610002,188.548 L74.7210002,188.092 C74.2650002,188.764 73.4250002,189.256 72.5130002,189.256 C70.7610002,189.256 69.4290002,187.9 69.4290002,186.004 C69.4290002,184.084 70.7610002,182.752 72.5130002,182.752 C73.4250002,182.752 74.2650002,183.232 74.7210002,183.916 L75.5490002,183.448 C74.9130002,182.536 73.9290002,181.864 72.5130002,181.864 C70.2090002,181.864 68.3970002,183.544 68.3970002,186.004 C68.3970002,188.464 70.2090002,190.144 72.5130002,190.144 Z M84.3870002,190.144 C86.5590002,190.144 87.6630002,188.872 87.6630002,186.88 L87.6630002,181.996 L86.6550002,181.996 L86.6550002,186.868 C86.6550002,188.332 85.8630002,189.256 84.3870002,189.256 C82.9110002,189.256 82.1310002,188.332 82.1310002,186.868 L82.1310002,181.996 L81.1230002,181.996 L81.1230002,186.892 C81.1230002,188.86 82.2270002,190.144 84.3870002,190.144 Z M96.4170002,190.144 C98.5770002,190.144 99.3690002,188.944 99.3690002,187.792 C99.3690002,184.804 94.6290002,185.836 94.6290002,184.036 C94.6290002,183.28 95.3250002,182.764 96.2730002,182.764 C97.1490002,182.764 97.9890002,183.052 98.5890002,183.724 L99.1890002,182.992 C98.5170002,182.284 97.5690002,181.864 96.3570002,181.864 C94.7730002,181.864 93.5970002,182.776 93.5970002,184.096 C93.5970002,186.952 98.3370002,185.8 98.3370002,187.864 C98.3370002,188.488 97.8810002,189.256 96.4530002,189.256 C95.3250002,189.256 94.4610002,188.704 93.9450002,188.104 L93.3450002,188.872 C94.0050002,189.616 95.0370002,190.144 96.4170002,190.144 Z M108.051,190 L108.051,182.884 L110.595,182.884 L110.595,181.996 L104.523,181.996 L104.523,182.884 L107.055,182.884 L107.055,190 L108.051,190 Z M119.529,190.144 C117.165,190.144 115.557,188.368 115.557,186.004 C115.557,183.64 117.165,181.864 119.529,181.864 C121.893,181.864 123.513,183.64 123.513,186.004 C123.513,188.368 121.893,190.144 119.529,190.144 Z M119.529,189.256 C121.317,189.256 122.481,187.864 122.481,186.004 C122.481,184.132 121.317,182.752 119.529,182.752 C117.729,182.752 116.589,184.132 116.589,186.004 C116.589,187.864 117.729,189.256 119.529,189.256 Z M137.187,190 L137.187,181.996 L135.759,181.996 L133.275,188.164 L130.779,181.996 L129.351,181.996 L129.351,190 L130.347,190 L130.347,183.268 L133.071,190 L133.479,190 L136.191,183.268 L136.191,190 L137.187,190 Z M153.339,190.144 C155.499,190.144 156.291,188.944 156.291,187.792 C156.291,184.804 151.551,185.836 151.551,184.036 C151.551,183.28 152.247,182.764 153.195,182.764 C154.071,182.764 154.911,183.052 155.511,183.724 L156.111,182.992 C155.439,182.284 154.491,181.864 153.279,181.864 C151.695,181.864 150.519,182.776 150.519,184.096 C150.519,186.952 155.259,185.8 155.259,187.864 C155.259,188.488 154.803,189.256 153.375,189.256 C152.247,189.256 151.383,188.704 150.867,188.104 L150.267,188.872 C150.927,189.616 151.959,190.144 153.339,190.144 Z M164.973,190 L164.973,182.884 L167.517,182.884 L167.517,181.996 L161.445,181.996 L161.445,182.884 L163.977,182.884 L163.977,190 L164.973,190 Z M176.451,190.144 C174.087,190.144 172.479,188.368 172.479,186.004 C172.479,183.64 174.087,181.864 176.451,181.864 C178.815,181.864 180.435,183.64 180.435,186.004 C180.435,188.368 178.815,190.144 176.451,190.144 Z M176.451,189.256 C178.239,189.256 179.403,187.864 179.403,186.004 C179.403,184.132 178.239,182.752 176.451,182.752 C174.651,182.752 173.511,184.132 173.511,186.004 C173.511,187.864 174.651,189.256 176.451,189.256 Z M190.065,190.144 C191.481,190.144 192.441,189.472 193.113,188.548 L192.273,188.092 C191.817,188.764 190.977,189.256 190.065,189.256 C188.313,189.256 186.981,187.9 186.981,186.004 C186.981,184.084 188.313,182.752 190.065,182.752 C190.977,182.752 191.817,183.232 192.273,183.916 L193.101,183.448 C192.465,182.536 191.481,181.864 190.065,181.864 C187.761,181.864 185.949,183.544 185.949,186.004 C185.949,188.464 187.761,190.144 190.065,190.144 Z M204.759,190 L201.123,185.788 L204.459,181.996 L203.211,181.996 L199.671,186.124 L199.671,181.996 L198.675,181.996 L198.675,190 L199.671,190 L199.671,187.312 L200.475,186.4 L203.511,190 L204.759,190 Z M221.367,190.144 C222.783,190.144 223.743,189.472 224.415,188.548 L223.575,188.092 C223.119,188.764 222.279,189.256 221.367,189.256 C219.615,189.256 218.283,187.9 218.283,186.004 C218.283,184.084 219.615,182.752 221.367,182.752 C222.279,182.752 223.119,183.232 223.575,183.916 L224.403,183.448 C223.767,182.536 222.783,181.864 221.367,181.864 C219.063,181.864 217.251,183.544 217.251,186.004 C217.251,188.464 219.063,190.144 221.367,190.144 Z M236.649,190 L236.649,181.996 L235.653,181.996 L235.653,185.44 L230.973,185.44 L230.973,181.996 L229.977,181.996 L229.977,190 L230.973,190 L230.973,186.328 L235.653,186.328 L235.653,190 L236.649,190 Z M249.663,190 L248.523,190 L247.815,188.212 L243.831,188.212 L243.123,190 L241.983,190 L245.211,181.996 L246.447,181.996 L249.663,190 Z M247.527,187.336 L245.823,183.016 L244.131,187.336 L247.527,187.336 Z M260.805,190 L259.629,190 L257.601,186.82 L255.993,186.82 L255.993,190 L254.997,190 L254.997,181.996 L258.213,181.996 C259.677,181.996 260.733,182.932 260.733,184.408 C260.733,185.848 259.737,186.64 258.645,186.736 L260.805,190 Z M258.093,185.944 C259.041,185.944 259.701,185.308 259.701,184.408 C259.701,183.496 259.041,182.884 258.093,182.884 L255.993,182.884 L255.993,185.944 L258.093,185.944 Z M269.451,190 L269.451,182.884 L271.995,182.884 L271.995,181.996 L265.923,181.996 L265.923,182.884 L268.455,182.884 L268.455,190 L269.451,190 Z M280.161,190.144 C282.321,190.144 283.113,188.944 283.113,187.792 C283.113,184.804 278.373,185.836 278.373,184.036 C278.373,183.28 279.069,182.764 280.017,182.764 C280.893,182.764 281.733,183.052 282.333,183.724 L282.933,182.992 C282.261,182.284 281.313,181.864 280.101,181.864 C278.517,181.864 277.341,182.776 277.341,184.096 C277.341,186.952 282.081,185.8 282.081,187.864 C282.081,188.488 281.625,189.256 280.197,189.256 C279.069,189.256 278.205,188.704 277.689,188.104 L277.089,188.872 C277.749,189.616 278.781,190.144 280.161,190.144 Z" id="Fully-Custom-Stock-C-Copy-2"></path>
                        <path d="M194.091505,36.6514452 C197.256182,39.876601 199,44.1019835 199,48.5502555 C199,52.9977343 197.256182,57.22391 194.091505,60.4482726 L161.971117,92.2405676 C158.731912,95.3554685 154.575919,97.0005677 149.951115,97.0005677 C145.323106,97.0005677 141.16471,95.3554685 137.928709,92.2413608 L105.805917,60.4482726 C102.661275,57.3365446 101,53.2230034 101,48.5502555 C101,43.8100855 102.617199,39.8067993 105.805917,36.6514452 L137.928709,4.858357 C141.07255,1.74266291 145.118752,0.107875355 149.949513,1.28608235e-12 C154.779471,0.107875355 158.82327,1.74186971 161.970316,4.858357 L194.091505,36.6514452 Z M149.951115,17.3536546 L149.951115,6.29167146 C147.230407,6.29167146 144.511301,7.38787544 142.496615,9.38039671 L136.051861,15.7601135 L136.051861,67.1873095 C136.051861,68.8815872 134.544452,70.3775645 132.830286,70.3775645 C130.918978,70.1776779 129.607108,68.8815872 129.607108,67.1873095 L129.607108,22.1382439 L110.374624,41.1742781 C108.263771,43.1675926 107.254825,45.8597172 107.254825,48.5502555 L107.152247,48.3519552 C107.152247,51.0424935 108.263771,53.9321253 110.374624,55.9262329 L139.782317,85.029576 L139.878484,52.2386408 C139.878484,50.5427768 141.287322,49.2474793 143.004694,49.2474793 C144.715655,49.2474793 146.225468,50.6435133 146.225468,52.4361479 L146.225468,90.0116724 C147.429952,90.5105959 148.741823,90.7088962 149.951115,90.7088962 L149.951115,43.9655529 L143.203438,43.9655529 C141.287322,43.7656662 139.878484,42.4703688 139.878484,40.7760911 C139.878484,39.0841931 141.287322,37.6857795 143.203438,37.6857795 L149.951115,37.6857795 L149.951115,33.7983007 L143.004694,33.7983007 C141.287322,33.7983007 139.878484,32.4046463 139.878484,30.7111618 C139.878484,29.0145046 141.493278,27.5224932 143.203438,27.5224932 L149.951115,27.5224932 L149.951115,23.633428 L143.004694,23.633428 C141.287322,23.633428 139.878484,22.3381306 139.878484,20.6422665 C139.782317,18.7496886 141.287322,17.2552976 143.203438,17.3536546 L149.951115,17.3536546 Z" id="Combined-Shape-Copy-3"></path>
                    </g>
                </g>
            </g>
        </g>
    </g>
</svg>