<?xml version="1.0" encoding="UTF-8"?>
<svg width="273px" height="186px" viewBox="0 0 273 186" version="1.1" xmlns="http://www.w3.org/2000/svg" xmlns:xlink="http://www.w3.org/1999/xlink">
    <!-- Generator: Sketch 46.2 (44496) - http://www.bohemiancoding.com/sketch -->
    <title>Group 9</title>
    <desc>Created with Sketch.</desc>
    <defs></defs>
    <g id="Page-1" stroke="none" stroke-width="1" fill="none" fill-rule="evenodd">
        <g id="1170---Move" transform="translate(-1026.000000, -426.000000)" fill="#FFFFFF">
            <g id="Group-9" transform="translate(1026.000000, 426.000000)">
                <path d="M92.2669986,153 L92.2669986,130.322 L88.2209986,130.322 L81.1829986,147.798 L74.1109986,130.322 L70.0649986,130.322 L70.0649986,153 L72.8869986,153 L72.8869986,133.926 L80.6049986,153 L81.7609986,153 L89.4449986,133.926 L89.4449986,153 L92.2669986,153 Z M120.061999,153.408 C113.363999,153.408 108.807999,148.376 108.807999,141.678 C108.807999,134.98 113.363999,129.948 120.061999,129.948 C126.759999,129.948 131.349999,134.98 131.349999,141.678 C131.349999,148.376 126.759999,153.408 120.061999,153.408 Z M120.061999,150.892 C125.127999,150.892 128.425999,146.948 128.425999,141.678 C128.425999,136.374 125.127999,132.464 120.061999,132.464 C114.961999,132.464 111.731999,136.374 111.731999,141.678 C111.731999,146.948 114.961999,150.892 120.061999,150.892 Z M157.513,153 L166.625,130.322 L163.395,130.322 L155.745,149.906 L148.095,130.322 L144.865,130.322 L154.011,153 L157.513,153 Z M196.596001,153 L196.596001,150.484 L184.560001,150.484 L184.560001,142.664 L196.358001,142.664 L196.358001,140.148 L184.560001,140.148 L184.560001,132.838 L196.596001,132.838 L196.596001,130.322 L181.738001,130.322 L181.738001,153 L196.596001,153 Z" id="MOVE-Copy" fill-rule="nonzero"></path>
                <path d="M5.01200046,185.156 C6.32000046,185.156 7.41200046,184.604 8.15600046,183.764 L8.15600046,180.884 L4.41200046,180.884 L4.41200046,181.772 L7.17200046,181.772 L7.17200046,183.392 C6.76400046,183.8 5.97200046,184.256 5.01200046,184.256 C3.26000046,184.256 1.92800046,182.9 1.92800046,181.004 C1.92800046,179.084 3.26000046,177.752 5.01200046,177.752 C5.97200046,177.752 6.82400046,178.208 7.32800046,178.856 L8.12000046,178.352 C7.42400046,177.488 6.44000046,176.864 5.01200046,176.864 C2.73200046,176.864 0.896000458,178.508 0.896000458,181.004 C0.896000458,183.488 2.73200046,185.156 5.01200046,185.156 Z M19.3100004,185 L19.3100004,184.112 L15.0620004,184.112 L15.0620004,181.352 L19.2260004,181.352 L19.2260004,180.464 L15.0620004,180.464 L15.0620004,177.884 L19.3100004,177.884 L19.3100004,176.996 L14.0660004,176.996 L14.0660004,185 L19.3100004,185 Z M28.1600004,185 L28.1600004,177.884 L30.7040004,177.884 L30.7040004,176.996 L24.6320004,176.996 L24.6320004,177.884 L27.1640004,177.884 L27.1640004,185 L28.1600004,185 Z M51.5480003,185 L51.5480003,176.996 L50.1200003,176.996 L47.6360003,183.164 L45.1400003,176.996 L43.7120003,176.996 L43.7120003,185 L44.7080003,185 L44.7080003,178.268 L47.4320003,185 L47.8400003,185 L50.5520003,178.268 L50.5520003,185 L51.5480003,185 Z M61.3580003,185.144 C58.9940003,185.144 57.3860003,183.368 57.3860003,181.004 C57.3860003,178.64 58.9940003,176.864 61.3580003,176.864 C63.7220003,176.864 65.3420003,178.64 65.3420003,181.004 C65.3420003,183.368 63.7220003,185.144 61.3580003,185.144 Z M61.3580003,184.256 C63.1460003,184.256 64.3100003,182.864 64.3100003,181.004 C64.3100003,179.132 63.1460003,177.752 61.3580003,177.752 C59.5580003,177.752 58.4180003,179.132 58.4180003,181.004 C58.4180003,182.864 59.5580003,184.256 61.3580003,184.256 Z M74.5760002,185 L77.7920002,176.996 L76.6520002,176.996 L73.9520002,183.908 L71.2520002,176.996 L70.1120002,176.996 L73.3400002,185 L74.5760002,185 Z M84.1220002,185 L84.1220002,176.996 L83.1260002,176.996 L83.1260002,185 L84.1220002,185 Z M96.9080002,185 L96.9080002,176.996 L95.9120002,176.996 L95.9120002,183.248 L91.3040002,176.996 L90.2840002,176.996 L90.2840002,185 L91.2800002,185 L91.2800002,178.616 L95.9480002,185 L96.9080002,185 Z M106.862,185.156 C108.17,185.156 109.262,184.604 110.006,183.764 L110.006,180.884 L106.262,180.884 L106.262,181.772 L109.022,181.772 L109.022,183.392 C108.614,183.8 107.822,184.256 106.862,184.256 C105.11,184.256 103.778,182.9 103.778,181.004 C103.778,179.084 105.11,177.752 106.862,177.752 C107.822,177.752 108.674,178.208 109.178,178.856 L109.97,178.352 C109.274,177.488 108.29,176.864 106.862,176.864 C104.582,176.864 102.746,178.508 102.746,181.004 C102.746,183.488 104.582,185.156 106.862,185.156 Z M130.514,185 L132.806,176.996 L131.69,176.996 L129.926,183.668 L128.09,176.996 L127.262,176.996 L125.426,183.668 L123.65,176.996 L122.546,176.996 L124.826,185 L125.906,185 L127.67,178.544 L129.434,185 L130.514,185 Z M144.872,185 L144.872,176.996 L143.876,176.996 L143.876,180.44 L139.196,180.44 L139.196,176.996 L138.2,176.996 L138.2,185 L139.196,185 L139.196,181.328 L143.876,181.328 L143.876,185 L144.872,185 Z M156.278,185 L156.278,184.112 L152.03,184.112 L152.03,181.352 L156.194,181.352 L156.194,180.464 L152.03,180.464 L152.03,177.884 L156.278,177.884 L156.278,176.996 L151.034,176.996 L151.034,185 L156.278,185 Z M168.776,185 L168.776,176.996 L167.78,176.996 L167.78,183.248 L163.172,176.996 L162.152,176.996 L162.152,185 L163.148,185 L163.148,178.616 L167.816,185 L168.776,185 Z M185.66,185 L185.66,181.616 L188.804,176.996 L187.64,176.996 L185.156,180.716 L182.672,176.996 L181.508,176.996 L184.664,181.616 L184.664,185 L185.66,185 Z M197.306,185.144 C194.942,185.144 193.334,183.368 193.334,181.004 C193.334,178.64 194.942,176.864 197.306,176.864 C199.67,176.864 201.29,178.64 201.29,181.004 C201.29,183.368 199.67,185.144 197.306,185.144 Z M197.306,184.256 C199.094,184.256 200.258,182.864 200.258,181.004 C200.258,179.132 199.094,177.752 197.306,177.752 C195.506,177.752 194.366,179.132 194.366,181.004 C194.366,182.864 195.506,184.256 197.306,184.256 Z M210.392,185.144 C212.564,185.144 213.668,183.872 213.668,181.88 L213.668,176.996 L212.66,176.996 L212.66,181.868 C212.66,183.332 211.868,184.256 210.392,184.256 C208.916,184.256 208.136,183.332 208.136,181.868 L208.136,176.996 L207.128,176.996 L207.128,181.892 C207.128,183.86 208.232,185.144 210.392,185.144 Z M234.428,185 L236.72,176.996 L235.604,176.996 L233.84,183.668 L232.004,176.996 L231.176,176.996 L229.34,183.668 L227.564,176.996 L226.46,176.996 L228.74,185 L229.82,185 L231.584,178.544 L233.348,185 L234.428,185 Z M248.402,185 L247.262,185 L246.554,183.212 L242.57,183.212 L241.862,185 L240.722,185 L243.95,176.996 L245.186,176.996 L248.402,185 Z M246.266,182.336 L244.562,178.016 L242.87,182.336 L246.266,182.336 Z M260.36,185 L260.36,176.996 L259.364,176.996 L259.364,183.248 L254.756,176.996 L253.736,176.996 L253.736,185 L254.732,185 L254.732,178.616 L259.4,185 L260.36,185 Z M269.498,185 L269.498,177.884 L272.042,177.884 L272.042,176.996 L265.97,176.996 L265.97,177.884 L268.502,177.884 L268.502,185 L269.498,185 Z" id="GET-MOVING-WHEN-YOU-Copy" fill-rule="nonzero"></path>
                <path d="M162.839129,12 L151.195574,12 C147.961384,12 144.39919,14.4613064 143.258818,17.4974651 L126.354267,62.503708 C125.213895,65.5398668 126.9174,68 130.160995,68 L141.804549,68 C145.038739,68 148.600933,65.5386936 149.741306,62.503708 L166.645856,17.4974651 C167.786228,14.4601332 166.081548,12 162.839129,12" id="Fill-4"></path>
                <path d="M202.838192,0 L191.293732,0 C188.087067,0 184.579668,2.4702971 183.480474,5.51734924 L155.332694,83.4826508 C154.233499,86.5261789 155.946984,89 159.161808,89 L170.706268,89 C173.912933,89 177.419166,86.5297029 178.519526,83.4826508 L206.667306,5.51734924 C207.766501,2.4726464 206.053016,0 202.838192,0" id="Fill-6"></path>
                <path d="M129.838192,0 L118.293732,0 C115.087067,0 111.579668,2.4702971 110.480474,5.51734924 L82.3326939,83.4826508 C81.2334991,86.5261789 82.9469841,89 86.1618084,89 L97.7062679,89 C100.912933,89 104.419166,86.5297029 105.519526,83.4826508 L133.667306,5.51734924 C134.766501,2.4726464 133.053016,0 129.838192,0" id="Fill-1"></path>
            </g>
        </g>
    </g>
</svg>