<?xml version="1.0" encoding="UTF-8"?>
<svg width="254px" height="220px" viewBox="0 0 254 220" version="1.1" xmlns="http://www.w3.org/2000/svg" xmlns:xlink="http://www.w3.org/1999/xlink">
    <!-- Generator: Sketch 40.3 (33839) - http://www.bohemiancoding.com/sketch -->
    <title>Group 2</title>
    <desc>Created with Sketch.</desc>
    <defs></defs>
    <g id="Page-1" stroke="none" stroke-width="1" fill="none" fill-rule="evenodd">
        <g id="B-Copy-6" transform="translate(-849.000000, -727.000000)" fill="#FFFFFF">
            <g id="Group-2" transform="translate(849.000000, 727.000000)">
                <path d="M201.587054,26.6590007 L210.978572,0.0696200899 L164.722159,0.0696200899 L157.431212,0.0696200899 C144.379106,-0.0139887204 136.548791,11.3301258 136.548791,20.9309077 L136.548791,51.6835327 L98.7225176,51.9420677 L98.7225176,0.0690271197 L71.3315283,0.0690271197 L71.2852968,130.78399 L98.7225176,130.669547 L98.7225176,77.9900665 L136.548791,77.9954032 L163.963488,78.2657976 C159.425094,78.498242 147.77001,79.7784648 136.548791,86.4962252 L136.548791,130.623295 L164.722159,130.623295 L164.722159,78.2729133 L183.559725,78.2729133 L192.923386,51.6835327 L164.722159,51.6835327 L164.722159,31.2242789 C164.722159,26.1526041 168.706961,26.6590007 168.706961,26.6590007 L201.587054,26.6590007 Z" id="Fill-1"></path>
                <path d="M2.88250734,219.63573 C4.60483379,219.63573 5.23635349,218.677124 5.23635349,217.756863 C5.23635349,215.369935 1.45680377,216.194336 1.45680377,214.756427 C1.45680377,214.152505 2.01177563,213.740305 2.76768557,213.740305 C3.46618464,213.740305 4.13597826,213.97037 4.61440227,214.50719 L5.09282629,213.92244 C4.55699139,213.356863 3.80108145,213.021351 2.83466494,213.021351 C1.57162554,213.021351 0.633914466,213.749891 0.633914466,214.804357 C0.633914466,217.085839 4.41346418,216.165577 4.41346418,217.814379 C4.41346418,218.312854 4.04986193,218.926362 2.91121278,218.926362 C2.01177563,218.926362 1.32284505,218.485403 0.911400395,218.0061 L0.43297638,218.619608 C0.959242796,219.213943 1.7821321,219.63573 2.88250734,219.63573 L2.88250734,219.63573 Z M15.1636516,219.520697 L15.1636516,213.126797 L14.3694678,213.126797 L14.3694678,215.877996 L10.6377604,215.877996 L10.6377604,213.126797 L9.84357657,213.126797 L9.84357657,219.520697 L10.6377604,219.520697 L10.6377604,216.587364 L14.3694678,216.587364 L14.3694678,219.520697 L15.1636516,219.520697 Z M22.9858841,219.63573 C24.8708747,219.63573 26.1626195,218.216993 26.1626195,216.32854 C26.1626195,214.440087 24.8708747,213.021351 22.9858841,213.021351 C21.1008935,213.021351 19.8187171,214.440087 19.8187171,216.32854 C19.8187171,218.216993 21.1008935,219.63573 22.9858841,219.63573 L22.9858841,219.63573 Z M22.9858841,218.926362 C21.550612,218.926362 20.6416064,217.814379 20.6416064,216.32854 C20.6416064,214.833115 21.550612,213.730719 22.9858841,213.730719 C24.4115876,213.730719 25.3397302,214.833115 25.3397302,216.32854 C25.3397302,217.814379 24.4115876,218.926362 22.9858841,218.926362 L22.9858841,218.926362 Z M36.3674036,219.520697 L38.1949833,213.126797 L37.3051147,213.126797 L35.8985481,218.456645 L34.4345706,213.126797 L33.7743454,213.126797 L32.310368,218.456645 L30.8942329,213.126797 L30.0139327,213.126797 L31.8319439,219.520697 L32.6931072,219.520697 L34.0996738,214.363399 L35.5062404,219.520697 L36.3674036,219.520697 Z M45.3282852,219.63573 C46.4573659,219.63573 47.2228443,219.098911 47.7586792,218.360784 L47.0888856,217.996514 C46.7252833,218.533333 46.0554897,218.926362 45.3282852,218.926362 C43.9312871,218.926362 42.8691858,217.843137 42.8691858,216.32854 C42.8691858,214.794771 43.9312871,213.730719 45.3282852,213.730719 C46.0554897,213.730719 46.7252833,214.114161 47.0888856,214.660566 L47.7491107,214.28671 C47.2419813,213.55817 46.4573659,213.021351 45.3282852,213.021351 C43.491137,213.021351 42.0462965,214.363399 42.0462965,216.32854 C42.0462965,218.293682 43.491137,219.63573 45.3282852,219.63573 L45.3282852,219.63573 Z M57.6285665,219.520697 L55.0642137,213.126797 L54.0786603,213.126797 L51.5047391,219.520697 L52.4137447,219.520697 L52.978285,218.092375 L56.1550205,218.092375 L56.7195608,219.520697 L57.6285665,219.520697 Z M55.925377,217.392593 L53.217497,217.392593 L54.5666528,213.941612 L55.925377,217.392593 Z M63.8145888,219.63573 C65.5369152,219.63573 66.1684349,218.677124 66.1684349,217.756863 C66.1684349,215.369935 62.3888852,216.194336 62.3888852,214.756427 C62.3888852,214.152505 62.9438571,213.740305 63.699767,213.740305 C64.3982661,213.740305 65.0680597,213.97037 65.5464837,214.50719 L66.0249077,213.92244 C65.4890728,213.356863 64.7331629,213.021351 63.7667464,213.021351 C62.503707,213.021351 61.5659959,213.749891 61.5659959,214.804357 C61.5659959,217.085839 65.3455456,216.165577 65.3455456,217.814379 C65.3455456,218.312854 64.9819434,218.926362 63.8432942,218.926362 C62.9438571,218.926362 62.2549265,218.485403 61.8434819,218.0061 L61.3650578,218.619608 C61.8913243,219.213943 62.7142136,219.63573 63.8145888,219.63573 L63.8145888,219.63573 Z M74.9570839,219.520697 L74.9570839,218.811329 L71.5698419,218.811329 L71.5698419,216.606536 L74.8901046,216.606536 L74.8901046,215.897168 L71.5698419,215.897168 L71.5698419,213.836166 L74.9570839,213.836166 L74.9570839,213.126797 L70.775658,213.126797 L70.775658,219.520697 L74.9570839,219.520697 Z M87.376971,217.517211 L87.376971,216.884532 L85.0805357,216.884532 L85.0805357,217.517211 L87.376971,217.517211 Z M99.9116798,219.520697 C101.901924,219.520697 103.1841,218.149891 103.1841,216.32854 C103.1841,214.516776 101.901924,213.126797 99.9116798,213.126797 L97.7300663,213.126797 L97.7300663,219.520697 L99.9116798,219.520697 Z M99.9116798,218.811329 L98.5242502,218.811329 L98.5242502,213.836166 L99.9116798,213.836166 C101.490479,213.836166 102.361211,214.948148 102.361211,216.32854 C102.361211,217.699346 101.461774,218.811329 99.9116798,218.811329 L99.9116798,218.811329 Z M108.642918,219.520697 L108.642918,213.126797 L107.848734,213.126797 L107.848734,219.520697 L108.642918,219.520697 Z M115.623124,219.63573 C117.345451,219.63573 117.97697,218.677124 117.97697,217.756863 C117.97697,215.369935 114.197421,216.194336 114.197421,214.756427 C114.197421,214.152505 114.752392,213.740305 115.508302,213.740305 C116.206801,213.740305 116.876595,213.97037 117.355019,214.50719 L117.833443,213.92244 C117.297608,213.356863 116.541698,213.021351 115.575282,213.021351 C114.312242,213.021351 113.374531,213.749891 113.374531,214.804357 C113.374531,217.085839 117.154081,216.165577 117.154081,217.814379 C117.154081,218.312854 116.790479,218.926362 115.65183,218.926362 C114.752392,218.926362 114.063462,218.485403 113.652017,218.0061 L113.173593,218.619608 C113.69986,219.213943 114.522749,219.63573 115.623124,219.63573 L115.623124,219.63573 Z M125.607833,219.63573 C126.736914,219.63573 127.502392,219.098911 128.038227,218.360784 L127.368433,217.996514 C127.004831,218.533333 126.335038,218.926362 125.607833,218.926362 C124.210835,218.926362 123.148734,217.843137 123.148734,216.32854 C123.148734,214.794771 124.210835,213.730719 125.607833,213.730719 C126.335038,213.730719 127.004831,214.114161 127.368433,214.660566 L128.028659,214.28671 C127.521529,213.55817 126.736914,213.021351 125.607833,213.021351 C123.770685,213.021351 122.325844,214.363399 122.325844,216.32854 C122.325844,218.293682 123.770685,219.63573 125.607833,219.63573 L125.607833,219.63573 Z M135.382036,219.63573 C137.267026,219.63573 138.558771,218.216993 138.558771,216.32854 C138.558771,214.440087 137.267026,213.021351 135.382036,213.021351 C133.497045,213.021351 132.214869,214.440087 132.214869,216.32854 C132.214869,218.216993 133.497045,219.63573 135.382036,219.63573 L135.382036,219.63573 Z M135.382036,218.926362 C133.946764,218.926362 133.037758,217.814379 133.037758,216.32854 C133.037758,214.833115 133.946764,213.730719 135.382036,213.730719 C136.807739,213.730719 137.735882,214.833115 137.735882,216.32854 C137.735882,217.814379 136.807739,218.926362 135.382036,218.926362 L135.382036,218.926362 Z M145.921716,219.520697 L148.486069,213.126797 L147.577064,213.126797 L145.424155,218.648366 L143.271247,213.126797 L142.362242,213.126797 L144.936163,219.520697 L145.921716,219.520697 Z M156.920684,219.520697 L156.920684,218.811329 L153.533442,218.811329 L153.533442,216.606536 L156.853705,216.606536 L156.853705,215.897168 L153.533442,215.897168 L153.533442,213.836166 L156.920684,213.836166 L156.920684,213.126797 L152.739258,213.126797 L152.739258,219.520697 L156.920684,219.520697 Z M166.2356,219.520697 L164.513273,216.91329 C165.384005,216.836601 166.178189,216.203922 166.178189,215.053595 C166.178189,213.87451 165.336163,213.126797 164.168808,213.126797 L161.604455,213.126797 L161.604455,219.520697 L162.398639,219.520697 L162.398639,216.980392 L163.680815,216.980392 L165.297889,219.520697 L166.2356,219.520697 Z M164.073123,216.28061 L162.398639,216.28061 L162.398639,213.836166 L164.073123,213.836166 C164.829033,213.836166 165.3553,214.325054 165.3553,215.053595 C165.3553,215.772549 164.829033,216.28061 164.073123,216.28061 L164.073123,216.28061 Z M178.588507,217.517211 L178.588507,216.884532 L176.292072,216.884532 L176.292072,217.517211 L178.588507,217.517211 Z M191.965243,219.63573 C193.094323,219.63573 193.859802,219.098911 194.395637,218.360784 L193.725843,217.996514 C193.362241,218.533333 192.692447,218.926362 191.965243,218.926362 C190.568244,218.926362 189.506143,217.843137 189.506143,216.32854 C189.506143,214.794771 190.568244,213.730719 191.965243,213.730719 C192.692447,213.730719 193.362241,214.114161 193.725843,214.660566 L194.386068,214.28671 C193.878939,213.55817 193.094323,213.021351 191.965243,213.021351 C190.128094,213.021351 188.683254,214.363399 188.683254,216.32854 C188.683254,218.293682 190.128094,219.63573 191.965243,219.63573 L191.965243,219.63573 Z M201.739445,219.63573 C203.624436,219.63573 204.91618,218.216993 204.91618,216.32854 C204.91618,214.440087 203.624436,213.021351 201.739445,213.021351 C199.854454,213.021351 198.572278,214.440087 198.572278,216.32854 C198.572278,218.216993 199.854454,219.63573 201.739445,219.63573 L201.739445,219.63573 Z M201.739445,218.926362 C200.304173,218.926362 199.395167,217.814379 199.395167,216.32854 C199.395167,214.833115 200.304173,213.730719 201.739445,213.730719 C203.165149,213.730719 204.093291,214.833115 204.093291,216.32854 C204.093291,217.814379 203.165149,218.926362 201.739445,218.926362 L201.739445,218.926362 Z M214.853047,219.520697 L214.853047,213.126797 L214.058863,213.126797 L214.058863,218.121133 L210.384567,213.126797 L209.571246,213.126797 L209.571246,219.520697 L210.36543,219.520697 L210.36543,214.420915 L214.087569,219.520697 L214.853047,219.520697 Z M225.048263,219.520697 L225.048263,213.126797 L224.254079,213.126797 L224.254079,218.121133 L220.579782,213.126797 L219.766461,213.126797 L219.766461,219.520697 L220.560645,219.520697 L220.560645,214.420915 L224.282784,219.520697 L225.048263,219.520697 Z M234.143103,219.520697 L234.143103,218.811329 L230.755861,218.811329 L230.755861,216.606536 L234.076124,216.606536 L234.076124,215.897168 L230.755861,215.897168 L230.755861,213.836166 L234.143103,213.836166 L234.143103,213.126797 L229.961677,213.126797 L229.961677,219.520697 L234.143103,219.520697 Z M241.850514,219.63573 C242.979594,219.63573 243.745073,219.098911 244.280908,218.360784 L243.611114,217.996514 C243.247512,218.533333 242.577718,218.926362 241.850514,218.926362 C240.453516,218.926362 239.391414,217.843137 239.391414,216.32854 C239.391414,214.794771 240.453516,213.730719 241.850514,213.730719 C242.577718,213.730719 243.247512,214.114161 243.611114,214.660566 L244.271339,214.28671 C243.76421,213.55817 242.979594,213.021351 241.850514,213.021351 C240.013365,213.021351 238.568525,214.363399 238.568525,216.32854 C238.568525,218.293682 240.013365,219.63573 241.850514,219.63573 L241.850514,219.63573 Z M251.088881,219.520697 L251.088881,213.836166 L253.117399,213.836166 L253.117399,213.126797 L248.275748,213.126797 L248.275748,213.836166 L250.294697,213.836166 L250.294697,219.520697 L251.088881,219.520697 Z" id="SHOWCASE---DISCOVER"></path>
                <path d="M18.7365126,192.679739 L18.7365126,170.940479 L16.0362875,170.940479 L16.0362875,180.294553 L3.34848262,180.294553 L3.34848262,170.940479 L0.648257477,170.940479 L0.648257477,192.679739 L3.34848262,192.679739 L3.34848262,182.706405 L16.0362875,182.706405 L16.0362875,192.679739 L18.7365126,192.679739 Z M54.0183716,192.679739 L45.2995724,170.940479 L41.9486906,170.940479 L33.1973585,192.679739 L36.2879776,192.679739 L38.2074148,187.823442 L49.0083153,187.823442 L50.9277525,192.679739 L54.0183716,192.679739 Z M48.2275273,185.444183 L39.0207356,185.444183 L43.6078651,173.71085 L48.2275273,185.444183 Z M71.1794426,192.679739 L71.1794426,170.940479 L68.4792175,170.940479 L68.4792175,192.679739 L71.1794426,192.679739 Z M103.630945,192.679739 L97.7750352,183.814553 C100.735523,183.553813 103.435748,181.402702 103.435748,177.49159 C103.435748,173.482702 100.572859,170.940479 96.6038532,170.940479 L87.8850539,170.940479 L87.8850539,192.679739 L90.5852791,192.679739 L90.5852791,184.042702 L94.9446787,184.042702 L100.442727,192.679739 L103.630945,192.679739 Z M96.2785249,181.663442 L90.5852791,181.663442 L90.5852791,173.352331 L96.2785249,173.352331 C98.8486187,173.352331 100.637924,175.014553 100.637924,177.49159 C100.637924,179.936035 98.8486187,181.663442 96.2785249,181.663442 L96.2785249,181.663442 Z M122.028264,192.679739 L122.028264,182.77159 L133.317157,182.77159 L133.317157,180.359739 L122.028264,180.359739 L122.028264,173.352331 L133.544887,173.352331 L133.544887,170.940479 L119.328039,170.940479 L119.328039,192.679739 L122.028264,192.679739 Z M158.7741,193.07085 C165.183068,193.07085 169.575001,188.247146 169.575001,181.826405 C169.575001,175.405664 165.183068,170.581961 158.7741,170.581961 C152.365132,170.581961 148.005732,175.405664 148.005732,181.826405 C148.005732,188.247146 152.365132,193.07085 158.7741,193.07085 L158.7741,193.07085 Z M158.7741,190.658998 C153.894175,190.658998 150.803556,186.878257 150.803556,181.826405 C150.803556,176.741961 153.894175,172.993813 158.7741,172.993813 C163.621492,172.993813 166.777177,176.741961 166.777177,181.826405 C166.777177,186.878257 163.621492,190.658998 158.7741,190.658998 L158.7741,190.658998 Z M197.829768,192.679739 L197.829768,190.267887 L187.74459,190.267887 L187.74459,170.940479 L185.044364,170.940479 L185.044364,192.679739 L197.829768,192.679739 Z M215.771627,192.679739 L215.771627,170.940479 L213.071402,170.940479 L213.071402,192.679739 L215.771627,192.679739 Z M242.367219,193.07085 C248.776187,193.07085 253.16812,188.247146 253.16812,181.826405 C253.16812,175.405664 248.776187,170.581961 242.367219,170.581961 C235.958251,170.581961 231.598852,175.405664 231.598852,181.826405 C231.598852,188.247146 235.958251,193.07085 242.367219,193.07085 L242.367219,193.07085 Z M242.367219,190.658998 C237.487294,190.658998 234.396675,186.878257 234.396675,181.826405 C234.396675,176.741961 237.487294,172.993813 242.367219,172.993813 C247.214611,172.993813 250.370296,176.741961 250.370296,181.826405 C250.370296,186.878257 247.214611,190.658998 242.367219,190.658998 L242.367219,190.658998 Z" id="HAIRFOLIO"></path>
            </g>
        </g>
    </g>
</svg>