<?xml version="1.0" encoding="UTF-8"?>
<svg width="391px" height="238px" viewBox="0 0 391 238" version="1.1" xmlns="http://www.w3.org/2000/svg" xmlns:xlink="http://www.w3.org/1999/xlink">
    <!-- Generator: Sketch 40.3 (33839) - http://www.bohemiancoding.com/sketch -->
    <title>Group 10</title>
    <desc>Created with Sketch.</desc>
    <defs></defs>
    <g id="Page-1" stroke="none" stroke-width="1" fill="none" fill-rule="evenodd">
        <g id="1170---BoardVantage" transform="translate(-676.000000, -374.000000)" fill="#FFFFFF">
            <g id="Group-10" transform="translate(676.000000, 375.000000)">
                <path d="M10.4979959,204 C14.6459959,204 17.0599959,201.518 17.0599959,197.88 C17.0599959,195.16 15.0539959,192.678 12.6399959,192.304 C14.7139959,191.862 16.6179959,189.958 16.6179959,187.102 C16.6179959,183.702 14.2039959,181.322 10.2599959,181.322 L0.16199588,181.322 L0.16199588,204 L10.4979959,204 Z M9.78399588,191.148 L2.98399588,191.148 L2.98399588,183.838 L9.78399588,183.838 C12.3339959,183.838 13.6939959,185.47 13.6939959,187.51 C13.6939959,189.584 12.3339959,191.148 9.78399588,191.148 L9.78399588,191.148 Z M9.95399588,201.484 L2.98399588,201.484 L2.98399588,193.664 L9.95399588,193.664 C12.7079959,193.664 14.1359959,195.5 14.1359959,197.574 C14.1359959,199.988 12.5719959,201.484 9.95399588,201.484 L9.95399588,201.484 Z M44.0389966,204.408 C50.7369966,204.408 55.3269966,199.376 55.3269966,192.678 C55.3269966,185.98 50.7369966,180.948 44.0389966,180.948 C37.3409966,180.948 32.7849966,185.98 32.7849966,192.678 C32.7849966,199.376 37.3409966,204.408 44.0389966,204.408 L44.0389966,204.408 Z M44.0389966,201.892 C38.9389966,201.892 35.7089966,197.948 35.7089966,192.678 C35.7089966,187.374 38.9389966,183.464 44.0389966,183.464 C49.1049966,183.464 52.4029966,187.374 52.4029966,192.678 C52.4029966,197.948 49.1049966,201.892 44.0389966,201.892 L44.0389966,201.892 Z M90.0239973,204 L80.9119973,181.322 L77.4099973,181.322 L68.2639973,204 L71.4939973,204 L73.4999973,198.934 L84.7879973,198.934 L86.7939973,204 L90.0239973,204 Z M83.9719973,196.452 L74.3499973,196.452 L79.1439973,184.212 L83.9719973,196.452 Z M121.592998,204 L115.472998,194.752 C118.566998,194.48 121.388998,192.236 121.388998,188.156 C121.388998,183.974 118.396998,181.322 114.248998,181.322 L105.136998,181.322 L105.136998,204 L107.958998,204 L107.958998,194.99 L112.514998,194.99 L118.260998,204 L121.592998,204 Z M113.908998,192.508 L107.958998,192.508 L107.958998,183.838 L113.908998,183.838 C116.594998,183.838 118.464998,185.572 118.464998,188.156 C118.464998,190.706 116.594998,192.508 113.908998,192.508 L113.908998,192.508 Z M145.749999,204 C152.821999,204 157.377999,199.138 157.377999,192.678 C157.377999,186.252 152.821999,181.322 145.749999,181.322 L137.997999,181.322 L137.997999,204 L145.749999,204 Z M145.749999,201.484 L140.819999,201.484 L140.819999,183.838 L145.749999,183.838 C151.359999,183.838 154.453999,187.782 154.453999,192.678 C154.453999,197.54 151.257999,201.484 145.749999,201.484 L145.749999,201.484 Z M183.574999,204 L192.686999,181.322 L189.456999,181.322 L181.806999,200.906 L174.156999,181.322 L170.926999,181.322 L180.072999,204 L183.574999,204 Z M225.378,204 L216.266,181.322 L212.764,181.322 L203.618,204 L206.848,204 L208.854,198.934 L220.142,198.934 L222.148,204 L225.378,204 Z M219.326,196.452 L209.704,196.452 L214.498,184.212 L219.326,196.452 Z M259.259001,204 L259.259001,181.322 L256.437001,181.322 L256.437001,199.036 L243.381001,181.322 L240.491001,181.322 L240.491001,204 L243.313001,204 L243.313001,185.912 L256.539001,204 L259.259001,204 Z M285.150001,204 L285.150001,183.838 L292.358001,183.838 L292.358001,181.322 L275.154001,181.322 L275.154001,183.838 L282.328001,183.838 L282.328001,204 L285.150001,204 Z M325.389002,204 L316.277002,181.322 L312.775002,181.322 L303.629002,204 L306.859002,204 L308.865002,198.934 L320.153002,198.934 L322.159002,204 L325.389002,204 Z M319.337002,196.452 L309.715002,196.452 L314.509002,184.212 L319.337002,196.452 Z M349.988003,204.442 C353.694003,204.442 356.788003,202.878 358.896003,200.498 L358.896003,192.338 L348.288003,192.338 L348.288003,194.854 L356.108003,194.854 L356.108003,199.444 C354.952003,200.6 352.708003,201.892 349.988003,201.892 C345.024003,201.892 341.250003,198.05 341.250003,192.678 C341.250003,187.238 345.024003,183.464 349.988003,183.464 C352.708003,183.464 355.122003,184.756 356.550003,186.592 L358.794003,185.164 C356.822003,182.716 354.034003,180.948 349.988003,180.948 C343.528003,180.948 338.326003,185.606 338.326003,192.678 C338.326003,199.716 343.528003,204.442 349.988003,204.442 L349.988003,204.442 Z M390.499003,204 L390.499003,201.484 L378.463003,201.484 L378.463003,193.664 L390.261003,193.664 L390.261003,191.148 L378.463003,191.148 L378.463003,183.838 L390.499003,183.838 L390.499003,181.322 L375.641003,181.322 L375.641003,204 L390.499003,204 Z" id="BOARDVANTAGE"></path>
                <path d="M106.877502,236 L104.197502,229.33 L103.167502,229.33 L100.477502,236 L101.427502,236 L102.017502,234.51 L105.337502,234.51 L105.927502,236 L106.877502,236 Z M105.097502,233.78 L102.267502,233.78 L103.677502,230.18 L105.097502,233.78 Z M118.317502,236 L118.317502,233.35 L120.167502,233.35 C121.497502,233.35 122.257502,232.43 122.257502,231.34 C122.257502,230.25 121.507502,229.33 120.167502,229.33 L117.487502,229.33 L117.487502,236 L118.317502,236 Z M120.067502,232.61 L118.317502,232.61 L118.317502,230.07 L120.067502,230.07 C120.857502,230.07 121.397502,230.59 121.397502,231.34 C121.397502,232.09 120.857502,232.61 120.067502,232.61 L120.067502,232.61 Z M131.872501,236 L129.192501,229.33 L128.162501,229.33 L125.472501,236 L126.422501,236 L127.012501,234.51 L130.332501,234.51 L130.922501,236 L131.872501,236 Z M130.092501,233.78 L127.262501,233.78 L128.672501,230.18 L130.092501,233.78 Z M137.147501,236 L137.147501,233.35 L138.997501,233.35 C140.327501,233.35 141.087501,232.43 141.087501,231.34 C141.087501,230.25 140.337501,229.33 138.997501,229.33 L136.317501,229.33 L136.317501,236 L137.147501,236 Z M138.897501,232.61 L137.147501,232.61 L137.147501,230.07 L138.897501,230.07 C139.687501,230.07 140.227501,230.59 140.227501,231.34 C140.227501,232.09 139.687501,232.61 138.897501,232.61 L138.897501,232.61 Z M150.132501,236 L150.132501,235.26 L146.592501,235.26 L146.592501,232.96 L150.062501,232.96 L150.062501,232.22 L146.592501,232.22 L146.592501,230.07 L150.132501,230.07 L150.132501,229.33 L145.762501,229.33 L145.762501,236 L150.132501,236 Z M159.867501,236 L158.067501,233.28 C158.977501,233.2 159.807501,232.54 159.807501,231.34 C159.807501,230.11 158.927501,229.33 157.707501,229.33 L155.027501,229.33 L155.027501,236 L155.857501,236 L155.857501,233.35 L157.197501,233.35 L158.887501,236 L159.867501,236 Z M157.607501,232.62 L155.857501,232.62 L155.857501,230.07 L157.607501,230.07 C158.397501,230.07 158.947501,230.58 158.947501,231.34 C158.947501,232.09 158.397501,232.62 157.607501,232.62 L157.607501,232.62 Z M168.512501,236 L168.512501,235.26 L165.412501,235.26 L165.412501,229.33 L164.582501,229.33 L164.582501,236 L168.512501,236 Z M177.5675,236 L177.5675,235.26 L174.0275,235.26 L174.0275,232.96 L177.4975,232.96 L177.4975,232.22 L174.0275,232.22 L174.0275,230.07 L177.5675,230.07 L177.5675,229.33 L173.1975,229.33 L173.1975,236 L177.5675,236 Z M184.6225,236.12 C186.4225,236.12 187.0825,235.12 187.0825,234.16 C187.0825,231.67 183.1325,232.53 183.1325,231.03 C183.1325,230.4 183.7125,229.97 184.5025,229.97 C185.2325,229.97 185.9325,230.21 186.4325,230.77 L186.9325,230.16 C186.3725,229.57 185.5825,229.22 184.5725,229.22 C183.2525,229.22 182.2725,229.98 182.2725,231.08 C182.2725,233.46 186.2225,232.5 186.2225,234.22 C186.2225,234.74 185.8425,235.38 184.6525,235.38 C183.7125,235.38 182.9925,234.92 182.5625,234.42 L182.0625,235.06 C182.6125,235.68 183.4725,236.12 184.6225,236.12 L184.6225,236.12 Z M194.0575,236.12 C195.8575,236.12 196.5175,235.12 196.5175,234.16 C196.5175,231.67 192.5675,232.53 192.5675,231.03 C192.5675,230.4 193.1475,229.97 193.9375,229.97 C194.6675,229.97 195.3675,230.21 195.8675,230.77 L196.3675,230.16 C195.8075,229.57 195.0175,229.22 194.0075,229.22 C192.6875,229.22 191.7075,229.98 191.7075,231.08 C191.7075,233.46 195.6575,232.5 195.6575,234.22 C195.6575,234.74 195.2775,235.38 194.0875,235.38 C193.1475,235.38 192.4275,234.92 191.9975,234.42 L191.4975,235.06 C192.0475,235.68 192.9075,236.12 194.0575,236.12 L194.0575,236.12 Z M210.5375,236 C211.7575,236 212.4675,235.27 212.4675,234.2 C212.4675,233.4 211.8775,232.67 211.1675,232.56 C211.7775,232.43 212.3375,231.87 212.3375,231.03 C212.3375,230.03 211.6275,229.33 210.4675,229.33 L207.4975,229.33 L207.4975,236 L210.5375,236 Z M210.3275,232.22 L208.3275,232.22 L208.3275,230.07 L210.3275,230.07 C211.0775,230.07 211.4775,230.55 211.4775,231.15 C211.4775,231.76 211.0775,232.22 210.3275,232.22 L210.3275,232.22 Z M210.3775,235.26 L208.3275,235.26 L208.3275,232.96 L210.3775,232.96 C211.1875,232.96 211.6075,233.5 211.6075,234.11 C211.6075,234.82 211.1475,235.26 210.3775,235.26 L210.3775,235.26 Z M220.4025,236.12 C222.3725,236.12 223.7225,234.64 223.7225,232.67 C223.7225,230.7 222.3725,229.22 220.4025,229.22 C218.4325,229.22 217.0925,230.7 217.0925,232.67 C217.0925,234.64 218.4325,236.12 220.4025,236.12 L220.4025,236.12 Z M220.4025,235.38 C218.9025,235.38 217.9525,234.22 217.9525,232.67 C217.9525,231.11 218.9025,229.96 220.4025,229.96 C221.8925,229.96 222.8625,231.11 222.8625,232.67 C222.8625,234.22 221.8925,235.38 220.4025,235.38 L220.4025,235.38 Z M233.927499,236 L231.247499,229.33 L230.217499,229.33 L227.527499,236 L228.477499,236 L229.067499,234.51 L232.387499,234.51 L232.977499,236 L233.927499,236 Z M232.147499,233.78 L229.317499,233.78 L230.727499,230.18 L232.147499,233.78 Z M243.212499,236 L241.412499,233.28 C242.322499,233.2 243.152499,232.54 243.152499,231.34 C243.152499,230.11 242.272499,229.33 241.052499,229.33 L238.372499,229.33 L238.372499,236 L239.202499,236 L239.202499,233.35 L240.542499,233.35 L242.232499,236 L243.212499,236 Z M240.952499,232.62 L239.202499,232.62 L239.202499,230.07 L240.952499,230.07 C241.742499,230.07 242.292499,230.58 242.292499,231.34 C242.292499,232.09 241.742499,232.62 240.952499,232.62 L240.952499,232.62 Z M250.317499,236 C252.397499,236 253.737499,234.57 253.737499,232.67 C253.737499,230.78 252.397499,229.33 250.317499,229.33 L248.037499,229.33 L248.037499,236 L250.317499,236 Z M250.317499,235.26 L248.867499,235.26 L248.867499,230.07 L250.317499,230.07 C251.967499,230.07 252.877499,231.23 252.877499,232.67 C252.877499,234.1 251.937499,235.26 250.317499,235.26 L250.317499,235.26 Z M263.452499,236 L261.652499,233.28 C262.562499,233.2 263.392499,232.54 263.392499,231.34 C263.392499,230.11 262.512499,229.33 261.292499,229.33 L258.612499,229.33 L258.612499,236 L259.442499,236 L259.442499,233.35 L260.782499,233.35 L262.472499,236 L263.452499,236 Z M261.192499,232.62 L259.442499,232.62 L259.442499,230.07 L261.192499,230.07 C261.982499,230.07 262.532499,230.58 262.532499,231.34 C262.532499,232.09 261.982499,232.62 261.192499,232.62 L261.192499,232.62 Z M271.317499,236.12 C273.287499,236.12 274.637499,234.64 274.637499,232.67 C274.637499,230.7 273.287499,229.22 271.317499,229.22 C269.347499,229.22 268.007499,230.7 268.007499,232.67 C268.007499,234.64 269.347499,236.12 271.317499,236.12 L271.317499,236.12 Z M271.317499,235.38 C269.817499,235.38 268.867499,234.22 268.867499,232.67 C268.867499,231.11 269.817499,229.96 271.317499,229.96 C272.807499,229.96 273.777499,231.11 273.777499,232.67 C273.777499,234.22 272.807499,235.38 271.317499,235.38 L271.317499,235.38 Z M282.542498,236.12 C284.512498,236.12 285.862498,234.64 285.862498,232.67 C285.862498,230.7 284.512498,229.22 282.542498,229.22 C280.572498,229.22 279.232498,230.7 279.232498,232.67 C279.232498,234.64 280.572498,236.12 282.542498,236.12 L282.542498,236.12 Z M282.542498,235.38 C281.042498,235.38 280.092498,234.22 280.092498,232.67 C280.092498,231.11 281.042498,229.96 282.542498,229.96 C284.032498,229.96 285.002498,231.11 285.002498,232.67 C285.002498,234.22 284.032498,235.38 282.542498,235.38 L282.542498,235.38 Z M297.257498,236 L297.257498,229.33 L296.067498,229.33 L293.997498,234.47 L291.917498,229.33 L290.727498,229.33 L290.727498,236 L291.557498,236 L291.557498,230.39 L293.827498,236 L294.167498,236 L296.427498,230.39 L296.427498,236 L297.257498,236 Z" id="A-PAPERLESS-BOARDROO"></path>
                <path d="M180.496811,71.3028196 L182.106372,51.7324277 L185.566454,51.7324277 L187.173641,71.3028196 L180.496811,71.3028196 Z M157.818145,73.6197114 C158.417576,73.3555668 158.689397,72.6578934 158.424698,72.0585338 C155.743283,65.9820231 154.143218,58.6392764 153.977039,51.7312432 L179.72408,51.7312432 L177.919852,73.6718297 L189.749413,73.6718297 L187.948746,51.7312432 L213.6946,51.7312432 C213.529608,58.6404609 211.928356,65.9832076 209.246941,72.0585338 C208.983429,72.6578934 209.25525,73.3555668 209.854681,73.6197114 C210.011364,73.6884127 210.172795,73.7203944 210.331852,73.7203944 C210.788844,73.7203944 211.223283,73.4562498 211.419137,73.0132449 C214.383055,66.2982859 216.082828,58.1098027 216.082828,50.5467381 C216.082828,49.8928914 215.552242,49.3622331 214.895836,49.3622331 L152.775803,49.3622331 C152.120584,49.3622331 151.588811,49.8928914 151.588811,50.5467381 C151.588811,58.1098027 153.288584,66.2982859 156.252502,73.0132449 C156.516015,73.6126044 157.218714,73.8850406 157.818145,73.6197114 L157.818145,73.6197114 Z" id="Fill-1" stroke="#FFFFFF"></path>
                <path d="M196.91006,126.149785 L170.763003,126.149785 L165.420353,84.6411753 L202.252711,84.6411753 L196.91006,126.149785 Z M237.48619,82.2721653 L204.950743,82.2721653 L162.721133,82.2721653 L130.186873,82.2721653 C129.531654,82.2721653 128.999881,82.801639 128.999881,83.4566703 C128.999881,84.1117016 129.531654,84.6411753 130.186873,84.6411753 L163.02619,84.6411753 L168.673898,128.518795 L198.999166,128.518795 L204.646873,84.6411753 L237.48619,84.6411753 C238.14141,84.6411753 238.673182,84.1117016 238.673182,83.4566703 C238.673182,82.801639 238.14141,82.2721653 237.48619,82.2721653 L237.48619,82.2721653 Z" id="Fill-3" stroke="#FFFFFF" stroke-width="2"></path>
                <path d="M183.836413,2.3696023 C194.080153,2.3696023 202.41521,10.4502956 202.41521,20.3823702 C202.41521,30.3132603 194.080153,38.3939535 183.836413,38.3939535 C173.592673,38.3939535 165.257616,30.3132603 165.257616,20.3823702 C165.257616,10.4502956 173.592673,2.3696023 183.836413,2.3696023 M183.836413,40.7629636 C195.389405,40.7629636 204.789193,31.6197693 204.789193,20.3823702 C204.789193,9.14378651 195.389405,0.00059225251 183.836413,0.00059225251 C172.283421,0.00059225251 162.883633,9.14378651 162.883633,20.3823702 C162.883633,31.6197693 172.283421,40.7629636 183.836413,40.7629636" id="Fill-6" stroke="#FFFFFF"></path>
                <path d="M232.750567,19.8769419 L232.750567,22.2459519 C246.063868,22.2459519 256.895169,32.8069987 256.895169,45.7868047 L259.269153,45.7868047 C259.269153,31.5004896 247.371933,19.8769419 232.750567,19.8769419" id="Fill-8" stroke="#FFFFFF"></path>
                <path d="M232.750567,4.53037636 L232.750567,6.8993864 C254.734844,6.8993864 272.618063,24.3447764 272.618063,45.7866863 L274.992047,45.7866863 C274.992047,23.0382673 256.042909,4.53037636 232.750567,4.53037636" id="Fill-10" stroke="#FFFFFF"></path>
                <path d="M237.991137,43.7498114 C236.236763,43.7498114 234.811185,42.3686786 234.811185,40.6712829 C234.811185,38.9738872 236.236763,37.5927543 237.991137,37.5927543 C239.745511,37.5927543 241.172275,38.9738872 241.172275,40.6712829 C241.172275,42.3686786 239.745511,43.7498114 237.991137,43.7498114 M237.991137,35.2237443 C234.928698,35.2237443 232.437202,37.6673781 232.437202,40.6712829 C232.437202,43.6751876 234.928698,46.1188215 237.991137,46.1188215 C241.053576,46.1188215 243.546259,43.6751876 243.546259,40.6712829 C243.546259,37.6673781 241.053576,35.2237443 237.991137,35.2237443" id="Fill-13" stroke="#FFFFFF"></path>
            </g>
        </g>
    </g>
</svg>