<?xml version="1.0" encoding="UTF-8"?>
<svg width="238px" height="229px" viewBox="0 0 238 229" version="1.1" xmlns="http://www.w3.org/2000/svg" xmlns:xlink="http://www.w3.org/1999/xlink">
    <!-- Generator: Sketch 51.3 (57544) - http://www.bohemiancoding.com/sketch -->
    <title>Group</title>
    <desc>Created with Sketch.</desc>
    <defs></defs>
    <g id="Page-1" stroke="none" stroke-width="1" fill="none" fill-rule="evenodd">
        <g id="1170---Adidas" transform="translate(-1308.000000, -435.000000)" fill="#FFFFFF">
            <g id="Group-8-Copy-2" transform="translate(961.000000, 435.000000)">
                <g id="-updated-copy">
                    <g id="Group" transform="translate(347.000000, 0.000000)">
                        <path d="M13.336,187.052 L3,187.052 L3,164.374 L13.098,164.374 C17.042,164.374 19.456,166.754 19.456,170.154 C19.456,173.01 17.552,174.914 15.478,175.356 C17.892,175.73 19.898,178.212 19.898,180.932 C19.898,184.57 17.484,187.052 13.336,187.052 Z M12.622,174.2 C15.172,174.2 16.532,172.636 16.532,170.562 C16.532,168.522 15.172,166.89 12.622,166.89 L5.822,166.89 L5.822,174.2 L12.622,174.2 Z M12.792,184.536 C15.41,184.536 16.974,183.04 16.974,180.626 C16.974,178.552 15.546,176.716 12.792,176.716 L5.822,176.716 L5.822,184.536 L12.792,184.536 Z M39.363,187.052 L36.541,187.052 L36.541,164.374 L39.363,164.374 L39.363,187.052 Z M73.278,187.052 L69.946,187.052 L64.2,178.042 L59.644,178.042 L59.644,187.052 L56.822,187.052 L56.822,164.374 L65.934,164.374 C70.082,164.374 73.074,167.026 73.074,171.208 C73.074,175.288 70.252,177.532 67.158,177.804 L73.278,187.052 Z M65.594,175.56 C68.28,175.56 70.15,173.758 70.15,171.208 C70.15,168.624 68.28,166.89 65.594,166.89 L59.644,166.89 L59.644,175.56 L65.594,175.56 Z M97.435,187.052 L89.683,187.052 L89.683,164.374 L97.435,164.374 C104.507,164.374 109.063,169.304 109.063,175.73 C109.063,182.19 104.507,187.052 97.435,187.052 Z M97.435,184.536 C102.943,184.536 106.139,180.592 106.139,175.73 C106.139,170.834 103.045,166.89 97.435,166.89 L92.505,166.89 L92.505,184.536 L97.435,184.536 Z M132.982,187.46 C129.072,187.46 126.148,185.964 124.278,183.856 L125.978,181.68 C127.44,183.38 129.888,184.944 133.084,184.944 C137.13,184.944 138.422,182.768 138.422,181 C138.422,175.152 124.992,178.416 124.992,170.324 C124.992,166.584 128.324,164 132.812,164 C136.246,164 138.932,165.19 140.836,167.196 L139.136,169.27 C137.436,167.366 135.056,166.55 132.574,166.55 C129.888,166.55 127.916,168.012 127.916,170.154 C127.916,175.254 141.346,172.33 141.346,180.796 C141.346,184.06 139.102,187.46 132.982,187.46 Z M172.575,187.052 L157.717,187.052 L157.717,164.374 L172.575,164.374 L172.575,166.89 L160.539,166.89 L160.539,174.2 L172.337,174.2 L172.337,176.716 L160.539,176.716 L160.539,184.536 L172.575,184.536 L172.575,187.052 Z M198.636,187.052 L195.814,187.052 L195.814,177.464 L186.872,164.374 L190.17,164.374 L197.208,174.914 L204.246,164.374 L207.544,164.374 L198.636,177.464 L198.636,187.052 Z M237.515,187.052 L222.657,187.052 L222.657,164.374 L237.515,164.374 L237.515,166.89 L225.479,166.89 L225.479,174.2 L237.277,174.2 L237.277,176.716 L225.479,176.716 L225.479,184.536 L237.515,184.536 L237.515,187.052 Z" id="BIRDSEYE"></path>
                        <path d="M8.201,228 L7.061,228 L6.353,226.212 L2.369,226.212 L1.661,228 L0.521,228 L3.749,219.996 L4.985,219.996 L8.201,228 Z M6.065,225.336 L4.361,221.016 L2.669,225.336 L6.065,225.336 Z M21.929,228 L20.933,228 L20.933,219.996 L26.177,219.996 L26.177,220.884 L21.929,220.884 L21.929,223.464 L26.093,223.464 L26.093,224.352 L21.929,224.352 L21.929,228 Z M37.643,228 L36.467,228 L34.439,224.82 L32.831,224.82 L32.831,228 L31.835,228 L31.835,219.996 L35.051,219.996 C36.515,219.996 37.571,220.932 37.571,222.408 C37.571,223.848 36.575,224.64 35.483,224.736 L37.643,228 Z M34.931,223.944 C35.879,223.944 36.539,223.308 36.539,222.408 C36.539,221.496 35.879,220.884 34.931,220.884 L32.831,220.884 L32.831,223.944 L34.931,223.944 Z M48.677,228 L43.433,228 L43.433,219.996 L48.677,219.996 L48.677,220.884 L44.429,220.884 L44.429,223.464 L48.593,223.464 L48.593,224.352 L44.429,224.352 L44.429,227.112 L48.677,227.112 L48.677,228 Z M59.795,228 L54.551,228 L54.551,219.996 L59.795,219.996 L59.795,220.884 L55.547,220.884 L55.547,223.464 L59.711,223.464 L59.711,224.352 L55.547,224.352 L55.547,227.112 L59.795,227.112 L59.795,228 Z M70.253,228 L65.537,228 L65.537,219.996 L66.533,219.996 L66.533,227.112 L70.253,227.112 L70.253,228 Z M82.727,228 L81.587,228 L80.879,226.212 L76.895,226.212 L76.187,228 L75.047,228 L78.275,219.996 L79.511,219.996 L82.727,228 Z M80.591,225.336 L78.887,221.016 L77.195,225.336 L80.591,225.336 Z M94.685,228 L93.725,228 L89.057,221.616 L89.057,228 L88.061,228 L88.061,219.996 L89.081,219.996 L93.689,226.248 L93.689,219.996 L94.685,219.996 L94.685,228 Z M104.639,228.144 C102.335,228.144 100.523,226.464 100.523,224.004 C100.523,221.544 102.335,219.864 104.639,219.864 C106.055,219.864 107.039,220.536 107.675,221.448 L106.847,221.916 C106.391,221.232 105.551,220.752 104.639,220.752 C102.887,220.752 101.555,222.084 101.555,224.004 C101.555,225.9 102.887,227.256 104.639,227.256 C105.551,227.256 106.391,226.764 106.847,226.092 L107.687,226.548 C107.015,227.472 106.055,228.144 104.639,228.144 Z M118.493,228 L113.249,228 L113.249,219.996 L118.493,219.996 L118.493,220.884 L114.245,220.884 L114.245,223.464 L118.409,223.464 L118.409,224.352 L114.245,224.352 L114.245,227.112 L118.493,227.112 L118.493,228 Z M134.501,228 L131.765,228 L131.765,219.996 L134.501,219.996 C136.997,219.996 138.605,221.736 138.605,224.004 C138.605,226.284 136.997,228 134.501,228 Z M134.501,227.112 C136.445,227.112 137.573,225.72 137.573,224.004 C137.573,222.276 136.481,220.884 134.501,220.884 L132.761,220.884 L132.761,227.112 L134.501,227.112 Z M150.863,228 L149.723,228 L149.015,226.212 L145.031,226.212 L144.323,228 L143.183,228 L146.411,219.996 L147.647,219.996 L150.863,228 Z M148.727,225.336 L147.023,221.016 L145.331,225.336 L148.727,225.336 Z M158.621,228.144 C157.241,228.144 156.209,227.616 155.549,226.872 L156.149,226.104 C156.665,226.704 157.529,227.256 158.657,227.256 C160.085,227.256 160.541,226.488 160.541,225.864 C160.541,223.8 155.801,224.952 155.801,222.096 C155.801,220.776 156.977,219.864 158.561,219.864 C159.773,219.864 160.721,220.284 161.393,220.992 L160.793,221.724 C160.193,221.052 159.353,220.764 158.477,220.764 C157.529,220.764 156.833,221.28 156.833,222.036 C156.833,223.836 161.573,222.804 161.573,225.792 C161.573,226.944 160.781,228.144 158.621,228.144 Z M174.023,228 L173.027,228 L173.027,224.328 L168.347,224.328 L168.347,228 L167.351,228 L167.351,219.996 L168.347,219.996 L168.347,223.44 L173.027,223.44 L173.027,219.996 L174.023,219.996 L174.023,228 Z M183.833,228 L180.185,228 L180.185,219.996 L183.749,219.996 C185.141,219.996 185.993,220.836 185.993,222.036 C185.993,223.044 185.321,223.716 184.589,223.872 C185.441,224.004 186.149,224.88 186.149,225.84 C186.149,227.124 185.297,228 183.833,228 Z M183.581,223.464 C184.481,223.464 184.961,222.912 184.961,222.18 C184.961,221.46 184.481,220.884 183.581,220.884 L181.181,220.884 L181.181,223.464 L183.581,223.464 Z M183.641,227.112 C184.565,227.112 185.117,226.584 185.117,225.732 C185.117,225 184.613,224.352 183.641,224.352 L181.181,224.352 L181.181,227.112 L183.641,227.112 Z M195.671,228.144 C193.307,228.144 191.699,226.368 191.699,224.004 C191.699,221.64 193.307,219.864 195.671,219.864 C198.035,219.864 199.655,221.64 199.655,224.004 C199.655,226.368 198.035,228.144 195.671,228.144 Z M195.671,227.256 C197.459,227.256 198.623,225.864 198.623,224.004 C198.623,222.132 197.459,220.752 195.671,220.752 C193.871,220.752 192.731,222.132 192.731,224.004 C192.731,225.864 193.871,227.256 195.671,227.256 Z M211.901,228 L210.761,228 L210.053,226.212 L206.069,226.212 L205.361,228 L204.221,228 L207.449,219.996 L208.685,219.996 L211.901,228 Z M209.765,225.336 L208.061,221.016 L206.369,225.336 L209.765,225.336 Z M223.043,228 L221.867,228 L219.839,224.82 L218.231,224.82 L218.231,228 L217.235,228 L217.235,219.996 L220.451,219.996 C221.915,219.996 222.971,220.932 222.971,222.408 C222.971,223.848 221.975,224.64 220.883,224.736 L223.043,228 Z M220.331,223.944 C221.279,223.944 221.939,223.308 221.939,222.408 C221.939,221.496 221.279,220.884 220.331,220.884 L218.231,220.884 L218.231,223.944 L220.331,223.944 Z M231.569,228 L228.833,228 L228.833,219.996 L231.569,219.996 C234.065,219.996 235.673,221.736 235.673,224.004 C235.673,226.284 234.065,228 231.569,228 Z M231.569,227.112 C233.513,227.112 234.641,225.72 234.641,224.004 C234.641,222.276 233.549,220.884 231.569,220.884 L229.829,220.884 L229.829,227.112 L231.569,227.112 Z" id="A-FREELANCE-DASHBOAR"></path>
                        <g id="logo" transform="translate(83.000000, 0.000000)">
                            <g id="hot-air-ballon">
                                <path d="M36.9173999,0 C57.3057069,0 73.8333299,15.7121946 73.8333299,35.0938171 C73.8333299,35.4816172 73.818997,35.875706 73.7888612,36.2757341 C72.1122844,34.2997002 69.9142119,32.7547882 66.6801311,32.7547882 C61.3008992,32.7547882 58.7900765,37.0237342 56.771716,40.4531452 C54.7919441,43.8172241 53.6563407,45.4016148 51.7971117,45.4016148 C49.9382503,45.4016148 48.8026469,43.8172241 46.822875,40.4531452 C44.8045145,37.0237342 42.2922217,32.7547882 36.9144599,32.7547882 C31.5355955,32.7547882 29.0233027,37.0237342 27.0045748,40.4531452 C25.0266403,43.8172241 23.891037,45.4016148 22.031808,45.4016148 C20.1729466,45.4016148 19.0373432,43.8172241 17.0575712,40.4531452 C15.0392108,37.0237342 12.528388,32.7547882 7.14915613,32.7547882 C3.91617785,32.7547882 1.71994298,34.2969052 0.0444686111,36.2729391 C0.0143328581,35.8732604 0,35.4816172 0,35.0938171 C0,15.7121946 16.5279905,0 36.9173999,0 Z M66.3809811,36.7536882 C68.2226145,36.7536882 69.3468041,38.3380789 71.3066775,41.7021578 C71.4230984,41.9012984 71.5409746,42.1046315 71.6617613,42.309362 C67.281788,54.1879251 55.8030489,69.0675721 47.2293757,82.155303 L26.6054094,82.155303 C18.0302809,69.0661747 6.55008662,54.1851301 2.17156853,42.3065671 C2.29089997,42.1018365 2.40913997,41.9012984 2.52556089,41.7021578 C4.48397908,38.3380789 5.60926005,36.7536882 7.44980206,36.7536882 C9.2888888,36.7536882 10.4141698,38.3380789 12.372588,41.7021578 C14.370662,45.1315688 16.857704,49.4005148 22.1814144,49.4005148 C27.5065801,49.4005148 29.9921668,45.1315688 31.9902409,41.7021578 C33.9501143,38.3380789 35.0743038,36.7536882 36.914482,36.7536882 C38.755024,36.7536882 39.8792136,38.3380789 41.8387232,41.7021578 C43.8371611,45.1329663 46.3227478,49.4005148 51.6475497,49.4005148 C56.9727154,49.4005148 59.458302,45.1315688 61.4563761,41.7021578 C63.4162496,38.3380789 64.5404391,36.7536882 66.3809811,36.7536882 Z M26.0588223,92.9652113 L47.7745076,92.9652113 L47.7745076,109.487169 C47.7745076,112.299434 46.1381512,114.585028 44.1258377,114.585028 L29.7074922,114.585028 C27.6951786,114.585028 26.0588223,112.299434 26.0588223,109.487169 L26.0588223,92.9652113 Z" id="Combined-Shape"></path>
                            </g>
                        </g>
                    </g>
                </g>
            </g>
        </g>
    </g>
</svg>