<?xml version="1.0" encoding="UTF-8"?>
<svg width="216px" height="215px" viewBox="0 0 216 215" version="1.1" xmlns="http://www.w3.org/2000/svg" xmlns:xlink="http://www.w3.org/1999/xlink">
    <!-- Generator: Sketch 51.3 (57544) - http://www.bohemiancoding.com/sketch -->
    <title>Group 10</title>
    <desc>Created with Sketch.</desc>
    <defs></defs>
    <g id="Page-1" stroke="none" stroke-width="1" fill="none" fill-rule="evenodd">
        <g id="1170---Adidas" transform="translate(-761.000000, -703.000000)" fill="#FFFFFF">
            <g id="Group-10" transform="translate(761.000000, 703.000000)">
                <path d="M2.822,173.052 L0,173.052 L0,150.374 L14.858,150.374 L14.858,152.89 L2.822,152.89 L2.822,160.2 L14.62,160.2 L14.62,162.716 L2.822,162.716 L2.822,173.052 Z M45.7419996,173.052 L30.8839996,173.052 L30.8839996,150.374 L45.7419996,150.374 L45.7419996,152.89 L33.7059996,152.89 L33.7059996,160.2 L45.5039996,160.2 L45.5039996,162.716 L33.7059996,162.716 L33.7059996,170.536 L45.7419996,170.536 L45.7419996,173.052 Z M77.2379992,173.052 L62.3799992,173.052 L62.3799992,150.374 L77.2379992,150.374 L77.2379992,152.89 L65.2019992,152.89 L65.2019992,160.2 L76.9999992,160.2 L76.9999992,162.716 L65.2019992,162.716 L65.2019992,170.536 L77.2379992,170.536 L77.2379992,173.052 Z M101.627999,173.052 L93.8759989,173.052 L93.8759989,150.374 L101.627999,150.374 C108.699999,150.374 113.255999,155.304 113.255999,161.73 C113.255999,168.19 108.699999,173.052 101.627999,173.052 Z M101.627999,170.536 C107.135999,170.536 110.331999,166.592 110.331999,161.73 C110.331999,156.834 107.237999,152.89 101.627999,152.89 L96.6979989,152.89 L96.6979989,170.536 L101.627999,170.536 Z M144.683998,173.052 L129.825998,173.052 L129.825998,150.374 L144.683998,150.374 L144.683998,152.89 L132.647998,152.89 L132.647998,160.2 L144.445998,160.2 L144.445998,162.716 L132.647998,162.716 L132.647998,170.536 L144.683998,170.536 L144.683998,173.052 Z M171.657998,173.46 C164.959998,173.46 160.403998,168.428 160.403998,161.73 C160.403998,155.032 164.959998,150 171.657998,150 C178.355998,150 182.945998,155.032 182.945998,161.73 C182.945998,168.428 178.355998,173.46 171.657998,173.46 Z M171.657998,170.944 C176.723998,170.944 180.021998,167 180.021998,161.73 C180.021998,156.426 176.723998,152.516 171.657998,152.516 C166.557998,152.516 163.327998,156.426 163.327998,161.73 C163.327998,167 166.557998,170.944 171.657998,170.944 Z M206.825998,173.46 C202.915998,173.46 199.991998,171.964 198.121998,169.856 L199.821998,167.68 C201.283998,169.38 203.731998,170.944 206.927998,170.944 C210.973998,170.944 212.265998,168.768 212.265998,167 C212.265998,161.152 198.835998,164.416 198.835998,156.324 C198.835998,152.584 202.167998,150 206.655998,150 C210.089998,150 212.775998,151.19 214.679998,153.196 L212.979998,155.27 C211.279998,153.366 208.899998,152.55 206.417998,152.55 C203.731998,152.55 201.759998,154.012 201.759998,156.154 C201.759998,161.254 215.189998,158.33 215.189998,166.796 C215.189998,170.06 212.945998,173.46 206.825998,173.46 Z" id="FEEDEOS-Copy"></path>
                <path d="M19.072,214.28 C17.692,214.28 16.66,213.752 16,213.008 L16.6,212.24 C17.116,212.84 17.98,213.392 19.108,213.392 C20.536,213.392 20.992,212.624 20.992,212 C20.992,209.936 16.252,211.088 16.252,208.232 C16.252,206.912 17.428,206 19.012,206 C20.224,206 21.172,206.42 21.844,207.128 L21.244,207.86 C20.644,207.188 19.804,206.9 18.928,206.9 C17.98,206.9 17.284,207.416 17.284,208.172 C17.284,209.972 22.024,208.94 22.024,211.928 C22.024,213.08 21.232,214.28 19.072,214.28 Z M35.638,214.136 L34.642,214.136 L34.642,207.404 L31.93,214.136 L31.522,214.136 L28.798,207.404 L28.798,214.136 L27.802,214.136 L27.802,206.132 L29.23,206.132 L31.726,212.3 L34.21,206.132 L35.638,206.132 L35.638,214.136 Z M48.652,214.136 L47.512,214.136 L46.804,212.348 L42.82,212.348 L42.112,214.136 L40.972,214.136 L44.2,206.132 L45.436,206.132 L48.652,214.136 Z M46.516,211.472 L44.812,207.152 L43.12,211.472 L46.516,211.472 Z M59.794,214.136 L58.618,214.136 L56.59,210.956 L54.982,210.956 L54.982,214.136 L53.986,214.136 L53.986,206.132 L57.202,206.132 C58.666,206.132 59.722,207.068 59.722,208.544 C59.722,209.984 58.726,210.776 57.634,210.872 L59.794,214.136 Z M57.082,210.08 C58.03,210.08 58.69,209.444 58.69,208.544 C58.69,207.632 58.03,207.02 57.082,207.02 L54.982,207.02 L54.982,210.08 L57.082,210.08 Z M68.44,214.136 L67.444,214.136 L67.444,207.02 L64.912,207.02 L64.912,206.132 L70.984,206.132 L70.984,207.02 L68.44,207.02 L68.44,214.136 Z M87.628,214.136 L86.392,214.136 L83.164,206.132 L84.304,206.132 L87.004,213.044 L89.704,206.132 L90.844,206.132 L87.628,214.136 Z M97.174,214.136 L96.178,214.136 L96.178,206.132 L97.174,206.132 L97.174,214.136 Z M106.072,214.136 L103.336,214.136 L103.336,206.132 L106.072,206.132 C108.568,206.132 110.176,207.872 110.176,210.14 C110.176,212.42 108.568,214.136 106.072,214.136 Z M106.072,213.248 C108.016,213.248 109.144,211.856 109.144,210.14 C109.144,208.412 108.052,207.02 106.072,207.02 L104.332,207.02 L104.332,213.248 L106.072,213.248 Z M121.27,214.136 L116.026,214.136 L116.026,206.132 L121.27,206.132 L121.27,207.02 L117.022,207.02 L117.022,209.6 L121.186,209.6 L121.186,210.488 L117.022,210.488 L117.022,213.248 L121.27,213.248 L121.27,214.136 Z M130.792,214.28 C128.428,214.28 126.82,212.504 126.82,210.14 C126.82,207.776 128.428,206 130.792,206 C133.156,206 134.776,207.776 134.776,210.14 C134.776,212.504 133.156,214.28 130.792,214.28 Z M130.792,213.392 C132.58,213.392 133.744,212 133.744,210.14 C133.744,208.268 132.58,206.888 130.792,206.888 C128.992,206.888 127.852,208.268 127.852,210.14 C127.852,212 128.992,213.392 130.792,213.392 Z M149.008,214.136 L148.012,214.136 L148.012,206.132 L153.256,206.132 L153.256,207.02 L149.008,207.02 L149.008,209.6 L153.172,209.6 L153.172,210.488 L149.008,210.488 L149.008,214.136 Z M164.158,214.136 L158.914,214.136 L158.914,206.132 L164.158,206.132 L164.158,207.02 L159.91,207.02 L159.91,209.6 L164.074,209.6 L164.074,210.488 L159.91,210.488 L159.91,213.248 L164.158,213.248 L164.158,214.136 Z M175.276,214.136 L170.032,214.136 L170.032,206.132 L175.276,206.132 L175.276,207.02 L171.028,207.02 L171.028,209.6 L175.192,209.6 L175.192,210.488 L171.028,210.488 L171.028,213.248 L175.276,213.248 L175.276,214.136 Z M183.886,214.136 L181.15,214.136 L181.15,206.132 L183.886,206.132 C186.382,206.132 187.99,207.872 187.99,210.14 C187.99,212.42 186.382,214.136 183.886,214.136 Z M183.886,213.248 C185.83,213.248 186.958,211.856 186.958,210.14 C186.958,208.412 185.866,207.02 183.886,207.02 L182.146,207.02 L182.146,213.248 L183.886,213.248 Z M196.432,214.28 C195.052,214.28 194.02,213.752 193.36,213.008 L193.96,212.24 C194.476,212.84 195.34,213.392 196.468,213.392 C197.896,213.392 198.352,212.624 198.352,212 C198.352,209.936 193.612,211.088 193.612,208.232 C193.612,206.912 194.788,206 196.372,206 C197.584,206 198.532,206.42 199.204,207.128 L198.604,207.86 C198.004,207.188 197.164,206.9 196.288,206.9 C195.34,206.9 194.644,207.416 194.644,208.172 C194.644,209.972 199.384,208.94 199.384,211.928 C199.384,213.08 198.592,214.28 196.432,214.28 Z" id="SMART-VIDEO-FEEDS-Copy"></path>
                <path d="M129.2,34.0692521 L153.4556,34.0692521 C159.25444,34.0692521 164,38.8874651 164,44.7748221 L164,98.29443 C164,104.184142 159.25328,109 153.45328,109 L132.36332,109 L79.63552,109 L58.54556,109 C52.74556,109 48,104.181787 48,98.29443 L48,44.7748221 C48,38.8874651 52.74556,34.0692521 58.54556,34.0692521 L82.8,34.0692521 L70.67336,21.7611434 C68.56448,19.6205004 68.56448,16.407181 70.67336,14.2665379 C72.78224,12.1270724 75.94556,12.1270724 78.05444,14.2665379 L99.14556,35.6741456 C100.7278,37.2825715 101.25444,39.4232146 100.2,41.5615026 C99.6722,43.7033231 97.56332,44.7748221 95.45444,44.7748221 L64.34556,44.7748221 C61.14164,44.7748221 58.54556,47.4100031 58.54556,50.6621791 L58.54556,92.4070729 C58.54556,95.659249 61.14164,98.29443 64.34556,98.29443 L147.65444,98.29443 C150.8572,98.29443 153.45444,95.659249 153.45444,92.4070729 L153.45444,50.6621791 C153.45444,47.4100031 150.8572,44.7748221 147.65444,44.7748221 L116.54556,44.7748221 C114.43668,44.7748221 112.3278,43.7033231 111.8,41.5615026 C110.74672,39.4232146 111.27336,37.2825715 112.85444,35.6741456 L146.07336,1.60636537 C148.18224,-0.535455122 151.34672,-0.535455122 153.4556,1.60636537 C155.56448,3.74700839 155.56448,6.95797291 153.4556,9.09861593 L129.2,34.0692521 Z M119.138764,73.9099478 L104.520859,83.6283411 C102.938778,84.6801528 100.803586,84.2502847 99.7517747,82.6682038 C99.3766105,82.1039012 99.1764706,81.4413626 99.1764706,80.7637302 L99.1764706,61.3269436 C99.1764706,59.4271311 100.716573,57.8870287 102.616386,57.8870287 C103.294018,57.8870287 103.956557,58.0871686 104.520859,58.4623328 L119.138764,68.1807261 C120.720845,69.2325378 121.150713,71.3677297 120.098902,72.9498106 C119.845828,73.3304707 119.519424,73.6568742 119.138764,73.9099478 Z" id="Combined-Shape-Copy"></path>
            </g>
        </g>
    </g>
</svg>