<?xml version="1.0" encoding="UTF-8"?>
<svg width="142px" height="44px" viewBox="0 0 142 44" version="1.1" xmlns="http://www.w3.org/2000/svg" xmlns:xlink="http://www.w3.org/1999/xlink">
    <!-- Generator: Sketch 49.2 (51160) - http://www.bohemiancoding.com/sketch -->
    <title>app</title>
    <desc>Created with Sketch.</desc>
    <defs></defs>
    <g id="Page-1" stroke="none" stroke-width="1" fill="none" fill-rule="evenodd">
        <g id="Goodsh" transform="translate(-782.000000, -14939.000000)">
            <g id="app" transform="translate(783.000000, 14940.000000)">
                <g id="Group-9" transform="translate(10.000000, 7.000000)" fill="#414141">
                    <path d="M117.831864,20.2591864 L110.996384,20.2591864 C111.070734,20.9299209 111.332542,21.4519548 111.780226,21.8244972 C112.228701,22.1970395 112.770508,22.3837062 113.40565,22.3837062 C113.96565,22.3837062 114.43548,22.2690169 114.815932,22.0388475 C115.195593,21.808678 115.528588,21.5199774 115.814915,21.1719548 L117.420565,22.3837062 C116.89774,23.0299209 116.312429,23.4894689 115.665424,23.7623503 C115.017627,24.0360226 114.338983,24.1728588 113.629492,24.1728588 C112.957175,24.1728588 112.322034,24.0605424 111.724859,23.8374915 C111.126893,23.6136497 110.610395,23.2964746 110.174576,22.8867571 C109.738757,22.4770395 109.393107,21.9826893 109.137627,21.4052881 C108.882938,20.827887 108.754802,20.1848362 108.754802,19.4761356 C108.754802,18.768226 108.882938,18.1251751 109.137627,17.547774 C109.393107,16.9695819 109.738757,16.4760226 110.174576,16.0663051 C110.610395,15.6557966 111.126893,15.3394124 111.724859,15.1155706 C112.322034,14.8917288 112.957175,14.7802034 113.629492,14.7802034 C114.251977,14.7802034 114.821469,14.8893559 115.338757,15.1060791 C115.855254,15.3235932 116.297401,15.6376045 116.664407,16.047322 C117.032203,16.4578305 117.318531,16.9640452 117.52339,17.5659661 C117.72904,18.168678 117.831864,18.8615593 117.831864,19.6438192 L117.831864,20.2591864 Z M108.042938,3.54381921 L108.042938,6.46483616 L108.042938,6.7519548 L107.046328,6.7519548 L107.046328,6.46483616 L107.046328,0.421107345 L108.042938,0.421107345 L108.042938,2.78449718 C108.346667,2.42381921 108.935141,2.05364972 109.656497,2.05364972 C110.643616,2.05364972 111.137175,2.56619209 111.137175,3.50585311 L111.137175,6.46483616 L111.137175,6.7519548 L110.140565,6.7519548 L110.140565,6.46483616 L110.140565,3.86653107 C110.140565,3.14517514 109.779887,2.93636158 109.219887,2.93636158 C108.707345,2.93636158 108.270734,3.2400904 108.042938,3.54381921 L108.042938,3.54381921 Z M108.021582,17.0724068 C107.834915,17.0225763 107.651412,16.9822373 107.471073,16.9513898 C107.290734,16.9205424 107.112768,16.9047232 106.938757,16.9047232 C106.415932,16.9047232 105.995932,17.0012203 105.677966,17.1934237 C105.360791,17.3864181 105.117966,17.6063051 104.949492,17.8554576 C104.781808,18.1038192 104.669492,18.3521808 104.613333,18.6005424 C104.557175,18.848904 104.529492,19.0355706 104.529492,19.1597514 L104.529492,23.9490169 L102.28791,23.9490169 L102.28791,15.0040452 L104.529492,15.0040452 L104.529492,16.4198644 L104.566667,16.4198644 C104.815819,15.8986215 105.17096,15.4944407 105.631299,15.208904 C106.091638,14.9233672 106.621582,14.7802034 107.218757,14.7802034 C107.355593,14.7802034 107.489266,14.7928588 107.620565,14.8173785 C107.751073,14.8426893 107.884746,14.8735367 108.021582,14.9107119 L108.021582,17.0724068 Z M99.8272316,21.4052881 C99.5725424,21.9826893 99.2268927,22.4770395 98.7910734,22.8867571 C98.3552542,23.2964746 97.8387571,23.6136497 97.240791,23.8374915 C96.6428249,24.0605424 96.0084746,24.1728588 95.3361582,24.1728588 C94.6638418,24.1728588 94.0287006,24.0605424 93.4307345,23.8374915 C92.8327684,23.6136497 92.3162712,23.2964746 91.880452,22.8867571 C91.4446328,22.4770395 91.099774,21.9826893 90.8442938,21.4052881 C90.5888136,20.827887 90.4614689,20.1848362 90.4614689,19.4761356 C90.4614689,18.768226 90.5888136,18.1251751 90.8442938,17.547774 C91.099774,16.9695819 91.4446328,16.4760226 91.880452,16.0663051 C92.3162712,15.6557966 92.8327684,15.3394124 93.4307345,15.1155706 C94.0287006,14.8917288 94.6638418,14.7802034 95.3361582,14.7802034 C96.0084746,14.7802034 96.6428249,14.8917288 97.240791,15.1155706 C97.8387571,15.3394124 98.3552542,15.6557966 98.7910734,16.0663051 C99.2268927,16.4760226 99.5725424,16.9695819 99.8272316,17.547774 C100.082712,18.1251751 100.210847,18.768226 100.210847,19.4761356 C100.210847,20.1848362 100.082712,20.827887 99.8272316,21.4052881 L99.8272316,21.4052881 Z M88.6865537,6.86585311 C88.1518644,6.86585311 87.6954802,6.71557062 87.3292655,6.46483616 C86.6933333,6.02980791 86.3326554,5.28551412 86.3326554,4.45500565 C86.3326554,3.13568362 87.2248588,2.05364972 88.6865537,2.05364972 C90.1482486,2.05364972 91.040452,3.13568362 91.040452,4.45500565 C91.040452,5.28551412 90.6789831,6.02980791 90.0438418,6.46483616 C89.6776271,6.71557062 89.2212429,6.86585311 88.6865537,6.86585311 L88.6865537,6.86585311 Z M89.1682486,16.9047232 L86.7028249,16.9047232 L86.7028249,20.8183955 C86.7028249,21.2652881 86.7866667,21.6196384 86.9543503,21.8806554 C87.1228249,22.1416723 87.4558192,22.2721808 87.9541243,22.2721808 C88.1534463,22.2721808 88.3709605,22.2500339 88.6074576,22.2065311 C88.8439548,22.1630282 89.0306215,22.0918418 89.1682486,21.9921808 L89.1682486,23.8746667 C88.9309605,23.9861921 88.6422599,24.0637062 88.299774,24.107209 C87.9572881,24.1507119 87.6551412,24.1728588 87.3933333,24.1728588 C86.7961582,24.1728588 86.3073446,24.107209 85.9276836,23.9767006 C85.5480226,23.8461921 85.2490395,23.647661 85.0307345,23.3803164 C84.8132203,23.1137627 84.6637288,22.7815593 84.5830508,22.3837062 C84.5015819,21.9858531 84.4612429,21.5263051 84.4612429,21.0042712 L84.4612429,16.9047232 L82.6119774,16.9047232 L82.6119774,15.0040452 L84.4612429,15.0040452 L84.4612429,12.4136497 L86.7028249,12.4136497 L86.7028249,15.0040452 L89.1682486,15.0040452 L89.1682486,16.9047232 Z M81.0387571,21.927322 C80.7777401,22.4548927 80.4257627,22.8930847 79.9836158,23.2411073 C79.5414689,23.5891299 79.0281356,23.8493559 78.4428249,24.0233672 C77.8575141,24.1973785 77.2413559,24.2843842 76.5935593,24.2843842 C75.7717514,24.2843842 74.9815819,24.147548 74.2222599,23.8746667 C73.4621469,23.6009944 72.8088136,23.1414463 72.260678,22.4952316 L74.0348023,20.7812203 C74.3219209,21.2154576 74.6984181,21.5539887 75.1650847,21.7968136 C75.6317514,22.0388475 76.1268927,22.1598644 76.6497175,22.1598644 C76.9241808,22.1598644 77.1978531,22.1226893 77.4715254,22.048339 C77.7459887,21.9739887 77.9943503,21.8616723 78.2189831,21.7129718 C78.4428249,21.5634802 78.6231638,21.3744407 78.760791,21.1442712 C78.8976271,20.9148927 78.9656497,20.6507119 78.9656497,20.3525198 C78.9656497,19.867661 78.8098305,19.4951186 78.4989831,19.2341017 C78.1873446,18.9730847 77.8013559,18.7531977 77.3410169,18.5728588 C76.879887,18.3925198 76.3760452,18.2216723 75.8279096,18.0603164 C75.280565,17.8989605 74.7759322,17.6782825 74.3155932,17.3982825 C73.8544633,17.1190734 73.4684746,16.7465311 73.1576271,16.2806554 C72.8459887,15.8147797 72.6901695,15.1899209 72.6901695,14.407661 C72.6901695,13.7242712 72.8301695,13.1342147 73.1109605,12.6374915 C73.3909605,12.1399774 73.7579661,11.727096 74.2127684,11.3980565 C74.5489266,11.1544407 74.9333333,10.9725198 75.3414689,10.8206554 C75.4846328,10.7668701 75.619887,10.7035932 75.7717514,10.6616723 C76.3570621,10.5003164 76.9550282,10.4196384 77.5648588,10.4196384 C78.2624859,10.4196384 78.9379661,10.5248362 79.5912994,10.7360226 C79.6664407,10.7605424 79.7368362,10.7929718 79.8096045,10.8206554 C80.3759322,11.0350056 80.8932203,11.3505989 81.3567232,11.7800904 L79.6379661,13.587435 C79.3888136,13.227548 79.0558192,12.9633672 78.6389831,12.7956836 C78.2221469,12.628 77.7831638,12.5441582 77.3220339,12.5441582 C77.0483616,12.5441582 76.7841808,12.5750056 76.5287006,12.6374915 C76.2732203,12.6991864 76.0430508,12.7988475 75.8374011,12.9356836 C75.6317514,13.0717288 75.4672316,13.248904 75.3422599,13.4664181 C75.2180791,13.6839322 75.1555932,13.9417853 75.1555932,14.2399774 C75.1555932,14.6868701 75.3114124,15.028565 75.6230508,15.2650621 C75.9338983,15.5007684 76.319887,15.7056271 76.7810169,15.8796384 C77.2413559,16.0536497 77.7459887,16.2213333 78.2933333,16.3826893 C78.8414689,16.5448362 79.3453107,16.767887 79.8064407,17.0542147 C80.2667797,17.3397514 80.6527684,17.7186215 80.9644068,18.1908249 C81.2752542,18.6630282 81.4310734,19.2902599 81.4310734,20.0725198 C81.4310734,20.7812203 81.300565,21.3989605 81.0387571,21.927322 L81.0387571,21.927322 Z M70.6937853,6.46483616 C70.400339,6.21093785 70.1970621,5.83918644 70.1970621,5.34720904 C70.1970621,4.28415819 71.0323164,3.84754802 71.7821469,3.84754802 C72.4085876,3.84754802 72.9306215,4.04687006 73.2723164,4.4360226 L73.2723164,3.75263277 C73.2723164,3.22110734 72.8262147,2.89839548 72.199774,2.89839548 C71.6872316,2.89839548 71.2316384,3.08822599 70.8424859,3.48687006 L70.4248588,2.7939887 C70.9563842,2.28144633 71.620791,2.05364972 72.3516384,2.05364972 C73.3767232,2.05364972 74.2689266,2.48076836 74.2689266,3.70517514 L74.2689266,6.46483616 L74.2689266,6.7519548 L73.2723164,6.7519548 L73.2723164,6.46483616 L73.0342373,6.46483616 C72.7020339,6.72189831 72.2654237,6.86585311 71.7821469,6.86585311 C71.4040678,6.86585311 70.999887,6.72980791 70.6937853,6.46483616 L70.6937853,6.46483616 Z M67.4223729,6.46483616 C67.0561582,6.71557062 66.599774,6.86585311 66.0650847,6.86585311 C65.5303955,6.86585311 65.0740113,6.71557062 64.7077966,6.46483616 C64.0718644,6.02980791 63.7111864,5.28551412 63.7111864,4.45500565 C63.7111864,3.13568362 64.6033898,2.05364972 66.0650847,2.05364972 C67.5267797,2.05364972 68.4189831,3.13568362 68.4189831,4.45500565 C68.4189831,5.28551412 68.0575141,6.02980791 67.4223729,6.46483616 L67.4223729,6.46483616 Z M65.0423729,21.3214463 C64.8311864,21.8925198 64.5353672,22.3900339 64.1557062,22.8124068 C63.7752542,23.2347797 63.3180791,23.5669831 62.7825989,23.8090169 C62.2471186,24.0518418 61.6618079,24.1728588 61.0266667,24.1728588 C60.6035028,24.1728588 60.2301695,24.1293559 59.9066667,24.0423503 C59.5823729,23.9553446 59.2960452,23.8430282 59.0468927,23.7069831 C58.7985311,23.5701469 58.5865537,23.4238192 58.4125424,23.268791 C58.2377401,23.1137627 58.0945763,22.9611073 57.9822599,22.8124068 L57.9268927,22.8124068 L57.9268927,28.1980565 L55.6853107,28.1980565 L55.6853107,15.0040452 L57.8145763,15.0040452 L57.8145763,16.3455141 L57.8517514,16.3455141 C58.1760452,15.7989605 58.6110734,15.4018983 59.159209,15.1527458 C59.7073446,14.9043842 60.2981921,14.7802034 60.9333333,14.7802034 C61.6183051,14.7802034 62.2344633,14.9012203 62.7825989,15.1440452 C63.3307345,15.3860791 63.7974011,15.7182825 64.1833898,16.1406554 C64.5693785,16.5630282 64.8620339,17.0597514 65.0613559,17.6316158 C65.260678,18.2026893 65.360339,18.8180565 65.360339,19.4761356 C65.360339,20.1350056 65.2543503,20.7495819 65.0423729,21.3214463 L65.0423729,21.3214463 Z M55.2479096,3.54381921 L55.2479096,6.46483616 L55.2479096,6.7519548 L54.2512994,6.7519548 L54.2512994,6.46483616 L54.2512994,2.16754802 L55.2479096,2.16754802 L55.2479096,2.78449718 C55.5516384,2.42381921 56.1496045,2.05364972 56.8709605,2.05364972 C57.8580791,2.05364972 58.3516384,2.58517514 58.3516384,3.52483616 L58.3516384,6.46483616 L58.3516384,6.7519548 L57.3550282,6.7519548 L57.3550282,6.46483616 L57.3550282,3.88551412 C57.3550282,3.16415819 56.9848588,2.93636158 56.4248588,2.93636158 C55.9218079,2.93636158 55.4851977,3.2400904 55.2479096,3.54381921 L55.2479096,3.54381921 Z M53.2902825,21.3214463 C53.0783051,21.8925198 52.7824859,22.3900339 52.4028249,22.8124068 C52.0231638,23.2347797 51.5659887,23.5669831 51.0305085,23.8090169 C50.4950282,24.0518418 49.9097175,24.1728588 49.2745763,24.1728588 C48.8514124,24.1728588 48.4780791,24.1293559 48.1537853,24.0423503 C47.8302825,23.9553446 47.5439548,23.8430282 47.2948023,23.7069831 C47.0456497,23.5701469 46.8344633,23.4238192 46.659661,23.268791 C46.4856497,23.1137627 46.3424859,22.9611073 46.2301695,22.8124068 L46.1740113,22.8124068 L46.1740113,28.1980565 L43.9332203,28.1980565 L43.9332203,15.0040452 L46.0624859,15.0040452 L46.0624859,16.3455141 L46.099661,16.3455141 C46.4231638,15.7989605 46.8589831,15.4018983 47.4071186,15.1527458 C47.9552542,14.9043842 48.5461017,14.7802034 49.1812429,14.7802034 C49.8662147,14.7802034 50.4823729,14.9012203 51.0305085,15.1440452 C51.5778531,15.3860791 52.0453107,15.7182825 52.4312994,16.1406554 C52.8172881,16.5630282 53.1099435,17.0597514 53.3084746,17.6316158 C53.5077966,18.2026893 53.6074576,18.8180565 53.6074576,19.4761356 C53.6074576,20.1350056 53.5022599,20.7495819 53.2902825,21.3214463 L53.2902825,21.3214463 Z M43.0164972,6.46483616 C42.6502825,6.71557062 42.1938983,6.86585311 41.659209,6.86585311 C41.1245198,6.86585311 40.6681356,6.71557062 40.3019209,6.46483616 C39.6659887,6.02980791 39.3053107,5.28551412 39.3053107,4.45500565 C39.3053107,3.13568362 40.1975141,2.05364972 41.659209,2.05364972 C43.120904,2.05364972 44.0131073,3.13568362 44.0131073,4.45500565 C44.0131073,5.28551412 43.6516384,6.02980791 43.0164972,6.46483616 L43.0164972,6.46483616 Z M39.9879096,23.9490169 L38.7548023,20.9299209 L33.0211299,20.9299209 L31.8259887,23.9490169 L29.1928814,23.9490169 L34.9162712,10.8206554 L34.9447458,10.7550056 L36.980678,10.7550056 L37.0091525,10.8206554 L42.6771751,23.9490169 L39.9879096,23.9490169 Z M18.6786441,23.6215593 C17.6567232,25.1109379 16.5968362,26.5931977 14.9263277,26.6224633 C13.2827119,26.6525198 12.7543503,25.6511638 10.8774011,25.6511638 C9.00045198,25.6511638 8.41435028,26.5908249 6.86011299,26.6525198 C5.24734463,26.7142147 4.01819209,25.0468701 2.9899435,23.5630282 C0.882033898,20.528904 -0.728361582,14.988226 1.43333333,11.2493559 C2.48214689,9.43251977 4.34248588,8.27771751 6.37129944,8.19624859 C6.4179661,8.19466667 6.46225989,8.1859661 6.50892655,8.18517514 C8.09242938,8.15670056 9.58892655,9.24901695 10.5546893,9.24901695 C11.5244068,9.24901695 13.3412429,7.9360226 15.2498305,8.12901695 C16.0138983,8.16065537 18.0862147,8.44381921 19.5281356,10.2938757 C19.5969492,10.3816723 19.6712994,10.4544407 19.7361582,10.5501469 C19.7187571,10.5612203 19.640452,10.608678 19.5281356,10.6854011 L19.5281356,10.7724068 L19.4047458,10.7724068 C18.6865537,11.2928588 17.0635028,12.7339887 17.0872316,15.2033672 C17.119661,18.8995254 20.339661,20.128678 20.3776271,20.1452881 C20.3483616,20.2307119 19.8627119,21.8980565 18.6786441,23.6215593 L18.6786441,23.6215593 Z M10.86,4.15444068 C11.1044068,3.64743503 11.4105085,3.18788701 11.7332203,2.81534463 C12.6673446,1.72540113 14.2445198,0.916248588 15.5464407,0.863254237 C15.6729944,2.02359322 15.3423729,3.18314124 14.7736723,4.15444068 C14.6012429,4.44946893 14.4082486,4.72788701 14.1978531,4.98178531 C13.2929944,6.07093785 11.8115254,6.91963842 10.3585311,6.80732203 C10.2383051,5.89613559 10.4700565,4.96359322 10.86,4.15444068 L10.86,4.15444068 Z M31.8418079,6.46483616 L31.8418079,0.421107345 L34.1957062,0.421107345 C36.179435,0.421107345 37.5082486,1.73093785 37.5082486,3.58178531 C37.5082486,4.93828249 36.8027119,5.98709605 35.6645198,6.46483616 C35.2342373,6.6459661 34.7470056,6.7519548 34.2051977,6.7519548 L31.8418079,6.7519548 L31.8418079,6.46483616 Z M46.4935593,2.16754802 L47.4616949,5.49907345 L48.5532203,2.16754802 L49.4359322,2.16754802 L50.5179661,5.49907345 L51.4861017,2.16754802 L52.5301695,2.16754802 L51.1958192,6.46483616 L51.1064407,6.7519548 L50.0623729,6.7519548 L49.9706215,6.46483616 L48.9898305,3.3919548 L48.0177401,6.46483616 L47.9267797,6.7519548 L46.8827119,6.7519548 L46.7933333,6.46483616 L45.4589831,2.16754802 L46.4935593,2.16754802 Z M60.6707345,6.46483616 L60.6707345,0.421107345 L61.6673446,0.421107345 L61.6673446,6.46483616 L61.6673446,6.7519548 L60.6707345,6.7519548 L60.6707345,6.46483616 Z M78.3439548,2.05364972 C78.9229379,2.05364972 79.4544633,2.3099209 79.8151412,2.80348023 L79.8151412,0.421107345 L80.8117514,0.421107345 L80.8117514,6.46483616 L80.8117514,6.7519548 L79.8151412,6.7519548 L79.8151412,6.46483616 L79.4734463,6.46483616 C79.1586441,6.71477966 78.7718644,6.86585311 78.3439548,6.86585311 C77.8851977,6.86585311 77.4770621,6.72348023 77.1464407,6.46483616 C76.6346893,6.06381921 76.3127684,5.37726554 76.3127684,4.45500565 C76.3127684,2.97432768 77.1670056,2.05364972 78.3439548,2.05364972 L78.3439548,2.05364972 Z M93.0842938,6.46483616 L93.0842938,2.16754802 L94.080904,2.16754802 L94.080904,2.78449718 C94.3846328,2.42381921 94.9825989,2.05364972 95.7039548,2.05364972 C96.6910734,2.05364972 97.1846328,2.58517514 97.1846328,3.52483616 L97.1846328,6.46483616 L97.1846328,6.7519548 L96.1880226,6.7519548 L96.1880226,6.46483616 L96.1880226,3.88551412 C96.1880226,3.16415819 95.8178531,2.93636158 95.2578531,2.93636158 C94.7548023,2.93636158 94.3181921,3.2400904 94.080904,3.54381921 L94.080904,6.46483616 L94.080904,6.7519548 L93.0842938,6.7519548 L93.0842938,6.46483616 Z M102.430282,2.16754802 L103.189605,2.16754802 L103.189605,0.914666667 L104.186215,0.914666667 L104.186215,2.16754802 L105.116384,2.16754802 L105.116384,3.03127684 L104.186215,3.03127684 L104.186215,5.43263277 C104.186215,5.74585311 104.338079,5.98314124 104.622825,5.98314124 C104.812655,5.98314124 104.983503,5.89771751 105.059435,5.81229379 L105.263503,6.46483616 L105.296723,6.57161582 C105.116384,6.73297175 104.822147,6.86585311 104.366554,6.86585311 C103.92678,6.86585311 103.623051,6.71873446 103.428475,6.46483616 C103.278983,6.26867797 103.189605,6.0139887 103.189605,5.67941243 L103.189605,3.03127684 L102.430282,3.03127684 L102.430282,2.16754802 Z M115.506441,2.05364972 C116.882712,2.05364972 117.755932,3.09771751 117.755932,4.54042938 L117.755932,4.78720904 L114.225085,4.78720904 C114.301017,5.47059887 114.813559,6.04958192 115.677288,6.04958192 C116.132881,6.04958192 116.654915,5.86924294 116.987119,5.53703955 L117.442712,6.1919548 C117.332768,6.29477966 117.210169,6.38415819 117.07887,6.46483616 C116.654915,6.72506215 116.133672,6.86585311 115.582373,6.86585311 C115.050056,6.86585311 114.573898,6.72189831 114.187119,6.46483616 C113.567797,6.05353672 113.181017,5.34879096 113.181017,4.45500565 C113.181017,3.12619209 114.149153,2.05364972 115.506441,2.05364972 L115.506441,2.05364972 Z" id="Fill-7"></path>
                </g>
                <g id="Group-5" transform="translate(42.632764, 7.830528)" fill="#FFFFFF">
                    <path d="M45.9948249,5.14891525 C46.4599096,5.14891525 46.9534689,4.87366102 47.171774,4.5319661 L47.171774,2.71908475 C46.9534689,2.37738983 46.4599096,2.10213559 45.9948249,2.10213559 C45.1975367,2.10213559 44.6944859,2.7380678 44.6944859,3.62077966 C44.6944859,4.51298305 45.1975367,5.14891525 45.9948249,5.14891525" id="Fill-10"></path>
                    <path d="M82.8535028,2.03569492 C82.0087571,2.03569492 81.610113,2.69061017 81.5721469,3.24111864 L84.1538418,3.24111864 C84.1253672,2.70010169 83.7551977,2.03569492 82.8535028,2.03569492" id="Fill-12"></path>
                    <path d="M33.4217175,2.1020565 C32.5769718,2.1020565 32.1023955,2.8139209 32.1023955,3.62070056 C32.1023955,4.43697175 32.5769718,5.14883616 33.4217175,5.14883616 C34.2759548,5.14883616 34.7410395,4.43697175 34.7410395,3.62070056 C34.7410395,2.8139209 34.2759548,2.1020565 33.4217175,2.1020565" id="Fill-14"></path>
                    <polygon id="Fill-16" points="1.18106215 18.0834915 5.29010169 18.0834915 3.25416949 12.7160339"></polygon>
                    <path d="M3.72589831,2.74755932 C3.72589831,1.53264407 2.96657627,0.564508475 1.56183051,0.564508475 L0.308949153,0.564508475 L0.308949153,4.94010169 L1.55233898,4.94010169 C2.92861017,4.94010169 3.72589831,3.95298305 3.72589831,2.74755932" id="Fill-18"></path>
                    <path d="M9.01584181,2.1020565 C8.17109605,2.1020565 7.69651977,2.8139209 7.69651977,3.62070056 C7.69651977,4.43697175 8.17109605,5.14883616 9.01584181,5.14883616 C9.8700791,5.14883616 10.3351638,4.43697175 10.3351638,3.62070056 C10.3351638,2.8139209 9.8700791,2.1020565 9.01584181,2.1020565" id="Fill-20"></path>
                    <path d="M56.0431864,2.1020565 C55.1984407,2.1020565 54.7238644,2.8139209 54.7238644,3.62070056 C54.7238644,4.43697175 55.1984407,5.14883616 56.0431864,5.14883616 C56.8974237,5.14883616 57.3625085,4.43697175 57.3625085,3.62070056 C57.3625085,2.8139209 56.8974237,2.1020565 56.0431864,2.1020565" id="Fill-22"></path>
                    <path d="M64.6255819,16.7789605 C64.3954124,16.5305989 64.1185763,16.3320678 63.7942825,16.1825763 C63.4707797,16.0338757 63.103774,15.9587345 62.6924746,15.9587345 C62.2819661,15.9587345 61.9141695,16.0338757 61.5906667,16.1825763 C61.2671638,16.3320678 60.9895367,16.5305989 60.7593672,16.7789605 C60.5291977,17.027322 60.3551864,17.3128588 60.2365424,17.6363616 C60.1178983,17.9590734 60.0593672,18.2944407 60.0593672,18.6424633 C60.0593672,18.9904859 60.1178983,19.3258531 60.2365424,19.648565 C60.3551864,19.9720678 60.5291977,20.2576045 60.7593672,20.5059661 C60.9895367,20.7543277 61.2671638,20.9536497 61.5906667,21.1023503 C61.9141695,21.2518418 62.2819661,21.3261921 62.6924746,21.3261921 C63.103774,21.3261921 63.4707797,21.2518418 63.7942825,21.1023503 C64.1185763,20.9536497 64.3954124,20.7543277 64.6255819,20.5059661 C64.8557514,20.2576045 65.0305537,19.9720678 65.1484068,19.648565 C65.2670508,19.3258531 65.3255819,18.9904859 65.3255819,18.6424633 C65.3255819,18.2944407 65.2670508,17.9590734 65.1484068,17.6363616 C65.0305537,17.3128588 64.8557514,17.027322 64.6255819,16.7789605" id="Fill-24"></path>
                    <path d="M80.6687119,15.6235254 C79.9963955,15.6235254 79.4640791,15.8157288 79.0717627,16.2009266 C78.6794463,16.5861243 78.4397853,17.1018305 78.3527797,17.7480452 L82.9474689,17.7480452 C82.9348136,17.0891751 82.7291638,16.571096 82.3313107,16.192226 C81.9326667,15.8133559 81.3782034,15.6235254 80.6687119,15.6235254" id="Fill-26"></path>
                    <path d="M40.6289492,4.17128814 C40.391661,3.8580678 39.9645424,3.69671186 39.5374237,3.69671186 C38.9774237,3.69671186 38.5503051,4.02891525 38.5503051,4.52247458 C38.5503051,5.02552542 38.9774237,5.34823729 39.5374237,5.34823729 C39.9645424,5.34823729 40.391661,5.18688136 40.6289492,4.87366102 L40.6289492,4.17128814 Z" id="Fill-1"></path>
                    <path d="M18.0227458,16.7789605 C17.7925763,16.5305989 17.5157401,16.3320678 17.1914463,16.1825763 C16.8679435,16.0338757 16.5009379,15.9587345 16.0896384,15.9587345 C15.6791299,15.9587345 15.3113333,16.0338757 14.9878305,16.1825763 C14.6643277,16.3320678 14.3867006,16.5305989 14.1565311,16.7789605 C13.9263616,17.027322 13.7523503,17.3128588 13.6337062,17.6363616 C13.5150621,17.9590734 13.4565311,18.2944407 13.4565311,18.6424633 C13.4565311,18.9904859 13.5150621,19.3258531 13.6337062,19.648565 C13.7523503,19.9720678 13.9263616,20.2576045 14.1565311,20.5059661 C14.3867006,20.7543277 14.6643277,20.9536497 14.9878305,21.1023503 C15.3113333,21.2518418 15.6791299,21.3261921 16.0896384,21.3261921 C16.5009379,21.3261921 16.8679435,21.2518418 17.1914463,21.1023503 C17.5157401,20.9536497 17.7925763,20.7543277 18.0227458,20.5059661 C18.2529153,20.2576045 18.4277175,19.9720678 18.5455706,19.648565 C18.6642147,19.3258531 18.7227458,18.9904859 18.7227458,18.6424633 C18.7227458,18.2944407 18.6642147,17.9590734 18.5455706,17.6363616 C18.4277175,17.3128588 18.2529153,17.027322 18.0227458,16.7789605" id="Fill-3"></path>
                    <path d="M29.7750734,16.7789605 C29.544904,16.5305989 29.2680678,16.3320678 28.943774,16.1825763 C28.6202712,16.0338757 28.2532655,15.9587345 27.8419661,15.9587345 C27.4314576,15.9587345 27.063661,16.0338757 26.7401582,16.1825763 C26.4166554,16.3320678 26.1390282,16.5305989 25.9088588,16.7789605 C25.6786893,17.027322 25.504678,17.3128588 25.3860339,17.6363616 C25.2673898,17.9590734 25.2088588,18.2944407 25.2088588,18.6424633 C25.2088588,18.9904859 25.2673898,19.3258531 25.3860339,19.648565 C25.504678,19.9720678 25.6786893,20.2576045 25.9088588,20.5059661 C26.1390282,20.7543277 26.4166554,20.9536497 26.7401582,21.1023503 C27.063661,21.2518418 27.4314576,21.3261921 27.8419661,21.3261921 C28.2532655,21.3261921 28.6202712,21.2518418 28.943774,21.1023503 C29.2680678,20.9536497 29.544904,20.7543277 29.7750734,20.5059661 C30.0052429,20.2576045 30.1800452,19.9720678 30.2978983,19.648565 C30.4165424,19.3258531 30.4750734,18.9904859 30.4750734,18.6424633 C30.4750734,18.2944407 30.4165424,17.9590734 30.2978983,17.6363616 C30.1800452,17.3128588 30.0052429,17.027322 29.7750734,16.7789605" id="Fill-5"></path>
                </g>
                <path d="M0,38.9966352 C0,40.6555225 1.34073418,42.0003164 3.00516348,42.0003164 L136.994837,42.0003164 C138.654542,42.0003164 140,40.6504701 140,38.9966352 L140,3.00399761 C140,1.34511028 138.659266,0.000316384181 136.994837,0.000316384181 L3.00516348,0.000316384181 C1.34545752,0.000316384181 0,1.35016266 0,3.00399761 L0,38.9966352 Z" id="Path" stroke="#414141"></path>
            </g>
        </g>
    </g>
</svg>