<?xml version="1.0" encoding="UTF-8"?>
<svg width="274px" height="204px" viewBox="0 0 274 204" version="1.1" xmlns="http://www.w3.org/2000/svg" xmlns:xlink="http://www.w3.org/1999/xlink">
    <!-- Generator: Sketch 52 (66869) - http://www.bohemiancoding.com/sketch -->
    <title>Group 18</title>
    <desc>Created with Sketch.</desc>
    <g id="Page-1" stroke="none" stroke-width="1" fill="none" fill-rule="evenodd">
        <g id="1170---Adidas" transform="translate(-1420.000000, -745.000000)" fill="#FFFFFF">
            <g id="Group-18" transform="translate(1420.000000, 743.000000)">
                <g id="Group-17" transform="translate(102.000000, 0.000000)">
                    <g id="nut_greenBtm" transform="translate(0.344267, 0.832000)">
                        <g id="Group" transform="translate(0.000000, 0.709151)">
                            <g id="Group-2">
                                <path d="M1.50894351,49.3498844 C5.95260169,57.7368103 19.6034267,47.2351461 34.2917296,47.5233641 C47.7558338,47.7931817 59.7846158,56.8667755 65.3027743,51.9807835 C65.3185211,52.7245762 65.3189888,53.473283 65.3037935,54.226389 C64.8427512,77.0688806 49.97798,103.691911 32.3123769,103.343055 C14.6275638,102.994199 0.850083877,75.8175489 1.31496817,52.9674734 C1.33958994,51.7477819 1.4048207,50.5412087 1.50894351,49.3498844 Z" id="Combined-Shape"></path>
                                <path d="M31.3393863,6.5231949 L31.3497768,4.2674112 C31.3497768,2.14014729 32.8289541,0.426202029 34.646229,0.437577771 C36.459662,0.448953514 37.9273132,2.17427451 37.9157871,4.30533034 L37.9050583,6.5630258 C54.8316641,8.16162138 68.7843403,21.0546168 68.4856981,36.2305243 C68.0092877,59.7176414 52.4567951,43.3289878 34.2917296,42.9649641 C16.126664,42.6085241 -0.451647666,58.7544952 0.00939460654,35.2673781 C0.00939460654,20.6566305 14.6693478,7.92140332 31.3393863,6.5231949 Z" id="Combined-Shape" fill-rule="nonzero"></path>
                            </g>
                        </g>
                    </g>
                </g>
                <path d="M11.662,164.494 C5.202,164.494 1.8189894e-12,159.768 1.8189894e-12,152.73 C1.8189894e-12,145.658 5.202,141 11.662,141 C15.708,141 18.496,142.768 20.468,145.216 L18.224,146.644 C16.796,144.808 14.382,143.516 11.662,143.516 C6.698,143.516 2.924,147.29 2.924,152.73 C2.924,158.102 6.698,161.944 11.662,161.944 C14.382,161.944 16.626,160.652 17.782,159.496 L17.782,154.906 L9.962,154.906 L9.962,152.39 L20.57,152.39 L20.57,160.55 C18.462,162.93 15.368,164.494 11.662,164.494 Z M47.6459996,164.46 C40.9479996,164.46 36.3919996,159.428 36.3919996,152.73 C36.3919996,146.032 40.9479996,141 47.6459996,141 C54.3439996,141 58.9339996,146.032 58.9339996,152.73 C58.9339996,159.428 54.3439996,164.46 47.6459996,164.46 Z M47.6459996,161.944 C52.7119996,161.944 56.0099996,158 56.0099996,152.73 C56.0099996,147.426 52.7119996,143.516 47.6459996,143.516 C42.5459996,143.516 39.3159996,147.426 39.3159996,152.73 C39.3159996,158 42.5459996,161.944 47.6459996,161.944 Z M85.8059992,164.46 C79.1079992,164.46 74.5519992,159.428 74.5519992,152.73 C74.5519992,146.032 79.1079992,141 85.8059992,141 C92.5039992,141 97.0939992,146.032 97.0939992,152.73 C97.0939992,159.428 92.5039992,164.46 85.8059992,164.46 Z M85.8059992,161.944 C90.8719992,161.944 94.1699992,158 94.1699992,152.73 C94.1699992,147.426 90.8719992,143.516 85.8059992,143.516 C80.7059992,143.516 77.4759992,147.426 77.4759992,152.73 C77.4759992,158 80.7059992,161.944 85.8059992,161.944 Z M121.381999,164.052 L113.629999,164.052 L113.629999,141.374 L121.381999,141.374 C128.453999,141.374 133.009999,146.304 133.009999,152.73 C133.009999,159.19 128.453999,164.052 121.381999,164.052 Z M121.381999,161.536 C126.889999,161.536 130.085999,157.592 130.085999,152.73 C130.085999,147.834 126.991999,143.89 121.381999,143.89 L116.451999,143.89 L116.451999,161.536 L121.381999,161.536 Z M156.923998,164.46 C153.013998,164.46 150.089998,162.964 148.219998,160.856 L149.919998,158.68 C151.381998,160.38 153.829998,161.944 157.025998,161.944 C161.071998,161.944 162.363998,159.768 162.363998,158 C162.363998,152.152 148.933998,155.416 148.933998,147.324 C148.933998,143.584 152.265998,141 156.753998,141 C160.187998,141 162.873998,142.19 164.777998,144.196 L163.077998,146.27 C161.377998,144.366 158.997998,143.55 156.515998,143.55 C153.829998,143.55 151.857998,145.012 151.857998,147.154 C151.857998,152.254 165.287998,149.33 165.287998,157.796 C165.287998,161.06 163.043998,164.46 156.923998,164.46 Z M200.557998,164.052 L197.735998,164.052 L197.735998,153.648 L184.475998,153.648 L184.475998,164.052 L181.653998,164.052 L181.653998,141.374 L184.475998,141.374 L184.475998,151.132 L197.735998,151.132 L197.735998,141.374 L200.557998,141.374 L200.557998,164.052 Z M219.269998,164.392 C218.249998,164.392 217.399998,163.542 217.399998,162.522 C217.399998,161.502 218.249998,160.652 219.269998,160.652 C220.289998,160.652 221.139998,161.502 221.139998,162.522 C221.139998,163.542 220.289998,164.392 219.269998,164.392 Z M240.837997,164.052 L238.015997,164.052 L238.015997,141.374 L240.837997,141.374 L240.837997,164.052 Z M266.723997,164.052 L263.901997,164.052 L263.901997,143.89 L256.727997,143.89 L256.727997,141.374 L273.931997,141.374 L273.931997,143.89 L266.723997,143.89 L266.723997,164.052 Z" id="GOODSH.IT"></path>
                <path d="M15.135,205 L14.139,205 L14.139,196.996 L19.383,196.996 L19.383,197.884 L15.135,197.884 L15.135,200.464 L19.299,200.464 L19.299,201.352 L15.135,201.352 L15.135,205 Z M31.461,205 L30.321,205 L29.613,203.212 L25.629,203.212 L24.921,205 L23.781,205 L27.009,196.996 L28.245,196.996 L31.461,205 Z M29.325,202.336 L27.621,198.016 L25.929,202.336 L29.325,202.336 Z M37.791,205 L36.795,205 L36.795,196.996 L37.791,196.996 L37.791,205 Z M46.929,205 L45.933,205 L45.933,197.884 L43.401,197.884 L43.401,196.996 L49.473,196.996 L49.473,197.884 L46.929,197.884 L46.929,205 Z M69.333,205 L68.193,205 L67.485,203.212 L63.501,203.212 L62.793,205 L61.653,205 L64.881,196.996 L66.117,196.996 L69.333,205 Z M67.197,202.336 L65.493,198.016 L63.801,202.336 L67.197,202.336 Z M77.655,205 L76.419,205 L73.191,196.996 L74.331,196.996 L77.031,203.908 L79.731,196.996 L80.871,196.996 L77.655,205 Z M91.449,205 L86.205,205 L86.205,196.996 L91.449,196.996 L91.449,197.884 L87.201,197.884 L87.201,200.464 L91.365,200.464 L91.365,201.352 L87.201,201.352 L87.201,204.112 L91.449,204.112 L91.449,205 Z M101.115,205.144 C98.811,205.144 96.999,203.464 96.999,201.004 C96.999,198.544 98.811,196.864 101.115,196.864 C102.531,196.864 103.515,197.536 104.151,198.448 L103.323,198.916 C102.867,198.232 102.027,197.752 101.115,197.752 C99.363,197.752 98.031,199.084 98.031,201.004 C98.031,202.9 99.363,204.256 101.115,204.256 C102.027,204.256 102.867,203.764 103.323,203.092 L104.163,203.548 C103.491,204.472 102.531,205.144 101.115,205.144 Z M123.975,205 L122.835,205 L122.127,203.212 L118.143,203.212 L117.435,205 L116.295,205 L119.523,196.996 L120.759,196.996 L123.975,205 Z M121.839,202.336 L120.135,198.016 L118.443,202.336 L121.839,202.336 Z M137.145,205 L136.149,205 L136.149,198.268 L133.437,205 L133.029,205 L130.305,198.268 L130.305,205 L129.309,205 L129.309,196.996 L130.737,196.996 L133.233,203.164 L135.717,196.996 L137.145,196.996 L137.145,205 Z M146.955,205.144 C144.591,205.144 142.983,203.368 142.983,201.004 C142.983,198.64 144.591,196.864 146.955,196.864 C149.319,196.864 150.939,198.64 150.939,201.004 C150.939,203.368 149.319,205.144 146.955,205.144 Z M146.955,204.256 C148.743,204.256 149.907,202.864 149.907,201.004 C149.907,199.132 148.743,197.752 146.955,197.752 C145.155,197.752 144.015,199.132 144.015,201.004 C144.015,202.864 145.155,204.256 146.955,204.256 Z M160.041,205.144 C157.881,205.144 156.777,203.86 156.777,201.892 L156.777,196.996 L157.785,196.996 L157.785,201.868 C157.785,203.332 158.565,204.256 160.041,204.256 C161.517,204.256 162.309,203.332 162.309,201.868 L162.309,196.996 L163.317,196.996 L163.317,201.88 C163.317,203.872 162.213,205.144 160.041,205.144 Z M175.287,205 L174.111,205 L172.083,201.82 L170.475,201.82 L170.475,205 L169.479,205 L169.479,196.996 L172.695,196.996 C174.159,196.996 175.215,197.932 175.215,199.408 C175.215,200.848 174.219,201.64 173.127,201.736 L175.287,205 Z M172.575,200.944 C173.523,200.944 174.183,200.308 174.183,199.408 C174.183,198.496 173.523,197.884 172.575,197.884 L170.475,197.884 L170.475,200.944 L172.575,200.944 Z M192.291,196.264 L191.607,196.264 L189.579,194.536 L190.515,194.536 L192.291,196.264 Z M195.327,205 L194.187,205 L193.479,203.212 L189.495,203.212 L188.787,205 L187.647,205 L190.875,196.996 L192.111,196.996 L195.327,205 Z M193.191,202.336 L191.487,198.016 L189.795,202.336 L193.191,202.336 Z M209.055,205 L208.059,205 L208.059,196.996 L211.275,196.996 C212.883,196.996 213.783,198.1 213.783,199.408 C213.783,200.716 212.871,201.82 211.275,201.82 L209.055,201.82 L209.055,205 Z M211.155,200.932 C212.103,200.932 212.751,200.308 212.751,199.408 C212.751,198.508 212.103,197.884 211.155,197.884 L209.055,197.884 L209.055,200.932 L211.155,200.932 Z M225.321,205 L224.181,205 L223.473,203.212 L219.489,203.212 L218.781,205 L217.641,205 L220.869,196.996 L222.105,196.996 L225.321,205 Z M223.185,202.336 L221.481,198.016 L219.789,202.336 L223.185,202.336 Z M236.463,205 L235.287,205 L233.259,201.82 L231.651,201.82 L231.651,205 L230.655,205 L230.655,196.996 L233.871,196.996 C235.335,196.996 236.391,197.932 236.391,199.408 C236.391,200.848 235.395,201.64 234.303,201.736 L236.463,205 Z M233.751,200.944 C234.699,200.944 235.359,200.308 235.359,199.408 C235.359,198.496 234.699,197.884 233.751,197.884 L231.651,197.884 L231.651,200.944 L233.751,200.944 Z M243.249,205 L242.253,205 L242.253,196.996 L243.249,196.996 L243.249,205 Z M252.003,205.144 C250.623,205.144 249.591,204.616 248.931,203.872 L249.531,203.104 C250.047,203.704 250.911,204.256 252.039,204.256 C253.467,204.256 253.923,203.488 253.923,202.864 C253.923,200.8 249.183,201.952 249.183,199.096 C249.183,197.776 250.359,196.864 251.943,196.864 C253.155,196.864 254.103,197.284 254.775,197.992 L254.175,198.724 C253.575,198.052 252.735,197.764 251.859,197.764 C250.911,197.764 250.215,198.28 250.215,199.036 C250.215,200.836 254.955,199.804 254.955,202.792 C254.955,203.944 254.163,205.144 252.003,205.144 Z" id="FAIT-AVEC-AMOUR-À-PA"></path>
            </g>
        </g>
    </g>
</svg>