<?xml version="1.0" encoding="UTF-8"?>
<svg width="1349px" height="518px" viewBox="0 0 1349 518" version="1.1" xmlns="http://www.w3.org/2000/svg" xmlns:xlink="http://www.w3.org/1999/xlink">
    <!-- Generator: Sketch 51.3 (57544) - http://www.bohemiancoding.com/sketch -->
    <title>Group 47</title>
    <desc>Created with Sketch.</desc>
    <defs></defs>
    <g id="Page-1" stroke="none" stroke-width="1" fill="none" fill-rule="evenodd">
        <g id="Goodsh" transform="translate(-220.000000, -4062.000000)">
            <g id="Group-47" transform="translate(221.000000, 4063.000000)">
                <path d="M82.3177131,450.201612 L82.3232602,450.201612 C82.3232602,450.195991 82.3288072,450.195991 82.3288072,450.19037 C82.5187936,449.971152 82.6588566,449.708371 82.772571,449.427321 C82.8058533,449.340196 82.8322018,449.262908 82.85439,449.175782 C82.9195678,448.96078 82.9625574,448.73594 82.9736515,448.50548 C82.9791986,448.418354 82.994453,448.341066 82.9889059,448.252535 C82.9889059,448.203352 83,448.16541 83,448.121847 C82.9847456,447.85204 82.9292751,447.59488 82.848843,447.347557 C82.8432959,447.325073 82.8266548,447.303994 82.8155607,447.275889 C82.7184873,447.007487 82.5784244,446.771406 82.4147865,446.550782 C82.388438,446.524082 82.382891,446.48052 82.3551557,446.452415 L70.919917,432.794825 C70.0420968,431.752132 68.6067982,431.731053 67.7081765,432.756883 C66.813715,433.778497 66.7984607,435.457767 67.6748942,436.50046 L73.8404376,443.866761 C64.8320323,442.654034 55.974784,444.575005 55.5518216,444.674778 C28.2118106,449.691508 8.86232178,475.28245 12.4221396,501.706704 C12.5954848,503.019204 13.5592844,503.946667 14.6589865,503.946667 C14.7782481,503.946667 14.8975096,503.935425 15.0167711,503.919967 C16.2509892,503.689507 17.096914,502.333444 16.9069276,500.88885 C13.7381766,477.346757 31.3916557,454.477777 56.3325686,449.893863 C56.446283,449.867163 65.5947513,447.880145 74.2134766,449.251666 L64.6961296,454.978045 C63.5797863,455.646942 63.1471166,457.244707 63.721236,458.545965 C64.2898084,459.851439 65.6599291,460.357328 66.7762725,459.692646 L81.7754892,450.668154 C81.9765697,450.541682 82.161009,450.382889 82.3177131,450.201612 Z" id="Fill-1" stroke="#414141" stroke-width="1.1" fill="#414141"></path>
                <g id="Group-49" transform="translate(5.000000, 225.000000)" fill="#414141">
                    <path d="M75.5306665,5.71506936 C68.0841587,-1.90878288 55.9677448,-1.90126243 48.521237,5.71506936 L35.0146859,19.5432896 C33.8669504,20.7183593 33.8669504,22.6210322 35.0146859,23.7961019 C36.1624213,24.9711716 38.0208346,24.9711716 39.1685701,23.7961019 L52.6751213,9.96788163 C55.1579027,7.42597085 58.4780719,6.02340765 62.022279,6.02340765 C65.5664862,6.02340765 68.8866554,7.42597085 71.3694368,9.97352196 C73.8577273,12.5154327 75.2221552,15.9165545 75.2221552,19.5432896 C75.2221552,23.1719049 73.8577273,26.5730266 71.3694368,29.1130573 L53.7163469,47.1940898 C48.5579645,52.4753231 40.1730682,52.4753231 35.0146859,47.1940898 C33.8669504,46.0190201 32.0085371,46.0190201 30.8608016,47.1940898 C29.7130661,48.3691595 29.7130661,50.2793528 30.8608016,51.4469021 C34.5849737,55.2578882 39.4697359,57.1680815 44.3618436,57.1680815 C49.2539513,57.1680815 54.1460591,55.2578882 57.8683948,51.4469021 L75.5306665,33.37339 C79.1244559,29.6940118 81.10407,24.7794002 81.10407,19.5432896 C81.10407,14.307179 79.1244559,9.39444761 75.5306665,5.71506936 Z" id="Fill-1"></path>
                    <path d="M40.6838017,62.0949378 L29.01835,74.0177697 C26.4858054,76.6085232 23.0947075,78.0380366 19.4786612,78.0380366 C15.8607403,78.0380366 12.4696424,76.6085232 9.92959949,74.0177697 C4.67142948,68.6369738 4.67142948,59.8797669 9.92959949,54.5047198 L26.8963363,37.1608511 C29.4363792,34.5720138 32.8274771,33.1405841 36.4435235,33.1405841 C40.0614444,33.1405841 43.4525422,34.5720138 45.9850869,37.1608511 C47.1566934,38.3584998 49.0537586,38.3584998 50.2253652,37.1608511 C51.3969717,35.9632025 51.3969717,34.0163048 50.2253652,32.8263211 C42.6239821,25.057893 30.2574411,25.057893 22.656058,32.8263211 L5.68932121,50.1701898 C2.02078691,53.9202672 0,58.921648 0,64.2583704 C0,69.5950927 2.02078691,74.6022222 5.68932121,78.3522996 C9.35785552,82.1023771 14.256108,84.1680815 19.4786612,84.1680815 C24.6918415,84.1680815 29.590094,82.1023771 33.2586283,78.3522996 L44.92408,66.4294678 C46.0956865,65.2318192 46.0956865,63.2925865 44.92408,62.0949378 C43.7524735,60.8972892 41.8554082,60.8972892 40.6838017,62.0949378 Z" id="Fill-3"></path>
                </g>
                <g id="Group-62" transform="translate(782.000000, 434.000000)">
                    <ellipse id="Oval-2" stroke="#414141" stroke-width="6" cx="29.9316435" cy="29.9587723" rx="32.9316435" ry="32.9587723"></ellipse>
                    <path d="M49.2820862,61.57791 L78.1162029,61.5779203 C78.4142109,61.5779203 78.7076312,61.6513242 78.9705354,61.7916457 C80.3081558,62.5055822 80.970633,63.7794632 80.9579671,65.6132885 C80.9450352,67.4856057 80.2521286,68.6884902 78.8792473,69.2219421 L78.8792502,69.2219496 C78.6697235,69.303364 78.4468925,69.3451349 78.2221043,69.3451351 L49.2820862,69.3451663 C48.2800207,69.3451673 47.4676854,68.5328336 47.4676843,67.5307682 C47.4676843,67.5307675 47.4676843,67.5307669 47.4676843,67.5307663 L47.4676862,63.39231 C47.4676862,62.3902445 48.2800207,61.57791 49.2820862,61.57791 Z" id="Rectangle-5-Copy-3" fill="#414141" transform="translate(64.212915, 65.461538) rotate(42.000000) translate(-64.212915, -65.461538) "></path>
                </g>
                <g id="Group-55" transform="translate(768.000000, 228.000000)" fill="#414141" stroke="#414141" stroke-width="2">
                    <path d="M31.0975481,34.0712569 C40.5251361,34.0712569 48.1950961,26.4290739 48.1950961,17.0356284 C48.1950961,7.64218291 40.5251361,0 31.0975481,0 C21.6699601,0 14,7.64218291 14,17.0356284 C14,26.4290739 21.6699601,34.0712569 31.0975481,34.0712569 Z M31.0975481,4.08855082 C38.2624465,4.08855082 44.0916846,9.89667798 44.0916846,17.0356284 C44.0916846,24.1745789 38.2624465,29.982706 31.0975481,29.982706 C23.9326496,29.982706 18.1034115,24.1745789 18.1034115,17.0356284 C18.1034115,9.89667798 23.9326496,4.08855082 31.0975481,4.08855082 Z" id="Fill-1"></path>
                    <path d="M77.0975481,34.0712569 C86.5251361,34.0712569 94.1950961,26.4290739 94.1950961,17.0356284 C94.1950961,7.64218291 86.5251361,0 77.0975481,0 C67.6699601,0 60,7.64218291 60,17.0356284 C60,26.4290739 67.6699601,34.0712569 77.0975481,34.0712569 Z M77.0975481,4.08855082 C84.2624465,4.08855082 90.0916846,9.89667798 90.0916846,17.0356284 C90.0916846,24.1745789 84.2624465,29.982706 77.0975481,29.982706 C69.9326496,29.982706 64.1034115,24.1745789 64.1034115,17.0356284 C64.1034115,9.89667798 69.9326496,4.08855082 77.0975481,4.08855082 Z" id="Fill-2"></path>
                    <path d="M96.2338613,53.4803679 C96.6189269,53.9507347 97.199628,54.196357 97.7852282,54.196357 C98.2036074,54.196357 98.6259058,54.0704756 98.9819036,53.811651 C99.839238,53.1902265 99.9960077,52.0330383 99.3352887,51.2283181 C93.4691622,44.0920681 84.6100408,40 75.0287989,40 C68.8768943,40 62.9405481,41.7055401 57.8628426,44.9305614 C56.9659892,45.5000982 56.7301814,46.6443912 57.336031,47.4874899 C57.9422072,48.3318167 59.1591321,48.5525698 60.0559855,47.982726 C64.4844031,45.1715783 69.661396,43.6843351 75.0287989,43.6843351 C83.3865838,43.6843351 91.1166368,47.2547628 96.2338613,53.4803679 Z" id="Fill-3"></path>
                    <path d="M31.3455048,40 C14.0614601,40 0,54.3671676 0,72.0269814 C0,73.157125 0.896348051,74.0712569 2.0007769,74.0712569 C3.10520575,74.0712569 4.0015538,73.157125 4.0015538,72.0269814 C4.0015538,56.6216627 16.2679835,44.0885508 31.3455048,44.0885508 C46.423026,44.0885508 58.6894558,56.6216627 58.6894558,72.0269814 C58.6894558,73.157125 59.5858038,74.0712569 60.6902327,74.0712569 C61.7946615,74.0712569 62.6910096,73.157125 62.6910096,72.0269814 C62.6910096,54.3671676 48.6295495,40 31.3455048,40 Z" id="Fill-4"></path>
                </g>
                <g id="Group-48" transform="translate(267.000000, 221.000000)" fill="#414141" stroke="#414141" stroke-width="1.3">
                    <path d="M35.6971132,39.2632833 C46.5191136,39.2632833 55.3235194,30.4565288 55.3235194,19.6316416 C55.3235194,8.80675444 46.5191136,0 35.6971132,0 C24.8751129,0 16.0707071,8.80675444 16.0707071,19.6316416 C16.0707071,30.4565288 24.8751129,39.2632833 35.6971132,39.2632833 Z M35.6971132,4.71159399 C43.921755,4.71159399 50.6131819,11.4048059 50.6131819,19.6316416 C50.6131819,27.8584774 43.921755,34.5516893 35.6971132,34.5516893 C27.4724715,34.5516893 20.7810446,27.8584774 20.7810446,19.6316416 C20.7810446,11.4048059 27.4724715,4.71159399 35.6971132,4.71159399 Z" id="Fill-1-Copy-2"></path>
                    <path d="M35.9817447,46.0954915 C16.1412575,46.0954915 0,62.6520328 0,83.0029778 C0,84.3053409 1.02892478,85.3587748 2.29670711,85.3587748 C3.56448943,85.3587748 4.59341421,84.3053409 4.59341421,83.0029778 C4.59341421,65.2500842 18.6741427,50.8070855 35.9817447,50.8070855 C53.2893466,50.8070855 67.3700751,65.2500842 67.3700751,83.0029778 C67.3700751,84.3053409 68.3989999,85.3587748 69.6667822,85.3587748 C70.9345645,85.3587748 71.9634893,84.3053409 71.9634893,83.0029778 C71.9634893,62.6520328 55.8222318,46.0954915 35.9817447,46.0954915 Z" id="Fill-4-Copy"></path>
                </g>
                <path d="M343.201244,97.8529461 C343.25778,97.8561505 343.327454,97.8605765 343.425351,97.8669076 C343.42713,97.8627163 343.428884,97.8585442 343.430613,97.8543916 C339.506083,93.702616 336.802706,86.9793183 336.002743,78.5413382 L335.896618,77.421938 L336.57284,76.5235819 C340.712086,71.0246196 342.881712,64.6984796 342.881712,58.1712197 C342.881712,39.3849509 324.806163,23.9 302.390856,23.9 C279.975548,23.9 261.9,39.3849509 261.9,58.1712197 C261.9,76.9545103 279.97418,92.4338357 302.390856,92.4338357 C308.198431,92.4338357 313.800578,91.4106361 319.065461,89.3926771 L320.322079,88.9110323 L321.501189,89.5596999 C325.657088,91.845998 330.634039,93.9081661 335.89273,95.671483 C339.034236,96.7248764 342.487469,97.7020268 343.201244,97.8529461 Z M343.443572,97.8680864 C343.528227,97.8735507 343.590345,97.8768992 343.633312,97.8795096 C343.637814,97.8898662 343.642457,97.9002536 343.647245,97.9106703 C343.60718,97.9247206 343.56827,97.941793 343.531657,97.9604371 C343.502228,97.9297969 343.472866,97.8990132 343.443572,97.8680864 Z" id="commentIcon" stroke="#414141" stroke-width="5.8"></path>
                <g id="Group-54" transform="translate(1010.000000, 17.000000)" fill="#414141">
                    <path d="M83.0094523,76.5802203 C83.0094523,81.7281584 78.7812732,85.9164183 73.5840406,85.9200959 L64.1455409,85.9274511 C64.1455409,85.9274511 64.1418267,85.9274511 64.140058,85.9274511 C63.1359848,85.9274511 62.1890397,85.5406027 61.4778581,84.8366052 C60.7629622,84.128755 60.3704947,83.1911423 60.3704947,82.1913608 C60.3704947,80.1301541 62.0636411,78.4554455 64.1437722,78.4554455 L66.0302341,78.4554455 C67.0730411,78.4554455 67.9168728,77.6199301 67.9168728,76.5874004 C67.9168728,75.5550458 67.0730411,74.7195303 66.0302341,74.7195303 L64.1437722,74.7195303 C62.0636411,74.7195303 60.3704947,73.0448218 60.3704947,70.98344 C60.3704947,68.9222333 62.0636411,67.2475248 64.1437722,67.2475248 L66.0302341,67.2475248 C67.0730411,67.2475248 67.9168728,66.4120093 67.9168728,65.3794796 C67.9168728,64.347125 67.0730411,63.5116095 66.0302341,63.5116095 L64.1437722,63.5116095 C62.0636411,63.5116095 60.3704947,61.836901 60.3704947,59.7755192 C60.3704947,57.7143125 62.0636411,56.039604 64.1437722,56.039604 L77.3497129,56.039604 C78.3925199,56.039604 79.2363516,55.2040885 79.2363516,54.1715588 C79.2363516,53.1392042 78.3925199,52.3036887 77.3497129,52.3036887 L75.463251,52.3036887 L75.463251,44.8316832 C75.463251,42.7703014 77.1563974,41.0957679 79.2363516,41.0957679 C81.3163059,41.0957679 83.0094523,42.7703014 83.0094523,44.8316832 L83.0094523,76.5802203 Z M56.597394,59.7755192 C56.597394,60.406315 56.6950245,61.0108422 56.8443002,61.5961058 C56.3860381,61.9805025 55.9171641,62.3486126 55.4316646,62.6967587 C51.569423,59.6273645 46.1307672,58.8596219 41.5048146,61.0817673 C36.8781545,58.8529672 31.4198664,59.6336689 27.5516114,62.7246033 C23.9092154,60.1084295 21.0407887,56.5220699 19.5050538,52.3036887 L63.4969701,52.3036887 C63.4888342,52.3264548 63.4783991,52.3483453 63.4700863,52.3711114 C59.6278307,52.7147042 56.597394,55.8847946 56.597394,59.7755192 Z M3.77310065,41.0957679 C3.77310065,20.4968354 20.6989051,3.73591522 41.5048146,3.73591522 C61.0928189,3.73591522 77.1231464,18.3463156 79.0097852,37.3822686 C74.9547588,37.5041547 71.6899735,40.7894765 71.6899735,44.8316832 L71.6899735,52.3036887 L67.3845036,52.3036887 C67.5325412,51.8217481 67.7483187,51.3550433 67.8652277,50.8697754 C67.9998234,50.3116559 67.8689419,49.7277933 67.511494,49.2791262 C67.1522774,48.830284 66.6069969,48.5675984 66.0302341,48.5675984 L16.9792182,48.5675984 C16.4026323,48.5675984 15.8571749,48.830284 15.499727,49.2754486 C15.1424559,49.7242908 15.0098058,50.3079783 15.1424559,50.8660978 C17.9243947,62.5228608 29.0098786,70.98344 41.5048146,70.98344 C47.6909097,70.98344 53.847645,68.7833601 58.7229799,64.9122494 C58.8710175,65.0654827 58.9974773,65.2390303 59.1582492,65.3794796 C57.5885559,66.7513991 56.597394,68.7542896 56.597394,70.98344 C56.597394,72.3739226 57.0176297,73.6539022 57.6884857,74.7701411 C52.65344,77.1425427 47.1256433,78.4554455 41.5048146,78.4554455 C20.6989051,78.4554455 3.77310065,61.6947005 3.77310065,41.0957679 Z M82.8759178,38.3272364 C81.4291469,16.7498874 63.5013918,0 41.5048146,0 C18.6189508,0 0,18.4354536 0,41.0957679 C0,63.7560823 18.6189508,82.1913608 41.5048146,82.1913608 C46.9332121,82.1913608 52.3009444,81.1104969 57.2827531,79.0867667 C56.8441233,80.0331355 56.597394,81.0838781 56.597394,82.1913608 C56.597394,84.1907488 57.3840978,86.065974 58.8119439,87.4779969 C60.2360759,88.8863422 62.1281975,89.6633663 64.140058,89.6633663 C64.1418267,89.6633663 64.1455409,89.6633663 64.1492551,89.6633663 L73.5877549,89.6560111 C80.863173,89.6525087 86.7827298,83.7858626 86.7827298,76.5802203 L86.7827298,44.8316832 C86.7827298,42.0253249 85.1934042,39.604414 82.8759178,38.3272364 Z" id="Fill-1-Copy" stroke="#414141" stroke-width="1.4"></path>
                    <path d="M54.1991643,33 C56.5183203,33 58.3983287,34.8818652 58.3983287,37.2030688 C58.3983287,39.5242724 56.5183203,41.4059406 54.1991643,41.4059406 C51.8800084,41.4059406 50,39.5242724 50,37.2030688 C50,34.8818652 51.8800084,33 54.1991643,33" id="Fill-2-Copy"></path>
                    <path d="M26.1990659,33 C28.5181675,33 30.3983287,34.8818652 30.3983287,37.2030688 C30.3983287,39.5242724 28.5181675,41.4059406 26.1990659,41.4059406 C23.8799643,41.4059406 22,39.5242724 22,37.2030688 C22,34.8818652 23.8799643,33 26.1990659,33" id="Fill-3-Copy"></path>
                </g>
                <path d="M1000.00789,266.836257 C1000.11775,268.646023 1001.34171,270.16894 1003.1136,270.687551 L1035.93006,280.415322 L1037.13553,302.592679 C1037.1908,303.470915 1037.79307,304.241442 1038.65207,304.527395 C1038.88937,304.617637 1039.14563,304.653465 1039.38293,304.653465 C1040.02244,304.653465 1040.62563,304.402445 1041.06369,303.918766 L1052.66638,291.324524 L1069.1108,302.484971 C1069.84144,302.987012 1070.70066,303.255722 1071.59551,303.255722 C1073.66089,303.255722 1075.45127,301.822823 1075.88934,299.816227 L1089.53867,231.617927 C1089.70288,230.828814 1089.3925,230.004768 1088.77149,229.503623 C1088.13176,228.984116 1087.27253,228.858942 1086.50536,229.16348 L1002.639,262.626234 C1000.93928,263.379295 999.898258,265.027387 1000.00789,266.836257 Z M1041.3019,297.093293 L1040.55254,283.102428 L1048.95747,288.799317 L1041.3019,297.093293 Z M1071.52311,298.795575 L1041.59356,278.480382 L1083.56386,238.675835 L1071.52311,298.795575 Z M1078.95942,236.920259 L1037.46464,276.276955 L1004.68564,266.56777 L1078.95942,236.920259 Z" id="Fill-1" stroke="#414141" stroke-width="1.1" fill="#414141"></path>
                <g id="Group-53" transform="translate(762.000000, 30.000000)">
                    <path d="M19.520633,46.938977 L30.668782,46.938977 C32.2101137,46.938977 33.45961,48.1884732 33.45961,49.729805 C33.45961,51.2711368 32.2101137,52.520633 30.668782,52.520633 L19.520633,52.520633 L19.520633,63.668782 C19.520633,65.2101137 18.2711368,66.45961 16.729805,66.45961 C15.1884732,66.45961 13.938977,65.2101137 13.938977,63.668782 L13.938977,52.520633 L2.79082804,52.520633 C1.24949627,52.520633 0,51.2711368 0,49.729805 C0,48.1884732 1.24949627,46.938977 2.79082804,46.938977 L13.938977,46.938977 L13.938977,35.790828 C13.938977,34.2494963 15.1884732,33 16.729805,33 C18.2711368,33 19.520633,34.2494963 19.520633,35.790828 L19.520633,46.938977 Z" id="Combined-Shape" fill="#414141"></path>
                    <rect id="Rectangle-10-Copy-6" stroke="#414141" stroke-width="4.8" x="10.4" y="2.4" width="23.0611222" height="23.0863744" rx="4.2336"></rect>
                    <rect id="Rectangle-10-Copy-7" stroke="#414141" stroke-width="4.8" x="45.4" y="2.4" width="23.0611222" height="23.0863744" rx="4.2336"></rect>
                    <rect id="Rectangle-10-Copy-10" stroke="#414141" stroke-width="4.8" x="45.4" y="37.4" width="23.0611222" height="23.0863744" rx="4.2336"></rect>
                    <rect id="Rectangle-10-Copy-8" stroke="#414141" stroke-width="4.8" x="81.4" y="2.4" width="23.0611222" height="23.0863744" rx="4.2336"></rect>
                    <rect id="Rectangle-10-Copy-11" stroke="#414141" stroke-width="4.8" x="81.4" y="37.4" width="23.0611222" height="23.0863744" rx="4.2336"></rect>
                </g>
                <path d="M1250.13153,446.697443 L1263.91603,446.697443 L1263.91603,431.111323 L1250.13153,431.111323 L1250.13153,446.697443 Z M1250.13153,467.394886 L1263.91603,467.394886 L1263.91603,451.808766 L1250.13153,451.808766 L1250.13153,467.394886 Z M1250.13153,488.092329 L1263.91603,488.092329 L1263.91603,472.506209 L1250.13153,472.506209 L1250.13153,488.092329 Z M1250.13153,508.788809 L1263.91603,508.788809 L1263.91603,493.20269 L1250.13153,493.20269 L1250.13153,508.788809 Z M1269.04661,467.394886 L1323.34443,467.394886 L1323.34443,431.111323 L1269.04661,431.111323 L1269.04661,467.394886 Z M1269.04661,508.788809 L1323.34443,508.788809 L1323.34443,472.505247 L1269.04661,472.505247 L1269.04661,508.788809 Z M1328.47597,446.697443 L1342.26047,446.697443 L1342.26047,431.111323 L1328.47597,431.111323 L1328.47597,446.697443 Z M1328.47597,467.394886 L1342.26047,467.394886 L1342.26047,451.808766 L1328.47597,451.808766 L1328.47597,467.394886 Z M1328.47597,488.092329 L1342.26047,488.092329 L1342.26047,472.506209 L1328.47597,472.506209 L1328.47597,488.092329 Z M1328.47597,508.788809 L1342.26047,508.788809 L1342.26047,493.20269 L1328.47597,493.20269 L1328.47597,508.788809 Z M1344.8272,426 L1247.5648,426 C1246.15103,426 1245,427.146222 1245,428.55518 L1245,511.344952 C1245,512.753911 1246.15103,513.900133 1247.5648,513.900133 L1344.8272,513.900133 C1346.24097,513.900133 1347.392,512.753911 1347.392,511.344952 L1347.392,428.55518 C1347.392,427.146222 1346.24097,426 1344.8272,426 Z" id="Fill-1" fill="#414141"></path>
                <g id="Group-46" transform="translate(511.000000, 0.000000)" fill="#414141" fill-rule="nonzero" stroke="#414141">
                    <path d="M60.1582744,0 C57.604722,0 55.2048556,0.998450174 53.3960892,2.81705585 L52.9941412,3.22119044 L52.5921931,2.81705585 C50.7834268,0.998450174 48.3835604,0 45.8300079,0 C43.2882775,0 40.888411,0.998450174 39.0914667,2.80516954 C37.2827004,4.62377521 36.2896522,7.03669647 36.3014742,9.59225346 C36.3014742,12.1596968 37.3063444,14.5607317 39.1032887,16.3793374 L51.859229,29.2046676 C52.166601,29.5137117 52.5803711,29.6801201 52.9823192,29.6801201 C53.3842672,29.6801201 53.7980373,29.525598 54.1054094,29.2165539 L66.8968156,16.40311 C68.705582,14.5845043 69.6986301,12.1715831 69.6986301,9.61602608 C69.6986301,7.04858278 68.705582,4.63566152 66.9086376,2.81705585 C65.0998713,0.998450174 62.7000049,0 60.1582744,0 Z M64.6388132,14.1328245 L52.9823192,25.8051825 L41.3494691,14.1090519 C40.1436249,12.8966481 39.4815928,11.291996 39.4815928,9.58036715 C39.4815928,7.86873828 40.1436249,6.26408621 41.3376471,5.06356874 C42.5316693,3.86305127 44.1276396,3.19741782 45.8300079,3.19741782 C47.5323762,3.19741782 49.1283465,3.86305127 50.3341907,5.07545505 L51.871051,6.62067556 C52.4976171,7.25065008 53.5024873,7.25065008 54.1290534,6.62067556 L55.6540916,5.08734136 C56.8599359,3.87493758 58.4559061,3.20930413 60.1582744,3.20930413 C61.8488207,3.20930413 63.444791,3.87493758 64.6506352,5.08734136 C65.8564795,6.29974515 66.5185116,7.90439721 66.5066896,9.60413977 C66.5066896,11.3157686 65.8446575,12.9204207 64.6388132,14.1328245 Z" id="Shape" stroke-width="1.1"></path>
                    <path d="M66.6798234,63.0971222 C66.3625592,63.0971222 66.0511838,62.8691906 65.8686281,62.5027125 L55.6226871,41.9583333 L91.2159041,41.9583333 C91.8592658,41.9583333 92.472447,42.387381 92.8176835,43.0771346 L102.768444,63.0300835 C102.780958,63.0531746 102.783902,63.0762657 102.783902,63.0971222 L66.6798234,63.0971222 Z M91.63696,81.6333201 L91.63696,89.2809449 L91.63696,92.6589501 L91.63696,106.512123 C91.63696,107.53558 90.9597371,108.400379 90.1588474,108.400379 L54.609061,108.400379 L54.609061,47.1635152 L63.0007363,63.987247 C63.7346398,65.4606085 65.144294,66.3745693 66.6798234,66.3745693 L91.63696,66.3745693 L91.63696,74.7789864 L91.63696,81.6333201 Z M51.3907799,108.400379 L15.8417296,108.400379 C15.0401038,108.400379 14.3628809,107.53558 14.3628809,106.512123 L14.3628809,66.3745693 L39.3200176,66.3745693 C40.8606997,66.3745693 42.2674095,65.4546495 42.9998408,63.987247 L51.3907799,47.1627703 L51.3907799,108.400379 Z M3.21593894,63.0971222 C3.21593894,63.0770106 3.22035561,63.0531746 3.23139729,63.0300835 L13.1828936,43.0771346 C13.5266578,42.387381 14.1405751,41.9583333 14.784673,41.9583333 L50.37789,41.9583333 C49.1485832,44.4246123 41.790409,59.1746139 40.1312129,62.5027125 C39.947921,62.8691906 39.6372818,63.0971222 39.3200176,63.0971222 L3.21593894,63.0971222 Z M105.637808,61.5455489 L95.6855753,41.5926 C94.7897272,39.7959631 93.0760587,38.6808862 91.2159041,38.6808862 L14.7839369,38.6808862 C12.9230461,38.6808862 11.2101138,39.7959631 10.3142657,41.5926 L0.362769349,61.5455489 C-0.163550634,62.600291 -0.114231139,63.88073 0.491588925,64.8855655 C1.05324228,65.8181481 2.00650714,66.3745693 3.04221654,66.3745693 L11.1453359,66.3745693 L11.1453359,106.511378 C11.1453359,109.359778 13.2520881,111.678571 15.8417296,111.678571 L90.1588474,111.678571 C92.748489,111.678571 94.8552411,109.360522 94.8552411,106.511378 L94.8552411,92.6589501 L94.8552411,89.2809449 L94.8552411,74.7789864 L94.854505,74.7789864 L94.854505,66.3745693 L102.957624,66.3745693 C103.993334,66.3745693 104.946599,65.8181481 105.508252,64.8863104 C106.113336,63.88073 106.164128,62.600291 105.637808,61.5455489 Z" id="Fill-1" stroke-width="1.7"></path>
                </g>
                <g id="restaurants" transform="translate(520.000000, 215.000000)" fill="#414141" fill-rule="nonzero" stroke="#414141" stroke-width="1.3">
                    <path d="M78.8075566,0 L78.7999161,0 C75.8934287,0 73.3916481,2.05571996 72.9804946,4.78197519 L64.4186173,61.5684396 C64.0105678,64.2743345 65.8134829,66.8148578 68.6122873,67.4779276 L71.4824824,68.1577381 L69.9391049,97.4031654 C69.8371522,99.3342346 70.5555964,101.169158 71.9621615,102.570178 C73.3687266,103.971199 75.2671478,104.742857 77.3078731,104.742857 C81.3761914,104.742857 84.6857143,101.606906 84.6857143,97.7524591 L84.6857143,5.56969577 C84.6857143,2.49844517 82.0487926,0 78.8075566,0 Z M81.104238,97.7522329 C81.104238,99.7357866 79.4011266,101.349234 77.3078731,101.349234 C76.2577842,101.349234 75.2809962,100.952206 74.5570605,100.231449 C73.8331247,99.5106913 73.4635164,98.566422 73.5160447,97.5726091 L75.1327231,66.9345316 C75.1754621,66.1253195 74.6081562,65.4002636 73.7784475,65.203899 L69.4806759,64.1858799 C68.468312,63.9460799 67.8162445,63.0271479 67.9638013,62.048266 L76.5259174,5.26180154 C76.6863675,4.19672731 77.6641106,3.3933971 78.7996773,3.3933971 L78.8073178,3.3933971 C80.0737278,3.3933971 81.104238,4.36956433 81.104238,5.56969577 L81.104238,97.7522329 Z" id="Shape"></path>
                    <path d="M55.7692581,1.61186014 C55.7195974,0.675963242 54.8732061,-0.0429829371 53.8823908,0.00203603386 C52.8898962,0.0488648127 52.125553,0.845406505 52.1752137,1.7813034 L53.712057,30.7665077 L48.0943984,30.7665077 L48.0943984,1.69669489 C48.0943984,0.759666857 47.2887912,0 46.295097,0 C45.3014029,0 44.4957957,0.759666857 44.4957957,1.69669489 L44.4957957,30.7667339 L38.8781371,30.7667339 L40.4147404,1.78152963 C40.4644011,0.845632731 39.7000579,0.0490910387 38.7075633,0.00226225985 C37.7153086,-0.0452451969 36.8703567,0.676189468 36.820696,1.61208637 L35.010359,35.7556956 C34.9117573,37.6152732 35.8711447,39.4119599 37.5140268,40.4446815 L39.6880626,41.8113127 C40.2770339,42.1816447 40.6160223,42.8010514 40.5951504,43.4681918 L38.8985292,97.5717197 C38.8426309,99.4713392 39.5856224,101.2678 40.9905169,102.630133 C42.3956512,103.992466 44.2793998,104.742857 46.2948571,104.742857 C48.3103145,104.742857 50.194063,103.992692 51.5991974,102.630133 C53.0040919,101.2678 53.7473233,99.4713392 53.6911851,97.5687787 L51.9948038,43.4681918 C51.9739319,42.8010514 52.3131602,42.1816447 52.9018916,41.8113127 L55.0759274,40.4446815 C56.7185695,39.4119599 57.677957,37.6152732 57.5793553,35.7556956 L55.7692581,1.61186014 Z M53.0801423,37.6209288 L50.9061065,38.98756 C49.2778588,40.0110063 48.3403029,41.723537 48.3981204,43.5681837 L50.0945017,97.6658297 C50.1232905,98.6415423 49.7415987,99.5643181 49.0199589,100.264035 C48.2980793,100.963752 47.330535,101.349241 46.2953369,101.349241 C45.2601389,101.349241 44.2923547,100.963752 43.5707149,100.264035 C42.8490752,99.5643181 42.4673834,98.6415423 42.4961722,97.6687706 L44.1925535,43.5681837 C44.250371,41.723537 43.3128151,40.0112326 41.6845673,38.98756 L39.5105315,37.6209288 C38.9162823,37.2474297 38.569377,36.5974824 38.6051231,35.9249126 L38.6986868,34.1598975 L53.892227,34.1598975 L53.9857907,35.9249126 C54.0212969,36.5974824 53.6743916,37.2474297 53.0801423,37.6209288 Z" id="Shape"></path>
                    <path d="M15.2434286,0 C11.4923449,0 6.29949689,1.77474668 2.86336403,10.2299611 C0.749928675,15.4300028 0,21.5573469 0,25.2242518 C0,30.2727218 2.73397493,34.8585586 7.3132449,37.4916085 C8.58697139,38.2241298 9.3268178,39.4618149 9.29225002,40.802433 L7.82287953,97.5769074 C7.77366846,99.4772098 8.52239687,101.272769 9.93127375,102.633295 C11.3399106,103.993595 13.2264949,104.742857 15.2434286,104.742857 C17.2603622,104.742857 19.1471866,103.993595 20.5558234,102.633295 C21.9647003,101.272995 22.7134287,99.4772098 22.6642177,97.5769074 L21.1946071,40.8026592 C21.1600393,39.4618149 21.8998858,38.2241298 23.1736122,37.4916085 C27.7531223,34.8585586 30.4868571,30.2724955 30.4868571,25.2242518 C30.4868571,21.5573469 29.7369285,15.4302291 27.6234931,10.2299611 C24.1876003,1.77474668 18.9947523,0 15.2434286,0 Z M21.2978303,34.5947785 C18.9484219,35.945803 17.5294627,38.3560199 17.5947574,40.8852318 L19.0641279,97.65948 C19.0895737,98.6379095 18.7040469,99.5624971 17.9786038,100.262894 C17.2531606,100.963518 16.2816621,101.349234 15.2431885,101.349234 C14.2047149,101.349234 13.2332164,100.963518 12.5077733,100.263121 C11.7823301,99.5627234 11.3968034,98.6379095 11.4222491,97.65948 L12.8916196,40.8852318 C12.9571543,38.3562461 11.5381952,35.945803 9.1885467,34.5947785 C5.68951969,32.5829465 3.60056984,29.0798296 3.60056984,25.2242518 C3.60056984,18.1015113 6.44640993,3.3933971 15.2431885,3.3933971 C24.0399671,3.3933971 26.8858072,18.1015113 26.8858072,25.2242518 C26.8860472,29.0798296 24.7973374,32.5829465 21.2978303,34.5947785 Z" id="Shape"></path>
                </g>
                <path d="M9.88344371,24 C4.43487859,24 0,28.4348786 0,33.8834437 C0,39.3320088 4.43487859,43.7668874 9.88344371,43.7668874 C15.3320088,43.7668874 19.7668874,39.3320088 19.7668874,33.8834437 C19.7668874,28.4348786 15.3320088,24 9.88344371,24 Z M9.88344371,40.6466336 C6.16131347,40.6466336 3.13609272,37.6214128 3.13609272,33.8992826 C3.13609272,30.1771523 6.16131347,27.1519316 9.88344371,27.1519316 C13.605574,27.1519316 16.6307947,30.1771523 16.6307947,33.8992826 C16.6307947,37.6214128 13.605574,40.6466336 9.88344371,40.6466336 Z" id="Shape" stroke="#414141" stroke-width="1.3" fill="#414141" fill-rule="nonzero"></path>
                <path d="M9.88344371,53 C4.43487859,53 0,57.4348786 0,62.8834437 C0,68.3320088 4.43487859,72.7668874 9.88344371,72.7668874 C15.3320088,72.7668874 19.7668874,68.3320088 19.7668874,62.8834437 C19.7668874,57.4348786 15.3320088,53 9.88344371,53 Z M9.88344371,69.6307947 C6.16131347,69.6307947 3.13609272,66.605574 3.13609272,62.8834437 C3.13609272,59.1613135 6.16131347,56.1360927 9.88344371,56.1360927 C13.605574,56.1360927 16.6307947,59.1613135 16.6307947,62.8834437 C16.6307947,66.605574 13.605574,69.6307947 9.88344371,69.6307947 Z" id="Shape" stroke="#414141" stroke-width="1.3" fill="#414141" fill-rule="nonzero"></path>
                <path d="M9.88344371,82 C4.43487859,82 0,86.4348786 0,91.8834437 C0,97.3320088 4.43487859,101.766887 9.88344371,101.766887 C15.3320088,101.766887 19.7668874,97.3320088 19.7668874,91.8834437 C19.7668874,86.4348786 15.3320088,82 9.88344371,82 Z M9.88344371,98.6466336 C6.16131347,98.6466336 3.13609272,95.6214128 3.13609272,91.8992826 C3.13609272,88.1771523 6.16131347,85.1519316 9.88344371,85.1519316 C13.605574,85.1519316 16.6307947,88.1771523 16.6307947,91.8992826 C16.6307947,95.605574 13.605574,98.6466336 9.88344371,98.6466336 Z" id="Shape" stroke="#414141" stroke-width="1.3" fill="#414141" fill-rule="nonzero"></path>
                <path d="M89,34.5680464 C89,33.6969095 88.1845812,33 87.1653076,33 L40.8346924,33 C39.8154188,33 39,33.6969095 39,34.5680464 C39,35.4391832 39.8154188,36.1360927 40.8346924,36.1360927 L87.1653076,36.1360927 C88.1845812,36.1360927 89,35.4391832 89,34.5680464 Z" id="Shape" stroke="#414141" stroke-width="2.8" fill="#414141" fill-rule="nonzero"></path>
                <path d="M40.8346924,61 C39.8154188,61 39,61.6969095 39,62.5680464 C39,63.4391832 39.8154188,64.1360927 40.8346924,64.1360927 L87.1653076,64.1360927 C88.1845812,64.1360927 89,63.4391832 89,62.5680464 C89,61.6969095 88.1845812,61 87.1653076,61 L40.8346924,61 Z" id="Shape" stroke="#414141" stroke-width="2.8" fill="#414141" fill-rule="nonzero"></path>
                <path d="M89,91.5680464 C89,90.6969095 88.1845812,90 87.1653076,90 L40.8346924,90 C39.8154188,90 39,90.6969095 39,91.5680464 C39,92.4391832 39.8154188,93.1360927 40.8346924,93.1360927 L87.1653076,93.1360927 C88.1845812,93.1360927 89,92.4391832 89,91.5680464 Z" id="Shape" stroke="#414141" stroke-width="2.8" fill="#414141" fill-rule="nonzero"></path>
                <g id="Group-50" transform="translate(237.000000, 428.000000)" fill="#414141">
                    <path d="M5.15747411,69.0378833 L11.8850352,69.0378833 L11.8850352,19.1914687 L5.15747411,19.1914687 L5.15747411,69.0378833 Z M16.5615605,76.3040588 L24.3141274,76.3040588 L24.3141274,11.9242692 L16.5615605,11.9242692 L16.5615605,76.3040588 Z M28.9906527,83.5722823 L101.010371,83.5722823 L101.010371,4.65809364 L28.9906527,4.65809364 L28.9906527,83.5722823 Z M105.686897,76.3040588 L113.439464,76.3040588 L113.439464,11.9242692 L105.686897,11.9242692 L105.686897,76.3040588 Z M118.115989,69.0378833 L124.84355,69.0378833 L124.84355,19.1914687 L118.115989,19.1914687 L118.115989,69.0378833 Z M118.115989,14.534399 L118.115989,9.82715424 C118.115989,8.41508321 116.968105,7.2671995 115.556034,7.2671995 L105.686897,7.2671995 L105.686897,2.55995474 C105.686897,1.1478837 104.539013,0 103.126942,0 L26.8740821,0 C25.4620111,0 24.3141274,1.1478837 24.3141274,2.55995474 L24.3141274,7.2671995 L14.4449899,7.2671995 C13.0329189,7.2671995 11.8850352,8.41508321 11.8850352,9.82715424 L11.8850352,14.534399 L2.01589765,14.534399 C1.16906463,14.534399 0.479924812,15.2235388 0.479924812,16.0703719 L0.479924812,72.1600041 C0.479924812,73.0068371 1.16906463,73.6959769 2.01589765,73.6959769 L11.8850352,73.6959769 L11.8850352,78.4021977 C11.8850352,79.8142688 13.0329189,80.9621525 14.4449899,80.9621525 L24.3141274,80.9621525 L24.3141274,85.6693972 C24.3141274,87.0814683 25.4620111,88.229352 26.8740821,88.229352 L103.126942,88.229352 C104.539013,88.229352 105.686897,87.0814683 105.686897,85.6693972 L105.686897,80.9621525 L115.556034,80.9621525 C116.968105,80.9621525 118.115989,79.8142688 118.115989,78.4021977 L118.115989,73.6959769 L127.984102,73.6959769 C128.830935,73.6959769 129.520075,73.0068371 129.520075,72.1600041 L129.520075,16.0703719 C129.520075,15.2235388 128.830935,14.534399 127.984102,14.534399 L118.115989,14.534399 Z" id="Fill-1"></path>
                </g>
                <path d="M1295.99945,307.718948 C1306.24689,295.598319 1316.4887,281.218862 1322.47031,268.062638 C1324.14885,264.369137 1325,260.374749 1325,256.172134 C1324.99839,240.08561 1311.98224,227 1295.99867,227 C1280.01566,227 1267,240.08587 1267,256.171833 C1267,260.373233 1267.85143,264.367983 1269.52959,268.062421 C1275.51005,281.219165 1285.75985,295.610081 1295.99945,307.718948 Z" id="Shape" stroke="#414141" stroke-width="6" fill-rule="nonzero"></path>
                <path d="M1311.71773,30.9191299 L1311.71773,28 C1311.71773,26.8954305 1310.8223,26 1309.71773,26 L1307.81477,26 C1306.7102,26 1305.81477,26.8954305 1305.81477,28 L1305.81477,30.9191299 L1285.81044,30.9191299 L1285.81044,28 C1285.81044,26.8954305 1284.91501,26 1283.81044,26 L1281.90748,26 C1280.80291,26 1279.90748,26.8954305 1279.90748,28 L1279.90748,30.9191299 L1258,30.9191299 C1255.79086,30.9191299 1254,32.709991 1254,34.9191299 L1254,97.7546012 C1254,99.9637402 1255.79086,101.754601 1258,101.754601 L1333.62521,101.754601 C1335.83435,101.754601 1337.62521,99.9637402 1337.62521,97.7546012 L1337.62521,34.9191299 C1337.62521,32.709991 1335.83435,30.9191299 1333.62521,30.9191299 L1311.71773,30.9191299 Z M1258.90296,96.8516453 L1258.90296,52.5633017 L1332.72225,52.5633017 L1332.72225,96.8516453 L1258.90296,96.8516453 Z M1279.90748,35.8220859 L1279.90748,38.7412158 C1279.90748,39.8457853 1280.80291,40.7412158 1281.90748,40.7412158 L1283.81044,40.7412158 C1284.91501,40.7412158 1285.81044,39.8457853 1285.81044,38.7412158 L1285.81044,35.8220859 L1305.81477,35.8220859 L1305.81477,37.7573898 C1305.81477,38.8619593 1306.7102,39.7573898 1307.81477,39.7573898 L1309.71773,39.7573898 C1310.8223,39.7573898 1311.71773,38.8619593 1311.71773,37.7573898 L1311.71773,35.8220859 L1332.72225,35.8220859 L1332.72225,46.6603458 L1258.90296,46.6603458 L1258.90296,35.8220859 L1279.90748,35.8220859 Z" id="Shape" fill="#414141" fill-rule="nonzero"></path>
                <path d="M1293.74273,74.6004723 L1287.75975,68.617495 C1286.97871,67.8364464 1285.71238,67.8364464 1284.93133,68.617495 L1283.58579,69.9630601 C1282.80474,70.744104 1282.80474,72.0104246 1283.58577,72.7914752 L1293.74273,82.9486294 L1305.79852,71.3686332 L1310.55922,66.7958207 C1311.35583,66.0306499 1311.38132,64.7645765 1310.61615,63.9679665 C1310.60685,63.9582891 1310.59746,63.9487055 1310.58797,63.9392172 L1309.23454,62.5857874 C1308.46795,61.8191923 1307.23015,61.8029509 1306.44371,62.5491682 L1293.74273,74.6004723 Z" id="Shape" fill="#414141" fill-rule="nonzero"></path>
                <g id="Group-67" transform="translate(530.000000, 491.000000)" fill="#414141" fill-rule="nonzero" stroke="#414141" stroke-width="1.3">
                    <path d="M11.5113086,0.443037975 C5.23511331,0.443037975 0.126582278,5.55156901 0.126582278,11.8277643 C0.126582278,18.1039595 5.23511331,23.2124906 11.5113086,23.2124906 C17.7875038,23.2124906 22.8960349,18.1039595 22.8960349,11.8277643 C22.8960349,5.55156901 17.7875038,0.443037975 11.5113086,0.443037975 Z M11.5113086,19.6182741 C7.22379146,19.6182741 3.73904351,16.1335261 3.73904351,11.846009 C3.73904351,7.55849191 7.22379146,4.07374396 11.5113086,4.07374396 C15.7988257,4.07374396 19.2835736,7.55849191 19.2835736,11.846009 C19.2835736,16.1152814 15.7988257,19.6182741 11.5113086,19.6182741 Z" id="Shape-Copy"></path>
                    <path d="M57.4353592,0.443037975 C51.1591639,0.443037975 46.0506329,5.55156901 46.0506329,11.8277643 C46.0506329,18.1039595 51.1591639,23.2124906 57.4353592,23.2124906 C63.7115545,23.2124906 68.8200855,18.1039595 68.8200855,11.8277643 C68.8200855,5.55156901 63.7115545,0.443037975 57.4353592,0.443037975 Z M57.4353592,19.6182741 C53.1478421,19.6182741 49.6630941,16.1335261 49.6630941,11.846009 C49.6630941,7.55849191 53.1478421,4.07374396 57.4353592,4.07374396 C61.7228763,4.07374396 65.2076243,7.55849191 65.2076243,11.846009 C65.2076243,16.1152814 61.7228763,19.6182741 57.4353592,19.6182741 Z" id="Shape-Copy-2"></path>
                </g>
                <g id="shopping-cart" transform="translate(514.000000, 435.000000)" fill-rule="nonzero">
                    <path d="M89.8557647,10.6896845 C89.2267159,9.88172555 88.2619778,9.41045969 87.2398168,9.41045969 L18.7925875,9.41045969 L17.5563045,2.75342706 C17.1985829,1.25310598 15.861724,0.19393292 14.3244925,0.19393292 L3.36002943,0.19393292 C1.52492785,0.193758828 0.0374858915,1.68641988 0.0374858915,3.52796042 C0.0374858915,5.36950095 1.52492785,6.862162 3.36002943,6.862162 L11.7019523,6.862162 L20.7461779,46.3046398 C21.1038995,47.8061795 22.4407584,48.8641339 23.9779899,48.8641339 L79.1549956,48.8641339 C80.6823386,48.8641339 82.0134725,47.8194105 82.3800417,46.3323203 L90.4650365,13.5458306 C90.7096473,12.550201 90.4848135,11.4976434 89.8557647,10.6896845 Z" id="Shape" fill="#414141"></path>
                    <polygon id="Path" fill="#FFFFFF" points="77.2299552 43.1685423 26.3297292 43.1685423 19.9795977 14.9956564 84.2465049 14.9956564"></polygon>
                </g>
                <path d="M1085.04257,471.523672 L1028.00854,504.640201 C1026.0981,505.749489 1023.65013,505.100027 1022.54084,503.189588 C1022.18659,502.579484 1022,501.88654 1022,501.181046 L1022,434.947987 C1022,432.738848 1023.79086,430.947987 1026,430.947987 C1026.70549,430.947987 1027.39844,431.134577 1028.00854,431.488831 L1085.04257,464.60536 C1086.953,465.714647 1087.60247,468.162619 1086.49318,470.073058 C1086.14397,470.674479 1085.64399,471.17446 1085.04257,471.523672 Z" id="Triangle" stroke="#414141" stroke-width="6"></path>
                <path d="M294.780945,463.534139 L294.780945,466.10634 L294.780945,469.582556 L294.780945,479.366544 C293.904441,478.832535 292.877244,478.519139 291.774009,478.519139 C288.585965,478.519139 286,481.089533 286,484.258539 C286,487.42892 288.585274,490 291.774009,490 C294.96067,490 297.545253,487.431669 297.545944,484.259913 L297.545944,468.792882 L312.235001,464.594344 L312.235001,474.41407 C311.357805,473.880061 310.331299,473.566665 309.227373,473.566665 C306.038638,473.566665 303.452673,476.136371 303.452673,479.303316 C303.452673,482.473696 306.037256,485.044777 309.227373,485.044777 C312.230854,485.044777 314.697924,482.760288 314.97235,479.84351 L315,463.803982 L315,461.339429 L315,458.325924 C315,457.773639 314.552285,457.325924 314,457.325924 C313.907036,457.325924 313.814527,457.338887 313.725144,457.364439 L295.506089,462.572654 C295.076855,462.695358 294.780945,463.087711 294.780945,463.534139 Z" id="Shape" fill="#414141" fill-rule="nonzero"></path>
            </g>
        </g>
    </g>
</svg>