<?xml version="1.0" encoding="UTF-8"?>
<svg width="1115px" height="317px" viewBox="0 0 1115 317" version="1.1" xmlns="http://www.w3.org/2000/svg" xmlns:xlink="http://www.w3.org/1999/xlink">
    <!-- Generator: Sketch 45.2 (43514) - http://www.bohemiancoding.com/sketch -->
    <title>Group 3</title>
    <desc>Created with Sketch.</desc>
    <defs></defs>
    <g id="Page-1" stroke="none" stroke-width="1" fill="none" fill-rule="evenodd">
        <g id="Artboard-2-Copy-27" transform="translate(-400.000000, -400.000000)" fill="#FFFFFF">
            <g id="Group" transform="translate(399.000000, 400.000000)">
                <g id="Group-2">
                    <g id="Group-3" transform="translate(0.750000, 0.417852)">
                        <path d="M29.8145434,6.64028443 L48.250509,6.64028443 L60.5050037,55.8751572 L60.7218975,55.8751572 L76.7720322,6.64028443 L92.4968263,6.64028443 L108.438514,57.1765195 L108.655408,57.1765195 L121.560584,6.64028443 L138.695187,6.64028443 L116.246688,83.4206587 L101.172575,83.4206587 L84.2548653,30.2816991 L84.0379716,30.2816991 L67.120262,83.4206587 L52.5883832,83.4206587 L29.8145434,6.64028443 Z M194.111531,74.3111228 C191.508793,77.636843 188.219271,80.2033929 184.242867,82.0108496 C180.266462,83.8183062 176.145523,84.722021 171.879925,84.722021 C167.831222,84.722021 164.017546,84.0713463 160.438782,82.7699775 C156.860018,81.4686088 153.751239,79.6069563 151.112352,77.1849644 C148.473465,74.7629725 146.394922,71.853011 144.876658,68.4549925 C143.358394,65.056974 142.599274,61.261372 142.599274,57.0680726 C142.599274,52.8747732 143.358394,49.0791712 144.876658,45.6811527 C146.394922,42.2831342 148.473465,39.3731727 151.112352,36.9511808 C153.751239,34.5291889 156.860018,32.6675364 160.438782,31.3661677 C164.017546,30.0647989 167.831222,29.4141243 171.879925,29.4141243 C175.639435,29.4141243 179.055477,30.0647989 182.128153,31.3661677 C185.200829,32.6675364 187.803528,34.5291889 189.936327,36.9511808 C192.069126,39.3731727 193.713886,42.2831342 194.870659,45.6811527 C196.027431,49.0791712 196.605808,52.8747732 196.605808,57.0680726 L196.605808,62.1650749 L158.866302,62.1650749 C159.516987,65.2739003 160.926782,67.7500787 163.09573,69.5936845 C165.264678,71.4372903 167.939673,72.3590793 171.120797,72.3590793 C173.795833,72.3590793 176.05512,71.7626276 177.898726,70.5697062 C179.742331,69.3767848 181.350944,67.8404697 182.724611,65.9607148 L194.111531,74.3111228 Z M180.33878,51.1034955 C180.411078,48.3561614 179.507363,46.006503 177.627609,44.0544499 C175.747854,42.1023967 173.325898,41.1263847 170.361669,41.1263847 C168.554213,41.1263847 166.963675,41.4155735 165.590007,41.9939596 C164.21634,42.5723457 163.041511,43.3133918 162.065485,44.2171201 C161.089458,45.1208485 160.330338,46.1691576 159.788101,47.362079 C159.245864,48.5550004 158.938601,49.8021267 158.866302,51.1034955 L180.33878,51.1034955 Z M271.651033,76.8054004 L271.434139,76.8054004 C269.626683,79.6250328 267.222801,81.6493539 264.222423,82.8784244 C261.222045,84.1074949 258.059044,84.722021 254.733323,84.722021 C252.275182,84.722021 249.90745,84.3786093 247.630054,83.6917758 C245.352659,83.0049423 243.346412,81.9747075 241.611254,80.6010404 C239.876095,79.2273734 238.502449,77.5283896 237.490273,75.5040382 C236.478097,73.4796867 235.972017,71.1300283 235.972017,68.4549925 C235.972017,65.4184654 236.53232,62.8519154 237.652943,60.7552657 C238.773567,58.658616 240.291807,56.9234837 242.207711,55.5498166 C244.123615,54.1761496 246.310605,53.1097661 248.768746,52.3506344 C251.226887,51.5915026 253.775363,51.0311994 256.41425,50.6697081 C259.053136,50.3082168 261.691983,50.0913252 264.33087,50.0190269 C266.969757,49.9467287 269.409787,49.9105801 271.651033,49.9105801 C271.651033,47.0186495 270.620798,44.723214 268.560298,43.0242047 C266.499797,41.3251955 264.059767,40.4757036 261.240135,40.4757036 C258.565099,40.4757036 256.125069,41.0360067 253.919972,42.1566299 C251.714875,43.277253 249.744777,44.8135681 248.009618,46.7656213 L239.33387,37.872979 C242.370397,35.0533467 245.912959,32.9386541 249.961662,31.5288379 C254.010365,30.1190218 258.203601,29.4141243 262.541497,29.4141243 C267.313183,29.4141243 271.235305,30.010576 274.307981,31.2034974 C277.380657,32.3964188 279.838761,34.1496254 281.682367,36.4631699 C283.525973,38.7767144 284.809248,41.6143788 285.532231,44.9762481 C286.255213,48.3381175 286.616699,52.224091 286.616699,56.6342852 L286.616699,83.4206587 L271.651033,83.4206587 L271.651033,76.8054004 Z M267.638499,60.3214783 C266.409429,60.3214783 264.873114,60.3757012 263.029508,60.4841486 C261.185902,60.592596 259.414621,60.899859 257.715612,61.4059469 C256.016603,61.9120347 254.570659,62.6711551 253.377738,63.6833308 C252.184816,64.6955066 251.588365,66.1053016 251.588365,67.9127582 C251.588365,69.8648114 252.419782,71.310755 254.082642,72.2506325 C255.745502,73.1905099 257.480635,73.6604416 259.288091,73.6604416 C260.878653,73.6604416 262.414968,73.4435501 263.897083,73.0097605 C265.379197,72.5759709 266.698621,71.9614448 267.855393,71.1661639 C269.012165,70.370883 269.933954,69.3587225 270.620788,68.1296519 C271.307621,66.9005814 271.651033,65.4546378 271.651033,63.7917777 L271.651033,60.3214783 L267.638499,60.3214783 Z M296.810704,30.7154865 L313.077732,30.7154865 L313.077732,39.1743413 L313.294626,39.1743413 C315.029784,35.9209194 317.090254,33.4808895 319.476097,31.8541785 C321.861939,30.2274675 324.862272,29.4141243 328.477186,29.4141243 C329.417063,29.4141243 330.356926,29.4502728 331.296804,29.5225711 C332.236681,29.5948694 333.104248,29.7394637 333.899528,29.9563585 L333.899528,44.8135778 C332.742756,44.4520865 331.604076,44.1809721 330.483452,44.0002264 C329.362829,43.8194808 328.188,43.7291093 326.95893,43.7291093 C323.850104,43.7291093 321.392,44.1628924 319.584543,45.0304716 C317.777087,45.8980507 316.385366,47.1090285 315.409339,48.6634412 C314.433313,50.217854 313.800713,52.0795064 313.511519,54.2484543 C313.222326,56.4174023 313.077732,58.8032093 313.077732,61.4059469 L313.077732,83.4206587 L296.810704,83.4206587 L296.810704,30.7154865 Z M390.834128,74.3111228 C388.23139,77.636843 384.941869,80.2033929 380.965464,82.0108496 C376.989059,83.8183062 372.86812,84.722021 368.602522,84.722021 C364.55382,84.722021 360.740143,84.0713463 357.161379,82.7699775 C353.582615,81.4686088 350.473836,79.6069563 347.834949,77.1849644 C345.196063,74.7629725 343.117519,71.853011 341.599255,68.4549925 C340.080992,65.056974 339.321871,61.261372 339.321871,57.0680726 C339.321871,52.8747732 340.080992,49.0791712 341.599255,45.6811527 C343.117519,42.2831342 345.196063,39.3731727 347.834949,36.9511808 C350.473836,34.5291889 353.582615,32.6675364 357.161379,31.3661677 C360.740143,30.0647989 364.55382,29.4141243 368.602522,29.4141243 C372.362032,29.4141243 375.778074,30.0647989 378.85075,31.3661677 C381.923427,32.6675364 384.526125,34.5291889 386.658924,36.9511808 C388.791723,39.3731727 390.436484,42.2831342 391.593256,45.6811527 C392.750028,49.0791712 393.328406,52.8747732 393.328406,57.0680726 L393.328406,62.1650749 L355.5889,62.1650749 C356.239584,65.2739003 357.649379,67.7500787 359.818327,69.5936845 C361.987275,71.4372903 364.662271,72.3590793 367.843394,72.3590793 C370.51843,72.3590793 372.777717,71.7626276 374.621323,70.5697062 C376.464929,69.3767848 378.073541,67.8404697 379.447208,65.9607148 L390.834128,74.3111228 Z M377.061377,51.1034955 C377.133676,48.3561614 376.229961,46.006503 374.350206,44.0544499 C372.470451,42.1023967 370.048495,41.1263847 367.084266,41.1263847 C365.27681,41.1263847 363.686272,41.4155735 362.312605,41.9939596 C360.938938,42.5723457 359.764109,43.3133918 358.788082,44.2171201 C357.812055,45.1208485 357.052935,46.1691576 356.510698,47.362079 C355.968461,48.5550004 355.661198,49.8021267 355.5889,51.1034955 L377.061377,51.1034955 Z M435.514233,1.43483533 L451.781261,1.43483533 L451.781261,83.4206587 L435.514233,83.4206587 L435.514233,1.43483533 Z M461.541478,57.0680726 C461.541478,52.8747732 462.300599,49.0791712 463.818862,45.6811527 C465.337126,42.2831342 467.41567,39.3731727 470.054557,36.9511808 C472.693443,34.5291889 475.802222,32.6675364 479.380986,31.3661677 C482.95975,30.0647989 486.773427,29.4141243 490.822129,29.4141243 C494.870832,29.4141243 498.684509,30.0647989 502.263273,31.3661677 C505.842037,32.6675364 508.950816,34.5291889 511.589702,36.9511808 C514.228589,39.3731727 516.307133,42.2831342 517.825397,45.6811527 C519.34366,49.0791712 520.102781,52.8747732 520.102781,57.0680726 C520.102781,61.261372 519.34366,65.056974 517.825397,68.4549925 C516.307133,71.853011 514.228589,74.7629725 511.589702,77.1849644 C508.950816,79.6069563 505.842037,81.4686088 502.263273,82.7699775 C498.684509,84.0713463 494.870832,84.722021 490.822129,84.722021 C486.773427,84.722021 482.95975,84.0713463 479.380986,82.7699775 C475.802222,81.4686088 472.693443,79.6069563 470.054557,77.1849644 C467.41567,74.7629725 465.337126,71.853011 463.818862,68.4549925 C462.300599,65.056974 461.541478,61.261372 461.541478,57.0680726 Z M477.808507,57.0680726 C477.808507,61.0444772 478.947187,64.2617018 481.224583,66.7198428 C483.501978,69.1779838 486.701128,70.4070359 490.822129,70.4070359 C494.943131,70.4070359 498.142281,69.1779838 500.419676,66.7198428 C502.697072,64.2617018 503.835752,61.0444772 503.835752,57.0680726 C503.835752,53.091668 502.697072,49.8744434 500.419676,47.4163024 C498.142281,44.9581614 494.943131,43.7291093 490.822129,43.7291093 C486.701128,43.7291093 483.501978,44.9581614 481.224583,47.4163024 C478.947187,49.8744434 477.808507,53.091668 477.808507,57.0680726 Z M527.694061,57.0680726 C527.694061,52.8747732 528.453181,49.0791712 529.971445,45.6811527 C531.489708,42.2831342 533.568252,39.3731727 536.207139,36.9511808 C538.846026,34.5291889 541.954804,32.6675364 545.533568,31.3661677 C549.112333,30.0647989 552.926009,29.4141243 556.974712,29.4141243 C561.023415,29.4141243 564.837091,30.0647989 568.415855,31.3661677 C571.994619,32.6675364 575.103398,34.5291889 577.742285,36.9511808 C580.381172,39.3731727 582.459715,42.2831342 583.977979,45.6811527 C585.496243,49.0791712 586.255363,52.8747732 586.255363,57.0680726 C586.255363,61.261372 585.496243,65.056974 583.977979,68.4549925 C582.459715,71.853011 580.381172,74.7629725 577.742285,77.1849644 C575.103398,79.6069563 571.994619,81.4686088 568.415855,82.7699775 C564.837091,84.0713463 561.023415,84.722021 556.974712,84.722021 C552.926009,84.722021 549.112333,84.0713463 545.533568,82.7699775 C541.954804,81.4686088 538.846026,79.6069563 536.207139,77.1849644 C533.568252,74.7629725 531.489708,71.853011 529.971445,68.4549925 C528.453181,65.056974 527.694061,61.261372 527.694061,57.0680726 Z M543.961089,57.0680726 C543.961089,61.0444772 545.09977,64.2617018 547.377165,66.7198428 C549.65456,69.1779838 552.853711,70.4070359 556.974712,70.4070359 C561.095713,70.4070359 564.294863,69.1779838 566.572259,66.7198428 C568.849654,64.2617018 569.988335,61.0444772 569.988335,57.0680726 C569.988335,53.091668 568.849654,49.8744434 566.572259,47.4163024 C564.294863,44.9581614 561.095713,43.7291093 556.974712,43.7291093 C552.853711,43.7291093 549.65456,44.9581614 547.377165,47.4163024 C545.09977,49.8744434 543.961089,53.091668 543.961089,57.0680726 Z M595.798686,1.43483533 L612.065715,1.43483533 L612.065715,51.5372829 L630.067893,30.7154865 L650.022115,30.7154865 L629.091871,54.4653481 L650.564349,83.4206587 L630.067893,83.4206587 L612.282609,56.742732 L612.065715,56.742732 L612.065715,83.4206587 L595.798686,83.4206587 L595.798686,1.43483533 Z M656.312032,30.7154865 L672.579061,30.7154865 L672.579061,83.4206587 L656.312032,83.4206587 L656.312032,30.7154865 Z M655.01067,14.1231175 C655.01067,11.52038 655.932459,9.29724163 657.776065,7.45363585 C659.619671,5.61003008 661.842809,4.68824102 664.445546,4.68824102 C667.048284,4.68824102 669.271422,5.61003008 671.115028,7.45363585 C672.958634,9.29724163 673.880423,11.52038 673.880423,14.1231175 C673.880423,16.7258551 672.958634,18.9489934 671.115028,20.7925992 C669.271422,22.636205 667.048284,23.557994 664.445546,23.557994 C661.842809,23.557994 659.619671,22.636205 657.776065,20.7925992 C655.932459,18.9489934 655.01067,16.7258551 655.01067,14.1231175 Z M684.291321,30.7154865 L699.907668,30.7154865 L699.907668,37.872979 L700.124562,37.872979 C700.63065,36.8608033 701.353622,35.8486428 702.293499,34.8364671 C703.233377,33.8242913 704.353983,32.9205766 705.655352,32.1252957 C706.956721,31.3300147 708.438813,30.6793401 710.101673,30.1732522 C711.764533,29.6671644 713.571963,29.4141243 715.524016,29.4141243 C719.645017,29.4141243 722.970687,30.0467246 725.501126,31.3119442 C728.031566,32.5771639 730.001664,34.3303705 731.41148,36.5716168 C732.821296,38.812863 733.779234,41.4517101 734.285322,44.4882373 C734.79141,47.5247644 735.04445,50.8142862 735.04445,54.3569012 L735.04445,83.4206587 L718.777421,83.4206587 L718.777421,57.6103069 C718.777421,56.0920433 718.723199,54.5195796 718.614751,52.8928686 C718.506304,51.2661577 718.180966,49.7659911 717.638729,48.3923241 C717.096492,47.0186571 716.265075,45.8980507 715.144452,45.0304716 C714.023829,44.1628924 712.415216,43.7291093 710.318567,43.7291093 C708.221917,43.7291093 706.522933,44.1086695 705.221564,44.8678013 C703.920196,45.6269331 702.926109,46.6390936 702.239276,47.9043132 C701.552442,49.1695329 701.100585,50.5974022 700.88369,52.1879641 C700.666795,53.7785259 700.55835,55.4413611 700.55835,57.1765195 L700.55835,83.4206587 L684.291321,83.4206587 L684.291321,30.7154865 Z M801.847713,78.9743376 C801.847713,88.9514982 799.335386,96.524628 794.310657,101.693954 C789.285927,106.86328 781.6405,109.447904 771.374147,109.447904 C766.674759,109.447904 762.04774,108.92375 757.492949,107.875425 C752.938158,106.8271 748.744922,104.784705 744.913114,101.748177 L753.914203,88.3007672 C756.444642,90.3974169 759.101564,92.0602521 761.885047,93.2893226 C764.66853,94.5183931 767.723086,95.1329192 771.048806,95.1329192 C776.037386,95.1329192 779.706468,93.9219414 782.056162,91.4999495 C784.405856,89.0779576 785.580685,85.9872531 785.580685,82.2277433 L785.580685,77.130741 L785.363791,77.130741 C783.484036,79.6611803 781.152452,81.4505356 778.368969,82.4988604 C775.585486,83.5471853 772.964713,84.0713398 770.506572,84.0713398 C766.602466,84.0713398 763.059904,83.4025909 759.87878,82.065073 C756.697656,80.7275551 753.968438,78.8478284 751.691042,76.4258365 C749.413647,74.0038446 747.66044,71.1300316 746.43137,67.8043114 C745.202299,64.4785912 744.587773,60.8275835 744.587773,56.8511789 C744.587773,53.3808621 745.148076,49.9828946 746.268699,46.6571744 C747.389323,43.3314542 748.979861,40.4034183 751.040361,37.872979 C753.100862,35.3425397 755.613189,33.3001444 758.577418,31.7457317 C761.541647,30.1913189 764.903465,29.4141243 768.662975,29.4141243 C770.97652,29.4141243 773.091212,29.6671644 775.007116,30.1732522 C776.92302,30.6793401 778.640078,31.3300147 780.158342,32.1252957 C781.676606,32.9205766 782.977955,33.8062171 784.062429,34.7822436 C785.146903,35.7582702 786.014469,36.7162079 786.665153,37.6560853 L786.882047,37.6560853 L786.882047,30.7154865 L801.847713,30.7154865 L801.847713,78.9743376 Z M760.854802,56.742732 C760.854802,58.4778904 761.180139,60.1226513 761.830823,61.677064 C762.481508,63.2314767 763.403297,64.6051232 764.596218,65.7980445 C765.78914,66.9909659 767.162786,67.9489036 768.717199,68.6718862 C770.271611,69.3948689 771.988669,69.7563548 773.868424,69.7563548 C775.675881,69.7563548 777.374865,69.3948689 778.965427,68.6718862 C780.555988,67.9489036 781.947709,66.9909659 783.140631,65.7980445 C784.333552,64.6051232 785.255341,63.2314767 785.906025,61.677064 C786.55671,60.1226513 786.882047,58.4778904 786.882047,56.742732 C786.882047,55.0075737 786.55671,53.3628128 785.906025,51.8084001 C785.255341,50.2539874 784.333552,48.8803409 783.140631,47.6874195 C781.947709,46.4944982 780.555988,45.5365605 778.965427,44.8135778 C777.374865,44.0905952 775.675881,43.7291093 773.868424,43.7291093 C771.988669,43.7291093 770.271611,44.0905952 768.717199,44.8135778 C767.162786,45.5365605 765.78914,46.4944982 764.596218,47.6874195 C763.403297,48.8803409 762.481508,50.2539874 761.830823,51.8084001 C761.180139,53.3628128 760.854802,55.0075737 760.854802,56.742732 Z M852.600842,43.7291093 L841.864603,43.7291093 L841.864603,30.7154865 L852.600842,30.7154865 L852.600842,21.3890569 C852.600842,18.4971263 852.853882,15.7679077 853.35997,13.2013192 C853.866058,10.6347308 854.84207,8.37544389 856.288035,6.42339072 C857.734,4.47133755 859.812544,2.93502244 862.523729,1.81439933 C865.234914,0.693776208 868.795551,0.133473054 873.205745,0.133473054 C874.868605,0.133473054 876.495291,0.205770235 878.085853,0.350366766 C879.676415,0.494963298 881.230805,0.748003432 882.749068,1.10949476 L881.98994,14.8822455 C881.050063,14.5207542 880.182496,14.2496398 879.387216,14.0688941 C878.591935,13.8881484 877.68822,13.7977769 876.676044,13.7977769 C874.073307,13.7977769 872.121283,14.3580801 870.819914,15.4787032 C869.518545,16.5993263 868.867871,18.8947618 868.867871,22.3650786 L868.867871,30.7154865 L880.905472,30.7154865 L880.905472,43.7291093 L868.867871,43.7291093 L868.867871,83.4206587 L852.600842,83.4206587 L852.600842,43.7291093 Z M885.134899,57.0680726 C885.134899,52.8747732 885.894019,49.0791712 887.412283,45.6811527 C888.930547,42.2831342 891.00909,39.3731727 893.647977,36.9511808 C896.286864,34.5291889 899.395643,32.6675364 902.974407,31.3661677 C906.553171,30.0647989 910.366847,29.4141243 914.41555,29.4141243 C918.464253,29.4141243 922.277929,30.0647989 925.856693,31.3661677 C929.435458,32.6675364 932.544236,34.5291889 935.183123,36.9511808 C937.82201,39.3731727 939.900554,42.2831342 941.418817,45.6811527 C942.937081,49.0791712 943.696201,52.8747732 943.696201,57.0680726 C943.696201,61.261372 942.937081,65.056974 941.418817,68.4549925 C939.900554,71.853011 937.82201,74.7629725 935.183123,77.1849644 C932.544236,79.6069563 929.435458,81.4686088 925.856693,82.7699775 C922.277929,84.0713463 918.464253,84.722021 914.41555,84.722021 C910.366847,84.722021 906.553171,84.0713463 902.974407,82.7699775 C899.395643,81.4686088 896.286864,79.6069563 893.647977,77.1849644 C891.00909,74.7629725 888.930547,71.853011 887.412283,68.4549925 C885.894019,65.056974 885.134899,61.261372 885.134899,57.0680726 Z M901.401927,57.0680726 C901.401927,61.0444772 902.540608,64.2617018 904.818003,66.7198428 C907.095399,69.1779838 910.294549,70.4070359 914.41555,70.4070359 C918.536551,70.4070359 921.735702,69.1779838 924.013097,66.7198428 C926.290492,64.2617018 927.429173,61.0444772 927.429173,57.0680726 C927.429173,53.091668 926.290492,49.8744434 924.013097,47.4163024 C921.735702,44.9581614 918.536551,43.7291093 914.41555,43.7291093 C910.294549,43.7291093 907.095399,44.9581614 904.818003,47.4163024 C902.540608,49.8744434 901.401927,53.091668 901.401927,57.0680726 Z M953.239525,30.7154865 L969.506553,30.7154865 L969.506553,39.1743413 L969.723447,39.1743413 C971.458605,35.9209194 973.519075,33.4808895 975.904918,31.8541785 C978.29076,30.2274675 981.291093,29.4141243 984.906007,29.4141243 C985.845884,29.4141243 986.785748,29.4502728 987.725625,29.5225711 C988.665502,29.5948694 989.533069,29.7394637 990.32835,29.9563585 L990.32835,44.8135778 C989.171577,44.4520865 988.032897,44.1809721 986.912274,44.0002264 C985.79165,43.8194808 984.616821,43.7291093 983.387751,43.7291093 C980.278925,43.7291093 977.820821,44.1628924 976.013365,45.0304716 C974.205908,45.8980507 972.814187,47.1090285 971.838161,48.6634412 C970.862134,50.217854 970.229534,52.0795064 969.940341,54.2484543 C969.651148,56.4174023 969.506553,58.8032093 969.506553,61.4059469 L969.506553,83.4206587 L953.239525,83.4206587 L953.239525,30.7154865 Z M1062.55396,76.8054004 L1062.33706,76.8054004 C1060.52961,79.6250328 1058.12572,81.6493539 1055.12535,82.8784244 C1052.12497,84.1074949 1048.96197,84.722021 1045.63625,84.722021 C1043.17811,84.722021 1040.81037,84.3786093 1038.53298,83.6917758 C1036.25558,83.0049423 1034.24934,81.9747075 1032.51418,80.6010404 C1030.77902,79.2273734 1029.40537,77.5283896 1028.3932,75.5040382 C1027.38102,73.4796867 1026.87494,71.1300283 1026.87494,68.4549925 C1026.87494,65.4184654 1027.43524,62.8519154 1028.55587,60.7552657 C1029.67649,58.658616 1031.19473,56.9234837 1033.11063,55.5498166 C1035.02654,54.1761496 1037.21353,53.1097661 1039.67167,52.3506344 C1042.12981,51.5915026 1044.67829,51.0311994 1047.31717,50.6697081 C1049.95606,50.3082168 1052.59491,50.0913252 1055.23379,50.0190269 C1057.87268,49.9467287 1060.31271,49.9105801 1062.55396,49.9105801 C1062.55396,47.0186495 1061.52372,44.723214 1059.46322,43.0242047 C1057.40272,41.3251955 1054.96269,40.4757036 1052.14306,40.4757036 C1049.46802,40.4757036 1047.02799,41.0360067 1044.82289,42.1566299 C1042.6178,43.277253 1040.6477,44.8135681 1038.91254,46.7656213 L1030.23679,37.872979 C1033.27332,35.0533467 1036.81588,32.9386541 1040.86458,31.5288379 C1044.91329,30.1190218 1049.10652,29.4141243 1053.44442,29.4141243 C1058.21611,29.4141243 1062.13823,30.010576 1065.2109,31.2034974 C1068.28358,32.3964188 1070.74168,34.1496254 1072.58529,36.4631699 C1074.4289,38.7767144 1075.71217,41.6143788 1076.43515,44.9762481 C1077.15814,48.3381175 1077.51962,52.224091 1077.51962,56.6342852 L1077.51962,83.4206587 L1062.55396,83.4206587 L1062.55396,76.8054004 Z M1058.54142,60.3214783 C1057.31235,60.3214783 1055.77604,60.3757012 1053.93243,60.4841486 C1052.08882,60.592596 1050.31754,60.899859 1048.61853,61.4059469 C1046.91953,61.9120347 1045.47358,62.6711551 1044.28066,63.6833308 C1043.08774,64.6955066 1042.49129,66.1053016 1042.49129,67.9127582 C1042.49129,69.8648114 1043.32271,71.310755 1044.98557,72.2506325 C1046.64843,73.1905099 1048.38356,73.6604416 1050.19101,73.6604416 C1051.78158,73.6604416 1053.31789,73.4435501 1054.80001,73.0097605 C1056.28212,72.5759709 1057.60154,71.9614448 1058.75832,71.1661639 C1059.91509,70.370883 1060.83688,69.3587225 1061.52371,68.1296519 C1062.21054,66.9005814 1062.55396,65.4546378 1062.55396,63.7917777 L1062.55396,60.3214783 L1058.54142,60.3214783 Z M16.6382504,128.234237 L16.6382504,164.67238 L16.8551441,164.67238 C17.2166354,163.660205 17.8311615,162.648044 18.6987406,161.635868 C19.5663198,160.623693 20.614629,159.719978 21.8436995,158.924697 C23.07277,158.129416 24.5187136,157.478741 26.1815737,156.972653 C27.8444338,156.466566 29.6518634,156.213525 31.6039165,156.213525 C35.7249177,156.213525 39.050588,156.846126 41.5810273,158.111345 C44.1114666,159.376565 46.0815648,161.129772 47.491381,163.371018 C48.9011972,165.612264 49.8591348,168.251111 50.3652227,171.287638 C50.8713105,174.324166 51.1243507,177.613687 51.1243507,181.156302 L51.1243507,210.22006 L34.8573222,210.22006 L34.8573222,184.409708 C34.8573222,182.891445 34.8030993,181.318981 34.6946519,179.69227 C34.5862045,178.065559 34.2608672,176.565392 33.7186302,175.191725 C33.1763932,173.818058 32.3449757,172.697452 31.2243525,171.829873 C30.1037294,170.962294 28.4951171,170.52851 26.3984674,170.52851 C24.3018177,170.52851 22.602834,170.908071 21.3014652,171.667202 C20.0000964,172.426334 19.0060102,173.438495 18.3191766,174.703714 C17.6323431,175.968934 17.1804857,177.396803 16.9635909,178.987365 C16.7466961,180.577927 16.6382504,182.240762 16.6382504,183.975921 L16.6382504,210.22006 L0.371221931,210.22006 L0.371221931,128.234237 L16.6382504,128.234237 Z M92.9848372,218.787362 C91.9003632,221.606994 90.8520541,224.101247 89.8398784,226.270195 C88.8277026,228.439143 87.5444277,230.264646 85.990015,231.746761 C84.4356023,233.228875 82.4655041,234.349482 80.0796613,235.108613 C77.6938185,235.867745 74.5488912,236.247305 70.6447848,236.247305 C66.4514854,236.247305 62.4028432,235.596631 58.4987369,234.295262 L60.667674,220.956299 C63.1258151,222.040773 65.6562164,222.583001 68.258954,222.583001 C70.0664106,222.583001 71.5485028,222.384184 72.7052751,221.986544 C73.8620473,221.588903 74.819985,221.010526 75.5791168,220.251394 C76.3382486,219.492262 76.9708489,218.570473 77.4769368,217.485999 C77.9830246,216.401525 78.5252535,215.136325 79.1036396,213.690359 L80.296555,210.653847 L57.1973746,157.514888 L74.7657653,157.514888 L88.3216224,192.326329 L88.5385161,192.326329 L100.14233,157.514888 L116.843146,157.514888 L92.9848372,218.787362 Z M124.434426,128.234237 L140.701454,128.234237 L140.701454,163.154124 L140.918348,163.154124 C142.798103,160.623685 145.201984,158.83433 148.130064,157.786005 C151.058143,156.73768 154.221145,156.213525 157.619164,156.213525 C161.378673,156.213525 164.740492,156.99072 167.704721,158.545133 C170.66895,160.099546 173.181277,162.17809 175.241778,164.780827 C177.302278,167.383565 178.892816,170.365823 180.013439,173.727693 C181.134062,177.089562 181.694366,180.61405 181.694366,184.301261 C181.694366,188.277666 181.07984,191.928673 179.850769,195.254394 C178.621699,198.580114 176.868492,201.453927 174.591097,203.875919 C172.313701,206.297911 169.584483,208.177637 166.403359,209.515155 C163.222235,210.852673 159.679673,211.521422 155.775567,211.521422 C153.895812,211.521422 152.124531,211.268382 150.461671,210.762294 C148.798811,210.256206 147.262496,209.605532 145.85268,208.810251 C144.442863,208.01497 143.213811,207.129329 142.165487,206.153303 C141.117162,205.177276 140.26767,204.219339 139.616985,203.279461 L139.400092,203.279461 L139.400092,210.22006 L124.434426,210.22006 L124.434426,128.234237 Z M139.400092,183.867474 C139.400092,187.843878 140.538772,191.061103 142.816168,193.519244 C145.093563,195.977385 148.292713,197.206437 152.413714,197.206437 C156.534716,197.206437 159.733866,195.977385 162.011261,193.519244 C164.288657,191.061103 165.427337,187.843878 165.427337,183.867474 C165.427337,179.891069 164.288657,176.673845 162.011261,174.215704 C159.733866,171.757563 156.534716,170.52851 152.413714,170.52851 C148.292713,170.52851 145.093563,171.757563 142.816168,174.215704 C140.538772,176.673845 139.400092,179.891069 139.400092,183.867474 Z M191.237689,157.514888 L207.504717,157.514888 L207.504717,165.973743 L207.721611,165.973743 C209.45677,162.720321 211.517239,160.280291 213.903082,158.65358 C216.288925,157.026869 219.289258,156.213525 222.904171,156.213525 C223.844048,156.213525 224.783912,156.249674 225.723789,156.321972 C226.663667,156.394271 227.531233,156.538865 228.326514,156.75576 L228.326514,171.612979 C227.169742,171.251488 226.031061,170.980373 224.910438,170.799628 C223.789815,170.618882 222.614986,170.52851 221.385915,170.52851 C218.27709,170.52851 215.818985,170.962294 214.011529,171.829873 C212.204072,172.697452 210.812351,173.90843 209.836325,175.462842 C208.860298,177.017255 208.227698,178.878908 207.938505,181.047856 C207.649312,183.216804 207.504717,185.60261 207.504717,188.205348 L207.504717,210.22006 L191.237689,210.22006 L191.237689,157.514888 Z M235.592453,157.514888 L251.859482,157.514888 L251.859482,210.22006 L235.592453,210.22006 L235.592453,157.514888 Z M234.291091,140.922519 C234.291091,138.319781 235.21288,136.096643 237.056486,134.253037 C238.900092,132.409431 241.12323,131.487642 243.725967,131.487642 C246.328705,131.487642 248.551843,132.409431 250.395449,134.253037 C252.239055,136.096643 253.160844,138.319781 253.160844,140.922519 C253.160844,143.525256 252.239055,145.748395 250.395449,147.592 C248.551843,149.435606 246.328705,150.357395 243.725967,150.357395 C241.12323,150.357395 238.900092,149.435606 237.056486,147.592 C235.21288,145.748395 234.291091,143.525256 234.291091,140.922519 Z M318.879639,210.22006 L303.913973,210.22006 L303.913973,203.279461 L303.697079,203.279461 C303.046395,204.219339 302.196903,205.177276 301.148578,206.153303 C300.100253,207.129329 298.871201,208.01497 297.461385,208.810251 C296.051569,209.605532 294.497179,210.256206 292.79817,210.762294 C291.099161,211.268382 289.345954,211.521422 287.538497,211.521422 C283.634391,211.521422 280.091829,210.852673 276.910705,209.515155 C273.729582,208.177637 271.000363,206.297911 268.722968,203.875919 C266.445572,201.453927 264.692366,198.580114 263.463295,195.254394 C262.234225,191.928673 261.619699,188.277666 261.619699,184.301261 C261.619699,180.61405 262.180002,177.089562 263.300625,173.727693 C264.421248,170.365823 266.011786,167.383565 268.072287,164.780827 C270.132787,162.17809 272.645114,160.099546 275.609343,158.545133 C278.573572,156.99072 281.935391,156.213525 285.694901,156.213525 C289.092919,156.213525 292.255921,156.73768 295.184001,157.786005 C298.112081,158.83433 300.515962,160.623685 302.395717,163.154124 L302.61261,163.154124 L302.61261,128.234237 L318.879639,128.234237 L318.879639,210.22006 Z M303.913973,183.867474 C303.913973,179.891069 302.775292,176.673845 300.497897,174.215704 C298.220501,171.757563 295.021351,170.52851 290.90035,170.52851 C286.779349,170.52851 283.580199,171.757563 281.302803,174.215704 C279.025408,176.673845 277.886727,179.891069 277.886727,183.867474 C277.886727,187.843878 279.025408,191.061103 281.302803,193.519244 C283.580199,195.977385 286.779349,197.206437 290.90035,197.206437 C295.021351,197.206437 298.220501,195.977385 300.497897,193.519244 C302.775292,191.061103 303.913973,187.843878 303.913973,183.867474 Z M419.301428,210.22006 L404.335762,210.22006 L404.335762,203.279461 L404.118868,203.279461 C403.468183,204.219339 402.618692,205.177276 401.570367,206.153303 C400.522042,207.129329 399.29299,208.01497 397.883174,208.810251 C396.473357,209.605532 394.918968,210.256206 393.219959,210.762294 C391.52095,211.268382 389.767743,211.521422 387.960286,211.521422 C384.05618,211.521422 380.513618,210.852673 377.332494,209.515155 C374.151371,208.177637 371.422152,206.297911 369.144757,203.875919 C366.867361,201.453927 365.114155,198.580114 363.885084,195.254394 C362.656014,191.928673 362.041488,188.277666 362.041488,184.301261 C362.041488,180.61405 362.601791,177.089562 363.722414,173.727693 C364.843037,170.365823 366.433575,167.383565 368.494076,164.780827 C370.554576,162.17809 373.066903,160.099546 376.031132,158.545133 C378.995361,156.99072 382.35718,156.213525 386.11669,156.213525 C389.514708,156.213525 392.67771,156.73768 395.60579,157.786005 C398.533869,158.83433 400.937751,160.623685 402.817506,163.154124 L403.034399,163.154124 L403.034399,128.234237 L419.301428,128.234237 L419.301428,210.22006 Z M404.335762,183.867474 C404.335762,179.891069 403.197081,176.673845 400.919686,174.215704 C398.64229,171.757563 395.44314,170.52851 391.322139,170.52851 C387.201138,170.52851 384.001987,171.757563 381.724592,174.215704 C379.447197,176.673845 378.308516,179.891069 378.308516,183.867474 C378.308516,187.843878 379.447197,191.061103 381.724592,193.519244 C384.001987,195.977385 387.201138,197.206437 391.322139,197.206437 C395.44314,197.206437 398.64229,195.977385 400.919686,193.519244 C403.197081,191.061103 404.335762,187.843878 404.335762,183.867474 Z M482.200604,201.110524 C479.597867,204.436244 476.308345,207.002794 472.33194,208.810251 C468.355536,210.617707 464.234597,211.521422 459.968999,211.521422 C455.920296,211.521422 452.10662,210.870748 448.527856,209.569379 C444.949091,208.26801 441.840313,206.406358 439.201426,203.984366 C436.562539,201.562374 434.483995,198.652412 432.965732,195.254394 C431.447468,191.856375 430.688348,188.060773 430.688348,183.867474 C430.688348,179.674174 431.447468,175.878572 432.965732,172.480554 C434.483995,169.082535 436.562539,166.172574 439.201426,163.750582 C441.840313,161.32859 444.949091,159.466938 448.527856,158.165569 C452.10662,156.8642 455.920296,156.213525 459.968999,156.213525 C463.728509,156.213525 467.144551,156.8642 470.217227,158.165569 C473.289903,159.466938 475.892602,161.32859 478.0254,163.750582 C480.158199,166.172574 481.80296,169.082535 482.959732,172.480554 C484.116505,175.878572 484.694882,179.674174 484.694882,183.867474 L484.694882,188.964476 L446.955376,188.964476 C447.606061,192.073301 449.015856,194.54948 451.184804,196.393086 C453.353751,198.236691 456.028747,199.158481 459.209871,199.158481 C461.884907,199.158481 464.144194,198.562029 465.987799,197.369107 C467.831405,196.176186 469.440017,194.639871 470.813685,192.760116 L482.200604,201.110524 Z M468.427854,177.902897 C468.500152,175.155563 467.596437,172.805904 465.716682,170.853851 C463.836927,168.901798 461.414972,167.925786 458.450743,167.925786 C456.643286,167.925786 455.052748,168.214975 453.679081,168.793361 C452.305414,169.371747 451.130585,170.112793 450.154558,171.016521 C449.178532,171.92025 448.419411,172.968559 447.877174,174.16148 C447.334937,175.354402 447.027674,176.601528 446.955376,177.902897 L468.427854,177.902897 Z M524.386432,173.022788 C522.000589,170.058559 518.855661,168.576467 514.951555,168.576467 C513.577888,168.576467 512.24039,168.901804 510.939021,169.552489 C509.637653,170.203173 508.986978,171.323779 508.986978,172.914341 C508.986978,174.21571 509.655727,175.173648 510.993245,175.788183 C512.330763,176.402718 514.029746,176.944947 516.090247,177.414886 C518.150748,177.884825 520.355812,178.390905 522.705505,178.933142 C525.055199,179.475379 527.260263,180.324871 529.320763,181.481643 C531.381264,182.638415 533.080248,184.210879 534.417766,186.199081 C535.755284,188.187284 536.424033,190.844205 536.424033,194.169925 C536.424033,197.567944 535.682986,200.369459 534.200872,202.574557 C532.718758,204.779654 530.820957,206.550935 528.507412,207.888452 C526.193868,209.22597 523.591169,210.165834 520.699238,210.708071 C517.807308,211.250308 514.951569,211.521422 512.131937,211.521422 C508.444725,211.521422 504.72142,210.997268 500.961911,209.948943 C497.202401,208.900618 494.021325,207.038965 491.418587,204.36393 L501.287251,193.410797 C502.805515,195.290552 504.486424,196.718421 506.33003,197.694448 C508.173636,198.670475 510.324477,199.158481 512.782618,199.158481 C514.662373,199.158481 516.361357,198.887366 517.87962,198.345129 C519.397884,197.802892 520.157004,196.808806 520.157004,195.362841 C520.157004,193.989174 519.488255,192.958939 518.150737,192.272105 C516.813219,191.585272 515.114236,191.006894 513.053735,190.536955 C510.993234,190.067017 508.78817,189.560936 506.438477,189.018699 C504.088783,188.476462 501.883719,187.663119 499.823219,186.578645 C497.762718,185.494171 496.063734,183.957856 494.726216,181.969654 C493.388698,179.981452 492.719949,177.32453 492.719949,173.99881 C492.719949,170.889984 493.35255,168.214989 494.617769,165.973743 C495.882989,163.732496 497.545824,161.888918 499.606325,160.442953 C501.666825,158.996988 504.034558,157.930604 506.709594,157.243771 C509.38463,156.556937 512.095774,156.213525 514.843108,156.213525 C518.313425,156.213525 521.819838,156.719606 525.362453,157.731781 C528.905068,158.743957 531.905401,160.551387 534.363542,163.154124 L524.386432,173.022788 Z M544.991334,157.514888 L561.258363,157.514888 L561.258363,210.22006 L544.991334,210.22006 L544.991334,157.514888 Z M543.689972,140.922519 C543.689972,138.319781 544.611761,136.096643 546.455367,134.253037 C548.298973,132.409431 550.522111,131.487642 553.124848,131.487642 C555.727586,131.487642 557.950724,132.409431 559.79433,134.253037 C561.637936,136.096643 562.559725,138.319781 562.559725,140.922519 C562.559725,143.525256 561.637936,145.748395 559.79433,147.592 C557.950724,149.435606 555.727586,150.357395 553.124848,150.357395 C550.522111,150.357395 548.298973,149.435606 546.455367,147.592 C544.611761,145.748395 543.689972,143.525256 543.689972,140.922519 Z M628.27852,205.773739 C628.27852,215.750899 625.766193,223.324029 620.741463,228.493355 C615.716734,233.662681 608.071307,236.247305 597.804953,236.247305 C593.105566,236.247305 588.478546,235.723151 583.923756,234.674826 C579.368965,233.626501 575.175728,231.584106 571.34392,228.547579 L580.345009,215.100168 C582.875449,217.196818 585.53237,218.859653 588.315853,220.088724 C591.099337,221.317794 594.153892,221.93232 597.479613,221.93232 C602.468193,221.93232 606.137275,220.721343 608.486969,218.299351 C610.836662,215.877359 612.011491,212.786654 612.011491,209.027144 L612.011491,203.930142 L611.794598,203.930142 C609.914843,206.460582 607.583259,208.249937 604.799775,209.298262 C602.016292,210.346586 599.395519,210.870741 596.937378,210.870741 C593.033272,210.870741 589.49071,210.201992 586.309586,208.864474 C583.128463,207.526956 580.399244,205.64723 578.121849,203.225238 C575.844453,200.803246 574.091247,197.929433 572.862176,194.603713 C571.633106,191.277992 571.01858,187.626985 571.01858,183.65058 C571.01858,180.180263 571.578883,176.782296 572.699506,173.456576 C573.820129,170.130855 575.410667,167.20282 577.471168,164.67238 C579.531668,162.141941 582.043995,160.099546 585.008224,158.545133 C587.972453,156.99072 591.334272,156.213525 595.093782,156.213525 C597.407326,156.213525 599.522019,156.466566 601.437923,156.972653 C603.353827,157.478741 605.070885,158.129416 606.589149,158.924697 C608.107412,159.719978 609.408761,160.605618 610.493235,161.581645 C611.577709,162.557671 612.445276,163.515609 613.09596,164.455487 L613.312854,164.455487 L613.312854,157.514888 L628.27852,157.514888 L628.27852,205.773739 Z M587.285608,183.542133 C587.285608,185.277292 587.610945,186.922052 588.26163,188.476465 C588.912314,190.030878 589.834103,191.404524 591.027025,192.597446 C592.219946,193.790367 593.593593,194.748305 595.148005,195.471287 C596.702418,196.19427 598.419476,196.555756 600.299231,196.555756 C602.106688,196.555756 603.805671,196.19427 605.396233,195.471287 C606.986795,194.748305 608.378516,193.790367 609.571437,192.597446 C610.764359,191.404524 611.686148,190.030878 612.336832,188.476465 C612.987516,186.922052 613.312854,185.277292 613.312854,183.542133 C613.312854,181.806975 612.987516,180.162214 612.336832,178.607801 C611.686148,177.053389 610.764359,175.679742 609.571437,174.486821 C608.378516,173.293899 606.986795,172.335962 605.396233,171.612979 C603.805671,170.889996 602.106688,170.52851 600.299231,170.52851 C598.419476,170.52851 596.702418,170.889996 595.148005,171.612979 C593.593593,172.335962 592.219946,173.293899 591.027025,174.486821 C589.834103,175.679742 588.912314,177.053389 588.26163,178.607801 C587.610945,180.162214 587.285608,181.806975 587.285608,183.542133 Z M641.292143,157.514888 L656.90849,157.514888 L656.90849,164.67238 L657.125384,164.67238 C657.631471,163.660205 658.354443,162.648044 659.294321,161.635868 C660.234198,160.623693 661.354804,159.719978 662.656173,158.924697 C663.957542,158.129416 665.439634,157.478741 667.102494,156.972653 C668.765354,156.466566 670.572784,156.213525 672.524837,156.213525 C676.645838,156.213525 679.971509,156.846126 682.501948,158.111345 C685.032387,159.376565 687.002485,161.129772 688.412302,163.371018 C689.822118,165.612264 690.780055,168.251111 691.286143,171.287638 C691.792231,174.324166 692.045271,177.613687 692.045271,181.156302 L692.045271,210.22006 L675.778243,210.22006 L675.778243,184.409708 C675.778243,182.891445 675.72402,181.318981 675.615573,179.69227 C675.507125,178.065559 675.181788,176.565392 674.639551,175.191725 C674.097314,173.818058 673.265896,172.697452 672.145273,171.829873 C671.02465,170.962294 669.416038,170.52851 667.319388,170.52851 C665.222738,170.52851 663.523755,170.908071 662.222386,171.667202 C660.921017,172.426334 659.926931,173.438495 659.240097,174.703714 C658.553264,175.968934 658.101406,177.396803 657.884512,178.987365 C657.667617,180.577927 657.559171,182.240762 657.559171,183.975921 L657.559171,210.22006 L641.292143,210.22006 L641.292143,157.514888 Z M753.426192,201.110524 C750.823454,204.436244 747.533933,207.002794 743.557528,208.810251 C739.581123,210.617707 735.460184,211.521422 731.194586,211.521422 C727.145884,211.521422 723.332207,210.870748 719.753443,209.569379 C716.174679,208.26801 713.0659,206.406358 710.427013,203.984366 C707.788127,201.562374 705.709583,198.652412 704.191319,195.254394 C702.673056,191.856375 701.913935,188.060773 701.913935,183.867474 C701.913935,179.674174 702.673056,175.878572 704.191319,172.480554 C705.709583,169.082535 707.788127,166.172574 710.427013,163.750582 C713.0659,161.32859 716.174679,159.466938 719.753443,158.165569 C723.332207,156.8642 727.145884,156.213525 731.194586,156.213525 C734.954096,156.213525 738.370138,156.8642 741.442814,158.165569 C744.515491,159.466938 747.118189,161.32859 749.250988,163.750582 C751.383787,166.172574 753.028548,169.082535 754.18532,172.480554 C755.342092,175.878572 755.92047,179.674174 755.92047,183.867474 L755.92047,188.964476 L718.180964,188.964476 C718.831648,192.073301 720.241443,194.54948 722.410391,196.393086 C724.579339,198.236691 727.254335,199.158481 730.435458,199.158481 C733.110494,199.158481 735.369781,198.562029 737.213387,197.369107 C739.056993,196.176186 740.665605,194.639871 742.039272,192.760116 L753.426192,201.110524 Z M739.653441,177.902897 C739.72574,175.155563 738.822025,172.805904 736.94227,170.853851 C735.062515,168.901798 732.640559,167.925786 729.67633,167.925786 C727.868874,167.925786 726.278336,168.214975 724.904669,168.793361 C723.531002,169.371747 722.356173,170.112793 721.380146,171.016521 C720.404119,171.92025 719.644999,172.968559 719.102762,174.16148 C718.560525,175.354402 718.253262,176.601528 718.180964,177.902897 L739.653441,177.902897 Z M765.789134,157.514888 L782.056162,157.514888 L782.056162,165.973743 L782.273056,165.973743 C784.008214,162.720321 786.068684,160.280291 788.454527,158.65358 C790.840369,157.026869 793.840702,156.213525 797.455616,156.213525 C798.395493,156.213525 799.335356,156.249674 800.275234,156.321972 C801.215111,156.394271 802.082678,156.538865 802.877958,156.75576 L802.877958,171.612979 C801.721186,171.251488 800.582506,170.980373 799.461882,170.799628 C798.341259,170.618882 797.16643,170.52851 795.93736,170.52851 C792.828534,170.52851 790.37043,170.962294 788.562973,171.829873 C786.755517,172.697452 785.363796,173.90843 784.387769,175.462842 C783.411743,177.017255 782.779143,178.878908 782.489949,181.047856 C782.200756,183.216804 782.056162,185.60261 782.056162,188.205348 L782.056162,210.22006 L765.789134,210.22006 L765.789134,157.514888 Z M814.047985,192.651669 L829.664332,192.651669 L819.904115,223.233683 L806.022917,223.233683 L814.047985,192.651669 Z M904.492663,218.787362 C903.408189,221.606994 902.35988,224.101247 901.347704,226.270195 C900.335528,228.439143 899.052253,230.264646 897.497841,231.746761 C895.943428,233.228875 893.97333,234.349482 891.587487,235.108613 C889.201644,235.867745 886.056717,236.247305 882.15261,236.247305 C877.959311,236.247305 873.910669,235.596631 870.006563,234.295262 L872.1755,220.956299 C874.633641,222.040773 877.164042,222.583001 879.76678,222.583001 C881.574236,222.583001 883.056328,222.384184 884.213101,221.986544 C885.369873,221.588903 886.327811,221.010526 887.086942,220.251394 C887.846074,219.492262 888.478674,218.570473 888.984762,217.485999 C889.49085,216.401525 890.033079,215.136325 890.611465,213.690359 L891.804381,210.653847 L868.7052,157.514888 L886.273591,157.514888 L899.829448,192.326329 L900.046342,192.326329 L911.650155,157.514888 L928.350971,157.514888 L904.492663,218.787362 Z M932.471952,183.867474 C932.471952,179.674174 933.231072,175.878572 934.749336,172.480554 C936.267599,169.082535 938.346143,166.172574 940.98503,163.750582 C943.623917,161.32859 946.732695,159.466938 950.31146,158.165569 C953.890224,156.8642 957.7039,156.213525 961.752603,156.213525 C965.801306,156.213525 969.614982,156.8642 973.193746,158.165569 C976.77251,159.466938 979.881289,161.32859 982.520176,163.750582 C985.159063,166.172574 987.237607,169.082535 988.75587,172.480554 C990.274134,175.878572 991.033254,179.674174 991.033254,183.867474 C991.033254,188.060773 990.274134,191.856375 988.75587,195.254394 C987.237607,198.652412 985.159063,201.562374 982.520176,203.984366 C979.881289,206.406358 976.77251,208.26801 973.193746,209.569379 C969.614982,210.870748 965.801306,211.521422 961.752603,211.521422 C957.7039,211.521422 953.890224,210.870748 950.31146,209.569379 C946.732695,208.26801 943.623917,206.406358 940.98503,203.984366 C938.346143,201.562374 936.267599,198.652412 934.749336,195.254394 C933.231072,191.856375 932.471952,188.060773 932.471952,183.867474 Z M948.73898,183.867474 C948.73898,187.843878 949.877661,191.061103 952.155056,193.519244 C954.432452,195.977385 957.631602,197.206437 961.752603,197.206437 C965.873604,197.206437 969.072754,195.977385 971.35015,193.519244 C973.627545,191.061103 974.766226,187.843878 974.766226,183.867474 C974.766226,179.891069 973.627545,176.673845 971.35015,174.215704 C969.072754,171.757563 965.873604,170.52851 961.752603,170.52851 C957.631602,170.52851 954.432452,171.757563 952.155056,174.215704 C949.877661,176.673845 948.73898,179.891069 948.73898,183.867474 Z M1051.32971,210.22006 L1035.71336,210.22006 L1035.71336,203.062567 L1035.49647,203.062567 C1034.91808,204.074743 1034.17703,205.086904 1033.2733,206.099079 C1032.36958,207.111255 1031.26704,208.01497 1029.96568,208.810251 C1028.66431,209.605532 1027.18221,210.256206 1025.51935,210.762294 C1023.85649,211.268382 1022.04906,211.521422 1020.09701,211.521422 C1015.97601,211.521422 1012.63227,210.888822 1010.06568,209.623602 C1007.49909,208.358383 1005.51092,206.605176 1004.1011,204.36393 C1002.69128,202.122683 1001.75142,199.483836 1001.28148,196.447309 C1000.81154,193.410782 1000.57658,190.12126 1000.57658,186.578645 L1000.57658,157.514888 L1016.84361,157.514888 L1016.84361,183.32524 C1016.84361,184.843503 1016.89783,186.415967 1017.00628,188.042678 C1017.11472,189.669389 1017.44006,191.169555 1017.9823,192.543222 C1018.52453,193.916889 1019.35595,195.037496 1020.47658,195.905075 C1021.5972,196.772654 1023.20581,197.206437 1025.30246,197.206437 C1027.39911,197.206437 1029.09809,196.826877 1030.39946,196.067745 C1031.70083,195.308613 1032.69492,194.296453 1033.38175,193.031233 C1034.06859,191.766014 1034.52044,190.338144 1034.73734,188.747582 C1034.95423,187.15702 1035.06268,185.494185 1035.06268,183.759027 L1035.06268,157.514888 L1051.32971,157.514888 L1051.32971,210.22006 Z M1080.50191,180.071834 C1080.50191,177.902886 1080.7911,176.059308 1081.36949,174.541044 C1081.94787,173.022781 1082.92388,171.612986 1084.29755,170.311617 C1086.3219,168.359564 1088.18355,166.66058 1089.88256,165.214615 C1091.58157,163.768649 1093.04559,162.413077 1094.27466,161.147857 C1095.50373,159.882638 1096.46167,158.689734 1097.1485,157.569111 C1097.83534,156.448488 1098.17875,155.273659 1098.17875,154.044588 C1098.17875,151.658746 1097.4377,149.797093 1095.95559,148.459575 C1094.47347,147.122057 1092.61182,146.453308 1090.37057,146.453308 C1086.97256,146.453308 1084.38793,147.393172 1082.61662,149.272927 C1080.84532,151.152682 1079.85123,153.430043 1079.63434,156.105079 L1062.93352,155.02061 C1063.7288,147.356994 1066.54839,141.518996 1071.39237,137.506443 C1076.23636,133.493889 1082.45392,131.487642 1090.04523,131.487642 C1093.37095,131.487642 1096.49781,131.9395 1099.42589,132.843228 C1102.35397,133.746956 1104.93859,135.102528 1107.17984,136.909985 C1109.42108,138.717442 1111.19236,140.958654 1112.49373,143.63369 C1113.7951,146.308726 1114.44578,149.381356 1114.44578,152.851673 C1114.44578,154.948323 1114.22889,156.846124 1113.7951,158.545133 C1113.36131,160.244142 1112.62026,161.925052 1111.57193,163.587912 C1110.52361,165.250772 1109.14996,166.931681 1107.45095,168.63069 C1105.75195,170.3297 1103.6011,172.191352 1100.99837,174.215704 C1099.33551,175.517072 1098.2149,176.782273 1097.63651,178.011344 C1097.05813,179.240414 1096.76894,180.469466 1096.76894,181.698537 L1096.76894,184.843496 L1080.50191,184.843496 L1080.50191,180.071834 Z M1078.65831,200.89363 C1078.65831,199.519963 1078.91135,198.218614 1079.41744,196.989543 C1079.92353,195.760473 1080.62843,194.694089 1081.53216,193.790361 C1082.43588,192.886633 1083.50227,192.181735 1084.73134,191.675647 C1085.96041,191.16956 1087.26176,190.916519 1088.63542,190.916519 C1090.00909,190.916519 1091.31044,191.16956 1092.53951,191.675647 C1093.76858,192.181735 1094.83497,192.886633 1095.73869,193.790361 C1096.64242,194.694089 1097.34732,195.760473 1097.85341,196.989543 C1098.3595,198.218614 1098.61254,199.519963 1098.61254,200.89363 C1098.61254,202.267297 1098.3595,203.568647 1097.85341,204.797717 C1097.34732,206.026788 1096.64242,207.093171 1095.73869,207.996899 C1094.83497,208.900628 1093.76858,209.605525 1092.53951,210.111613 C1091.31044,210.617701 1090.00909,210.870741 1088.63542,210.870741 C1087.26176,210.870741 1085.96041,210.617701 1084.73134,210.111613 C1083.50227,209.605525 1082.43588,208.900628 1081.53216,207.996899 C1080.62843,207.093171 1079.92353,206.026788 1079.41744,204.797717 C1078.91135,203.568647 1078.65831,202.267297 1078.65831,200.89363 Z" id="We-are-looking-for-a"></path>
                        <path d="M304.894165,286.950382 L304.894165,299.563585 L304.969244,299.563585 C305.094376,299.213217 305.307096,298.862854 305.607412,298.512485 C305.907728,298.162117 306.270604,297.849292 306.696052,297.574003 C307.121499,297.298713 307.622018,297.07348 308.197624,296.898295 C308.773229,296.723111 309.398878,296.63552 310.074588,296.63552 C311.501089,296.63552 312.652282,296.854497 313.528204,297.292458 C314.404125,297.730419 315.086082,298.337298 315.574095,299.113114 C316.062109,299.88893 316.393702,300.802377 316.568887,301.853482 C316.744071,302.904588 316.831662,304.043269 316.831662,305.269558 L316.831662,315.33009 L311.200767,315.33009 L311.200767,306.395737 C311.200767,305.870184 311.181998,305.32587 311.144458,304.762778 C311.106919,304.199686 310.994302,303.680397 310.806605,303.204897 C310.618907,302.729397 310.331109,302.341495 309.943201,302.041179 C309.555293,301.740863 308.998465,301.590707 308.272702,301.590707 C307.546939,301.590707 306.958829,301.722094 306.508355,301.98487 C306.057881,302.247646 305.713775,302.59801 305.476025,303.03597 C305.238274,303.473931 305.081862,303.968193 305.006783,304.518772 C304.931704,305.069352 304.894165,305.644948 304.894165,306.24558 L304.894165,315.33009 L299.263271,315.33009 L299.263271,286.950382 L304.894165,286.950382 Z M338.078903,312.176789 C337.177956,313.328 336.039275,314.216421 334.662827,314.842079 C333.28638,315.467737 331.859901,315.780561 330.383348,315.780561 C328.981874,315.780561 327.661755,315.555328 326.422952,315.104854 C325.184149,314.65438 324.108033,314.009962 323.194572,313.17158 C322.281112,312.333198 321.561616,311.325904 321.036063,310.149667 C320.51051,308.97343 320.247738,307.659568 320.247738,306.208041 C320.247738,304.756514 320.51051,303.442652 321.036063,302.266415 C321.561616,301.090178 322.281112,300.082883 323.194572,299.244501 C324.108033,298.406119 325.184149,297.761701 326.422952,297.311228 C327.661755,296.860754 328.981874,296.63552 330.383348,296.63552 C331.684716,296.63552 332.867192,296.860754 333.930811,297.311228 C334.99443,297.761701 335.895364,298.406119 336.633641,299.244501 C337.371917,300.082883 337.941257,301.090178 338.341679,302.266415 C338.7421,303.442652 338.942307,304.756514 338.942307,306.208041 L338.942307,307.972388 L325.878632,307.972388 C326.103869,309.04852 326.591875,309.905658 327.342665,310.54383 C328.093454,311.182001 329.019414,311.501082 330.120573,311.501082 C331.046547,311.501082 331.828607,311.294618 332.466779,310.881683 C333.10495,310.468749 333.661777,309.936947 334.137277,309.286263 L338.078903,312.176789 Z M333.311413,304.143379 C333.336439,303.192379 333.023615,302.379036 332.37293,301.703325 C331.722246,301.027615 330.883877,300.689764 329.857798,300.689764 C329.232139,300.689764 328.681569,300.789868 328.206068,300.990079 C327.730568,301.190289 327.323897,301.446805 326.986041,301.759634 C326.648186,302.072463 326.385414,302.435339 326.197716,302.848274 C326.010019,303.261208 325.903658,303.692906 325.878632,304.143379 L333.311413,304.143379 Z M342.433462,286.950382 L348.064356,286.950382 L348.064356,315.33009 L342.433462,315.33009 L342.433462,286.950382 Z M352.193679,286.950382 L357.824573,286.950382 L357.824573,315.33009 L352.193679,315.33009 L352.193679,286.950382 Z M361.20311,306.208041 C361.20311,304.756514 361.465882,303.442652 361.991435,302.266415 C362.516988,301.090178 363.236484,300.082883 364.149945,299.244501 C365.063406,298.406119 366.139521,297.761701 367.378324,297.311228 C368.617127,296.860754 369.937246,296.63552 371.33872,296.63552 C372.740194,296.63552 374.060313,296.860754 375.299116,297.311228 C376.537919,297.761701 377.614035,298.406119 378.527495,299.244501 C379.440956,300.082883 380.160452,301.090178 380.686005,302.266415 C381.211558,303.442652 381.47433,304.756514 381.47433,306.208041 C381.47433,307.659568 381.211558,308.97343 380.686005,310.149667 C380.160452,311.325904 379.440956,312.333198 378.527495,313.17158 C377.614035,314.009962 376.537919,314.65438 375.299116,315.104854 C374.060313,315.555328 372.740194,315.780561 371.33872,315.780561 C369.937246,315.780561 368.617127,315.555328 367.378324,315.104854 C366.139521,314.65438 365.063406,314.009962 364.149945,313.17158 C363.236484,312.333198 362.516988,311.325904 361.991435,310.149667 C361.465882,308.97343 361.20311,307.659568 361.20311,306.208041 Z M366.834004,306.208041 C366.834004,307.584489 367.228163,308.698143 368.016492,309.549038 C368.804821,310.399933 369.91222,310.825374 371.33872,310.825374 C372.76522,310.825374 373.872619,310.399933 374.660948,309.549038 C375.449277,308.698143 375.843436,307.584489 375.843436,306.208041 C375.843436,304.831593 375.449277,303.717938 374.660948,302.867043 C373.872619,302.016148 372.76522,301.590707 371.33872,301.590707 C369.91222,301.590707 368.804821,302.016148 368.016492,302.867043 C367.228163,303.717938 366.834004,304.831593 366.834004,306.208041 Z M400.619371,301.665786 C400.619371,300.664733 400.394138,299.838877 399.943664,299.188192 C399.49319,298.537508 398.792464,298.212171 397.841463,298.212171 C396.690252,298.212171 395.776805,298.662638 395.101095,299.563585 C394.425384,300.464533 394.087534,301.565675 394.087534,302.867043 C394.087534,303.267465 394.125073,303.66788 394.200152,304.068301 C394.275231,304.468722 394.406617,304.825342 394.594314,305.138171 C394.782012,305.451 395.044784,305.707516 395.382639,305.907726 C395.720495,306.107937 396.152192,306.208041 396.677745,306.208041 C397.453561,306.208041 398.097979,306.070398 398.611019,305.795109 C399.124059,305.519819 399.53073,305.163199 399.831046,304.725239 C400.131362,304.287278 400.337826,303.799272 400.450444,303.261206 C400.563063,302.72314 400.619371,302.191339 400.619371,301.665786 Z M404.110526,302.679347 C404.035447,303.029715 403.960369,303.442644 403.88529,303.918144 C403.810211,304.393644 403.772672,304.806572 403.772672,305.15694 C403.772672,305.43223 403.841494,305.676233 403.979138,305.888957 C404.116783,306.101681 404.385812,306.208041 404.786233,306.208041 C405.186654,306.208041 405.580813,306.101681 405.968721,305.888957 C406.356629,305.676233 406.700736,305.338383 407.001052,304.875396 C407.301368,304.412409 407.545371,303.830556 407.733068,303.129818 C407.920765,302.429081 408.014613,301.590712 408.014613,300.614686 C408.014613,299.113106 407.77061,297.792988 407.282596,296.65429 C406.794583,295.515592 406.118882,294.55835 405.255474,293.782534 C404.392066,293.006718 403.359746,292.424864 402.158482,292.036956 C400.957219,291.649048 399.643357,291.455097 398.216856,291.455097 C396.665224,291.455097 395.251258,291.71787 393.974916,292.243423 C392.698573,292.768975 391.603688,293.507241 390.690227,294.458241 C389.776767,295.409241 389.069784,296.535409 388.569257,297.836778 C388.068731,299.138146 387.818471,300.552113 387.818471,302.078718 C387.818471,303.730455 388.093757,305.206986 388.644336,306.508355 C389.194915,307.809724 389.964463,308.910866 390.953002,309.811813 C391.941542,310.712761 393.111505,311.407231 394.462927,311.895244 C395.814348,312.383257 397.278366,312.62726 398.855024,312.62726 C400.281525,312.62726 401.58913,312.427053 402.777881,312.026632 C403.966631,311.626211 405.023977,311.063127 405.949951,310.337363 L410.079274,310.337363 C408.727853,312.189311 407.044858,313.597021 405.030239,314.560534 C403.01562,315.524048 400.857132,316.005797 398.55471,316.005797 C396.552604,316.005797 394.669402,315.66169 392.905046,314.973467 C391.14069,314.285243 389.595338,313.328 388.268943,312.10171 C386.942548,310.875421 385.897714,309.405146 385.134411,307.690843 C384.371109,305.97654 383.989463,304.10585 383.989463,302.078718 C383.989463,300.076612 384.364852,298.224692 385.115642,296.522902 C385.866432,294.821112 386.892495,293.344581 388.193864,292.093265 C389.495233,290.841949 391.015559,289.859681 392.754889,289.146431 C394.494218,288.43318 396.352395,288.076561 398.329474,288.076561 C399.981211,288.076561 401.601642,288.34559 403.190813,288.883656 C404.779985,289.421721 406.200207,290.216295 407.451523,291.267401 C408.702839,292.318506 409.710134,293.613599 410.473437,295.152718 C411.236739,296.691837 411.618385,298.44991 411.618385,300.426989 C411.618385,301.753384 411.461973,302.904578 411.149144,303.880604 C410.836315,304.856631 410.4359,305.682487 409.947886,306.358198 C409.459873,307.033909 408.909302,307.58448 408.296157,308.009927 C407.683012,308.435375 407.069877,308.760712 406.456732,308.985949 C405.843587,309.211186 405.255477,309.367598 404.692385,309.45519 C404.129293,309.542782 403.660056,309.586577 403.284661,309.586577 C402.233556,309.586577 401.482777,309.373857 401.032304,308.948409 C400.58183,308.522962 400.344083,308.059982 400.319057,307.559455 L400.243978,307.559455 C399.743452,308.059982 399.117803,308.522962 398.367013,308.948409 C397.616224,309.373857 396.640212,309.586577 395.438948,309.586577 C394.638106,309.586577 393.906097,309.430165 393.2429,309.117336 C392.579702,308.804507 392.010362,308.37281 391.534862,307.822231 C391.059361,307.271651 390.690229,306.608464 390.427452,305.832648 C390.164676,305.056832 390.03329,304.20595 390.03329,303.279976 C390.03329,302.178817 390.208471,301.121471 390.55884,300.107905 C390.909208,299.094339 391.403471,298.193405 392.041642,297.405076 C392.679813,296.616747 393.461874,295.991098 394.387848,295.528111 C395.313822,295.065124 396.364912,294.833634 397.541149,294.833634 C398.542202,294.833634 399.374315,294.996303 400.037512,295.321645 C400.70071,295.646987 401.219998,296.197558 401.595393,296.973374 L401.670472,296.973374 L401.970786,295.284106 L405.49948,295.284106 L404.110526,302.679347 Z M433.954266,315.33009 L428.773844,315.33009 L428.773844,312.927575 L428.698765,312.927575 C428.473528,313.252917 428.179473,313.584511 427.816592,313.922366 C427.45371,314.260222 427.028269,314.566789 426.540255,314.842079 C426.052242,315.117369 425.514184,315.342602 424.926066,315.517786 C424.337947,315.692971 423.731068,315.780561 423.10541,315.780561 C421.753988,315.780561 420.527717,315.549071 419.426559,315.086084 C418.325401,314.623097 417.380671,313.972423 416.592342,313.134041 C415.804013,312.295659 415.197133,311.300878 414.771686,310.149667 C414.346239,308.998456 414.133518,307.734646 414.133518,306.358198 C414.133518,305.081856 414.327469,303.861841 414.715377,302.698117 C415.103285,301.534393 415.653856,300.502072 416.367106,299.601125 C417.080356,298.700177 417.950008,297.980681 418.976087,297.442615 C420.002166,296.904549 421.165873,296.63552 422.467242,296.63552 C423.643479,296.63552 424.738364,296.816958 425.75193,297.17984 C426.765496,297.542722 427.597609,298.162114 428.248293,299.038035 L428.323372,299.038035 L428.323372,286.950382 L433.954266,286.950382 L433.954266,315.33009 Z M428.773844,306.208041 C428.773844,304.831593 428.379685,303.717938 427.591356,302.867043 C426.803027,302.016148 425.695628,301.590707 424.269128,301.590707 C422.842628,301.590707 421.735229,302.016148 420.9469,302.867043 C420.158571,303.717938 419.764412,304.831593 419.764412,306.208041 C419.764412,307.584489 420.158571,308.698143 420.9469,309.549038 C421.735229,310.399933 422.842628,310.825374 424.269128,310.825374 C425.695628,310.825374 426.803027,310.399933 427.591356,309.549038 C428.379685,308.698143 428.773844,307.584489 428.773844,306.208041 Z M438.534061,297.085992 L444.164955,297.085992 L444.164955,315.33009 L438.534061,315.33009 L438.534061,297.085992 Z M438.083589,291.342479 C438.083589,290.441532 438.40267,289.671984 439.040841,289.033813 C439.679012,288.395641 440.44856,288.076561 441.349508,288.076561 C442.250455,288.076561 443.020003,288.395641 443.658175,289.033813 C444.296346,289.671984 444.615427,290.441532 444.615427,291.342479 C444.615427,292.243427 444.296346,293.012975 443.658175,293.651146 C443.020003,294.289317 442.250455,294.608398 441.349508,294.608398 C440.44856,294.608398 439.679012,294.289317 439.040841,293.651146 C438.40267,293.012975 438.083589,292.243427 438.083589,291.342479 Z M446.304695,297.085992 L452.386061,297.085992 L457.003394,309.47396 L457.078473,309.47396 L461.357953,297.085992 L467.026387,297.085992 L459.818842,315.33009 L453.850094,315.33009 L446.304695,297.085992 Z M486.359124,312.176789 C485.458177,313.328 484.319496,314.216421 482.943048,314.842079 C481.566601,315.467737 480.140122,315.780561 478.663568,315.780561 C477.262094,315.780561 475.941976,315.555328 474.703173,315.104854 C473.46437,314.65438 472.388254,314.009962 471.474793,313.17158 C470.561332,312.333198 469.841836,311.325904 469.316284,310.149667 C468.790731,308.97343 468.527958,307.659568 468.527958,306.208041 C468.527958,304.756514 468.790731,303.442652 469.316284,302.266415 C469.841836,301.090178 470.561332,300.082883 471.474793,299.244501 C472.388254,298.406119 473.46437,297.761701 474.703173,297.311228 C475.941976,296.860754 477.262094,296.63552 478.663568,296.63552 C479.964937,296.63552 481.147413,296.860754 482.211032,297.311228 C483.274651,297.761701 484.175585,298.406119 484.913861,299.244501 C485.652138,300.082883 486.221478,301.090178 486.621899,302.266415 C487.02232,303.442652 487.222528,304.756514 487.222528,306.208041 L487.222528,307.972388 L474.158853,307.972388 C474.38409,309.04852 474.872096,309.905658 475.622885,310.54383 C476.373675,311.182001 477.299635,311.501082 478.400793,311.501082 C479.326767,311.501082 480.108828,311.294618 480.746999,310.881683 C481.385171,310.468749 481.941998,309.936947 482.417498,309.286263 L486.359124,312.176789 Z M481.591634,304.143379 C481.61666,303.192379 481.303836,302.379036 480.653151,301.703325 C480.002467,301.027615 479.164098,300.689764 478.138018,300.689764 C477.51236,300.689764 476.961789,300.789868 476.486289,300.990079 C476.010789,301.190289 475.604118,301.446805 475.266262,301.759634 C474.928407,302.072463 474.665634,302.435339 474.477937,302.848274 C474.29024,303.261208 474.183879,303.692906 474.158853,304.143379 L481.591634,304.143379 Z M490.638604,297.085992 L496.269499,297.085992 L496.269499,300.014057 L496.344577,300.014057 C496.945209,298.887872 497.658448,298.043247 498.484317,297.480154 C499.310186,296.917062 500.348762,296.63552 501.600079,296.63552 C501.925421,296.63552 502.250758,296.648033 502.5761,296.67306 C502.901442,296.698086 503.201754,296.748138 503.477043,296.823217 L503.477043,301.9661 C503.076622,301.840969 502.682464,301.747121 502.294556,301.684556 C501.906648,301.62199 501.499976,301.590707 501.074528,301.590707 C499.998397,301.590707 499.147514,301.740863 498.521856,302.041179 C497.896198,302.341495 497.414449,302.760679 497.076593,303.298745 C496.738738,303.836811 496.519761,304.481229 496.419656,305.232019 C496.31955,305.982809 496.269499,306.808665 496.269499,307.709613 L496.269499,315.33009 L490.638604,315.33009 L490.638604,297.085992 Z M516.240404,302.454111 C515.414536,301.428032 514.325907,300.915 512.974485,300.915 C512.498985,300.915 512.036005,301.027617 511.585531,301.252854 C511.135058,301.478091 510.909824,301.865993 510.909824,302.416572 C510.909824,302.867046 511.141314,303.198639 511.604301,303.411363 C512.067288,303.624087 512.655398,303.811782 513.368648,303.974453 C514.081898,304.137124 514.84519,304.312305 515.658545,304.500003 C516.471901,304.6877 517.235192,304.981755 517.948442,305.382176 C518.661692,305.782597 519.249802,306.326912 519.712789,307.015136 C520.175776,307.70336 520.407266,308.623063 520.407266,309.774274 C520.407266,310.950511 520.15075,311.920267 519.637711,312.683569 C519.124671,313.446872 518.46774,314.060008 517.666897,314.522995 C516.866055,314.985982 515.965121,315.311319 514.964068,315.499017 C513.963015,315.686714 512.97449,315.780561 511.998464,315.780561 C510.722121,315.780561 509.433285,315.599123 508.131916,315.236242 C506.830547,314.87336 505.729406,314.228942 504.828458,313.302968 L508.244534,309.511499 C508.770087,310.162183 509.35194,310.656446 509.990111,310.994301 C510.628283,311.332156 511.372805,311.501082 512.223699,311.501082 C512.874384,311.501082 513.462494,311.407234 513.988046,311.219537 C514.513599,311.031839 514.776372,310.687733 514.776372,310.187206 C514.776372,309.711706 514.544882,309.355086 514.081895,309.117336 C513.618908,308.879586 513.030798,308.679379 512.317548,308.516708 C511.604298,308.354036 510.841006,308.178855 510.027651,307.991157 C509.214295,307.80346 508.451004,307.521918 507.737754,307.146523 C507.024503,306.771128 506.436394,306.239327 505.973407,305.551103 C505.51042,304.862879 505.27893,303.943176 505.27893,302.791965 C505.27893,301.715833 505.497907,300.789873 505.935867,300.014057 C506.373828,299.238241 506.949425,298.600079 507.662675,298.099553 C508.375925,297.599026 509.195525,297.229894 510.121499,296.992144 C511.047473,296.754393 511.985946,296.63552 512.936946,296.63552 C514.13821,296.63552 515.351968,296.810702 516.578258,297.16107 C517.804548,297.511439 518.843124,298.137088 519.694019,299.038035 L516.240404,302.454111 Z M540.565868,312.176789 C539.664921,313.328 538.52624,314.216421 537.149792,314.842079 C535.773345,315.467737 534.346866,315.780561 532.870312,315.780561 C531.468838,315.780561 530.14872,315.555328 528.909917,315.104854 C527.671114,314.65438 526.594998,314.009962 525.681537,313.17158 C524.768076,312.333198 524.04858,311.325904 523.523028,310.149667 C522.997475,308.97343 522.734702,307.659568 522.734702,306.208041 C522.734702,304.756514 522.997475,303.442652 523.523028,302.266415 C524.04858,301.090178 524.768076,300.082883 525.681537,299.244501 C526.594998,298.406119 527.671114,297.761701 528.909917,297.311228 C530.14872,296.860754 531.468838,296.63552 532.870312,296.63552 C534.171681,296.63552 535.354157,296.860754 536.417776,297.311228 C537.481395,297.761701 538.382329,298.406119 539.120605,299.244501 C539.858882,300.082883 540.428222,301.090178 540.828643,302.266415 C541.229065,303.442652 541.429272,304.756514 541.429272,306.208041 L541.429272,307.972388 L528.365597,307.972388 C528.590834,309.04852 529.07884,309.905658 529.829629,310.54383 C530.580419,311.182001 531.506379,311.501082 532.607537,311.501082 C533.533511,311.501082 534.315572,311.294618 534.953743,310.881683 C535.591915,310.468749 536.148742,309.936947 536.624242,309.286263 L540.565868,312.176789 Z M535.798378,304.143379 C535.823404,303.192379 535.51058,302.379036 534.859895,301.703325 C534.209211,301.027615 533.370842,300.689764 532.344762,300.689764 C531.719104,300.689764 531.168533,300.789868 530.693033,300.990079 C530.217533,301.190289 529.810862,301.446805 529.473006,301.759634 C529.135151,302.072463 528.872378,302.435339 528.684681,302.848274 C528.496984,303.261208 528.390623,303.692906 528.365597,304.143379 L535.798378,304.143379 Z M556.294833,313.040193 L556.219755,313.040193 C555.594097,314.016219 554.761984,314.716946 553.723392,315.142393 C552.684799,315.567841 551.589914,315.780561 550.438703,315.780561 C549.587808,315.780561 548.768208,315.661688 547.979879,315.423938 C547.19155,315.186188 546.49708,314.829568 545.896448,314.354068 C545.295817,313.878568 544.820324,313.290458 544.469955,312.589721 C544.119587,311.888984 543.944405,311.075641 543.944405,310.149667 C543.944405,309.098561 544.138356,308.21014 544.526264,307.484377 C544.914172,306.758614 545.439717,306.157991 546.102914,305.682491 C546.766112,305.206991 547.523147,304.837858 548.374042,304.575081 C549.224937,304.312305 550.107102,304.118354 551.020562,303.993222 C551.934023,303.868091 552.84747,303.793013 553.760931,303.767987 C554.674392,303.74296 555.519017,303.730447 556.294833,303.730447 C556.294833,302.729394 555.938214,301.93482 555.224964,301.346702 C554.511713,300.758583 553.667088,300.464528 552.691061,300.464528 C551.765087,300.464528 550.920461,300.65848 550.157158,301.046388 C549.393856,301.434296 548.711899,301.966097 548.111267,302.641808 L545.108123,299.563585 C546.159229,298.587559 547.3855,297.85555 548.786974,297.367536 C550.188448,296.879523 551.639953,296.63552 553.141533,296.63552 C554.79327,296.63552 556.150928,296.841984 557.214546,297.254919 C558.278165,297.667853 559.129047,298.274732 559.767218,299.075574 C560.40539,299.876417 560.8496,300.858685 561.099863,302.022409 C561.350127,303.186133 561.475256,304.531278 561.475256,306.057884 L561.475256,315.33009 L556.294833,315.33009 L556.294833,313.040193 Z M554.905879,307.33422 C554.480432,307.33422 553.948631,307.352989 553.310459,307.390529 C552.672288,307.428068 552.059152,307.534428 551.471034,307.709613 C550.882915,307.884797 550.382396,308.147569 549.969462,308.497938 C549.556528,308.848306 549.350064,309.336312 549.350064,309.96197 C549.350064,310.637681 549.637862,311.1382 550.213467,311.463542 C550.789073,311.788884 551.389696,311.951553 552.015354,311.951553 C552.565933,311.951553 553.097734,311.876475 553.610774,311.726317 C554.123813,311.576159 554.580537,311.363439 554.980958,311.088149 C555.381379,310.81286 555.70046,310.462497 555.93821,310.037049 C556.17596,309.611602 556.294833,309.111083 556.294833,308.535477 L556.294833,307.33422 L554.905879,307.33422 Z M562.826671,297.085992 L568.832958,297.085992 L572.549349,308.535477 L572.624427,308.535477 L575.740189,297.085992 L581.896634,297.085992 L585.27517,308.535477 L585.350249,308.535477 L588.766325,297.085992 L594.472298,297.085992 L587.978,315.33009 L582.422184,315.33009 L578.630715,303.204897 L578.555636,303.204897 L575.1771,315.33009 L569.508666,315.33009 L562.826671,297.085992 Z M607.72367,313.040193 L607.648591,313.040193 C607.022933,314.016219 606.19082,314.716946 605.152228,315.142393 C604.113635,315.567841 603.01875,315.780561 601.867539,315.780561 C601.016644,315.780561 600.197045,315.661688 599.408715,315.423938 C598.620386,315.186188 597.925916,314.829568 597.325284,314.354068 C596.724653,313.878568 596.24916,313.290458 595.898791,312.589721 C595.548423,311.888984 595.373241,311.075641 595.373241,310.149667 C595.373241,309.098561 595.567192,308.21014 595.9551,307.484377 C596.343008,306.758614 596.868553,306.157991 597.531751,305.682491 C598.194948,305.206991 598.951983,304.837858 599.802878,304.575081 C600.653773,304.312305 601.535938,304.118354 602.449398,303.993222 C603.362859,303.868091 604.276306,303.793013 605.189767,303.767987 C606.103228,303.74296 606.947854,303.730447 607.72367,303.730447 C607.72367,302.729394 607.36705,301.93482 606.6538,301.346702 C605.940549,300.758583 605.095924,300.464528 604.119897,300.464528 C603.193923,300.464528 602.349297,300.65848 601.585995,301.046388 C600.822692,301.434296 600.140735,301.966097 599.540103,302.641808 L596.536959,299.563585 C597.588065,298.587559 598.814336,297.85555 600.21581,297.367536 C601.617284,296.879523 603.068789,296.63552 604.570369,296.63552 C606.222106,296.63552 607.579764,296.841984 608.643382,297.254919 C609.707001,297.667853 610.557883,298.274732 611.196054,299.075574 C611.834226,299.876417 612.278436,300.858685 612.528699,302.022409 C612.778963,303.186133 612.904092,304.531278 612.904092,306.057884 L612.904092,315.33009 L607.72367,315.33009 L607.72367,313.040193 Z M606.334716,307.33422 C605.909268,307.33422 605.377467,307.352989 604.739295,307.390529 C604.101124,307.428068 603.487989,307.534428 602.89987,307.709613 C602.311751,307.884797 601.811232,308.147569 601.398298,308.497938 C600.985364,308.848306 600.7789,309.336312 600.7789,309.96197 C600.7789,310.637681 601.066698,311.1382 601.642304,311.463542 C602.217909,311.788884 602.818532,311.951553 603.44419,311.951553 C603.994769,311.951553 604.52657,311.876475 605.03961,311.726317 C605.552649,311.576159 606.009373,311.363439 606.409794,311.088149 C606.810215,310.81286 607.129296,310.462497 607.367046,310.037049 C607.604796,309.611602 607.72367,309.111083 607.72367,308.535477 L607.72367,307.33422 L606.334716,307.33422 Z M616.432786,297.085992 L622.063681,297.085992 L622.063681,300.014057 L622.138759,300.014057 C622.739391,298.887872 623.452631,298.043247 624.278499,297.480154 C625.104368,296.917062 626.142945,296.63552 627.394261,296.63552 C627.719603,296.63552 628.04494,296.648033 628.370283,296.67306 C628.695625,296.698086 628.995936,296.748138 629.271226,296.823217 L629.271226,301.9661 C628.870805,301.840969 628.476646,301.747121 628.088738,301.684556 C627.70083,301.62199 627.294158,301.590707 626.868711,301.590707 C625.792579,301.590707 624.941697,301.740863 624.316039,302.041179 C623.69038,302.341495 623.208631,302.760679 622.870776,303.298745 C622.53292,303.836811 622.313943,304.481229 622.213838,305.232019 C622.113733,305.982809 622.063681,306.808665 622.063681,307.709613 L622.063681,315.33009 L616.432786,315.33009 L616.432786,297.085992 Z M648.979356,312.176789 C648.078409,313.328 646.939728,314.216421 645.56328,314.842079 C644.186833,315.467737 642.760354,315.780561 641.283801,315.780561 C639.882326,315.780561 638.562208,315.555328 637.323405,315.104854 C636.084602,314.65438 635.008486,314.009962 634.095025,313.17158 C633.181564,312.333198 632.462068,311.325904 631.936516,310.149667 C631.410963,308.97343 631.14819,307.659568 631.14819,306.208041 C631.14819,304.756514 631.410963,303.442652 631.936516,302.266415 C632.462068,301.090178 633.181564,300.082883 634.095025,299.244501 C635.008486,298.406119 636.084602,297.761701 637.323405,297.311228 C638.562208,296.860754 639.882326,296.63552 641.283801,296.63552 C642.585169,296.63552 643.767645,296.860754 644.831264,297.311228 C645.894883,297.761701 646.795817,298.406119 647.534093,299.244501 C648.27237,300.082883 648.84171,301.090178 649.242131,302.266415 C649.642553,303.442652 649.84276,304.756514 649.84276,306.208041 L649.84276,307.972388 L636.779085,307.972388 C637.004322,309.04852 637.492328,309.905658 638.243118,310.54383 C638.993907,311.182001 639.919867,311.501082 641.021025,311.501082 C641.946999,311.501082 642.72906,311.294618 643.367231,310.881683 C644.005403,310.468749 644.56223,309.936947 645.03773,309.286263 L648.979356,312.176789 Z M644.211866,304.143379 C644.236892,303.192379 643.924068,302.379036 643.273383,301.703325 C642.622699,301.027615 641.78433,300.689764 640.75825,300.689764 C640.132592,300.689764 639.582021,300.789868 639.106521,300.990079 C638.631021,301.190289 638.22435,301.446805 637.886494,301.759634 C637.548639,302.072463 637.285866,302.435339 637.098169,302.848274 C636.910472,303.261208 636.804111,303.692906 636.779085,304.143379 L644.211866,304.143379 Z M653.258836,297.085992 L658.664495,297.085992 L658.664495,299.563585 L658.739573,299.563585 C658.914758,299.213217 659.165017,298.862854 659.490359,298.512485 C659.815701,298.162117 660.203604,297.849292 660.654077,297.574003 C661.104551,297.298713 661.617583,297.07348 662.193189,296.898295 C662.768794,296.723111 663.394443,296.63552 664.070153,296.63552 C665.496654,296.63552 666.647847,296.854497 667.523769,297.292458 C668.39969,297.730419 669.081647,298.337298 669.56966,299.113114 C670.057674,299.88893 670.389267,300.802377 670.564452,301.853482 C670.739636,302.904588 670.827227,304.043269 670.827227,305.269558 L670.827227,315.33009 L665.196332,315.33009 L665.196332,306.395737 C665.196332,305.870184 665.177563,305.32587 665.140023,304.762778 C665.102484,304.199686 664.989867,303.680397 664.80217,303.204897 C664.614472,302.729397 664.326674,302.341495 663.938766,302.041179 C663.550858,301.740863 662.994031,301.590707 662.268267,301.590707 C661.542504,301.590707 660.954394,301.722094 660.50392,301.98487 C660.053446,302.247646 659.70934,302.59801 659.47159,303.03597 C659.23384,303.473931 659.077427,303.968193 659.002348,304.518772 C658.927269,305.069352 658.889731,305.644948 658.889731,306.24558 L658.889731,315.33009 L653.258836,315.33009 L653.258836,297.085992 Z M692.074469,312.176789 C691.173521,313.328 690.03484,314.216421 688.658393,314.842079 C687.281945,315.467737 685.855466,315.780561 684.378913,315.780561 C682.977439,315.780561 681.65732,315.555328 680.418517,315.104854 C679.179714,314.65438 678.103598,314.009962 677.190138,313.17158 C676.276677,312.333198 675.557181,311.325904 675.031628,310.149667 C674.506075,308.97343 674.243303,307.659568 674.243303,306.208041 C674.243303,304.756514 674.506075,303.442652 675.031628,302.266415 C675.557181,301.090178 676.276677,300.082883 677.190138,299.244501 C678.103598,298.406119 679.179714,297.761701 680.418517,297.311228 C681.65732,296.860754 682.977439,296.63552 684.378913,296.63552 C685.680282,296.63552 686.862758,296.860754 687.926376,297.311228 C688.989995,297.761701 689.890929,298.406119 690.629206,299.244501 C691.367482,300.082883 691.936822,301.090178 692.337244,302.266415 C692.737665,303.442652 692.937872,304.756514 692.937872,306.208041 L692.937872,307.972388 L679.874197,307.972388 C680.099434,309.04852 680.58744,309.905658 681.33823,310.54383 C682.089019,311.182001 683.01498,311.501082 684.116138,311.501082 C685.042112,311.501082 685.824173,311.294618 686.462344,310.881683 C687.100515,310.468749 687.657342,309.936947 688.132842,309.286263 L692.074469,312.176789 Z M687.306978,304.143379 C687.332004,303.192379 687.01918,302.379036 686.368496,301.703325 C685.717811,301.027615 684.879442,300.689764 683.853363,300.689764 C683.227705,300.689764 682.677134,300.789868 682.201634,300.990079 C681.726133,301.190289 681.319462,301.446805 680.981606,301.759634 C680.643751,302.072463 680.380979,302.435339 680.193281,302.848274 C680.005584,303.261208 679.899224,303.692906 679.874197,304.143379 L687.306978,304.143379 Z M706.677255,302.454111 C705.851386,301.428032 704.762758,300.915 703.411336,300.915 C702.935836,300.915 702.472856,301.027617 702.022382,301.252854 C701.571908,301.478091 701.346675,301.865993 701.346675,302.416572 C701.346675,302.867046 701.578165,303.198639 702.041152,303.411363 C702.504139,303.624087 703.092248,303.811782 703.805499,303.974453 C704.518749,304.137124 705.28204,304.312305 706.095396,304.500003 C706.908751,304.6877 707.672043,304.981755 708.385293,305.382176 C709.098543,305.782597 709.686653,306.326912 710.14964,307.015136 C710.612627,307.70336 710.844117,308.623063 710.844117,309.774274 C710.844117,310.950511 710.587601,311.920267 710.074561,312.683569 C709.561522,313.446872 708.90459,314.060008 708.103748,314.522995 C707.302906,314.985982 706.401972,315.311319 705.400919,315.499017 C704.399866,315.686714 703.411341,315.780561 702.435314,315.780561 C701.158972,315.780561 699.870136,315.599123 698.568767,315.236242 C697.267398,314.87336 696.166256,314.228942 695.265309,313.302968 L698.681385,309.511499 C699.206938,310.162183 699.788791,310.656446 700.426962,310.994301 C701.065133,311.332156 701.809655,311.501082 702.66055,311.501082 C703.311235,311.501082 703.899344,311.407234 704.424897,311.219537 C704.95045,311.031839 705.213222,310.687733 705.213222,310.187206 C705.213222,309.711706 704.981732,309.355086 704.518745,309.117336 C704.055758,308.879586 703.467649,308.679379 702.754398,308.516708 C702.041148,308.354036 701.277857,308.178855 700.464501,307.991157 C699.651146,307.80346 698.887854,307.521918 698.174604,307.146523 C697.461354,306.771128 696.873244,306.239327 696.410257,305.551103 C695.94727,304.862879 695.71578,303.943176 695.71578,302.791965 C695.71578,301.715833 695.934757,300.789873 696.372718,300.014057 C696.810679,299.238241 697.386275,298.600079 698.099526,298.099553 C698.812776,297.599026 699.632376,297.229894 700.55835,296.992144 C701.484323,296.754393 702.422797,296.63552 703.373797,296.63552 C704.57506,296.63552 705.788819,296.810702 707.015109,297.16107 C708.241398,297.511439 709.279975,298.137088 710.13087,299.038035 L706.677255,302.454111 Z M724.057949,302.454111 C723.23208,301.428032 722.143452,300.915 720.79203,300.915 C720.31653,300.915 719.85355,301.027617 719.403076,301.252854 C718.952603,301.478091 718.727369,301.865993 718.727369,302.416572 C718.727369,302.867046 718.958859,303.198639 719.421846,303.411363 C719.884833,303.624087 720.472943,303.811782 721.186193,303.974453 C721.899443,304.137124 722.662735,304.312305 723.47609,304.500003 C724.289445,304.6877 725.052737,304.981755 725.765987,305.382176 C726.479237,305.782597 727.067347,306.326912 727.530334,307.015136 C727.993321,307.70336 728.224811,308.623063 728.224811,309.774274 C728.224811,310.950511 727.968295,311.920267 727.455255,312.683569 C726.942216,313.446872 726.285285,314.060008 725.484442,314.522995 C724.6836,314.985982 723.782666,315.311319 722.781613,315.499017 C721.78056,315.686714 720.792035,315.780561 719.816009,315.780561 C718.539666,315.780561 717.25083,315.599123 715.949461,315.236242 C714.648092,314.87336 713.546951,314.228942 712.646003,313.302968 L716.062079,309.511499 C716.587632,310.162183 717.169485,310.656446 717.807656,310.994301 C718.445827,311.332156 719.190349,311.501082 720.041244,311.501082 C720.691929,311.501082 721.280039,311.407234 721.805591,311.219537 C722.331144,311.031839 722.593917,310.687733 722.593917,310.187206 C722.593917,309.711706 722.362427,309.355086 721.89944,309.117336 C721.436453,308.879586 720.848343,308.679379 720.135093,308.516708 C719.421842,308.354036 718.658551,308.178855 717.845196,307.991157 C717.03184,307.80346 716.268549,307.521918 715.555298,307.146523 C714.842048,306.771128 714.253939,306.239327 713.790952,305.551103 C713.327965,304.862879 713.096475,303.943176 713.096475,302.791965 C713.096475,301.715833 713.315452,300.789873 713.753412,300.014057 C714.191373,299.238241 714.76697,298.600079 715.48022,298.099553 C716.19347,297.599026 717.01307,297.229894 717.939044,296.992144 C718.865018,296.754393 719.803491,296.63552 720.754491,296.63552 C721.955755,296.63552 723.169513,296.810702 724.395803,297.16107 C725.622093,297.511439 726.660669,298.137088 727.511564,299.038035 L724.057949,302.454111 Z M731.227955,312.10171 C731.227955,311.62621 731.315546,311.175743 731.49073,310.750296 C731.665914,310.324848 731.909917,309.955715 732.222746,309.642886 C732.535575,309.330057 732.904708,309.086054 733.330155,308.91087 C733.755603,308.735686 734.20607,308.648095 734.68157,308.648095 C735.15707,308.648095 735.607537,308.735686 736.032985,308.91087 C736.458432,309.086054 736.827565,309.330057 737.140394,309.642886 C737.453223,309.955715 737.697226,310.324848 737.87241,310.750296 C738.047594,311.175743 738.135185,311.62621 738.135185,312.10171 C738.135185,312.57721 738.047594,313.027678 737.87241,313.453125 C737.697226,313.878572 737.453223,314.247705 737.140394,314.560534 C736.827565,314.873363 736.458432,315.117366 736.032985,315.292551 C735.607537,315.467735 735.15707,315.555326 734.68157,315.555326 C734.20607,315.555326 733.755603,315.467735 733.330155,315.292551 C732.904708,315.117366 732.535575,314.873363 732.222746,314.560534 C731.909917,314.247705 731.665914,313.878572 731.49073,313.453125 C731.315546,313.027678 731.227955,312.57721 731.227955,312.10171 Z M754.577397,302.979661 C754.302108,302.57924 753.914205,302.247646 753.413679,301.98487 C752.913152,301.722094 752.375095,301.590707 751.799489,301.590707 C750.372989,301.590707 749.265591,302.016148 748.477261,302.867043 C747.688932,303.717938 747.294774,304.831593 747.294774,306.208041 C747.294774,307.584489 747.688932,308.698143 748.477261,309.549038 C749.265591,310.399933 750.372989,310.825374 751.799489,310.825374 C752.425147,310.825374 752.963205,310.687732 753.413679,310.412442 C753.864153,310.137152 754.252055,309.811815 754.577397,309.43642 L758.293787,313.340507 C757.417866,314.241455 756.385546,314.87336 755.196795,315.236242 C754.008045,315.599123 752.875621,315.780561 751.799489,315.780561 C750.398015,315.780561 749.077896,315.555328 747.839093,315.104854 C746.60029,314.65438 745.524175,314.009962 744.610714,313.17158 C743.697253,312.333198 742.977757,311.325904 742.452204,310.149667 C741.926652,308.97343 741.663879,307.659568 741.663879,306.208041 C741.663879,304.756514 741.926652,303.442652 742.452204,302.266415 C742.977757,301.090178 743.697253,300.082883 744.610714,299.244501 C745.524175,298.406119 746.60029,297.761701 747.839093,297.311228 C749.077896,296.860754 750.398015,296.63552 751.799489,296.63552 C752.875621,296.63552 754.008045,296.816958 755.196795,297.17984 C756.385546,297.542722 757.417866,298.174627 758.293787,299.075574 L754.577397,302.979661 Z M759.645202,306.208041 C759.645202,304.756514 759.907975,303.442652 760.433527,302.266415 C760.95908,301.090178 761.678576,300.082883 762.592037,299.244501 C763.505498,298.406119 764.581613,297.761701 765.820416,297.311228 C767.059219,296.860754 768.379338,296.63552 769.780812,296.63552 C771.182286,296.63552 772.502405,296.860754 773.741208,297.311228 C774.980011,297.761701 776.056127,298.406119 776.969587,299.244501 C777.883048,300.082883 778.602544,301.090178 779.128097,302.266415 C779.65365,303.442652 779.916422,304.756514 779.916422,306.208041 C779.916422,307.659568 779.65365,308.97343 779.128097,310.149667 C778.602544,311.325904 777.883048,312.333198 776.969587,313.17158 C776.056127,314.009962 774.980011,314.65438 773.741208,315.104854 C772.502405,315.555328 771.182286,315.780561 769.780812,315.780561 C768.379338,315.780561 767.059219,315.555328 765.820416,315.104854 C764.581613,314.65438 763.505498,314.009962 762.592037,313.17158 C761.678576,312.333198 760.95908,311.325904 760.433527,310.149667 C759.907975,308.97343 759.645202,307.659568 759.645202,306.208041 Z M765.276097,306.208041 C765.276097,307.584489 765.670255,308.698143 766.458584,309.549038 C767.246914,310.399933 768.354312,310.825374 769.780812,310.825374 C771.207313,310.825374 772.314711,310.399933 773.10304,309.549038 C773.891369,308.698143 774.285528,307.584489 774.285528,306.208041 C774.285528,304.831593 773.891369,303.717938 773.10304,302.867043 C772.314711,302.016148 771.207313,301.590707 769.780812,301.590707 C768.354312,301.590707 767.246914,302.016148 766.458584,302.867043 C765.670255,303.717938 765.276097,304.831593 765.276097,306.208041 Z M783.21988,297.085992 L788.625539,297.085992 L788.625539,299.563585 L788.700618,299.563585 C788.875802,299.213217 789.126061,298.862854 789.451403,298.512485 C789.776746,298.162117 790.164648,297.849292 790.615122,297.574003 C791.065595,297.298713 791.578627,297.07348 792.154233,296.898295 C792.729838,296.723111 793.355487,296.63552 794.031198,296.63552 C795.30754,296.63552 796.439964,296.898293 797.428504,297.423845 C798.417044,297.949398 799.161566,298.775254 799.662092,299.901439 C800.312776,298.725202 801.101094,297.886833 802.027068,297.386306 C802.953042,296.88578 804.091722,296.63552 805.443144,296.63552 C806.669434,296.63552 807.701754,296.841984 808.540136,297.254919 C809.378517,297.667853 810.041705,298.230937 810.529718,298.944187 C811.017732,299.657437 811.368095,300.495806 811.580819,301.45932 C811.793542,302.422833 811.899903,303.455154 811.899903,304.556312 L811.899903,315.33009 L806.269008,315.33009 L806.269008,304.706469 C806.269008,303.855574 806.08757,303.123565 805.724688,302.51042 C805.361807,301.897275 804.717389,301.590707 803.791415,301.590707 C803.14073,301.590707 802.596416,301.697068 802.158455,301.909791 C801.720495,302.122515 801.370131,302.41657 801.107355,302.791965 C800.844579,303.16736 800.656884,303.605314 800.544266,304.10584 C800.431647,304.606367 800.375339,305.131912 800.375339,305.682491 L800.375339,315.33009 L794.744444,315.33009 L794.744444,305.682491 C794.744444,305.357148 794.731931,304.956733 794.706905,304.481233 C794.681879,304.005733 794.594288,303.555266 794.44413,303.129818 C794.293972,302.704371 794.049969,302.341495 793.712114,302.041179 C793.374258,301.740863 792.879996,301.590707 792.229311,301.590707 C791.503548,301.590707 790.915438,301.722094 790.464964,301.98487 C790.014491,302.247646 789.670384,302.59801 789.432634,303.03597 C789.194884,303.473931 789.038472,303.968193 788.963393,304.518772 C788.888314,305.069352 788.850775,305.644948 788.850775,306.24558 L788.850775,315.33009 L783.21988,315.33009 L783.21988,297.085992 Z" id="hello@diverseawarene"></path>
                    </g>
                </g>
            </g>
        </g>
    </g>
</svg>