<?xml version="1.0" encoding="UTF-8"?>
<svg width="370px" height="229px" viewBox="0 0 370 229" version="1.1" xmlns="http://www.w3.org/2000/svg" xmlns:xlink="http://www.w3.org/1999/xlink">
    <!-- Generator: Sketch 50.2 (55047) - http://www.bohemiancoding.com/sketch -->
    <title>Group 14</title>
    <desc>Created with Sketch.</desc>
    <defs></defs>
    <g id="Page-1" stroke="none" stroke-width="1" fill="none" fill-rule="evenodd">
        <g id="1170---Adidas" transform="translate(-696.000000, -433.000000)">
            <g id="Group-14" transform="translate(672.000000, 433.000000)">
                <g id="Group-8" transform="translate(24.000000, 0.000000)" fill="#FFFFFF">
                    <g id="-updated-copy">
                        <g id="Group-12">
                            <g id="Group-13">
                                <path d="M11.662,190.494 C5.202,190.494 0,185.768 0,178.73 C0,171.692 5.202,167 11.662,167 C15.674,167 18.462,168.768 20.468,171.25 L18.224,172.644 C16.796,170.808 14.382,169.516 11.662,169.516 C6.698,169.516 2.924,173.324 2.924,178.73 C2.924,184.102 6.698,187.978 11.662,187.978 C14.382,187.978 16.626,186.652 17.748,185.53 L17.748,180.906 L9.962,180.906 L9.962,178.39 L20.57,178.39 L20.57,186.584 C18.462,188.93 15.368,190.494 11.662,190.494 Z M53.7710007,190.052 L50.4390007,190.052 L44.6590007,181.042 L40.1370007,181.042 L40.1370007,190.052 L37.3150007,190.052 L37.3150007,167.374 L46.4270007,167.374 C50.5750007,167.374 53.5330007,170.026 53.5330007,174.208 C53.5330007,178.288 50.7450007,180.532 47.6510007,180.804 L53.7710007,190.052 Z M46.0870007,178.56 C48.7730007,178.56 50.6090007,176.758 50.6090007,174.208 C50.6090007,171.658 48.7730007,169.89 46.0870007,169.89 L40.1370007,169.89 L40.1370007,178.56 L46.0870007,178.56 Z M80.4780014,190.46 C73.7460014,190.46 69.2240014,185.428 69.2240014,178.73 C69.2240014,172.032 73.7460014,167 80.4780014,167 C87.1760014,167 91.7320014,172.032 91.7320014,178.73 C91.7320014,185.428 87.1760014,190.46 80.4780014,190.46 Z M80.4780014,187.944 C85.5440014,187.944 88.8080014,184 88.8080014,178.73 C88.8080014,173.426 85.5440014,169.516 80.4780014,169.516 C75.3780014,169.516 72.1480014,173.426 72.1480014,178.73 C72.1480014,184 75.3780014,187.944 80.4780014,187.944 Z M128.027002,190.052 L124.967002,190.052 L119.969002,171.76 L114.971002,190.052 L111.911002,190.052 L105.451002,167.374 L108.579002,167.374 L113.611002,186.278 L118.813002,167.374 L121.159002,167.374 L126.361002,186.278 L131.359002,167.374 L134.487002,167.374 L128.027002,190.052 Z M157.148003,190.46 C153.204003,190.46 150.314003,188.964 148.444003,186.856 L150.110003,184.714 C151.606003,186.38 154.054003,187.944 157.250003,187.944 C161.296003,187.944 162.588003,185.768 162.588003,184.034 C162.588003,181.314 159.834003,180.566 156.842003,179.75 C153.204003,178.798 149.158003,177.778 149.158003,173.324 C149.158003,169.584 152.490003,167.034 156.944003,167.034 C160.412003,167.034 163.098003,168.19 165.002003,170.196 L163.302003,172.27 C161.602003,170.4 159.222003,169.55 156.740003,169.55 C154.020003,169.55 152.082003,171.012 152.082003,173.154 C152.082003,175.432 154.700003,176.112 157.590003,176.894 C161.296003,177.88 165.512003,179.036 165.512003,183.796 C165.512003,187.094 163.268003,190.46 157.148003,190.46 Z M192.219003,190.46 C185.487003,190.46 180.965003,185.428 180.965003,178.73 C180.965003,172.032 185.487003,167 192.219003,167 C198.917003,167 203.473003,172.032 203.473003,178.73 C203.473003,182.096 202.317003,185.02 200.345003,187.094 L202.521003,189.406 L200.549003,191.106 L198.339003,188.76 C196.639003,189.848 194.565003,190.46 192.219003,190.46 Z M192.219003,187.944 C193.851003,187.944 195.313003,187.536 196.537003,186.788 L193.307003,183.286 L195.279003,181.62 L198.475003,185.088 C199.801003,183.456 200.549003,181.246 200.549003,178.73 C200.549003,173.426 197.285003,169.516 192.219003,169.516 C187.119003,169.516 183.889003,173.426 183.889003,178.73 C183.889003,184 187.119003,187.944 192.219003,187.944 Z M229.296004,190.46 C223.142004,190.46 220.048004,186.822 220.048004,181.246 L220.048004,167.374 L222.870004,167.374 L222.870004,181.178 C222.870004,185.326 225.114004,187.944 229.296004,187.944 C233.478004,187.944 235.722004,185.326 235.722004,181.178 L235.722004,167.374 L238.544004,167.374 L238.544004,181.212 C238.544004,186.856 235.450004,190.46 229.296004,190.46 Z M274.533005,190.052 L271.303005,190.052 L269.297005,185.02 L258.009005,185.02 L256.003005,190.052 L252.773005,190.052 L261.885005,167.374 L265.387005,167.374 L274.533005,190.052 Z M268.447005,182.504 L263.653005,170.298 L258.825005,182.504 L268.447005,182.504 Z M306.102005,190.052 L302.770005,190.052 L296.990005,181.042 L292.468005,181.042 L292.468005,190.052 L289.646005,190.052 L289.646005,167.374 L298.758005,167.374 C302.906005,167.374 305.864005,170.026 305.864005,174.208 C305.864005,178.288 303.076005,180.532 299.982005,180.804 L306.102005,190.052 Z M298.418005,178.56 C301.104005,178.56 302.940005,176.758 302.940005,174.208 C302.940005,171.658 301.104005,169.89 298.418005,169.89 L292.468005,169.89 L292.468005,178.56 L298.418005,178.56 Z M337.331006,190.052 L322.473006,190.052 L322.473006,167.374 L337.331006,167.374 L337.331006,169.89 L325.295006,169.89 L325.295006,177.2 L337.093006,177.2 L337.093006,179.716 L325.295006,179.716 L325.295006,187.536 L337.331006,187.536 L337.331006,190.052 Z M361.318007,190.46 C357.374007,190.46 354.484007,188.964 352.614007,186.856 L354.280007,184.714 C355.776007,186.38 358.224007,187.944 361.420007,187.944 C365.466007,187.944 366.758007,185.768 366.758007,184.034 C366.758007,181.314 364.004007,180.566 361.012007,179.75 C357.374007,178.798 353.328007,177.778 353.328007,173.324 C353.328007,169.584 356.660007,167.034 361.114007,167.034 C364.582007,167.034 367.268007,168.19 369.172007,170.196 L367.472007,172.27 C365.772007,170.4 363.392007,169.55 360.910007,169.55 C358.190007,169.55 356.252007,171.012 356.252007,173.154 C356.252007,175.432 358.870007,176.112 361.760007,176.894 C365.466007,177.88 369.682007,179.036 369.682007,183.796 C369.682007,187.094 367.438007,190.46 361.318007,190.46 Z" id="GROWSQUARES"></path>
                                <g id="Group-5-Copy-2" transform="translate(125.000000, 0.000000)">
                                    <g id="Group-3-Copy-2">
                                        <path d="M65.8,0 L86,0 C87.1045695,-2.16501571e-15 88,0.8954305 88,2 L88,22.2 C88,23.3045695 87.1045695,24.2 86,24.2 L65.8,24.2 C64.6954305,24.2 63.8,23.3045695 63.8,22.2 L63.8,2 C63.8,0.8954305 64.6954305,2.02906125e-16 65.8,0 Z" id="Rectangle-36-Copy-15"></path>
                                        <path d="M96.8,63.8 L117,63.8 C118.104569,63.8 119,64.6954305 119,65.8 L119,86 C119,87.1045695 118.104569,88 117,88 L96.8,88 C95.6954305,88 94.8,87.1045695 94.8,86 L94.8,65.8 C94.8,64.6954305 95.6954305,63.8 96.8,63.8 Z" id="Rectangle-36-Copy-16"></path>
                                        <path d="M65.8,96.8 L86,96.8 C87.1045695,96.8 88,97.6954305 88,98.8 L88,119 C88,120.104569 87.1045695,121 86,121 L65.8,121 C64.6954305,121 63.8,120.104569 63.8,119 L63.8,98.8 C63.8,97.6954305 64.6954305,96.8 65.8,96.8 Z" id="Rectangle-36-Copy-17"></path>
                                        <path d="M35,0 L55.2,-4.4408921e-16 C56.3045695,-2.60910492e-15 57.2,0.8954305 57.2,2 L57.2,22.2 C57.2,23.3045695 56.3045695,24.2 55.2,24.2 L35,24.2 C33.8954305,24.2 33,23.3045695 33,22.2 L33,2 C33,0.8954305 33.8954305,2.02906125e-16 35,0 Z" id="Rectangle-36-Copy-18"></path>
                                        <path d="M65.8,63.8 L86,63.8 C87.1045695,63.8 88,64.6954305 88,65.8 L88,86 C88,87.1045695 87.1045695,88 86,88 L65.8,88 C64.6954305,88 63.8,87.1045695 63.8,86 L63.8,65.8 C63.8,64.6954305 64.6954305,63.8 65.8,63.8 Z" id="Rectangle-36-Copy-19"></path>
                                        <path d="M35,96.8 L55.2,96.8 C56.3045695,96.8 57.2,97.6954305 57.2,98.8 L57.2,119 C57.2,120.104569 56.3045695,121 55.2,121 L35,121 C33.8954305,121 33,120.104569 33,119 L33,98.8 C33,97.6954305 33.8954305,96.8 35,96.8 Z" id="Rectangle-36-Copy-20"></path>
                                        <path d="M2,33 L22.2,33 C23.3045695,33 24.2,33.8954305 24.2,35 L24.2,55.2 C24.2,56.3045695 23.3045695,57.2 22.2,57.2 L2,57.2 C0.8954305,57.2 1.13822108e-13,56.3045695 1.13686838e-13,55.2 L1.13686838e-13,35 C1.13551567e-13,33.8954305 0.8954305,33 2,33 Z" id="Rectangle-36-Copy-21"></path>
                                        <path d="M2,63.8 L22.2,63.8 C23.3045695,63.8 24.2,64.6954305 24.2,65.8 L24.2,86 C24.2,87.1045695 23.3045695,88 22.2,88 L2,88 C0.8954305,88 1.13822108e-13,87.1045695 1.13686838e-13,86 L1.13686838e-13,65.8 C1.13551567e-13,64.6954305 0.8954305,63.8 2,63.8 Z" id="Rectangle-36-Copy-22"></path>
                                    </g>
                                </g>
                            </g>
                        </g>
                    </g>
                </g>
                <g id="Group-8-Copy" transform="translate(0.000000, 165.000000)">
                    <g id="-updated-copy"></g>
                </g>
                <path d="M72.469,228.144 C70.297,228.144 69.205,226.86 69.205,224.892 L69.205,219.996 L70.201,219.996 L70.201,224.868 C70.201,226.332 70.993,227.256 72.469,227.256 C73.945,227.256 74.737,226.332 74.737,224.868 L74.737,219.996 L75.733,219.996 L75.733,224.88 C75.733,226.872 74.641,228.144 72.469,228.144 Z M87.703,228 L86.527,228 L84.487,224.82 L82.891,224.82 L82.891,228 L81.895,228 L81.895,219.996 L85.111,219.996 C86.575,219.996 87.619,220.932 87.619,222.408 C87.619,223.848 86.635,224.64 85.543,224.736 L87.703,228 Z M84.991,223.944 C85.939,223.944 86.587,223.308 86.587,222.408 C86.587,221.508 85.939,220.884 84.991,220.884 L82.891,220.884 L82.891,223.944 L84.991,223.944 Z M97.129,228 L93.481,228 L93.481,219.996 L97.045,219.996 C98.437,219.996 99.289,220.836 99.289,222.036 C99.289,223.044 98.617,223.716 97.885,223.872 C98.737,224.004 99.445,224.88 99.445,225.84 C99.445,227.124 98.593,228 97.129,228 Z M96.877,223.464 C97.777,223.464 98.257,222.912 98.257,222.18 C98.257,221.46 97.777,220.884 96.877,220.884 L94.477,220.884 L94.477,223.464 L96.877,223.464 Z M96.925,227.112 C97.861,227.112 98.413,226.584 98.413,225.732 C98.413,225 97.909,224.352 96.925,224.352 L94.477,224.352 L94.477,227.112 L96.925,227.112 Z M112.171,228 L111.031,228 L110.323,226.224 L106.339,226.224 L105.631,228 L104.491,228 L107.707,219.996 L108.943,219.996 L112.171,228 Z M110.023,225.336 L108.331,221.028 L106.627,225.336 L110.023,225.336 Z M124.129,228 L123.169,228 L118.501,221.616 L118.501,228 L117.505,228 L117.505,219.996 L118.525,219.996 L123.133,226.248 L123.133,219.996 L124.129,219.996 L124.129,228 Z M141.469,228.156 C139.189,228.156 137.353,226.488 137.353,224.004 C137.353,221.52 139.189,219.864 141.469,219.864 C142.885,219.864 143.869,220.488 144.577,221.364 L143.785,221.856 C143.281,221.208 142.429,220.752 141.469,220.752 C139.717,220.752 138.385,222.096 138.385,224.004 C138.385,225.9 139.717,227.268 141.469,227.268 C142.429,227.268 143.221,226.8 143.617,226.404 L143.617,224.772 L140.869,224.772 L140.869,223.884 L144.613,223.884 L144.613,226.776 C143.869,227.604 142.777,228.156 141.469,228.156 Z M157.339,228 L156.199,228 L155.491,226.224 L151.507,226.224 L150.799,228 L149.659,228 L152.875,219.996 L154.111,219.996 L157.339,228 Z M155.191,225.336 L153.499,221.028 L151.795,225.336 L155.191,225.336 Z M168.481,228 L167.305,228 L165.265,224.82 L163.669,224.82 L163.669,228 L162.673,228 L162.673,219.996 L165.889,219.996 C167.353,219.996 168.397,220.932 168.397,222.408 C168.397,223.848 167.413,224.64 166.321,224.736 L168.481,228 Z M165.769,223.944 C166.717,223.944 167.365,223.308 167.365,222.408 C167.365,221.508 166.717,220.884 165.769,220.884 L163.669,220.884 L163.669,223.944 L165.769,223.944 Z M176.995,228 L174.259,228 L174.259,219.996 L176.995,219.996 C179.479,219.996 181.099,221.736 181.099,224.004 C181.099,226.284 179.479,228 176.995,228 Z M176.995,227.112 C178.939,227.112 180.067,225.72 180.067,224.004 C180.067,222.276 178.975,220.884 176.995,220.884 L175.255,220.884 L175.255,227.112 L176.995,227.112 Z M192.193,228 L186.949,228 L186.949,219.996 L192.193,219.996 L192.193,220.884 L187.945,220.884 L187.945,223.464 L192.109,223.464 L192.109,224.352 L187.945,224.352 L187.945,227.112 L192.193,227.112 L192.193,228 Z M204.691,228 L203.731,228 L199.063,221.616 L199.063,228 L198.067,228 L198.067,219.996 L199.087,219.996 L203.695,226.248 L203.695,219.996 L204.691,219.996 L204.691,228 Z M211.849,228 L210.853,228 L210.853,219.996 L211.849,219.996 L211.849,228 Z M224.635,228 L223.675,228 L219.007,221.616 L219.007,228 L218.011,228 L218.011,219.996 L219.031,219.996 L223.639,226.248 L223.639,219.996 L224.635,219.996 L224.635,228 Z M234.589,228.156 C232.309,228.156 230.473,226.488 230.473,224.004 C230.473,221.52 232.309,219.864 234.589,219.864 C236.005,219.864 236.989,220.488 237.697,221.364 L236.905,221.856 C236.401,221.208 235.549,220.752 234.589,220.752 C232.837,220.752 231.505,222.096 231.505,224.004 C231.505,225.9 232.837,227.268 234.589,227.268 C235.549,227.268 236.341,226.8 236.737,226.404 L236.737,224.772 L233.989,224.772 L233.989,223.884 L237.733,223.884 L237.733,226.776 C236.989,227.604 235.897,228.156 234.589,228.156 Z M258.865,228 L257.869,228 L257.869,221.412 L255.145,228 L254.737,228 L252.025,221.412 L252.025,228 L251.029,228 L251.029,219.996 L252.457,219.996 L254.941,226.02 L257.437,219.996 L258.865,219.996 L258.865,228 Z M271.879,228 L270.739,228 L270.031,226.224 L266.047,226.224 L265.339,228 L264.199,228 L267.415,219.996 L268.651,219.996 L271.879,228 Z M269.731,225.336 L268.039,221.028 L266.335,225.336 L269.731,225.336 Z M279.949,228 L277.213,228 L277.213,219.996 L279.949,219.996 C282.433,219.996 284.053,221.736 284.053,224.004 C284.053,226.284 282.433,228 279.949,228 Z M279.949,227.112 C281.893,227.112 283.021,225.72 283.021,224.004 C283.021,222.276 281.929,220.884 279.949,220.884 L278.209,220.884 L278.209,227.112 L279.949,227.112 Z M295.147,228 L289.903,228 L289.903,219.996 L295.147,219.996 L295.147,220.884 L290.899,220.884 L290.899,223.464 L295.063,223.464 L295.063,224.352 L290.899,224.352 L290.899,227.112 L295.147,227.112 L295.147,228 Z M313.651,228 L308.407,228 L308.407,219.996 L313.651,219.996 L313.651,220.884 L309.403,220.884 L309.403,223.464 L313.567,223.464 L313.567,224.352 L309.403,224.352 L309.403,227.112 L313.651,227.112 L313.651,228 Z M326.377,228 L325.237,228 L324.529,226.224 L320.545,226.224 L319.837,228 L318.697,228 L321.913,219.996 L323.149,219.996 L326.377,228 Z M324.229,225.336 L322.537,221.028 L320.833,225.336 L324.229,225.336 Z M334.135,228.144 C332.743,228.144 331.723,227.616 331.063,226.872 L331.651,226.116 C332.179,226.704 333.043,227.256 334.171,227.256 C335.599,227.256 336.055,226.488 336.055,225.876 C336.055,224.916 335.083,224.652 334.027,224.364 C332.743,224.028 331.315,223.668 331.315,222.096 C331.315,220.776 332.491,219.876 334.063,219.876 C335.287,219.876 336.235,220.284 336.907,220.992 L336.307,221.724 C335.707,221.064 334.867,220.764 333.991,220.764 C333.031,220.764 332.347,221.28 332.347,222.036 C332.347,222.84 333.271,223.08 334.291,223.356 C335.599,223.704 337.087,224.112 337.087,225.792 C337.087,226.956 336.295,228.144 334.135,228.144 Z M346.189,228 L345.193,228 L345.193,224.616 L342.037,219.996 L343.201,219.996 L345.685,223.716 L348.169,219.996 L349.333,219.996 L346.189,224.616 L346.189,228 Z" id="URBAN-GARDENING-MADE" fill="#FFFFFF"></path>
            </g>
        </g>
    </g>
</svg>