<?xml version="1.0" encoding="UTF-8"?>
<svg width="273px" height="188px" viewBox="0 0 273 188" version="1.1" xmlns="http://www.w3.org/2000/svg" xmlns:xlink="http://www.w3.org/1999/xlink">
    <!-- Generator: Sketch 52.3 (67297) - http://www.bohemiancoding.com/sketch -->
    <title>Large_center_icon (1)</title>
    <desc>Created with Sketch.</desc>
    <g id="Page-1" stroke="none" stroke-width="1" fill="none" fill-rule="evenodd">
        <g id="1170---Move" transform="translate(-1050.000000, -423.000000)" fill="#FFFFFF">
            <g id="Large_center_icon-(1)" transform="translate(1050.000000, 427.000000)">
                <g id="Group-3">
                    <path d="M92.2669986,151 L92.2669986,128.322 L88.2209986,128.322 L81.1829986,145.798 L74.1109986,128.322 L70.0649986,128.322 L70.0649986,151 L72.8869986,151 L72.8869986,131.926 L80.6049986,151 L81.7609986,151 L89.4449986,131.926 L89.4449986,151 L92.2669986,151 Z M120.061999,151.408 C113.363999,151.408 108.807999,146.376 108.807999,139.678 C108.807999,132.98 113.363999,127.948 120.061999,127.948 C126.759999,127.948 131.349999,132.98 131.349999,139.678 C131.349999,146.376 126.759999,151.408 120.061999,151.408 Z M120.061999,148.892 C125.127999,148.892 128.425999,144.948 128.425999,139.678 C128.425999,134.374 125.127999,130.464 120.061999,130.464 C114.961999,130.464 111.731999,134.374 111.731999,139.678 C111.731999,144.948 114.961999,148.892 120.061999,148.892 Z M157.513,151 L166.625,128.322 L163.395,128.322 L155.745,147.906 L148.095,128.322 L144.865,128.322 L154.011,151 L157.513,151 Z M196.596001,151 L196.596001,148.484 L184.560001,148.484 L184.560001,140.664 L196.358001,140.664 L196.358001,138.148 L184.560001,138.148 L184.560001,130.838 L196.596001,130.838 L196.596001,128.322 L181.738001,128.322 L181.738001,151 L196.596001,151 Z" id="MOVE-Copy" fill-rule="nonzero"></path>
                    <path d="M5.01200046,183.156 C6.32000046,183.156 7.41200046,182.604 8.15600046,181.764 L8.15600046,178.884 L4.41200046,178.884 L4.41200046,179.772 L7.17200046,179.772 L7.17200046,181.392 C6.76400046,181.8 5.97200046,182.256 5.01200046,182.256 C3.26000046,182.256 1.92800046,180.9 1.92800046,179.004 C1.92800046,177.084 3.26000046,175.752 5.01200046,175.752 C5.97200046,175.752 6.82400046,176.208 7.32800046,176.856 L8.12000046,176.352 C7.42400046,175.488 6.44000046,174.864 5.01200046,174.864 C2.73200046,174.864 0.896000458,176.508 0.896000458,179.004 C0.896000458,181.488 2.73200046,183.156 5.01200046,183.156 Z M19.3100004,183 L19.3100004,182.112 L15.0620004,182.112 L15.0620004,179.352 L19.2260004,179.352 L19.2260004,178.464 L15.0620004,178.464 L15.0620004,175.884 L19.3100004,175.884 L19.3100004,174.996 L14.0660004,174.996 L14.0660004,183 L19.3100004,183 Z M28.1600004,183 L28.1600004,175.884 L30.7040004,175.884 L30.7040004,174.996 L24.6320004,174.996 L24.6320004,175.884 L27.1640004,175.884 L27.1640004,183 L28.1600004,183 Z M51.5480003,183 L51.5480003,174.996 L50.1200003,174.996 L47.6360003,181.164 L45.1400003,174.996 L43.7120003,174.996 L43.7120003,183 L44.7080003,183 L44.7080003,176.268 L47.4320003,183 L47.8400003,183 L50.5520003,176.268 L50.5520003,183 L51.5480003,183 Z M61.3580003,183.144 C58.9940003,183.144 57.3860003,181.368 57.3860003,179.004 C57.3860003,176.64 58.9940003,174.864 61.3580003,174.864 C63.7220003,174.864 65.3420003,176.64 65.3420003,179.004 C65.3420003,181.368 63.7220003,183.144 61.3580003,183.144 Z M61.3580003,182.256 C63.1460003,182.256 64.3100003,180.864 64.3100003,179.004 C64.3100003,177.132 63.1460003,175.752 61.3580003,175.752 C59.5580003,175.752 58.4180003,177.132 58.4180003,179.004 C58.4180003,180.864 59.5580003,182.256 61.3580003,182.256 Z M74.5760002,183 L77.7920002,174.996 L76.6520002,174.996 L73.9520002,181.908 L71.2520002,174.996 L70.1120002,174.996 L73.3400002,183 L74.5760002,183 Z M84.1220002,183 L84.1220002,174.996 L83.1260002,174.996 L83.1260002,183 L84.1220002,183 Z M96.9080002,183 L96.9080002,174.996 L95.9120002,174.996 L95.9120002,181.248 L91.3040002,174.996 L90.2840002,174.996 L90.2840002,183 L91.2800002,183 L91.2800002,176.616 L95.9480002,183 L96.9080002,183 Z M106.862,183.156 C108.17,183.156 109.262,182.604 110.006,181.764 L110.006,178.884 L106.262,178.884 L106.262,179.772 L109.022,179.772 L109.022,181.392 C108.614,181.8 107.822,182.256 106.862,182.256 C105.11,182.256 103.778,180.9 103.778,179.004 C103.778,177.084 105.11,175.752 106.862,175.752 C107.822,175.752 108.674,176.208 109.178,176.856 L109.97,176.352 C109.274,175.488 108.29,174.864 106.862,174.864 C104.582,174.864 102.746,176.508 102.746,179.004 C102.746,181.488 104.582,183.156 106.862,183.156 Z M130.514,183 L132.806,174.996 L131.69,174.996 L129.926,181.668 L128.09,174.996 L127.262,174.996 L125.426,181.668 L123.65,174.996 L122.546,174.996 L124.826,183 L125.906,183 L127.67,176.544 L129.434,183 L130.514,183 Z M144.872,183 L144.872,174.996 L143.876,174.996 L143.876,178.44 L139.196,178.44 L139.196,174.996 L138.2,174.996 L138.2,183 L139.196,183 L139.196,179.328 L143.876,179.328 L143.876,183 L144.872,183 Z M156.278,183 L156.278,182.112 L152.03,182.112 L152.03,179.352 L156.194,179.352 L156.194,178.464 L152.03,178.464 L152.03,175.884 L156.278,175.884 L156.278,174.996 L151.034,174.996 L151.034,183 L156.278,183 Z M168.776,183 L168.776,174.996 L167.78,174.996 L167.78,181.248 L163.172,174.996 L162.152,174.996 L162.152,183 L163.148,183 L163.148,176.616 L167.816,183 L168.776,183 Z M185.66,183 L185.66,179.616 L188.804,174.996 L187.64,174.996 L185.156,178.716 L182.672,174.996 L181.508,174.996 L184.664,179.616 L184.664,183 L185.66,183 Z M197.306,183.144 C194.942,183.144 193.334,181.368 193.334,179.004 C193.334,176.64 194.942,174.864 197.306,174.864 C199.67,174.864 201.29,176.64 201.29,179.004 C201.29,181.368 199.67,183.144 197.306,183.144 Z M197.306,182.256 C199.094,182.256 200.258,180.864 200.258,179.004 C200.258,177.132 199.094,175.752 197.306,175.752 C195.506,175.752 194.366,177.132 194.366,179.004 C194.366,180.864 195.506,182.256 197.306,182.256 Z M210.392,183.144 C212.564,183.144 213.668,181.872 213.668,179.88 L213.668,174.996 L212.66,174.996 L212.66,179.868 C212.66,181.332 211.868,182.256 210.392,182.256 C208.916,182.256 208.136,181.332 208.136,179.868 L208.136,174.996 L207.128,174.996 L207.128,179.892 C207.128,181.86 208.232,183.144 210.392,183.144 Z M234.428,183 L236.72,174.996 L235.604,174.996 L233.84,181.668 L232.004,174.996 L231.176,174.996 L229.34,181.668 L227.564,174.996 L226.46,174.996 L228.74,183 L229.82,183 L231.584,176.544 L233.348,183 L234.428,183 Z M248.402,183 L247.262,183 L246.554,181.212 L242.57,181.212 L241.862,183 L240.722,183 L243.95,174.996 L245.186,174.996 L248.402,183 Z M246.266,180.336 L244.562,176.016 L242.87,180.336 L246.266,180.336 Z M260.36,183 L260.36,174.996 L259.364,174.996 L259.364,181.248 L254.756,174.996 L253.736,174.996 L253.736,183 L254.732,183 L254.732,176.616 L259.4,183 L260.36,183 Z M269.498,183 L269.498,175.884 L272.042,175.884 L272.042,174.996 L265.97,174.996 L265.97,175.884 L268.502,175.884 L268.502,183 L269.498,183 Z" id="GET-MOVING-WHEN-YOU-Copy" fill-rule="nonzero"></path>
                    <g id="Group-2" transform="translate(76.000000, -4.000000)">
                        <path d="M79.4543927,11.5139411 L68.0064224,11.5139411 C64.8265591,11.5139411 61.3242015,13.9370047 60.2029847,16.9259888 L43.5823905,61.2329432 C42.4611737,64.2219273 44.1360635,66.643836 47.325174,66.643836 L58.7731443,66.643836 C61.9530076,66.643836 65.4553653,64.2207724 66.5765821,61.2329432 L83.1971762,16.9259888 C84.318393,13.9358497 82.6423473,11.5139411 79.4543927,11.5139411" id="Fill-4"></path>
                        <path d="M118.828753,-7.46069873e-13 L107.380782,-7.46069873e-13 C104.200919,-7.46069873e-13 100.722835,2.42883834 99.6328273,5.4247521 L71.7203086,82.0815695 C70.6303009,85.0740186 72.3294645,87.5063217 75.5174191,87.5063217 L86.965389,87.5063217 C90.1452528,87.5063217 93.6221804,85.0774836 94.7133439,82.0815695 L122.625863,5.4247521 C123.715871,2.43114821 122.016707,-7.46069873e-13 118.828753,-7.46069873e-13" id="Fill-6"></path>
                        <path d="M35.9908281,-7.46069873e-13 C32.8109648,-7.46069873e-13 29.3328809,2.42883834 28.2428732,5.4247521 L0.330354393,82.0815695 C-0.759653279,85.0740186 0.939510323,87.5063217 4.1274649,87.5063217 L15.5754352,87.5063217 C18.7552985,87.5063217 22.2322265,85.0774836 23.32339,82.0815695 L51.2359089,5.4247521 C52.3259166,2.43114821 50.6267529,-7.46069873e-13 47.4387984,-7.46069873e-13 L35.9908281,-7.46069873e-13 Z" id="Fill-1"></path>
                    </g>
                </g>
            </g>
        </g>
    </g>
</svg>